%TF.GenerationSoftware,KiCad,Pcbnew,10.0.3*%
%TF.CreationDate,2026-06-22T11:34:40+02:00*%
%TF.ProjectId,presstimer,70726573-7374-4696-9d65-722e6b696361,rev?*%
%TF.SameCoordinates,Original*%
%TF.FileFunction,Copper,L3,Inr*%
%TF.FilePolarity,Positive*%
%FSLAX46Y46*%
G04 Gerber Fmt 4.6, Leading zero omitted, Abs format (unit mm)*
G04 Created by KiCad (PCBNEW 10.0.3) date 2026-06-22 11:34:40*
%MOMM*%
%LPD*%
G01*
G04 APERTURE LIST*
G04 Aperture macros list*
%AMRoundRect*
0 Rectangle with rounded corners*
0 $1 Rounding radius*
0 $2 $3 $4 $5 $6 $7 $8 $9 X,Y pos of 4 corners*
0 Add a 4 corners polygon primitive as box body*
4,1,4,$2,$3,$4,$5,$6,$7,$8,$9,$2,$3,0*
0 Add four circle primitives for the rounded corners*
1,1,$1+$1,$2,$3*
1,1,$1+$1,$4,$5*
1,1,$1+$1,$6,$7*
1,1,$1+$1,$8,$9*
0 Add four rect primitives between the rounded corners*
20,1,$1+$1,$2,$3,$4,$5,0*
20,1,$1+$1,$4,$5,$6,$7,0*
20,1,$1+$1,$6,$7,$8,$9,0*
20,1,$1+$1,$8,$9,$2,$3,0*%
G04 Aperture macros list end*
%TA.AperFunction,ComponentPad*%
%ADD10C,1.800000*%
%TD*%
%TA.AperFunction,ComponentPad*%
%ADD11R,1.800000X1.800000*%
%TD*%
%TA.AperFunction,ComponentPad*%
%ADD12R,2.200000X1.800000*%
%TD*%
%TA.AperFunction,ComponentPad*%
%ADD13C,1.500000*%
%TD*%
%TA.AperFunction,ComponentPad*%
%ADD14R,1.500000X1.500000*%
%TD*%
%TA.AperFunction,ComponentPad*%
%ADD15R,1.700000X1.700000*%
%TD*%
%TA.AperFunction,ComponentPad*%
%ADD16C,1.700000*%
%TD*%
%TA.AperFunction,ComponentPad*%
%ADD17RoundRect,0.250000X-0.550000X-0.550000X0.550000X-0.550000X0.550000X0.550000X-0.550000X0.550000X0*%
%TD*%
%TA.AperFunction,ComponentPad*%
%ADD18C,1.600000*%
%TD*%
%TA.AperFunction,ComponentPad*%
%ADD19C,2.400000*%
%TD*%
%TA.AperFunction,ComponentPad*%
%ADD20RoundRect,0.250000X0.550000X-0.550000X0.550000X0.550000X-0.550000X0.550000X-0.550000X-0.550000X0*%
%TD*%
%TA.AperFunction,ComponentPad*%
%ADD21O,2.100000X1.300000*%
%TD*%
%TA.AperFunction,ComponentPad*%
%ADD22O,2.300000X1.300000*%
%TD*%
%TA.AperFunction,ComponentPad*%
%ADD23C,0.500000*%
%TD*%
%TA.AperFunction,ComponentPad*%
%ADD24O,1.300000X2.300000*%
%TD*%
%TA.AperFunction,ComponentPad*%
%ADD25O,1.300000X2.100000*%
%TD*%
%TA.AperFunction,ViaPad*%
%ADD26C,0.450000*%
%TD*%
G04 APERTURE END LIST*
D10*
%TO.N,Net-(J10-Pin_2)*%
%TO.C,J10*%
X130500000Y-147600000D03*
D11*
%TO.N,Net-(J10-Pin_1)*%
X125500000Y-147600000D03*
%TD*%
D12*
%TO.N,Net-(J10-Pin_2)*%
%TO.C,U5*%
X130496022Y-134486900D03*
%TO.N,Net-(J10-Pin_1)*%
X125456022Y-134486900D03*
D13*
%TO.N,Net-(Q10-C)*%
X109076022Y-134486900D03*
D14*
%TO.N,+5V*%
X105296022Y-134486900D03*
%TD*%
D15*
%TO.N,+3V3*%
%TO.C,J5*%
X174880000Y-83000000D03*
D16*
%TO.N,GND*%
X172340000Y-83000000D03*
%TO.N,I2C_SDA*%
X169800000Y-83000000D03*
%TO.N,I2C_SCL*%
X167260000Y-83000000D03*
%TO.N,I2C_INT*%
X164720000Y-83000000D03*
%TO.N,I2C_RST*%
X162180000Y-83000000D03*
%TD*%
D11*
%TO.N,+5V*%
%TO.C,J2*%
X102500000Y-117400000D03*
D10*
%TO.N,Net-(J2-Pin_2)*%
X102500000Y-122400000D03*
%TO.N,GND*%
X102500000Y-127400000D03*
%TD*%
D17*
%TO.N,Net-(R27-Pad2)*%
%TO.C,U4*%
X148300278Y-124600000D03*
D18*
%TO.N,Net-(J9-Pin_2)*%
X148300278Y-127140000D03*
%TO.N,GND*%
X155920278Y-127140000D03*
%TO.N,SENSE_VALVE*%
X155920278Y-124600000D03*
%TD*%
D19*
%TO.N,Net-(J8-Pin_1)*%
%TO.C,R22*%
X180250000Y-146650000D03*
%TO.N,Net-(R22-Pad2)*%
X165010000Y-146650000D03*
%TD*%
D11*
%TO.N,Net-(J1-Pin_1)*%
%TO.C,J1*%
X114200000Y-84500000D03*
D10*
%TO.N,GND*%
X109200000Y-84500000D03*
%TD*%
D15*
%TO.N,UART_TX*%
%TO.C,J6*%
X166580000Y-119800000D03*
D16*
%TO.N,UART_RX*%
X169120000Y-119800000D03*
%TO.N,UART_RTS*%
X171660000Y-119800000D03*
%TO.N,UART_CTS*%
X174200000Y-119800000D03*
%TO.N,+3V3*%
X176740000Y-119800000D03*
%TO.N,GND*%
X179280000Y-119800000D03*
%TD*%
D19*
%TO.N,Net-(J9-Pin_1)*%
%TO.C,R27*%
X142505278Y-140100000D03*
%TO.N,Net-(R27-Pad2)*%
X142505278Y-124860000D03*
%TD*%
D20*
%TO.N,Net-(R22-Pad2)*%
%TO.C,U3*%
X165000000Y-140855000D03*
D18*
%TO.N,Net-(J8-Pin_2)*%
X167540000Y-140855000D03*
%TO.N,GND*%
X167540000Y-133235000D03*
%TO.N,SENSE_RELAIS*%
X165000000Y-133235000D03*
%TD*%
D11*
%TO.N,Net-(J8-Pin_1)*%
%TO.C,J8*%
X188000000Y-146700000D03*
D10*
%TO.N,Net-(J8-Pin_2)*%
X188000000Y-141700000D03*
%TD*%
D16*
%TO.N,+3V3*%
%TO.C,Q5*%
X118180000Y-115125000D03*
%TO.N,GND*%
X120720000Y-115125000D03*
%TO.N,D_CS*%
X123260000Y-115125000D03*
%TO.N,D_RST*%
X125800000Y-115125000D03*
%TO.N,D_DC*%
X128340000Y-115125000D03*
%TO.N,D_SDI_T_DIN*%
X130880000Y-115125000D03*
%TO.N,D_SCK_T_CLK*%
X133420000Y-115125000D03*
%TO.N,Net-(Q5-LED)*%
X135960000Y-115125000D03*
%TO.N,unconnected-(Q5-SDO-Pad6)*%
X138500000Y-115125000D03*
%TO.N,D_SCK_T_CLK*%
X141040000Y-115125000D03*
%TO.N,D_T_CS*%
X143580000Y-115125000D03*
%TO.N,D_SDI_T_DIN*%
X146120000Y-115125000D03*
%TO.N,D_T_DO*%
X148660000Y-115125000D03*
D15*
%TO.N,D_T_IRQ*%
X151200000Y-115125000D03*
%TD*%
D21*
%TO.N,GND*%
%TO.C,J3*%
X101620000Y-109380000D03*
D22*
X105820000Y-109380000D03*
D23*
X101000000Y-107050000D03*
X103000000Y-107050000D03*
X101000000Y-103050000D03*
X103000000Y-103050000D03*
D21*
X101620000Y-100720000D03*
D22*
X105820000Y-100720000D03*
%TD*%
D11*
%TO.N,Net-(J9-Pin_1)*%
%TO.C,J9*%
X142455278Y-147600000D03*
D10*
%TO.N,Net-(J9-Pin_2)*%
X147455278Y-147600000D03*
%TD*%
D24*
%TO.N,GND*%
%TO.C,J11*%
X188955000Y-86820000D03*
D25*
X188955000Y-82620000D03*
D23*
X186625000Y-84000000D03*
X186625000Y-82000000D03*
X182625000Y-84000000D03*
X182625000Y-82000000D03*
D24*
X180295000Y-86820000D03*
D25*
X180295000Y-82620000D03*
%TD*%
D26*
%TO.N,RTS*%
X168500000Y-102000000D03*
X170900000Y-102000000D03*
%TO.N,DTR*%
X169375000Y-105800000D03*
X169600000Y-108500000D03*
%TO.N,Net-(J11-CC1)*%
X187900000Y-92300000D03*
X186100000Y-91000000D03*
%TO.N,USB2_DP*%
X173273398Y-111800011D03*
%TO.N,USB2_DN*%
X173923400Y-111800000D03*
%TO.N,USB2_DP*%
X175119059Y-100919059D03*
%TO.N,USB2_DN*%
X175580941Y-101380941D03*
%TD*%
%TA.AperFunction,Conductor*%
%TO.N,GND*%
G36*
X191442539Y-80520185D02*
G01*
X191488294Y-80572989D01*
X191499500Y-80624500D01*
X191499500Y-151375500D01*
X191479815Y-151442539D01*
X191427011Y-151488294D01*
X191375500Y-151499500D01*
X99624500Y-151499500D01*
X99557461Y-151479815D01*
X99511706Y-151427011D01*
X99500500Y-151375500D01*
X99500500Y-146978711D01*
X102149500Y-146978711D01*
X102149500Y-147221288D01*
X102181161Y-147461785D01*
X102243947Y-147696104D01*
X102304518Y-147842335D01*
X102336776Y-147920212D01*
X102458064Y-148130289D01*
X102458066Y-148130292D01*
X102458067Y-148130293D01*
X102605733Y-148322736D01*
X102605739Y-148322743D01*
X102777256Y-148494260D01*
X102777263Y-148494266D01*
X102847124Y-148547872D01*
X102969711Y-148641936D01*
X103179788Y-148763224D01*
X103403900Y-148856054D01*
X103638211Y-148918838D01*
X103818586Y-148942584D01*
X103878711Y-148950500D01*
X103878712Y-148950500D01*
X104121289Y-148950500D01*
X104172234Y-148943793D01*
X104361789Y-148918838D01*
X104596100Y-148856054D01*
X104820212Y-148763224D01*
X105030289Y-148641936D01*
X105222738Y-148494265D01*
X105394265Y-148322738D01*
X105541936Y-148130289D01*
X105663224Y-147920212D01*
X105756054Y-147696100D01*
X105818838Y-147461789D01*
X105850500Y-147221288D01*
X105850500Y-146978712D01*
X105818838Y-146738211D01*
X105795774Y-146652135D01*
X124099500Y-146652135D01*
X124099500Y-148547870D01*
X124099501Y-148547876D01*
X124105908Y-148607483D01*
X124156202Y-148742328D01*
X124156206Y-148742335D01*
X124242452Y-148857544D01*
X124242455Y-148857547D01*
X124357664Y-148943793D01*
X124357671Y-148943797D01*
X124492517Y-148994091D01*
X124492516Y-148994091D01*
X124499444Y-148994835D01*
X124552127Y-149000500D01*
X126447872Y-149000499D01*
X126507483Y-148994091D01*
X126642331Y-148943796D01*
X126757546Y-148857546D01*
X126843796Y-148742331D01*
X126894091Y-148607483D01*
X126900500Y-148547873D01*
X126900499Y-147489778D01*
X129099500Y-147489778D01*
X129099500Y-147710221D01*
X129133985Y-147927952D01*
X129202103Y-148137603D01*
X129202104Y-148137606D01*
X129249330Y-148230289D01*
X129296435Y-148322738D01*
X129302187Y-148334025D01*
X129431752Y-148512358D01*
X129431756Y-148512363D01*
X129587636Y-148668243D01*
X129587641Y-148668247D01*
X129718367Y-148763224D01*
X129765978Y-148797815D01*
X129894345Y-148863222D01*
X129962393Y-148897895D01*
X129962396Y-148897896D01*
X130067221Y-148931955D01*
X130172049Y-148966015D01*
X130389778Y-149000500D01*
X130389779Y-149000500D01*
X130610221Y-149000500D01*
X130610222Y-149000500D01*
X130827951Y-148966015D01*
X131037606Y-148897895D01*
X131234022Y-148797815D01*
X131412365Y-148668242D01*
X131568242Y-148512365D01*
X131697815Y-148334022D01*
X131797895Y-148137606D01*
X131866015Y-147927951D01*
X131900500Y-147710222D01*
X131900500Y-147489778D01*
X131866015Y-147272049D01*
X131797895Y-147062394D01*
X131797895Y-147062393D01*
X131755256Y-146978711D01*
X131697815Y-146865978D01*
X131688943Y-146853767D01*
X131592986Y-146721691D01*
X131568247Y-146687641D01*
X131568243Y-146687636D01*
X131532742Y-146652135D01*
X141054778Y-146652135D01*
X141054778Y-148547870D01*
X141054779Y-148547876D01*
X141061186Y-148607483D01*
X141111480Y-148742328D01*
X141111484Y-148742335D01*
X141197730Y-148857544D01*
X141197733Y-148857547D01*
X141312942Y-148943793D01*
X141312949Y-148943797D01*
X141447795Y-148994091D01*
X141447794Y-148994091D01*
X141454722Y-148994835D01*
X141507405Y-149000500D01*
X143403150Y-149000499D01*
X143462761Y-148994091D01*
X143597609Y-148943796D01*
X143712824Y-148857546D01*
X143799074Y-148742331D01*
X143849369Y-148607483D01*
X143855778Y-148547873D01*
X143855777Y-147489778D01*
X146054778Y-147489778D01*
X146054778Y-147710221D01*
X146089263Y-147927952D01*
X146157381Y-148137603D01*
X146157382Y-148137606D01*
X146204608Y-148230289D01*
X146251713Y-148322738D01*
X146257465Y-148334025D01*
X146387030Y-148512358D01*
X146387034Y-148512363D01*
X146542914Y-148668243D01*
X146542919Y-148668247D01*
X146673645Y-148763224D01*
X146721256Y-148797815D01*
X146849623Y-148863222D01*
X146917671Y-148897895D01*
X146917674Y-148897896D01*
X147022499Y-148931955D01*
X147127327Y-148966015D01*
X147345056Y-149000500D01*
X147345057Y-149000500D01*
X147565499Y-149000500D01*
X147565500Y-149000500D01*
X147783229Y-148966015D01*
X147992884Y-148897895D01*
X148189300Y-148797815D01*
X148367643Y-148668242D01*
X148523520Y-148512365D01*
X148653093Y-148334022D01*
X148753173Y-148137606D01*
X148821293Y-147927951D01*
X148855778Y-147710222D01*
X148855778Y-147489778D01*
X148821293Y-147272049D01*
X148821292Y-147272045D01*
X148769607Y-147112970D01*
X148758475Y-147078711D01*
X156049500Y-147078711D01*
X156049500Y-147321288D01*
X156081161Y-147561785D01*
X156143947Y-147796104D01*
X156199926Y-147931248D01*
X156236776Y-148020212D01*
X156358064Y-148230289D01*
X156358066Y-148230292D01*
X156358067Y-148230293D01*
X156505733Y-148422736D01*
X156505739Y-148422743D01*
X156677256Y-148594260D01*
X156677262Y-148594265D01*
X156869711Y-148741936D01*
X157079788Y-148863224D01*
X157303900Y-148956054D01*
X157538211Y-149018838D01*
X157718586Y-149042584D01*
X157778711Y-149050500D01*
X157778712Y-149050500D01*
X158021289Y-149050500D01*
X158069388Y-149044167D01*
X158261789Y-149018838D01*
X158496100Y-148956054D01*
X158720212Y-148863224D01*
X158930289Y-148741936D01*
X159122738Y-148594265D01*
X159294265Y-148422738D01*
X159441936Y-148230289D01*
X159563224Y-148020212D01*
X159656054Y-147796100D01*
X159718838Y-147561789D01*
X159750500Y-147321288D01*
X159750500Y-147078712D01*
X159718838Y-146838211D01*
X159656054Y-146603900D01*
X159656051Y-146603892D01*
X159646957Y-146581936D01*
X159628985Y-146538549D01*
X163309500Y-146538549D01*
X163309500Y-146761450D01*
X163309501Y-146761466D01*
X163338594Y-146982452D01*
X163338595Y-146982457D01*
X163338596Y-146982463D01*
X163364386Y-147078712D01*
X163396290Y-147197780D01*
X163396293Y-147197790D01*
X163447448Y-147321288D01*
X163481595Y-147403726D01*
X163593052Y-147596774D01*
X163593057Y-147596780D01*
X163593058Y-147596782D01*
X163728751Y-147773622D01*
X163728757Y-147773629D01*
X163886370Y-147931242D01*
X163886377Y-147931248D01*
X163920651Y-147957547D01*
X164063226Y-148066948D01*
X164256274Y-148178405D01*
X164462219Y-148263710D01*
X164677537Y-148321404D01*
X164898543Y-148350500D01*
X164898550Y-148350500D01*
X165121450Y-148350500D01*
X165121457Y-148350500D01*
X165342463Y-148321404D01*
X165557781Y-148263710D01*
X165763726Y-148178405D01*
X165956774Y-148066948D01*
X166133624Y-147931247D01*
X166291247Y-147773624D01*
X166426948Y-147596774D01*
X166538405Y-147403726D01*
X166623710Y-147197781D01*
X166681404Y-146982463D01*
X166710500Y-146761457D01*
X166710500Y-146538549D01*
X178549500Y-146538549D01*
X178549500Y-146761450D01*
X178549501Y-146761466D01*
X178578594Y-146982452D01*
X178578595Y-146982457D01*
X178578596Y-146982463D01*
X178604386Y-147078712D01*
X178636290Y-147197780D01*
X178636293Y-147197790D01*
X178687448Y-147321288D01*
X178721595Y-147403726D01*
X178833052Y-147596774D01*
X178833057Y-147596780D01*
X178833058Y-147596782D01*
X178968751Y-147773622D01*
X178968757Y-147773629D01*
X179126370Y-147931242D01*
X179126377Y-147931248D01*
X179160651Y-147957547D01*
X179303226Y-148066948D01*
X179496274Y-148178405D01*
X179702219Y-148263710D01*
X179917537Y-148321404D01*
X180138543Y-148350500D01*
X180138550Y-148350500D01*
X180361450Y-148350500D01*
X180361457Y-148350500D01*
X180582463Y-148321404D01*
X180797781Y-148263710D01*
X181003726Y-148178405D01*
X181196774Y-148066948D01*
X181373624Y-147931247D01*
X181531247Y-147773624D01*
X181666948Y-147596774D01*
X181778405Y-147403726D01*
X181863710Y-147197781D01*
X181921404Y-146982463D01*
X181950500Y-146761457D01*
X181950500Y-146538543D01*
X181921404Y-146317537D01*
X181863710Y-146102219D01*
X181778405Y-145896274D01*
X181695186Y-145752135D01*
X186599500Y-145752135D01*
X186599500Y-147647870D01*
X186599501Y-147647876D01*
X186605908Y-147707483D01*
X186656202Y-147842328D01*
X186656206Y-147842335D01*
X186742452Y-147957544D01*
X186742455Y-147957547D01*
X186857664Y-148043793D01*
X186857671Y-148043797D01*
X186992517Y-148094091D01*
X186992516Y-148094091D01*
X186999444Y-148094835D01*
X187052127Y-148100500D01*
X188947872Y-148100499D01*
X189007483Y-148094091D01*
X189142331Y-148043796D01*
X189257546Y-147957546D01*
X189343796Y-147842331D01*
X189394091Y-147707483D01*
X189400500Y-147647873D01*
X189400499Y-145752128D01*
X189394091Y-145692517D01*
X189343944Y-145558067D01*
X189343797Y-145557671D01*
X189343793Y-145557664D01*
X189257547Y-145442455D01*
X189257544Y-145442452D01*
X189142335Y-145356206D01*
X189142328Y-145356202D01*
X189007482Y-145305908D01*
X189007483Y-145305908D01*
X188947883Y-145299501D01*
X188947881Y-145299500D01*
X188947873Y-145299500D01*
X188947864Y-145299500D01*
X187052129Y-145299500D01*
X187052123Y-145299501D01*
X186992516Y-145305908D01*
X186857671Y-145356202D01*
X186857664Y-145356206D01*
X186742455Y-145442452D01*
X186742452Y-145442455D01*
X186656206Y-145557664D01*
X186656202Y-145557671D01*
X186605908Y-145692517D01*
X186604487Y-145705739D01*
X186599501Y-145752123D01*
X186599500Y-145752135D01*
X181695186Y-145752135D01*
X181666948Y-145703226D01*
X181555562Y-145558064D01*
X181531248Y-145526377D01*
X181531242Y-145526370D01*
X181373629Y-145368757D01*
X181373622Y-145368751D01*
X181196782Y-145233058D01*
X181196780Y-145233057D01*
X181196774Y-145233052D01*
X181003726Y-145121595D01*
X181003722Y-145121593D01*
X180797790Y-145036293D01*
X180797783Y-145036291D01*
X180797781Y-145036290D01*
X180582463Y-144978596D01*
X180582457Y-144978595D01*
X180582452Y-144978594D01*
X180361466Y-144949501D01*
X180361463Y-144949500D01*
X180361457Y-144949500D01*
X180138543Y-144949500D01*
X180138537Y-144949500D01*
X180138533Y-144949501D01*
X179917547Y-144978594D01*
X179917540Y-144978595D01*
X179917537Y-144978596D01*
X179702219Y-145036290D01*
X179702209Y-145036293D01*
X179496277Y-145121593D01*
X179496273Y-145121595D01*
X179303226Y-145233052D01*
X179303217Y-145233058D01*
X179126377Y-145368751D01*
X179126370Y-145368757D01*
X178968757Y-145526370D01*
X178968751Y-145526377D01*
X178833058Y-145703217D01*
X178833052Y-145703226D01*
X178721595Y-145896273D01*
X178721593Y-145896277D01*
X178636293Y-146102209D01*
X178636290Y-146102219D01*
X178608507Y-146205909D01*
X178578597Y-146317534D01*
X178578594Y-146317547D01*
X178549501Y-146538533D01*
X178549500Y-146538549D01*
X166710500Y-146538549D01*
X166710500Y-146538543D01*
X166681404Y-146317537D01*
X166623710Y-146102219D01*
X166538405Y-145896274D01*
X166426948Y-145703226D01*
X166315562Y-145558064D01*
X166291248Y-145526377D01*
X166291242Y-145526370D01*
X166133629Y-145368757D01*
X166133622Y-145368751D01*
X165956782Y-145233058D01*
X165956780Y-145233057D01*
X165956774Y-145233052D01*
X165763726Y-145121595D01*
X165763722Y-145121593D01*
X165557790Y-145036293D01*
X165557783Y-145036291D01*
X165557781Y-145036290D01*
X165342463Y-144978596D01*
X165342457Y-144978595D01*
X165342452Y-144978594D01*
X165121466Y-144949501D01*
X165121463Y-144949500D01*
X165121457Y-144949500D01*
X164898543Y-144949500D01*
X164898537Y-144949500D01*
X164898533Y-144949501D01*
X164677547Y-144978594D01*
X164677540Y-144978595D01*
X164677537Y-144978596D01*
X164462219Y-145036290D01*
X164462209Y-145036293D01*
X164256277Y-145121593D01*
X164256273Y-145121595D01*
X164063226Y-145233052D01*
X164063217Y-145233058D01*
X163886377Y-145368751D01*
X163886370Y-145368757D01*
X163728757Y-145526370D01*
X163728751Y-145526377D01*
X163593058Y-145703217D01*
X163593052Y-145703226D01*
X163481595Y-145896273D01*
X163481593Y-145896277D01*
X163396293Y-146102209D01*
X163396290Y-146102219D01*
X163368507Y-146205909D01*
X163338597Y-146317534D01*
X163338594Y-146317547D01*
X163309501Y-146538533D01*
X163309500Y-146538549D01*
X159628985Y-146538549D01*
X159563226Y-146379794D01*
X159563224Y-146379788D01*
X159441936Y-146169711D01*
X159381018Y-146090321D01*
X159294266Y-145977263D01*
X159294260Y-145977256D01*
X159122743Y-145805739D01*
X159122736Y-145805733D01*
X158930293Y-145658067D01*
X158930292Y-145658066D01*
X158930289Y-145658064D01*
X158720212Y-145536776D01*
X158695107Y-145526377D01*
X158496104Y-145443947D01*
X158261785Y-145381161D01*
X158021289Y-145349500D01*
X158021288Y-145349500D01*
X157778712Y-145349500D01*
X157778711Y-145349500D01*
X157538214Y-145381161D01*
X157303895Y-145443947D01*
X157079794Y-145536773D01*
X157079785Y-145536777D01*
X156869706Y-145658067D01*
X156677263Y-145805733D01*
X156677256Y-145805739D01*
X156505739Y-145977256D01*
X156505733Y-145977263D01*
X156358067Y-146169706D01*
X156236777Y-146379785D01*
X156236773Y-146379794D01*
X156143947Y-146603895D01*
X156081161Y-146838214D01*
X156049500Y-147078711D01*
X148758475Y-147078711D01*
X148753174Y-147062396D01*
X148753173Y-147062393D01*
X148710534Y-146978711D01*
X148653093Y-146865978D01*
X148577155Y-146761457D01*
X148523525Y-146687641D01*
X148523521Y-146687636D01*
X148367641Y-146531756D01*
X148367636Y-146531752D01*
X148189303Y-146402187D01*
X148189302Y-146402186D01*
X148189300Y-146402185D01*
X148072069Y-146342452D01*
X147992884Y-146302104D01*
X147992881Y-146302103D01*
X147783230Y-146233985D01*
X147674364Y-146216742D01*
X147565500Y-146199500D01*
X147345056Y-146199500D01*
X147272479Y-146210995D01*
X147127325Y-146233985D01*
X146917674Y-146302103D01*
X146917671Y-146302104D01*
X146721252Y-146402187D01*
X146542919Y-146531752D01*
X146542914Y-146531756D01*
X146387034Y-146687636D01*
X146387030Y-146687641D01*
X146257465Y-146865974D01*
X146157382Y-147062393D01*
X146157381Y-147062396D01*
X146089263Y-147272047D01*
X146054778Y-147489778D01*
X143855777Y-147489778D01*
X143855777Y-146652128D01*
X143849369Y-146592517D01*
X143829240Y-146538549D01*
X143799075Y-146457671D01*
X143799071Y-146457664D01*
X143712825Y-146342455D01*
X143712822Y-146342452D01*
X143597613Y-146256206D01*
X143597606Y-146256202D01*
X143462760Y-146205908D01*
X143462761Y-146205908D01*
X143403161Y-146199501D01*
X143403159Y-146199500D01*
X143403151Y-146199500D01*
X143403142Y-146199500D01*
X141507407Y-146199500D01*
X141507401Y-146199501D01*
X141447794Y-146205908D01*
X141312949Y-146256202D01*
X141312942Y-146256206D01*
X141197733Y-146342452D01*
X141197730Y-146342455D01*
X141111484Y-146457664D01*
X141111480Y-146457671D01*
X141061186Y-146592517D01*
X141054779Y-146652116D01*
X141054779Y-146652123D01*
X141054778Y-146652135D01*
X131532742Y-146652135D01*
X131412363Y-146531756D01*
X131412358Y-146531752D01*
X131234025Y-146402187D01*
X131234024Y-146402186D01*
X131234022Y-146402185D01*
X131116791Y-146342452D01*
X131037606Y-146302104D01*
X131037603Y-146302103D01*
X130827952Y-146233985D01*
X130719086Y-146216742D01*
X130610222Y-146199500D01*
X130389778Y-146199500D01*
X130317201Y-146210995D01*
X130172047Y-146233985D01*
X129962396Y-146302103D01*
X129962393Y-146302104D01*
X129765974Y-146402187D01*
X129587641Y-146531752D01*
X129587636Y-146531756D01*
X129431756Y-146687636D01*
X129431752Y-146687641D01*
X129302187Y-146865974D01*
X129202104Y-147062393D01*
X129202103Y-147062396D01*
X129133985Y-147272047D01*
X129099500Y-147489778D01*
X126900499Y-147489778D01*
X126900499Y-146652128D01*
X126894091Y-146592517D01*
X126873962Y-146538549D01*
X126843797Y-146457671D01*
X126843793Y-146457664D01*
X126757547Y-146342455D01*
X126757544Y-146342452D01*
X126642335Y-146256206D01*
X126642328Y-146256202D01*
X126507482Y-146205908D01*
X126507483Y-146205908D01*
X126447883Y-146199501D01*
X126447881Y-146199500D01*
X126447873Y-146199500D01*
X126447864Y-146199500D01*
X124552129Y-146199500D01*
X124552123Y-146199501D01*
X124492516Y-146205908D01*
X124357671Y-146256202D01*
X124357664Y-146256206D01*
X124242455Y-146342452D01*
X124242452Y-146342455D01*
X124156206Y-146457664D01*
X124156202Y-146457671D01*
X124105908Y-146592517D01*
X124099501Y-146652116D01*
X124099501Y-146652123D01*
X124099500Y-146652135D01*
X105795774Y-146652135D01*
X105756054Y-146503900D01*
X105663224Y-146279788D01*
X105541936Y-146069711D01*
X105408856Y-145896277D01*
X105394266Y-145877263D01*
X105394260Y-145877256D01*
X105222743Y-145705739D01*
X105222736Y-145705733D01*
X105030293Y-145558067D01*
X105030292Y-145558066D01*
X105030289Y-145558064D01*
X104832631Y-145443946D01*
X104820214Y-145436777D01*
X104820205Y-145436773D01*
X104596104Y-145343947D01*
X104454145Y-145305909D01*
X104361789Y-145281162D01*
X104361788Y-145281161D01*
X104361785Y-145281161D01*
X104121289Y-145249500D01*
X104121288Y-145249500D01*
X103878712Y-145249500D01*
X103878711Y-145249500D01*
X103638214Y-145281161D01*
X103403895Y-145343947D01*
X103179794Y-145436773D01*
X103179785Y-145436777D01*
X102969706Y-145558067D01*
X102777263Y-145705733D01*
X102777256Y-145705739D01*
X102605739Y-145877256D01*
X102605733Y-145877263D01*
X102458067Y-146069706D01*
X102336777Y-146279785D01*
X102336773Y-146279794D01*
X102243947Y-146503895D01*
X102181161Y-146738214D01*
X102149500Y-146978711D01*
X99500500Y-146978711D01*
X99500500Y-133689035D01*
X104045522Y-133689035D01*
X104045522Y-135284770D01*
X104045523Y-135284776D01*
X104051930Y-135344383D01*
X104102224Y-135479228D01*
X104102228Y-135479235D01*
X104188474Y-135594444D01*
X104188477Y-135594447D01*
X104303686Y-135680693D01*
X104303693Y-135680697D01*
X104438539Y-135730991D01*
X104438538Y-135730991D01*
X104445466Y-135731735D01*
X104498149Y-135737400D01*
X106093894Y-135737399D01*
X106153505Y-135730991D01*
X106288353Y-135680696D01*
X106403568Y-135594446D01*
X106489818Y-135479231D01*
X106540113Y-135344383D01*
X106546522Y-135284773D01*
X106546521Y-134388477D01*
X107825522Y-134388477D01*
X107825522Y-134585322D01*
X107856312Y-134779726D01*
X107917139Y-134966929D01*
X107981214Y-135092683D01*
X108006498Y-135142305D01*
X108122194Y-135301546D01*
X108261376Y-135440728D01*
X108420617Y-135556424D01*
X108495236Y-135594444D01*
X108595992Y-135645782D01*
X108595994Y-135645782D01*
X108595997Y-135645784D01*
X108696339Y-135678387D01*
X108783195Y-135706609D01*
X108977600Y-135737400D01*
X108977605Y-135737400D01*
X109174444Y-135737400D01*
X109368848Y-135706609D01*
X109448596Y-135680697D01*
X109556047Y-135645784D01*
X109731427Y-135556424D01*
X109890668Y-135440728D01*
X110029850Y-135301546D01*
X110145546Y-135142305D01*
X110234906Y-134966925D01*
X110295731Y-134779726D01*
X110326522Y-134585322D01*
X110326522Y-134388477D01*
X110295731Y-134194073D01*
X110234904Y-134006870D01*
X110145545Y-133831494D01*
X110029850Y-133672254D01*
X109890668Y-133533072D01*
X109731427Y-133417376D01*
X109556051Y-133328017D01*
X109368848Y-133267190D01*
X109174444Y-133236400D01*
X109174439Y-133236400D01*
X108977605Y-133236400D01*
X108977600Y-133236400D01*
X108783195Y-133267190D01*
X108595992Y-133328017D01*
X108420616Y-133417376D01*
X108335227Y-133479416D01*
X108261376Y-133533072D01*
X108261374Y-133533074D01*
X108261373Y-133533074D01*
X108122196Y-133672251D01*
X108122196Y-133672252D01*
X108122194Y-133672254D01*
X108110002Y-133689035D01*
X108006498Y-133831494D01*
X107917139Y-134006870D01*
X107856312Y-134194073D01*
X107825522Y-134388477D01*
X106546521Y-134388477D01*
X106546521Y-133689028D01*
X106540113Y-133629417D01*
X106532028Y-133607741D01*
X106489819Y-133494571D01*
X106489815Y-133494564D01*
X106403569Y-133379355D01*
X106403566Y-133379352D01*
X106288357Y-133293106D01*
X106288350Y-133293102D01*
X106153504Y-133242808D01*
X106153505Y-133242808D01*
X106093905Y-133236401D01*
X106093903Y-133236400D01*
X106093895Y-133236400D01*
X106093886Y-133236400D01*
X104498151Y-133236400D01*
X104498145Y-133236401D01*
X104438538Y-133242808D01*
X104303693Y-133293102D01*
X104303686Y-133293106D01*
X104188477Y-133379352D01*
X104188474Y-133379355D01*
X104102228Y-133494564D01*
X104102224Y-133494571D01*
X104051930Y-133629417D01*
X104047325Y-133672254D01*
X104045523Y-133689023D01*
X104045522Y-133689035D01*
X99500500Y-133689035D01*
X99500500Y-129134108D01*
X118099500Y-129134108D01*
X118099500Y-142665891D01*
X118133608Y-142793187D01*
X118166554Y-142850250D01*
X118199500Y-142907314D01*
X118292686Y-143000500D01*
X118406814Y-143066392D01*
X118534108Y-143100500D01*
X118534110Y-143100500D01*
X121665890Y-143100500D01*
X121665892Y-143100500D01*
X121793186Y-143066392D01*
X121907314Y-143000500D01*
X122000500Y-142907314D01*
X122066392Y-142793186D01*
X122100500Y-142665892D01*
X122100500Y-139988549D01*
X140804778Y-139988549D01*
X140804778Y-140211450D01*
X140804779Y-140211466D01*
X140833872Y-140432452D01*
X140833873Y-140432457D01*
X140833874Y-140432463D01*
X140865493Y-140550466D01*
X140891568Y-140647780D01*
X140891571Y-140647790D01*
X140976871Y-140853722D01*
X140976873Y-140853726D01*
X141088330Y-141046774D01*
X141088335Y-141046780D01*
X141088336Y-141046782D01*
X141224029Y-141223622D01*
X141224035Y-141223629D01*
X141381648Y-141381242D01*
X141381654Y-141381247D01*
X141558504Y-141516948D01*
X141751552Y-141628405D01*
X141785409Y-141642429D01*
X141929740Y-141702213D01*
X141957497Y-141713710D01*
X142172815Y-141771404D01*
X142393821Y-141800500D01*
X142393828Y-141800500D01*
X142616728Y-141800500D01*
X142616735Y-141800500D01*
X142837741Y-141771404D01*
X143053059Y-141713710D01*
X143259004Y-141628405D01*
X143452052Y-141516948D01*
X143628902Y-141381247D01*
X143786525Y-141223624D01*
X143922226Y-141046774D01*
X144033683Y-140853726D01*
X144118988Y-140647781D01*
X144176682Y-140432463D01*
X144205778Y-140211457D01*
X144205778Y-139988543D01*
X144176682Y-139767537D01*
X144118988Y-139552219D01*
X144033683Y-139346274D01*
X143922226Y-139153226D01*
X143786525Y-138976376D01*
X143786520Y-138976370D01*
X143628907Y-138818757D01*
X143628900Y-138818751D01*
X143452060Y-138683058D01*
X143452058Y-138683057D01*
X143452052Y-138683052D01*
X143259004Y-138571595D01*
X143259000Y-138571593D01*
X143053068Y-138486293D01*
X143053061Y-138486291D01*
X143053059Y-138486290D01*
X142837741Y-138428596D01*
X142837735Y-138428595D01*
X142837730Y-138428594D01*
X142616744Y-138399501D01*
X142616741Y-138399500D01*
X142616735Y-138399500D01*
X142393821Y-138399500D01*
X142393815Y-138399500D01*
X142393811Y-138399501D01*
X142172825Y-138428594D01*
X142172818Y-138428595D01*
X142172815Y-138428596D01*
X142031758Y-138466392D01*
X141957497Y-138486290D01*
X141957487Y-138486293D01*
X141751555Y-138571593D01*
X141751551Y-138571595D01*
X141558504Y-138683052D01*
X141558495Y-138683058D01*
X141381655Y-138818751D01*
X141381648Y-138818757D01*
X141224035Y-138976370D01*
X141224029Y-138976377D01*
X141088336Y-139153217D01*
X141088330Y-139153226D01*
X140976873Y-139346273D01*
X140976871Y-139346277D01*
X140891571Y-139552209D01*
X140891568Y-139552219D01*
X140865427Y-139649781D01*
X140833875Y-139767534D01*
X140833872Y-139767547D01*
X140804779Y-139988533D01*
X140804778Y-139988549D01*
X122100500Y-139988549D01*
X122100500Y-133539035D01*
X123855522Y-133539035D01*
X123855522Y-135434770D01*
X123855523Y-135434776D01*
X123861930Y-135494383D01*
X123912224Y-135629228D01*
X123912228Y-135629235D01*
X123998474Y-135744444D01*
X123998477Y-135744447D01*
X124113686Y-135830693D01*
X124113693Y-135830697D01*
X124248539Y-135880991D01*
X124248538Y-135880991D01*
X124255466Y-135881735D01*
X124308149Y-135887400D01*
X126603894Y-135887399D01*
X126663505Y-135880991D01*
X126798353Y-135830696D01*
X126913568Y-135744446D01*
X126999818Y-135629231D01*
X127050113Y-135494383D01*
X127056522Y-135434773D01*
X127056521Y-133539035D01*
X128895522Y-133539035D01*
X128895522Y-135434770D01*
X128895523Y-135434776D01*
X128901930Y-135494383D01*
X128952224Y-135629228D01*
X128952228Y-135629235D01*
X129038474Y-135744444D01*
X129038477Y-135744447D01*
X129153686Y-135830693D01*
X129153693Y-135830697D01*
X129288539Y-135880991D01*
X129288538Y-135880991D01*
X129295466Y-135881735D01*
X129348149Y-135887400D01*
X131643894Y-135887399D01*
X131703505Y-135880991D01*
X131838353Y-135830696D01*
X131953568Y-135744446D01*
X132039818Y-135629231D01*
X132090113Y-135494383D01*
X132096522Y-135434773D01*
X132096521Y-133539028D01*
X132090113Y-133479417D01*
X132066973Y-133417376D01*
X132039819Y-133344571D01*
X132039815Y-133344564D01*
X131953569Y-133229355D01*
X131953566Y-133229352D01*
X131838357Y-133143106D01*
X131838350Y-133143102D01*
X131703504Y-133092808D01*
X131703505Y-133092808D01*
X131643905Y-133086401D01*
X131643903Y-133086400D01*
X131643895Y-133086400D01*
X131643886Y-133086400D01*
X129348151Y-133086400D01*
X129348145Y-133086401D01*
X129288538Y-133092808D01*
X129153693Y-133143102D01*
X129153686Y-133143106D01*
X129038477Y-133229352D01*
X129038474Y-133229355D01*
X128952228Y-133344564D01*
X128952224Y-133344571D01*
X128901930Y-133479417D01*
X128896162Y-133533072D01*
X128895523Y-133539023D01*
X128895522Y-133539035D01*
X127056521Y-133539035D01*
X127056521Y-133539028D01*
X127050113Y-133479417D01*
X127026973Y-133417376D01*
X126999819Y-133344571D01*
X126999815Y-133344564D01*
X126913569Y-133229355D01*
X126913566Y-133229352D01*
X126798357Y-133143106D01*
X126798350Y-133143102D01*
X126663504Y-133092808D01*
X126663505Y-133092808D01*
X126603905Y-133086401D01*
X126603903Y-133086400D01*
X126603895Y-133086400D01*
X126603886Y-133086400D01*
X124308151Y-133086400D01*
X124308145Y-133086401D01*
X124248538Y-133092808D01*
X124113693Y-133143102D01*
X124113686Y-133143106D01*
X123998477Y-133229352D01*
X123998474Y-133229355D01*
X123912228Y-133344564D01*
X123912224Y-133344571D01*
X123861930Y-133479417D01*
X123856162Y-133533072D01*
X123855523Y-133539023D01*
X123855522Y-133539035D01*
X122100500Y-133539035D01*
X122100500Y-131824500D01*
X122120185Y-131757461D01*
X122172989Y-131711706D01*
X122224500Y-131700500D01*
X136265890Y-131700500D01*
X136265892Y-131700500D01*
X136393186Y-131666392D01*
X136507314Y-131600500D01*
X136600500Y-131507314D01*
X136666392Y-131393186D01*
X136700500Y-131265892D01*
X136700500Y-123224500D01*
X136720185Y-123157461D01*
X136772989Y-123111706D01*
X136824500Y-123100500D01*
X141689045Y-123100500D01*
X141756084Y-123120185D01*
X141801839Y-123172989D01*
X141811783Y-123242147D01*
X141782758Y-123305703D01*
X141751046Y-123331887D01*
X141558504Y-123443052D01*
X141558495Y-123443058D01*
X141381655Y-123578751D01*
X141381648Y-123578757D01*
X141224035Y-123736370D01*
X141224029Y-123736377D01*
X141088336Y-123913217D01*
X141088330Y-123913226D01*
X140976873Y-124106273D01*
X140976871Y-124106277D01*
X140891571Y-124312209D01*
X140891568Y-124312219D01*
X140845745Y-124483236D01*
X140833875Y-124527534D01*
X140833872Y-124527547D01*
X140804779Y-124748533D01*
X140804778Y-124748549D01*
X140804778Y-124971450D01*
X140804779Y-124971466D01*
X140833872Y-125192452D01*
X140833873Y-125192457D01*
X140833874Y-125192463D01*
X140864519Y-125306831D01*
X140891568Y-125407780D01*
X140891571Y-125407790D01*
X140976871Y-125613722D01*
X140976873Y-125613726D01*
X141088330Y-125806774D01*
X141088335Y-125806780D01*
X141088336Y-125806782D01*
X141224029Y-125983622D01*
X141224035Y-125983629D01*
X141381648Y-126141242D01*
X141381655Y-126141248D01*
X141461632Y-126202616D01*
X141558504Y-126276948D01*
X141751552Y-126388405D01*
X141957497Y-126473710D01*
X142172815Y-126531404D01*
X142393821Y-126560500D01*
X142393828Y-126560500D01*
X142616728Y-126560500D01*
X142616735Y-126560500D01*
X142837741Y-126531404D01*
X143053059Y-126473710D01*
X143259004Y-126388405D01*
X143452052Y-126276948D01*
X143628902Y-126141247D01*
X143786525Y-125983624D01*
X143922226Y-125806774D01*
X144033683Y-125613726D01*
X144118988Y-125407781D01*
X144176682Y-125192463D01*
X144205778Y-124971457D01*
X144205778Y-124748543D01*
X144176682Y-124527537D01*
X144118988Y-124312219D01*
X144033683Y-124106274D01*
X143922226Y-123913226D01*
X143786525Y-123736376D01*
X143786520Y-123736370D01*
X143628907Y-123578757D01*
X143628900Y-123578751D01*
X143452060Y-123443058D01*
X143452058Y-123443057D01*
X143452052Y-123443052D01*
X143259510Y-123331887D01*
X143211295Y-123281319D01*
X143198073Y-123212712D01*
X143224041Y-123147848D01*
X143280955Y-123107320D01*
X143321511Y-123100500D01*
X147461289Y-123100500D01*
X147528328Y-123120185D01*
X147574083Y-123172989D01*
X147584027Y-123242147D01*
X147555002Y-123305703D01*
X147500295Y-123342205D01*
X147430947Y-123365185D01*
X147430944Y-123365186D01*
X147430941Y-123365187D01*
X147281620Y-123457289D01*
X147157567Y-123581342D01*
X147065465Y-123730663D01*
X147065463Y-123730668D01*
X147058136Y-123752781D01*
X147010279Y-123897203D01*
X147010279Y-123897204D01*
X147010278Y-123897204D01*
X146999778Y-123999983D01*
X146999778Y-125200001D01*
X146999779Y-125200018D01*
X147010278Y-125302796D01*
X147010279Y-125302799D01*
X147045067Y-125407780D01*
X147065464Y-125469334D01*
X147157566Y-125618656D01*
X147281622Y-125742712D01*
X147430944Y-125834814D01*
X147512848Y-125861954D01*
X147570293Y-125901727D01*
X147597116Y-125966243D01*
X147584801Y-126035018D01*
X147546729Y-126079978D01*
X147453065Y-126148028D01*
X147453060Y-126148032D01*
X147308306Y-126292786D01*
X147187993Y-126458386D01*
X147095059Y-126640776D01*
X147031800Y-126835465D01*
X147002976Y-127017455D01*
X146999778Y-127037648D01*
X146999778Y-127242352D01*
X146999859Y-127242861D01*
X147031800Y-127444534D01*
X147095059Y-127639223D01*
X147153314Y-127753553D01*
X147187863Y-127821359D01*
X147187993Y-127821613D01*
X147308306Y-127987213D01*
X147453064Y-128131971D01*
X147608027Y-128244556D01*
X147618668Y-128252287D01*
X147734885Y-128311503D01*
X147801054Y-128345218D01*
X147801056Y-128345218D01*
X147801059Y-128345220D01*
X147905415Y-128379127D01*
X147995743Y-128408477D01*
X148096835Y-128424488D01*
X148197926Y-128440500D01*
X148197927Y-128440500D01*
X148402629Y-128440500D01*
X148402630Y-128440500D01*
X148604812Y-128408477D01*
X148799497Y-128345220D01*
X148981888Y-128252287D01*
X149084778Y-128177534D01*
X149147491Y-128131971D01*
X149147493Y-128131968D01*
X149147497Y-128131966D01*
X149292244Y-127987219D01*
X149292246Y-127987215D01*
X149292249Y-127987213D01*
X149365391Y-127886540D01*
X149412565Y-127821610D01*
X149505498Y-127639219D01*
X149568755Y-127444534D01*
X149600778Y-127242352D01*
X149600778Y-127037648D01*
X149587494Y-126953776D01*
X149568755Y-126835465D01*
X149508443Y-126649845D01*
X149505498Y-126640781D01*
X149505496Y-126640778D01*
X149505496Y-126640776D01*
X149449768Y-126531405D01*
X149412565Y-126458390D01*
X149380370Y-126414077D01*
X149292249Y-126292786D01*
X149147497Y-126148034D01*
X149138155Y-126141247D01*
X149053825Y-126079978D01*
X149011160Y-126024649D01*
X149005181Y-125955036D01*
X149037786Y-125893240D01*
X149087704Y-125861955D01*
X149169612Y-125834814D01*
X149318934Y-125742712D01*
X149442990Y-125618656D01*
X149535092Y-125469334D01*
X149590277Y-125302797D01*
X149600778Y-125200009D01*
X149600777Y-123999992D01*
X149590277Y-123897203D01*
X149535092Y-123730666D01*
X149442990Y-123581344D01*
X149318934Y-123457288D01*
X149169612Y-123365186D01*
X149100261Y-123342205D01*
X149042817Y-123302433D01*
X149015994Y-123237917D01*
X149028309Y-123169142D01*
X149075852Y-123117942D01*
X149139266Y-123100500D01*
X150375500Y-123100500D01*
X150442539Y-123120185D01*
X150488294Y-123172989D01*
X150499500Y-123224500D01*
X150499500Y-142665891D01*
X150533608Y-142793187D01*
X150566554Y-142850250D01*
X150599500Y-142907314D01*
X150692686Y-143000500D01*
X150806814Y-143066392D01*
X150934108Y-143100500D01*
X150934110Y-143100500D01*
X153665890Y-143100500D01*
X153665892Y-143100500D01*
X153793186Y-143066392D01*
X153907314Y-143000500D01*
X154000500Y-142907314D01*
X154066392Y-142793186D01*
X154100500Y-142665892D01*
X154100500Y-135334108D01*
X158299500Y-135334108D01*
X158299500Y-142365891D01*
X158333608Y-142493187D01*
X158366554Y-142550250D01*
X158399500Y-142607314D01*
X158492686Y-142700500D01*
X158606814Y-142766392D01*
X158734108Y-142800500D01*
X158734110Y-142800500D01*
X161665890Y-142800500D01*
X161665892Y-142800500D01*
X161793186Y-142766392D01*
X161907314Y-142700500D01*
X162000500Y-142607314D01*
X162066392Y-142493186D01*
X162100500Y-142365892D01*
X162100500Y-140254983D01*
X163699500Y-140254983D01*
X163699500Y-141455001D01*
X163699501Y-141455018D01*
X163710000Y-141557796D01*
X163710001Y-141557799D01*
X163738045Y-141642429D01*
X163765186Y-141724334D01*
X163857288Y-141873656D01*
X163981344Y-141997712D01*
X164130666Y-142089814D01*
X164297203Y-142144999D01*
X164399991Y-142155500D01*
X165600008Y-142155499D01*
X165702797Y-142144999D01*
X165869334Y-142089814D01*
X166018656Y-141997712D01*
X166142712Y-141873656D01*
X166234814Y-141724334D01*
X166261955Y-141642427D01*
X166301726Y-141584984D01*
X166366242Y-141558161D01*
X166435018Y-141570476D01*
X166479977Y-141608547D01*
X166548030Y-141702213D01*
X166548034Y-141702219D01*
X166692786Y-141846971D01*
X166847749Y-141959556D01*
X166858390Y-141967287D01*
X166974607Y-142026503D01*
X167040776Y-142060218D01*
X167040778Y-142060218D01*
X167040781Y-142060220D01*
X167131856Y-142089812D01*
X167235465Y-142123477D01*
X167336557Y-142139488D01*
X167437648Y-142155500D01*
X167437649Y-142155500D01*
X167642351Y-142155500D01*
X167642352Y-142155500D01*
X167844534Y-142123477D01*
X168039219Y-142060220D01*
X168221610Y-141967287D01*
X168350482Y-141873657D01*
X168387213Y-141846971D01*
X168387215Y-141846968D01*
X168387219Y-141846966D01*
X168531966Y-141702219D01*
X168531968Y-141702215D01*
X168531971Y-141702213D01*
X168613659Y-141589778D01*
X186599500Y-141589778D01*
X186599500Y-141810222D01*
X186609547Y-141873656D01*
X186633985Y-142027952D01*
X186702103Y-142237603D01*
X186702104Y-142237606D01*
X186802187Y-142434025D01*
X186931752Y-142612358D01*
X186931756Y-142612363D01*
X187087636Y-142768243D01*
X187087641Y-142768247D01*
X187243192Y-142881260D01*
X187265978Y-142897815D01*
X187394375Y-142963237D01*
X187462393Y-142997895D01*
X187462396Y-142997896D01*
X187567221Y-143031955D01*
X187672049Y-143066015D01*
X187889778Y-143100500D01*
X187889779Y-143100500D01*
X188110221Y-143100500D01*
X188110222Y-143100500D01*
X188327951Y-143066015D01*
X188537606Y-142997895D01*
X188734022Y-142897815D01*
X188912365Y-142768242D01*
X189068242Y-142612365D01*
X189197815Y-142434022D01*
X189297895Y-142237606D01*
X189366015Y-142027951D01*
X189400500Y-141810222D01*
X189400500Y-141589778D01*
X189366015Y-141372049D01*
X189297895Y-141162394D01*
X189297895Y-141162393D01*
X189238983Y-141046774D01*
X189197815Y-140965978D01*
X189116257Y-140853722D01*
X189068247Y-140787641D01*
X189068243Y-140787636D01*
X188912363Y-140631756D01*
X188912358Y-140631752D01*
X188734025Y-140502187D01*
X188734024Y-140502186D01*
X188734022Y-140502185D01*
X188653754Y-140461286D01*
X188537606Y-140402104D01*
X188537603Y-140402103D01*
X188327952Y-140333985D01*
X188219086Y-140316742D01*
X188110222Y-140299500D01*
X187889778Y-140299500D01*
X187817201Y-140310995D01*
X187672047Y-140333985D01*
X187462396Y-140402103D01*
X187462393Y-140402104D01*
X187265974Y-140502187D01*
X187087641Y-140631752D01*
X187087636Y-140631756D01*
X186931756Y-140787636D01*
X186931752Y-140787641D01*
X186802187Y-140965974D01*
X186702104Y-141162393D01*
X186702103Y-141162396D01*
X186633985Y-141372047D01*
X186620845Y-141455009D01*
X186599500Y-141589778D01*
X168613659Y-141589778D01*
X168636894Y-141557797D01*
X168652287Y-141536610D01*
X168653871Y-141533499D01*
X168656365Y-141528608D01*
X168745218Y-141354223D01*
X168745218Y-141354222D01*
X168745220Y-141354219D01*
X168808477Y-141159534D01*
X168840500Y-140957352D01*
X168840500Y-140752648D01*
X168823892Y-140647790D01*
X168808477Y-140550465D01*
X168770132Y-140432452D01*
X168745220Y-140355781D01*
X168745218Y-140355778D01*
X168745218Y-140355776D01*
X168693865Y-140254991D01*
X168652287Y-140173390D01*
X168600021Y-140101451D01*
X168531971Y-140007786D01*
X168387213Y-139863028D01*
X168221613Y-139742715D01*
X168221612Y-139742714D01*
X168221610Y-139742713D01*
X168161898Y-139712288D01*
X168039223Y-139649781D01*
X167844534Y-139586522D01*
X167669995Y-139558878D01*
X167642352Y-139554500D01*
X167437648Y-139554500D01*
X167413329Y-139558351D01*
X167235465Y-139586522D01*
X167040776Y-139649781D01*
X166858386Y-139742715D01*
X166692786Y-139863028D01*
X166548032Y-140007782D01*
X166548028Y-140007787D01*
X166479978Y-140101451D01*
X166424648Y-140144117D01*
X166355035Y-140150096D01*
X166293240Y-140117490D01*
X166261954Y-140067570D01*
X166242144Y-140007787D01*
X166234814Y-139985666D01*
X166142712Y-139836344D01*
X166018656Y-139712288D01*
X165869334Y-139620186D01*
X165702797Y-139565001D01*
X165702795Y-139565000D01*
X165600010Y-139554500D01*
X164399998Y-139554500D01*
X164399981Y-139554501D01*
X164297203Y-139565000D01*
X164297200Y-139565001D01*
X164130668Y-139620185D01*
X164130663Y-139620187D01*
X163981342Y-139712289D01*
X163857289Y-139836342D01*
X163765187Y-139985663D01*
X163765185Y-139985668D01*
X163757858Y-140007781D01*
X163710001Y-140152203D01*
X163710001Y-140152204D01*
X163710000Y-140152204D01*
X163699500Y-140254983D01*
X162100500Y-140254983D01*
X162100500Y-138624500D01*
X162120185Y-138557461D01*
X162172989Y-138511706D01*
X162224500Y-138500500D01*
X183065890Y-138500500D01*
X183065892Y-138500500D01*
X183193186Y-138466392D01*
X183307314Y-138400500D01*
X183400500Y-138307314D01*
X183466392Y-138193186D01*
X183500500Y-138065892D01*
X183500500Y-135334108D01*
X183466392Y-135206814D01*
X183400500Y-135092686D01*
X183307314Y-134999500D01*
X183250250Y-134966554D01*
X183193187Y-134933608D01*
X183129539Y-134916554D01*
X183065892Y-134899500D01*
X158865892Y-134899500D01*
X158734108Y-134899500D01*
X158606812Y-134933608D01*
X158492686Y-134999500D01*
X158492683Y-134999502D01*
X158399502Y-135092683D01*
X158399500Y-135092686D01*
X158333608Y-135206812D01*
X158299500Y-135334108D01*
X154100500Y-135334108D01*
X154100500Y-133132648D01*
X163699500Y-133132648D01*
X163699500Y-133337352D01*
X163703878Y-133364995D01*
X163731522Y-133539534D01*
X163794781Y-133734223D01*
X163858691Y-133859653D01*
X163887585Y-133916359D01*
X163887715Y-133916613D01*
X164008028Y-134082213D01*
X164152786Y-134226971D01*
X164273226Y-134314474D01*
X164318390Y-134347287D01*
X164399230Y-134388477D01*
X164500776Y-134440218D01*
X164500778Y-134440218D01*
X164500781Y-134440220D01*
X164605137Y-134474127D01*
X164695465Y-134503477D01*
X164796557Y-134519488D01*
X164897648Y-134535500D01*
X164897649Y-134535500D01*
X165102351Y-134535500D01*
X165102352Y-134535500D01*
X165304534Y-134503477D01*
X165499219Y-134440220D01*
X165681610Y-134347287D01*
X165774590Y-134279732D01*
X165847213Y-134226971D01*
X165847215Y-134226968D01*
X165847219Y-134226966D01*
X165991966Y-134082219D01*
X165991968Y-134082215D01*
X165991971Y-134082213D01*
X166112286Y-133916611D01*
X166112415Y-133916359D01*
X166159795Y-133823369D01*
X166207769Y-133772573D01*
X166275590Y-133755778D01*
X166341725Y-133778315D01*
X166380765Y-133823369D01*
X166428141Y-133916350D01*
X166428147Y-133916359D01*
X166460523Y-133960921D01*
X166460524Y-133960922D01*
X167140000Y-133281446D01*
X167140000Y-133287661D01*
X167167259Y-133389394D01*
X167219920Y-133480606D01*
X167294394Y-133555080D01*
X167385606Y-133607741D01*
X167487339Y-133635000D01*
X167493553Y-133635000D01*
X166814076Y-134314474D01*
X166858650Y-134346859D01*
X167040968Y-134439755D01*
X167235582Y-134502990D01*
X167437683Y-134535000D01*
X167642317Y-134535000D01*
X167844417Y-134502990D01*
X168039031Y-134439755D01*
X168221349Y-134346859D01*
X168265921Y-134314474D01*
X167586447Y-133635000D01*
X167592661Y-133635000D01*
X167694394Y-133607741D01*
X167785606Y-133555080D01*
X167860080Y-133480606D01*
X167912741Y-133389394D01*
X167940000Y-133287661D01*
X167940000Y-133281447D01*
X168619474Y-133960921D01*
X168651859Y-133916349D01*
X168744755Y-133734031D01*
X168807990Y-133539417D01*
X168840000Y-133337317D01*
X168840000Y-133132682D01*
X168807990Y-132930582D01*
X168744755Y-132735968D01*
X168651859Y-132553650D01*
X168619474Y-132509077D01*
X168619474Y-132509076D01*
X167940000Y-133188551D01*
X167940000Y-133182339D01*
X167912741Y-133080606D01*
X167860080Y-132989394D01*
X167785606Y-132914920D01*
X167694394Y-132862259D01*
X167592661Y-132835000D01*
X167586446Y-132835000D01*
X168265922Y-132155524D01*
X168265921Y-132155523D01*
X168221359Y-132123147D01*
X168221350Y-132123141D01*
X168039031Y-132030244D01*
X167844417Y-131967009D01*
X167642317Y-131935000D01*
X167437683Y-131935000D01*
X167235582Y-131967009D01*
X167040968Y-132030244D01*
X166858644Y-132123143D01*
X166814077Y-132155523D01*
X166814077Y-132155524D01*
X167493554Y-132835000D01*
X167487339Y-132835000D01*
X167385606Y-132862259D01*
X167294394Y-132914920D01*
X167219920Y-132989394D01*
X167167259Y-133080606D01*
X167140000Y-133182339D01*
X167140000Y-133188553D01*
X166460524Y-132509077D01*
X166460523Y-132509077D01*
X166428143Y-132553644D01*
X166380765Y-132646630D01*
X166332790Y-132697426D01*
X166264969Y-132714221D01*
X166198834Y-132691683D01*
X166159795Y-132646630D01*
X166112284Y-132553385D01*
X165991971Y-132387786D01*
X165847213Y-132243028D01*
X165681613Y-132122715D01*
X165681612Y-132122714D01*
X165681610Y-132122713D01*
X165624653Y-132093691D01*
X165499223Y-132029781D01*
X165304534Y-131966522D01*
X165124134Y-131937950D01*
X165102352Y-131934500D01*
X164897648Y-131934500D01*
X164875866Y-131937950D01*
X164695465Y-131966522D01*
X164500776Y-132029781D01*
X164318386Y-132122715D01*
X164152786Y-132243028D01*
X164008028Y-132387786D01*
X163887715Y-132553386D01*
X163794781Y-132735776D01*
X163731522Y-132930465D01*
X163706825Y-133086400D01*
X163699500Y-133132648D01*
X154100500Y-133132648D01*
X154100500Y-130386831D01*
X183987050Y-130386831D01*
X183987050Y-130613168D01*
X184022458Y-130836722D01*
X184022458Y-130836725D01*
X184092398Y-131051978D01*
X184092400Y-131051981D01*
X184195155Y-131253650D01*
X184328193Y-131436761D01*
X184488239Y-131596807D01*
X184671350Y-131729845D01*
X184873019Y-131832600D01*
X184873021Y-131832601D01*
X185073801Y-131897837D01*
X185088279Y-131902542D01*
X185311831Y-131937950D01*
X185311832Y-131937950D01*
X185538168Y-131937950D01*
X185538169Y-131937950D01*
X185761721Y-131902542D01*
X185761724Y-131902541D01*
X185761725Y-131902541D01*
X185976978Y-131832601D01*
X185976978Y-131832600D01*
X185976981Y-131832600D01*
X186178650Y-131729845D01*
X186361761Y-131596807D01*
X186521807Y-131436761D01*
X186654845Y-131253650D01*
X186757600Y-131051981D01*
X186827542Y-130836721D01*
X186862950Y-130613169D01*
X186862950Y-130386831D01*
X187162050Y-130386831D01*
X187162050Y-130613168D01*
X187197458Y-130836722D01*
X187197458Y-130836725D01*
X187267398Y-131051978D01*
X187267400Y-131051981D01*
X187370155Y-131253650D01*
X187503193Y-131436761D01*
X187663239Y-131596807D01*
X187846350Y-131729845D01*
X188048019Y-131832600D01*
X188048021Y-131832601D01*
X188248801Y-131897837D01*
X188263279Y-131902542D01*
X188486831Y-131937950D01*
X188486832Y-131937950D01*
X188713168Y-131937950D01*
X188713169Y-131937950D01*
X188936721Y-131902542D01*
X188936724Y-131902541D01*
X188936725Y-131902541D01*
X189151978Y-131832601D01*
X189151978Y-131832600D01*
X189151981Y-131832600D01*
X189353650Y-131729845D01*
X189536761Y-131596807D01*
X189696807Y-131436761D01*
X189829845Y-131253650D01*
X189932600Y-131051981D01*
X190002542Y-130836721D01*
X190037950Y-130613169D01*
X190037950Y-130386831D01*
X190002542Y-130163279D01*
X190002541Y-130163275D01*
X190002541Y-130163274D01*
X189932601Y-129948021D01*
X189932599Y-129948018D01*
X189829844Y-129746349D01*
X189812008Y-129721800D01*
X189696807Y-129563239D01*
X189536761Y-129403193D01*
X189353650Y-129270155D01*
X189151981Y-129167400D01*
X189151978Y-129167398D01*
X188936723Y-129097458D01*
X188787686Y-129073852D01*
X188713169Y-129062050D01*
X188486831Y-129062050D01*
X188412313Y-129073852D01*
X188263277Y-129097458D01*
X188263274Y-129097458D01*
X188048021Y-129167398D01*
X188048018Y-129167400D01*
X187846349Y-129270155D01*
X187764978Y-129329275D01*
X187663239Y-129403193D01*
X187663237Y-129403195D01*
X187663236Y-129403195D01*
X187503195Y-129563236D01*
X187503195Y-129563237D01*
X187503193Y-129563239D01*
X187449661Y-129636920D01*
X187370155Y-129746349D01*
X187267400Y-129948018D01*
X187267398Y-129948021D01*
X187197458Y-130163274D01*
X187197458Y-130163277D01*
X187162050Y-130386831D01*
X186862950Y-130386831D01*
X186827542Y-130163279D01*
X186827541Y-130163275D01*
X186827541Y-130163274D01*
X186757601Y-129948021D01*
X186757599Y-129948018D01*
X186654844Y-129746349D01*
X186637008Y-129721800D01*
X186521807Y-129563239D01*
X186361761Y-129403193D01*
X186178650Y-129270155D01*
X185976981Y-129167400D01*
X185976978Y-129167398D01*
X185761723Y-129097458D01*
X185612686Y-129073852D01*
X185538169Y-129062050D01*
X185311831Y-129062050D01*
X185237313Y-129073852D01*
X185088277Y-129097458D01*
X185088274Y-129097458D01*
X184873021Y-129167398D01*
X184873018Y-129167400D01*
X184671349Y-129270155D01*
X184589978Y-129329275D01*
X184488239Y-129403193D01*
X184488237Y-129403195D01*
X184488236Y-129403195D01*
X184328195Y-129563236D01*
X184328195Y-129563237D01*
X184328193Y-129563239D01*
X184274661Y-129636920D01*
X184195155Y-129746349D01*
X184092400Y-129948018D01*
X184092398Y-129948021D01*
X184022458Y-130163274D01*
X184022458Y-130163277D01*
X183987050Y-130386831D01*
X154100500Y-130386831D01*
X154100500Y-128902540D01*
X182774200Y-128902540D01*
X182774200Y-129049459D01*
X182802858Y-129193534D01*
X182802861Y-129193544D01*
X182859078Y-129329266D01*
X182859083Y-129329275D01*
X182940698Y-129451419D01*
X182940701Y-129451423D01*
X183044576Y-129555298D01*
X183044580Y-129555301D01*
X183166724Y-129636916D01*
X183166730Y-129636919D01*
X183166731Y-129636920D01*
X183302458Y-129693140D01*
X183446540Y-129721799D01*
X183446544Y-129721800D01*
X183446545Y-129721800D01*
X183593456Y-129721800D01*
X183593457Y-129721799D01*
X183737542Y-129693140D01*
X183873269Y-129636920D01*
X183995420Y-129555301D01*
X184099301Y-129451420D01*
X184180920Y-129329269D01*
X184237140Y-129193542D01*
X184265800Y-129049455D01*
X184265800Y-128902545D01*
X184237140Y-128758458D01*
X184180920Y-128622731D01*
X184180919Y-128622730D01*
X184180916Y-128622724D01*
X184099301Y-128500580D01*
X184099298Y-128500576D01*
X183995423Y-128396701D01*
X183995419Y-128396698D01*
X183873275Y-128315083D01*
X183873266Y-128315078D01*
X183737544Y-128258861D01*
X183737545Y-128258861D01*
X183737542Y-128258860D01*
X183737538Y-128258859D01*
X183737534Y-128258858D01*
X183593459Y-128230200D01*
X183593455Y-128230200D01*
X183446545Y-128230200D01*
X183446540Y-128230200D01*
X183302465Y-128258858D01*
X183302455Y-128258861D01*
X183166733Y-128315078D01*
X183166724Y-128315083D01*
X183044580Y-128396698D01*
X183044576Y-128396701D01*
X182940701Y-128500576D01*
X182940698Y-128500580D01*
X182859083Y-128622724D01*
X182859078Y-128622733D01*
X182802861Y-128758455D01*
X182802858Y-128758465D01*
X182774200Y-128902540D01*
X154100500Y-128902540D01*
X154100500Y-124497648D01*
X154619778Y-124497648D01*
X154619778Y-124702351D01*
X154651800Y-124904534D01*
X154715059Y-125099223D01*
X154807993Y-125281613D01*
X154928306Y-125447213D01*
X155073064Y-125591971D01*
X155238663Y-125712284D01*
X155238665Y-125712285D01*
X155238668Y-125712287D01*
X155331908Y-125759795D01*
X155382704Y-125807770D01*
X155399499Y-125875591D01*
X155376962Y-125941725D01*
X155331908Y-125980765D01*
X155238922Y-126028143D01*
X155194355Y-126060523D01*
X155194355Y-126060524D01*
X155873832Y-126740000D01*
X155867617Y-126740000D01*
X155765884Y-126767259D01*
X155674672Y-126819920D01*
X155600198Y-126894394D01*
X155547537Y-126985606D01*
X155520278Y-127087339D01*
X155520278Y-127093553D01*
X154840802Y-126414077D01*
X154840801Y-126414077D01*
X154808421Y-126458644D01*
X154715522Y-126640968D01*
X154652287Y-126835582D01*
X154620278Y-127037682D01*
X154620278Y-127242317D01*
X154652287Y-127444417D01*
X154715522Y-127639031D01*
X154808419Y-127821350D01*
X154808425Y-127821359D01*
X154840801Y-127865921D01*
X154840802Y-127865922D01*
X155520278Y-127186446D01*
X155520278Y-127192661D01*
X155547537Y-127294394D01*
X155600198Y-127385606D01*
X155674672Y-127460080D01*
X155765884Y-127512741D01*
X155867617Y-127540000D01*
X155873831Y-127540000D01*
X155194354Y-128219474D01*
X155238928Y-128251859D01*
X155421246Y-128344755D01*
X155615860Y-128407990D01*
X155817961Y-128440000D01*
X156022595Y-128440000D01*
X156224695Y-128407990D01*
X156419309Y-128344755D01*
X156601627Y-128251859D01*
X156646199Y-128219474D01*
X156313265Y-127886540D01*
X187854200Y-127886540D01*
X187854200Y-128033459D01*
X187882858Y-128177534D01*
X187882861Y-128177544D01*
X187939078Y-128313266D01*
X187939083Y-128313275D01*
X188020698Y-128435419D01*
X188020701Y-128435423D01*
X188124576Y-128539298D01*
X188124580Y-128539301D01*
X188246724Y-128620916D01*
X188246730Y-128620919D01*
X188246731Y-128620920D01*
X188382458Y-128677140D01*
X188494872Y-128699500D01*
X188526540Y-128705799D01*
X188526544Y-128705800D01*
X188526545Y-128705800D01*
X188673456Y-128705800D01*
X188673457Y-128705799D01*
X188817542Y-128677140D01*
X188953269Y-128620920D01*
X189075420Y-128539301D01*
X189179301Y-128435420D01*
X189260920Y-128313269D01*
X189317140Y-128177542D01*
X189345800Y-128033455D01*
X189345800Y-127886545D01*
X189317140Y-127742458D01*
X189260920Y-127606731D01*
X189260919Y-127606730D01*
X189260916Y-127606724D01*
X189179301Y-127484580D01*
X189179298Y-127484576D01*
X189075423Y-127380701D01*
X189075419Y-127380698D01*
X188953275Y-127299083D01*
X188953266Y-127299078D01*
X188817544Y-127242861D01*
X188817545Y-127242861D01*
X188817542Y-127242860D01*
X188817538Y-127242859D01*
X188817534Y-127242858D01*
X188673459Y-127214200D01*
X188673455Y-127214200D01*
X188526545Y-127214200D01*
X188526540Y-127214200D01*
X188382465Y-127242858D01*
X188382455Y-127242861D01*
X188246733Y-127299078D01*
X188246724Y-127299083D01*
X188124580Y-127380698D01*
X188124576Y-127380701D01*
X188020701Y-127484576D01*
X188020698Y-127484580D01*
X187939083Y-127606724D01*
X187939078Y-127606733D01*
X187882861Y-127742455D01*
X187882858Y-127742465D01*
X187854200Y-127886540D01*
X156313265Y-127886540D01*
X155966725Y-127540000D01*
X155972939Y-127540000D01*
X156074672Y-127512741D01*
X156165884Y-127460080D01*
X156240358Y-127385606D01*
X156293019Y-127294394D01*
X156320278Y-127192661D01*
X156320278Y-127186448D01*
X156999752Y-127865922D01*
X156999752Y-127865921D01*
X157032139Y-127821347D01*
X157032142Y-127821342D01*
X157125032Y-127639034D01*
X157188268Y-127444417D01*
X157220278Y-127242317D01*
X157220278Y-127037682D01*
X157195913Y-126883851D01*
X157193804Y-126870540D01*
X182774200Y-126870540D01*
X182774200Y-127017459D01*
X182802858Y-127161534D01*
X182802861Y-127161544D01*
X182859078Y-127297266D01*
X182859083Y-127297275D01*
X182940698Y-127419419D01*
X182940701Y-127419423D01*
X183044576Y-127523298D01*
X183044580Y-127523301D01*
X183166724Y-127604916D01*
X183166730Y-127604919D01*
X183166731Y-127604920D01*
X183302458Y-127661140D01*
X183446540Y-127689799D01*
X183446544Y-127689800D01*
X183446545Y-127689800D01*
X183593456Y-127689800D01*
X183593457Y-127689799D01*
X183737542Y-127661140D01*
X183873269Y-127604920D01*
X183995420Y-127523301D01*
X184099301Y-127419420D01*
X184180920Y-127297269D01*
X184237140Y-127161542D01*
X184265800Y-127017455D01*
X184265800Y-126870545D01*
X184237140Y-126726458D01*
X184180920Y-126590731D01*
X184180919Y-126590730D01*
X184180916Y-126590724D01*
X184099301Y-126468580D01*
X184099298Y-126468576D01*
X183995423Y-126364701D01*
X183995419Y-126364698D01*
X183873275Y-126283083D01*
X183873266Y-126283078D01*
X183737544Y-126226861D01*
X183737545Y-126226861D01*
X183737542Y-126226860D01*
X183737538Y-126226859D01*
X183737534Y-126226858D01*
X183593459Y-126198200D01*
X183593455Y-126198200D01*
X183446545Y-126198200D01*
X183446540Y-126198200D01*
X183302465Y-126226858D01*
X183302455Y-126226861D01*
X183166733Y-126283078D01*
X183166724Y-126283083D01*
X183044580Y-126364698D01*
X183044576Y-126364701D01*
X182940701Y-126468576D01*
X182940698Y-126468580D01*
X182859083Y-126590724D01*
X182859078Y-126590733D01*
X182802861Y-126726455D01*
X182802858Y-126726465D01*
X182774200Y-126870540D01*
X157193804Y-126870540D01*
X157188267Y-126835582D01*
X157125033Y-126640968D01*
X157032137Y-126458650D01*
X156999752Y-126414077D01*
X156999752Y-126414076D01*
X156320278Y-127093551D01*
X156320278Y-127087339D01*
X156293019Y-126985606D01*
X156240358Y-126894394D01*
X156165884Y-126819920D01*
X156074672Y-126767259D01*
X155972939Y-126740000D01*
X155966724Y-126740000D01*
X156646200Y-126060524D01*
X156646199Y-126060523D01*
X156601637Y-126028147D01*
X156601628Y-126028141D01*
X156508647Y-125980765D01*
X156457851Y-125932790D01*
X156441056Y-125864969D01*
X156463593Y-125798835D01*
X156508648Y-125759795D01*
X156601888Y-125712287D01*
X156730760Y-125618657D01*
X156767491Y-125591971D01*
X156767493Y-125591968D01*
X156767497Y-125591966D01*
X156912244Y-125447219D01*
X156912246Y-125447215D01*
X156912249Y-125447213D01*
X157014241Y-125306831D01*
X183987050Y-125306831D01*
X183987050Y-125533168D01*
X184022458Y-125756722D01*
X184022458Y-125756725D01*
X184092398Y-125971978D01*
X184092400Y-125971981D01*
X184195155Y-126173650D01*
X184328193Y-126356761D01*
X184488239Y-126516807D01*
X184671350Y-126649845D01*
X184873019Y-126752600D01*
X184873021Y-126752601D01*
X185073801Y-126817837D01*
X185088279Y-126822542D01*
X185311831Y-126857950D01*
X185311832Y-126857950D01*
X185538168Y-126857950D01*
X185538169Y-126857950D01*
X185761721Y-126822542D01*
X185761724Y-126822541D01*
X185761725Y-126822541D01*
X185976978Y-126752601D01*
X185976978Y-126752600D01*
X185976981Y-126752600D01*
X186178650Y-126649845D01*
X186361761Y-126516807D01*
X186521807Y-126356761D01*
X186654845Y-126173650D01*
X186757600Y-125971981D01*
X186780826Y-125900499D01*
X186827541Y-125756725D01*
X186827541Y-125756724D01*
X186827542Y-125756721D01*
X186862950Y-125533169D01*
X186862950Y-125306831D01*
X187162050Y-125306831D01*
X187162050Y-125533168D01*
X187197458Y-125756722D01*
X187197458Y-125756725D01*
X187267398Y-125971978D01*
X187267400Y-125971981D01*
X187370155Y-126173650D01*
X187503193Y-126356761D01*
X187663239Y-126516807D01*
X187846350Y-126649845D01*
X188048019Y-126752600D01*
X188048021Y-126752601D01*
X188248801Y-126817837D01*
X188263279Y-126822542D01*
X188486831Y-126857950D01*
X188486832Y-126857950D01*
X188713168Y-126857950D01*
X188713169Y-126857950D01*
X188936721Y-126822542D01*
X188936724Y-126822541D01*
X188936725Y-126822541D01*
X189151978Y-126752601D01*
X189151978Y-126752600D01*
X189151981Y-126752600D01*
X189353650Y-126649845D01*
X189536761Y-126516807D01*
X189696807Y-126356761D01*
X189829845Y-126173650D01*
X189932600Y-125971981D01*
X189955826Y-125900499D01*
X190002541Y-125756725D01*
X190002541Y-125756724D01*
X190002542Y-125756721D01*
X190037950Y-125533169D01*
X190037950Y-125306831D01*
X190002542Y-125083279D01*
X190002541Y-125083275D01*
X190002541Y-125083274D01*
X189932601Y-124868021D01*
X189932599Y-124868018D01*
X189848189Y-124702352D01*
X189829845Y-124666350D01*
X189696807Y-124483239D01*
X189536761Y-124323193D01*
X189353650Y-124190155D01*
X189151981Y-124087400D01*
X189151978Y-124087398D01*
X188936723Y-124017458D01*
X188787686Y-123993852D01*
X188713169Y-123982050D01*
X188486831Y-123982050D01*
X188412313Y-123993852D01*
X188263277Y-124017458D01*
X188263274Y-124017458D01*
X188048021Y-124087398D01*
X188048018Y-124087400D01*
X187846349Y-124190155D01*
X187741878Y-124266058D01*
X187663239Y-124323193D01*
X187663237Y-124323195D01*
X187663236Y-124323195D01*
X187503195Y-124483236D01*
X187503195Y-124483237D01*
X187503193Y-124483239D01*
X187446058Y-124561878D01*
X187370155Y-124666349D01*
X187267400Y-124868018D01*
X187267398Y-124868021D01*
X187197458Y-125083274D01*
X187197458Y-125083277D01*
X187162050Y-125306831D01*
X186862950Y-125306831D01*
X186827542Y-125083279D01*
X186827541Y-125083275D01*
X186827541Y-125083274D01*
X186757601Y-124868021D01*
X186757599Y-124868018D01*
X186673189Y-124702352D01*
X186654845Y-124666350D01*
X186521807Y-124483239D01*
X186361761Y-124323193D01*
X186178650Y-124190155D01*
X185976981Y-124087400D01*
X185976978Y-124087398D01*
X185761723Y-124017458D01*
X185612686Y-123993852D01*
X185538169Y-123982050D01*
X185311831Y-123982050D01*
X185237313Y-123993852D01*
X185088277Y-124017458D01*
X185088274Y-124017458D01*
X184873021Y-124087398D01*
X184873018Y-124087400D01*
X184671349Y-124190155D01*
X184566878Y-124266058D01*
X184488239Y-124323193D01*
X184488237Y-124323195D01*
X184488236Y-124323195D01*
X184328195Y-124483236D01*
X184328195Y-124483237D01*
X184328193Y-124483239D01*
X184271058Y-124561878D01*
X184195155Y-124666349D01*
X184092400Y-124868018D01*
X184092398Y-124868021D01*
X184022458Y-125083274D01*
X184022458Y-125083277D01*
X183987050Y-125306831D01*
X157014241Y-125306831D01*
X157017172Y-125302797D01*
X157032565Y-125281610D01*
X157125498Y-125099219D01*
X157188755Y-124904534D01*
X157220778Y-124702352D01*
X157220778Y-124497648D01*
X157193147Y-124323193D01*
X157188755Y-124295465D01*
X157154537Y-124190155D01*
X157125498Y-124100781D01*
X157125496Y-124100778D01*
X157125496Y-124100776D01*
X157074143Y-123999991D01*
X157032565Y-123918390D01*
X157017170Y-123897200D01*
X156912249Y-123752786D01*
X156767491Y-123608028D01*
X156601891Y-123487715D01*
X156601890Y-123487714D01*
X156601888Y-123487713D01*
X156514236Y-123443052D01*
X156419501Y-123394781D01*
X156224812Y-123331522D01*
X156041148Y-123302433D01*
X156022630Y-123299500D01*
X155817926Y-123299500D01*
X155799408Y-123302433D01*
X155615743Y-123331522D01*
X155421054Y-123394781D01*
X155238664Y-123487715D01*
X155073064Y-123608028D01*
X154928306Y-123752786D01*
X154807993Y-123918386D01*
X154715059Y-124100776D01*
X154651800Y-124295465D01*
X154619778Y-124497648D01*
X154100500Y-124497648D01*
X154100500Y-119734108D01*
X154066392Y-119606814D01*
X154000500Y-119492686D01*
X153907314Y-119399500D01*
X153801398Y-119338349D01*
X153793187Y-119333608D01*
X153729539Y-119316554D01*
X153665892Y-119299500D01*
X136265892Y-119299500D01*
X133665892Y-119299500D01*
X133534108Y-119299500D01*
X133406812Y-119333608D01*
X133292686Y-119399500D01*
X133292683Y-119399502D01*
X133199502Y-119492683D01*
X133199500Y-119492686D01*
X133133608Y-119606812D01*
X133099500Y-119734108D01*
X133099500Y-128575500D01*
X133079815Y-128642539D01*
X133027011Y-128688294D01*
X132975500Y-128699500D01*
X118534108Y-128699500D01*
X118406812Y-128733608D01*
X118292686Y-128799500D01*
X118292683Y-128799502D01*
X118199502Y-128892683D01*
X118199500Y-128892686D01*
X118133608Y-129006812D01*
X118099500Y-129134108D01*
X99500500Y-129134108D01*
X99500500Y-127289818D01*
X101100000Y-127289818D01*
X101100000Y-127510181D01*
X101134473Y-127727835D01*
X101202567Y-127937410D01*
X101302611Y-128133756D01*
X101348932Y-128197513D01*
X101860689Y-127685755D01*
X101879668Y-127731574D01*
X101956274Y-127846224D01*
X102053776Y-127943726D01*
X102168426Y-128020332D01*
X102214242Y-128039309D01*
X101702485Y-128551065D01*
X101702485Y-128551066D01*
X101766243Y-128597388D01*
X101962589Y-128697432D01*
X102172164Y-128765526D01*
X102389819Y-128800000D01*
X102610181Y-128800000D01*
X102827835Y-128765526D01*
X103037410Y-128697432D01*
X103233760Y-128597386D01*
X103297513Y-128551066D01*
X103297514Y-128551066D01*
X102785757Y-128039309D01*
X102831574Y-128020332D01*
X102946224Y-127943726D01*
X103043726Y-127846224D01*
X103120332Y-127731574D01*
X103139309Y-127685757D01*
X103651066Y-128197514D01*
X103651066Y-128197513D01*
X103697386Y-128133760D01*
X103797432Y-127937410D01*
X103865526Y-127727835D01*
X103900000Y-127510181D01*
X103900000Y-127289818D01*
X103865526Y-127072164D01*
X103797432Y-126862589D01*
X103697388Y-126666243D01*
X103651066Y-126602485D01*
X103651065Y-126602485D01*
X103139309Y-127114241D01*
X103120332Y-127068426D01*
X103043726Y-126953776D01*
X102946224Y-126856274D01*
X102831574Y-126779668D01*
X102785755Y-126760689D01*
X103297513Y-126248932D01*
X103233756Y-126202611D01*
X103037410Y-126102567D01*
X102827835Y-126034473D01*
X102610181Y-126000000D01*
X102389819Y-126000000D01*
X102172164Y-126034473D01*
X101962589Y-126102567D01*
X101766233Y-126202616D01*
X101702485Y-126248931D01*
X101702485Y-126248932D01*
X102214243Y-126760690D01*
X102168426Y-126779668D01*
X102053776Y-126856274D01*
X101956274Y-126953776D01*
X101879668Y-127068426D01*
X101860690Y-127114243D01*
X101348932Y-126602485D01*
X101348931Y-126602485D01*
X101302616Y-126666233D01*
X101202567Y-126862589D01*
X101134473Y-127072164D01*
X101100000Y-127289818D01*
X99500500Y-127289818D01*
X99500500Y-122289778D01*
X101099500Y-122289778D01*
X101099500Y-122510221D01*
X101133985Y-122727952D01*
X101202103Y-122937603D01*
X101202104Y-122937606D01*
X101270122Y-123071096D01*
X101290814Y-123111706D01*
X101302187Y-123134025D01*
X101431752Y-123312358D01*
X101431756Y-123312363D01*
X101587636Y-123468243D01*
X101587641Y-123468247D01*
X101614437Y-123487715D01*
X101765978Y-123597815D01*
X101894375Y-123663237D01*
X101962393Y-123697895D01*
X101962396Y-123697896D01*
X102063245Y-123730663D01*
X102172049Y-123766015D01*
X102389778Y-123800500D01*
X102389779Y-123800500D01*
X102610221Y-123800500D01*
X102610222Y-123800500D01*
X102827951Y-123766015D01*
X103037606Y-123697895D01*
X103234022Y-123597815D01*
X103412365Y-123468242D01*
X103568242Y-123312365D01*
X103697815Y-123134022D01*
X103797895Y-122937606D01*
X103866015Y-122727951D01*
X103900500Y-122510222D01*
X103900500Y-122289778D01*
X103866015Y-122072049D01*
X103797895Y-121862394D01*
X103797895Y-121862393D01*
X103763237Y-121794375D01*
X103697815Y-121665978D01*
X103681260Y-121643192D01*
X103568247Y-121487641D01*
X103568243Y-121487636D01*
X103412363Y-121331756D01*
X103412358Y-121331752D01*
X103234025Y-121202187D01*
X103234024Y-121202186D01*
X103234022Y-121202185D01*
X103132582Y-121150498D01*
X103037606Y-121102104D01*
X103037603Y-121102103D01*
X102827952Y-121033985D01*
X102719086Y-121016742D01*
X102610222Y-120999500D01*
X102389778Y-120999500D01*
X102317201Y-121010995D01*
X102172047Y-121033985D01*
X101962396Y-121102103D01*
X101962393Y-121102104D01*
X101765974Y-121202187D01*
X101587641Y-121331752D01*
X101587636Y-121331756D01*
X101431756Y-121487636D01*
X101431752Y-121487641D01*
X101302187Y-121665974D01*
X101202104Y-121862393D01*
X101202103Y-121862396D01*
X101133985Y-122072047D01*
X101099500Y-122289778D01*
X99500500Y-122289778D01*
X99500500Y-118902135D01*
X165229500Y-118902135D01*
X165229500Y-120697870D01*
X165229501Y-120697876D01*
X165235908Y-120757483D01*
X165286202Y-120892328D01*
X165286206Y-120892335D01*
X165372452Y-121007544D01*
X165372455Y-121007547D01*
X165487664Y-121093793D01*
X165487671Y-121093797D01*
X165622517Y-121144091D01*
X165622516Y-121144091D01*
X165629444Y-121144835D01*
X165682127Y-121150500D01*
X167477872Y-121150499D01*
X167537483Y-121144091D01*
X167672331Y-121093796D01*
X167787546Y-121007546D01*
X167873796Y-120892331D01*
X167922810Y-120760916D01*
X167964681Y-120704984D01*
X168030145Y-120680566D01*
X168098418Y-120695417D01*
X168126673Y-120716569D01*
X168240213Y-120830109D01*
X168412179Y-120955048D01*
X168412181Y-120955049D01*
X168412184Y-120955051D01*
X168601588Y-121051557D01*
X168803757Y-121117246D01*
X169013713Y-121150500D01*
X169013714Y-121150500D01*
X169226286Y-121150500D01*
X169226287Y-121150500D01*
X169436243Y-121117246D01*
X169638412Y-121051557D01*
X169827816Y-120955051D01*
X169914138Y-120892335D01*
X169999786Y-120830109D01*
X169999788Y-120830106D01*
X169999792Y-120830104D01*
X170150104Y-120679792D01*
X170150106Y-120679788D01*
X170150109Y-120679786D01*
X170275048Y-120507820D01*
X170275047Y-120507820D01*
X170275051Y-120507816D01*
X170279514Y-120499054D01*
X170327488Y-120448259D01*
X170395308Y-120431463D01*
X170461444Y-120453999D01*
X170500486Y-120499056D01*
X170504951Y-120507820D01*
X170629890Y-120679786D01*
X170780213Y-120830109D01*
X170952179Y-120955048D01*
X170952181Y-120955049D01*
X170952184Y-120955051D01*
X171141588Y-121051557D01*
X171343757Y-121117246D01*
X171553713Y-121150500D01*
X171553714Y-121150500D01*
X171766286Y-121150500D01*
X171766287Y-121150500D01*
X171976243Y-121117246D01*
X172178412Y-121051557D01*
X172367816Y-120955051D01*
X172454138Y-120892335D01*
X172539786Y-120830109D01*
X172539788Y-120830106D01*
X172539792Y-120830104D01*
X172690104Y-120679792D01*
X172690106Y-120679788D01*
X172690109Y-120679786D01*
X172815048Y-120507820D01*
X172815047Y-120507820D01*
X172815051Y-120507816D01*
X172819514Y-120499054D01*
X172867488Y-120448259D01*
X172935308Y-120431463D01*
X173001444Y-120453999D01*
X173040486Y-120499056D01*
X173044951Y-120507820D01*
X173169890Y-120679786D01*
X173320213Y-120830109D01*
X173492179Y-120955048D01*
X173492181Y-120955049D01*
X173492184Y-120955051D01*
X173681588Y-121051557D01*
X173883757Y-121117246D01*
X174093713Y-121150500D01*
X174093714Y-121150500D01*
X174306286Y-121150500D01*
X174306287Y-121150500D01*
X174516243Y-121117246D01*
X174718412Y-121051557D01*
X174907816Y-120955051D01*
X174994138Y-120892335D01*
X175079786Y-120830109D01*
X175079788Y-120830106D01*
X175079792Y-120830104D01*
X175230104Y-120679792D01*
X175230106Y-120679788D01*
X175230109Y-120679786D01*
X175355048Y-120507820D01*
X175355047Y-120507820D01*
X175355051Y-120507816D01*
X175359514Y-120499054D01*
X175407488Y-120448259D01*
X175475308Y-120431463D01*
X175541444Y-120453999D01*
X175580486Y-120499056D01*
X175584951Y-120507820D01*
X175709890Y-120679786D01*
X175860213Y-120830109D01*
X176032179Y-120955048D01*
X176032181Y-120955049D01*
X176032184Y-120955051D01*
X176221588Y-121051557D01*
X176423757Y-121117246D01*
X176633713Y-121150500D01*
X176633714Y-121150500D01*
X176846286Y-121150500D01*
X176846287Y-121150500D01*
X177056243Y-121117246D01*
X177258412Y-121051557D01*
X177447816Y-120955051D01*
X177534138Y-120892335D01*
X177619786Y-120830109D01*
X177619788Y-120830106D01*
X177619792Y-120830104D01*
X177770104Y-120679792D01*
X177770106Y-120679788D01*
X177770109Y-120679786D01*
X177855890Y-120561717D01*
X177895051Y-120507816D01*
X177899793Y-120498508D01*
X177947763Y-120447711D01*
X178015583Y-120430911D01*
X178081719Y-120453445D01*
X178120763Y-120498500D01*
X178125373Y-120507547D01*
X178164728Y-120561716D01*
X178797036Y-119929407D01*
X178814075Y-119992993D01*
X178879901Y-120107007D01*
X178972993Y-120200099D01*
X179087007Y-120265925D01*
X179150590Y-120282962D01*
X178518282Y-120915269D01*
X178518282Y-120915270D01*
X178572449Y-120954624D01*
X178761782Y-121051095D01*
X178963870Y-121116757D01*
X179173754Y-121150000D01*
X179386246Y-121150000D01*
X179596127Y-121116757D01*
X179596130Y-121116757D01*
X179798217Y-121051095D01*
X179987554Y-120954622D01*
X180041716Y-120915270D01*
X180041717Y-120915270D01*
X179409408Y-120282962D01*
X179472993Y-120265925D01*
X179587007Y-120200099D01*
X179680099Y-120107007D01*
X179745925Y-119992993D01*
X179762962Y-119929408D01*
X180395270Y-120561717D01*
X180395270Y-120561716D01*
X180434622Y-120507554D01*
X180531095Y-120318217D01*
X180596757Y-120116130D01*
X180596757Y-120116127D01*
X180630000Y-119906246D01*
X180630000Y-119693753D01*
X180596757Y-119483872D01*
X180596757Y-119483869D01*
X180531095Y-119281782D01*
X180434624Y-119092449D01*
X180395270Y-119038282D01*
X180395269Y-119038282D01*
X179762962Y-119670590D01*
X179745925Y-119607007D01*
X179680099Y-119492993D01*
X179587007Y-119399901D01*
X179472993Y-119334075D01*
X179409409Y-119317037D01*
X180041716Y-118684728D01*
X179987550Y-118645375D01*
X179798217Y-118548904D01*
X179596129Y-118483242D01*
X179386246Y-118450000D01*
X179173754Y-118450000D01*
X178963872Y-118483242D01*
X178963869Y-118483242D01*
X178761782Y-118548904D01*
X178572439Y-118645380D01*
X178518282Y-118684727D01*
X178518282Y-118684728D01*
X179150591Y-119317037D01*
X179087007Y-119334075D01*
X178972993Y-119399901D01*
X178879901Y-119492993D01*
X178814075Y-119607007D01*
X178797037Y-119670591D01*
X178164728Y-119038282D01*
X178164727Y-119038282D01*
X178125380Y-119092440D01*
X178125376Y-119092446D01*
X178120760Y-119101505D01*
X178072781Y-119152297D01*
X178004959Y-119169087D01*
X177938826Y-119146543D01*
X177899794Y-119101493D01*
X177895051Y-119092184D01*
X177895049Y-119092181D01*
X177895048Y-119092179D01*
X177770109Y-118920213D01*
X177619786Y-118769890D01*
X177447820Y-118644951D01*
X177258414Y-118548444D01*
X177258413Y-118548443D01*
X177258412Y-118548443D01*
X177056243Y-118482754D01*
X177056241Y-118482753D01*
X177056240Y-118482753D01*
X176894957Y-118457208D01*
X176846287Y-118449500D01*
X176633713Y-118449500D01*
X176585042Y-118457208D01*
X176423760Y-118482753D01*
X176221585Y-118548444D01*
X176032179Y-118644951D01*
X175860213Y-118769890D01*
X175709890Y-118920213D01*
X175584949Y-119092182D01*
X175580484Y-119100946D01*
X175532509Y-119151742D01*
X175464688Y-119168536D01*
X175398553Y-119145998D01*
X175359516Y-119100946D01*
X175355050Y-119092182D01*
X175230109Y-118920213D01*
X175079786Y-118769890D01*
X174907820Y-118644951D01*
X174718414Y-118548444D01*
X174718413Y-118548443D01*
X174718412Y-118548443D01*
X174516243Y-118482754D01*
X174516241Y-118482753D01*
X174516240Y-118482753D01*
X174354957Y-118457208D01*
X174306287Y-118449500D01*
X174093713Y-118449500D01*
X174045042Y-118457208D01*
X173883760Y-118482753D01*
X173681585Y-118548444D01*
X173492179Y-118644951D01*
X173320213Y-118769890D01*
X173169890Y-118920213D01*
X173044949Y-119092182D01*
X173040484Y-119100946D01*
X172992509Y-119151742D01*
X172924688Y-119168536D01*
X172858553Y-119145998D01*
X172819516Y-119100946D01*
X172815050Y-119092182D01*
X172690109Y-118920213D01*
X172539786Y-118769890D01*
X172367820Y-118644951D01*
X172178414Y-118548444D01*
X172178413Y-118548443D01*
X172178412Y-118548443D01*
X171976243Y-118482754D01*
X171976241Y-118482753D01*
X171976240Y-118482753D01*
X171814957Y-118457208D01*
X171766287Y-118449500D01*
X171553713Y-118449500D01*
X171505042Y-118457208D01*
X171343760Y-118482753D01*
X171141585Y-118548444D01*
X170952179Y-118644951D01*
X170780213Y-118769890D01*
X170629890Y-118920213D01*
X170504949Y-119092182D01*
X170500484Y-119100946D01*
X170452509Y-119151742D01*
X170384688Y-119168536D01*
X170318553Y-119145998D01*
X170279516Y-119100946D01*
X170275050Y-119092182D01*
X170150109Y-118920213D01*
X169999786Y-118769890D01*
X169827820Y-118644951D01*
X169638414Y-118548444D01*
X169638413Y-118548443D01*
X169638412Y-118548443D01*
X169436243Y-118482754D01*
X169436241Y-118482753D01*
X169436240Y-118482753D01*
X169274957Y-118457208D01*
X169226287Y-118449500D01*
X169013713Y-118449500D01*
X168965042Y-118457208D01*
X168803760Y-118482753D01*
X168601585Y-118548444D01*
X168412179Y-118644951D01*
X168240215Y-118769889D01*
X168126673Y-118883431D01*
X168065350Y-118916915D01*
X167995658Y-118911931D01*
X167939725Y-118870059D01*
X167922810Y-118839082D01*
X167873797Y-118707671D01*
X167873793Y-118707664D01*
X167787547Y-118592455D01*
X167787544Y-118592452D01*
X167672335Y-118506206D01*
X167672328Y-118506202D01*
X167537482Y-118455908D01*
X167537483Y-118455908D01*
X167477883Y-118449501D01*
X167477881Y-118449500D01*
X167477873Y-118449500D01*
X167477864Y-118449500D01*
X165682129Y-118449500D01*
X165682123Y-118449501D01*
X165622516Y-118455908D01*
X165487671Y-118506202D01*
X165487664Y-118506206D01*
X165372455Y-118592452D01*
X165372452Y-118592455D01*
X165286206Y-118707664D01*
X165286202Y-118707671D01*
X165235908Y-118842517D01*
X165229501Y-118902116D01*
X165229500Y-118902135D01*
X99500500Y-118902135D01*
X99500500Y-116452135D01*
X101099500Y-116452135D01*
X101099500Y-118347870D01*
X101099501Y-118347876D01*
X101105908Y-118407483D01*
X101156202Y-118542328D01*
X101156206Y-118542335D01*
X101242452Y-118657544D01*
X101242455Y-118657547D01*
X101357664Y-118743793D01*
X101357671Y-118743797D01*
X101492517Y-118794091D01*
X101492516Y-118794091D01*
X101499444Y-118794835D01*
X101552127Y-118800500D01*
X103447872Y-118800499D01*
X103507483Y-118794091D01*
X103642331Y-118743796D01*
X103757546Y-118657546D01*
X103843796Y-118542331D01*
X103894091Y-118407483D01*
X103900500Y-118347873D01*
X103900499Y-116452128D01*
X103894091Y-116392517D01*
X103888138Y-116376557D01*
X103843797Y-116257671D01*
X103843793Y-116257664D01*
X103757547Y-116142455D01*
X103757544Y-116142452D01*
X103642335Y-116056206D01*
X103642328Y-116056202D01*
X103507482Y-116005908D01*
X103507483Y-116005908D01*
X103447883Y-115999501D01*
X103447881Y-115999500D01*
X103447873Y-115999500D01*
X103447864Y-115999500D01*
X101552129Y-115999500D01*
X101552123Y-115999501D01*
X101492516Y-116005908D01*
X101357671Y-116056202D01*
X101357664Y-116056206D01*
X101242455Y-116142452D01*
X101242452Y-116142455D01*
X101156206Y-116257664D01*
X101156202Y-116257671D01*
X101105908Y-116392517D01*
X101103083Y-116418797D01*
X101099501Y-116452123D01*
X101099500Y-116452135D01*
X99500500Y-116452135D01*
X99500500Y-115018713D01*
X116829500Y-115018713D01*
X116829500Y-115231286D01*
X116861019Y-115430293D01*
X116862754Y-115441243D01*
X116921727Y-115622743D01*
X116928444Y-115643414D01*
X117024951Y-115832820D01*
X117149890Y-116004786D01*
X117300213Y-116155109D01*
X117472179Y-116280048D01*
X117472181Y-116280049D01*
X117472184Y-116280051D01*
X117661588Y-116376557D01*
X117863757Y-116442246D01*
X118073713Y-116475500D01*
X118073714Y-116475500D01*
X118286286Y-116475500D01*
X118286287Y-116475500D01*
X118496243Y-116442246D01*
X118698412Y-116376557D01*
X118887816Y-116280051D01*
X118974138Y-116217335D01*
X119059786Y-116155109D01*
X119059788Y-116155106D01*
X119059792Y-116155104D01*
X119210104Y-116004792D01*
X119210106Y-116004788D01*
X119210109Y-116004786D01*
X119295890Y-115886717D01*
X119335051Y-115832816D01*
X119339793Y-115823508D01*
X119387763Y-115772711D01*
X119455583Y-115755911D01*
X119521719Y-115778445D01*
X119560763Y-115823500D01*
X119565373Y-115832547D01*
X119604728Y-115886716D01*
X120237037Y-115254408D01*
X120254075Y-115317993D01*
X120319901Y-115432007D01*
X120412993Y-115525099D01*
X120527007Y-115590925D01*
X120590590Y-115607962D01*
X119958282Y-116240269D01*
X119958282Y-116240270D01*
X120012449Y-116279624D01*
X120201782Y-116376095D01*
X120403870Y-116441757D01*
X120613754Y-116475000D01*
X120826246Y-116475000D01*
X121036127Y-116441757D01*
X121036130Y-116441757D01*
X121238217Y-116376095D01*
X121427554Y-116279622D01*
X121481716Y-116240270D01*
X121481717Y-116240270D01*
X120849408Y-115607962D01*
X120912993Y-115590925D01*
X121027007Y-115525099D01*
X121120099Y-115432007D01*
X121185925Y-115317993D01*
X121202962Y-115254408D01*
X121835270Y-115886717D01*
X121835270Y-115886716D01*
X121874622Y-115832555D01*
X121879232Y-115823507D01*
X121927205Y-115772709D01*
X121995025Y-115755912D01*
X122061161Y-115778447D01*
X122100204Y-115823504D01*
X122104949Y-115832817D01*
X122229890Y-116004786D01*
X122380213Y-116155109D01*
X122552179Y-116280048D01*
X122552181Y-116280049D01*
X122552184Y-116280051D01*
X122741588Y-116376557D01*
X122943757Y-116442246D01*
X123153713Y-116475500D01*
X123153714Y-116475500D01*
X123366286Y-116475500D01*
X123366287Y-116475500D01*
X123576243Y-116442246D01*
X123778412Y-116376557D01*
X123967816Y-116280051D01*
X124054138Y-116217335D01*
X124139786Y-116155109D01*
X124139788Y-116155106D01*
X124139792Y-116155104D01*
X124290104Y-116004792D01*
X124290106Y-116004788D01*
X124290109Y-116004786D01*
X124415048Y-115832820D01*
X124415047Y-115832820D01*
X124415051Y-115832816D01*
X124419514Y-115824054D01*
X124467488Y-115773259D01*
X124535308Y-115756463D01*
X124601444Y-115778999D01*
X124640486Y-115824056D01*
X124644951Y-115832820D01*
X124769890Y-116004786D01*
X124920213Y-116155109D01*
X125092179Y-116280048D01*
X125092181Y-116280049D01*
X125092184Y-116280051D01*
X125281588Y-116376557D01*
X125483757Y-116442246D01*
X125693713Y-116475500D01*
X125693714Y-116475500D01*
X125906286Y-116475500D01*
X125906287Y-116475500D01*
X126116243Y-116442246D01*
X126318412Y-116376557D01*
X126507816Y-116280051D01*
X126594138Y-116217335D01*
X126679786Y-116155109D01*
X126679788Y-116155106D01*
X126679792Y-116155104D01*
X126830104Y-116004792D01*
X126830106Y-116004788D01*
X126830109Y-116004786D01*
X126955048Y-115832820D01*
X126955047Y-115832820D01*
X126955051Y-115832816D01*
X126959514Y-115824054D01*
X127007488Y-115773259D01*
X127075308Y-115756463D01*
X127141444Y-115778999D01*
X127180486Y-115824056D01*
X127184951Y-115832820D01*
X127309890Y-116004786D01*
X127460213Y-116155109D01*
X127632179Y-116280048D01*
X127632181Y-116280049D01*
X127632184Y-116280051D01*
X127821588Y-116376557D01*
X128023757Y-116442246D01*
X128233713Y-116475500D01*
X128233714Y-116475500D01*
X128446286Y-116475500D01*
X128446287Y-116475500D01*
X128656243Y-116442246D01*
X128858412Y-116376557D01*
X129047816Y-116280051D01*
X129134138Y-116217335D01*
X129219786Y-116155109D01*
X129219788Y-116155106D01*
X129219792Y-116155104D01*
X129370104Y-116004792D01*
X129370106Y-116004788D01*
X129370109Y-116004786D01*
X129495048Y-115832820D01*
X129495047Y-115832820D01*
X129495051Y-115832816D01*
X129499514Y-115824054D01*
X129547488Y-115773259D01*
X129615308Y-115756463D01*
X129681444Y-115778999D01*
X129720486Y-115824056D01*
X129724951Y-115832820D01*
X129849890Y-116004786D01*
X130000213Y-116155109D01*
X130172179Y-116280048D01*
X130172181Y-116280049D01*
X130172184Y-116280051D01*
X130361588Y-116376557D01*
X130563757Y-116442246D01*
X130773713Y-116475500D01*
X130773714Y-116475500D01*
X130986286Y-116475500D01*
X130986287Y-116475500D01*
X131196243Y-116442246D01*
X131398412Y-116376557D01*
X131587816Y-116280051D01*
X131674138Y-116217335D01*
X131759786Y-116155109D01*
X131759788Y-116155106D01*
X131759792Y-116155104D01*
X131910104Y-116004792D01*
X131910106Y-116004788D01*
X131910109Y-116004786D01*
X132035048Y-115832820D01*
X132035047Y-115832820D01*
X132035051Y-115832816D01*
X132039514Y-115824054D01*
X132087488Y-115773259D01*
X132155308Y-115756463D01*
X132221444Y-115778999D01*
X132260486Y-115824056D01*
X132264951Y-115832820D01*
X132389890Y-116004786D01*
X132540213Y-116155109D01*
X132712179Y-116280048D01*
X132712181Y-116280049D01*
X132712184Y-116280051D01*
X132901588Y-116376557D01*
X133103757Y-116442246D01*
X133313713Y-116475500D01*
X133313714Y-116475500D01*
X133526286Y-116475500D01*
X133526287Y-116475500D01*
X133736243Y-116442246D01*
X133938412Y-116376557D01*
X134127816Y-116280051D01*
X134214138Y-116217335D01*
X134299786Y-116155109D01*
X134299788Y-116155106D01*
X134299792Y-116155104D01*
X134450104Y-116004792D01*
X134450106Y-116004788D01*
X134450109Y-116004786D01*
X134575048Y-115832820D01*
X134575047Y-115832820D01*
X134575051Y-115832816D01*
X134579514Y-115824054D01*
X134627488Y-115773259D01*
X134695308Y-115756463D01*
X134761444Y-115778999D01*
X134800486Y-115824056D01*
X134804951Y-115832820D01*
X134929890Y-116004786D01*
X135080213Y-116155109D01*
X135252179Y-116280048D01*
X135252181Y-116280049D01*
X135252184Y-116280051D01*
X135441588Y-116376557D01*
X135643757Y-116442246D01*
X135853713Y-116475500D01*
X135853714Y-116475500D01*
X136066286Y-116475500D01*
X136066287Y-116475500D01*
X136276243Y-116442246D01*
X136478412Y-116376557D01*
X136667816Y-116280051D01*
X136754138Y-116217335D01*
X136839786Y-116155109D01*
X136839788Y-116155106D01*
X136839792Y-116155104D01*
X136990104Y-116004792D01*
X136990106Y-116004788D01*
X136990109Y-116004786D01*
X137115048Y-115832820D01*
X137115047Y-115832820D01*
X137115051Y-115832816D01*
X137119514Y-115824054D01*
X137167488Y-115773259D01*
X137235308Y-115756463D01*
X137301444Y-115778999D01*
X137340486Y-115824056D01*
X137344951Y-115832820D01*
X137469890Y-116004786D01*
X137620213Y-116155109D01*
X137792179Y-116280048D01*
X137792181Y-116280049D01*
X137792184Y-116280051D01*
X137981588Y-116376557D01*
X138183757Y-116442246D01*
X138393713Y-116475500D01*
X138393714Y-116475500D01*
X138606286Y-116475500D01*
X138606287Y-116475500D01*
X138816243Y-116442246D01*
X139018412Y-116376557D01*
X139207816Y-116280051D01*
X139294138Y-116217335D01*
X139379786Y-116155109D01*
X139379788Y-116155106D01*
X139379792Y-116155104D01*
X139530104Y-116004792D01*
X139530106Y-116004788D01*
X139530109Y-116004786D01*
X139655048Y-115832820D01*
X139655047Y-115832820D01*
X139655051Y-115832816D01*
X139659514Y-115824054D01*
X139707488Y-115773259D01*
X139775308Y-115756463D01*
X139841444Y-115778999D01*
X139880486Y-115824056D01*
X139884951Y-115832820D01*
X140009890Y-116004786D01*
X140160213Y-116155109D01*
X140332179Y-116280048D01*
X140332181Y-116280049D01*
X140332184Y-116280051D01*
X140521588Y-116376557D01*
X140723757Y-116442246D01*
X140933713Y-116475500D01*
X140933714Y-116475500D01*
X141146286Y-116475500D01*
X141146287Y-116475500D01*
X141356243Y-116442246D01*
X141558412Y-116376557D01*
X141747816Y-116280051D01*
X141834138Y-116217335D01*
X141919786Y-116155109D01*
X141919788Y-116155106D01*
X141919792Y-116155104D01*
X142070104Y-116004792D01*
X142070106Y-116004788D01*
X142070109Y-116004786D01*
X142195048Y-115832820D01*
X142195047Y-115832820D01*
X142195051Y-115832816D01*
X142199514Y-115824054D01*
X142247488Y-115773259D01*
X142315308Y-115756463D01*
X142381444Y-115778999D01*
X142420486Y-115824056D01*
X142424951Y-115832820D01*
X142549890Y-116004786D01*
X142700213Y-116155109D01*
X142872179Y-116280048D01*
X142872181Y-116280049D01*
X142872184Y-116280051D01*
X143061588Y-116376557D01*
X143263757Y-116442246D01*
X143473713Y-116475500D01*
X143473714Y-116475500D01*
X143686286Y-116475500D01*
X143686287Y-116475500D01*
X143896243Y-116442246D01*
X144098412Y-116376557D01*
X144287816Y-116280051D01*
X144374138Y-116217335D01*
X144459786Y-116155109D01*
X144459788Y-116155106D01*
X144459792Y-116155104D01*
X144610104Y-116004792D01*
X144610106Y-116004788D01*
X144610109Y-116004786D01*
X144735048Y-115832820D01*
X144735047Y-115832820D01*
X144735051Y-115832816D01*
X144739514Y-115824054D01*
X144787488Y-115773259D01*
X144855308Y-115756463D01*
X144921444Y-115778999D01*
X144960486Y-115824056D01*
X144964951Y-115832820D01*
X145089890Y-116004786D01*
X145240213Y-116155109D01*
X145412179Y-116280048D01*
X145412181Y-116280049D01*
X145412184Y-116280051D01*
X145601588Y-116376557D01*
X145803757Y-116442246D01*
X146013713Y-116475500D01*
X146013714Y-116475500D01*
X146226286Y-116475500D01*
X146226287Y-116475500D01*
X146436243Y-116442246D01*
X146638412Y-116376557D01*
X146827816Y-116280051D01*
X146914138Y-116217335D01*
X146999786Y-116155109D01*
X146999788Y-116155106D01*
X146999792Y-116155104D01*
X147150104Y-116004792D01*
X147150106Y-116004788D01*
X147150109Y-116004786D01*
X147275048Y-115832820D01*
X147275047Y-115832820D01*
X147275051Y-115832816D01*
X147279514Y-115824054D01*
X147327488Y-115773259D01*
X147395308Y-115756463D01*
X147461444Y-115778999D01*
X147500486Y-115824056D01*
X147504951Y-115832820D01*
X147629890Y-116004786D01*
X147780213Y-116155109D01*
X147952179Y-116280048D01*
X147952181Y-116280049D01*
X147952184Y-116280051D01*
X148141588Y-116376557D01*
X148343757Y-116442246D01*
X148553713Y-116475500D01*
X148553714Y-116475500D01*
X148766286Y-116475500D01*
X148766287Y-116475500D01*
X148976243Y-116442246D01*
X149178412Y-116376557D01*
X149367816Y-116280051D01*
X149454147Y-116217328D01*
X149539784Y-116155110D01*
X149539784Y-116155109D01*
X149539792Y-116155104D01*
X149653329Y-116041566D01*
X149714648Y-116008084D01*
X149784340Y-116013068D01*
X149840274Y-116054939D01*
X149857189Y-116085917D01*
X149906202Y-116217328D01*
X149906206Y-116217335D01*
X149992452Y-116332544D01*
X149992455Y-116332547D01*
X150107664Y-116418793D01*
X150107671Y-116418797D01*
X150242517Y-116469091D01*
X150242516Y-116469091D01*
X150249444Y-116469835D01*
X150302127Y-116475500D01*
X152097872Y-116475499D01*
X152157483Y-116469091D01*
X152292331Y-116418796D01*
X152407546Y-116332546D01*
X152493796Y-116217331D01*
X152544091Y-116082483D01*
X152550500Y-116022873D01*
X152550499Y-114278711D01*
X184924500Y-114278711D01*
X184924500Y-114521288D01*
X184956161Y-114761785D01*
X185018947Y-114996104D01*
X185111773Y-115220205D01*
X185111777Y-115220214D01*
X185118170Y-115231287D01*
X185233064Y-115430289D01*
X185233066Y-115430292D01*
X185233067Y-115430293D01*
X185380733Y-115622736D01*
X185380739Y-115622743D01*
X185552256Y-115794260D01*
X185552263Y-115794266D01*
X185602503Y-115832816D01*
X185744711Y-115941936D01*
X185954788Y-116063224D01*
X186146062Y-116142452D01*
X186176618Y-116155109D01*
X186178900Y-116156054D01*
X186413211Y-116218838D01*
X186576006Y-116240270D01*
X186653711Y-116250500D01*
X186653712Y-116250500D01*
X186896289Y-116250500D01*
X186944388Y-116244167D01*
X187136789Y-116218838D01*
X187371100Y-116156054D01*
X187595212Y-116063224D01*
X187805289Y-115941936D01*
X187997738Y-115794265D01*
X188169265Y-115622738D01*
X188316936Y-115430289D01*
X188438224Y-115220212D01*
X188531054Y-114996100D01*
X188593838Y-114761789D01*
X188625500Y-114521288D01*
X188625500Y-114278712D01*
X188593838Y-114038211D01*
X188531054Y-113803900D01*
X188438224Y-113579788D01*
X188316936Y-113369711D01*
X188169265Y-113177262D01*
X188169260Y-113177256D01*
X187997743Y-113005739D01*
X187997736Y-113005733D01*
X187805293Y-112858067D01*
X187805292Y-112858066D01*
X187805289Y-112858064D01*
X187595212Y-112736776D01*
X187595205Y-112736773D01*
X187371104Y-112643947D01*
X187136785Y-112581161D01*
X186896289Y-112549500D01*
X186896288Y-112549500D01*
X186653712Y-112549500D01*
X186653711Y-112549500D01*
X186413214Y-112581161D01*
X186178895Y-112643947D01*
X185954794Y-112736773D01*
X185954785Y-112736777D01*
X185744706Y-112858067D01*
X185552263Y-113005733D01*
X185552256Y-113005739D01*
X185380739Y-113177256D01*
X185380733Y-113177263D01*
X185233067Y-113369706D01*
X185111777Y-113579785D01*
X185111773Y-113579794D01*
X185018947Y-113803895D01*
X184956161Y-114038214D01*
X184924500Y-114278711D01*
X152550499Y-114278711D01*
X152550499Y-114227128D01*
X152544091Y-114167517D01*
X152542810Y-114164083D01*
X152493797Y-114032671D01*
X152493793Y-114032664D01*
X152407547Y-113917455D01*
X152407544Y-113917452D01*
X152292335Y-113831206D01*
X152292328Y-113831202D01*
X152157482Y-113780908D01*
X152157483Y-113780908D01*
X152097883Y-113774501D01*
X152097881Y-113774500D01*
X152097873Y-113774500D01*
X152097864Y-113774500D01*
X150302129Y-113774500D01*
X150302123Y-113774501D01*
X150242516Y-113780908D01*
X150107671Y-113831202D01*
X150107664Y-113831206D01*
X149992455Y-113917452D01*
X149992452Y-113917455D01*
X149906206Y-114032664D01*
X149906203Y-114032669D01*
X149857189Y-114164083D01*
X149815317Y-114220016D01*
X149749853Y-114244433D01*
X149681580Y-114229581D01*
X149653326Y-114208430D01*
X149539786Y-114094890D01*
X149367820Y-113969951D01*
X149178414Y-113873444D01*
X149178413Y-113873443D01*
X149178412Y-113873443D01*
X148976243Y-113807754D01*
X148976241Y-113807753D01*
X148976240Y-113807753D01*
X148814957Y-113782208D01*
X148766287Y-113774500D01*
X148553713Y-113774500D01*
X148505042Y-113782208D01*
X148343760Y-113807753D01*
X148141585Y-113873444D01*
X147952179Y-113969951D01*
X147780213Y-114094890D01*
X147629890Y-114245213D01*
X147504949Y-114417182D01*
X147500484Y-114425946D01*
X147452509Y-114476742D01*
X147384688Y-114493536D01*
X147318553Y-114470998D01*
X147279516Y-114425946D01*
X147275050Y-114417182D01*
X147150109Y-114245213D01*
X146999786Y-114094890D01*
X146827820Y-113969951D01*
X146638414Y-113873444D01*
X146638413Y-113873443D01*
X146638412Y-113873443D01*
X146436243Y-113807754D01*
X146436241Y-113807753D01*
X146436240Y-113807753D01*
X146274957Y-113782208D01*
X146226287Y-113774500D01*
X146013713Y-113774500D01*
X145965042Y-113782208D01*
X145803760Y-113807753D01*
X145601585Y-113873444D01*
X145412179Y-113969951D01*
X145240213Y-114094890D01*
X145089890Y-114245213D01*
X144964949Y-114417182D01*
X144960484Y-114425946D01*
X144912509Y-114476742D01*
X144844688Y-114493536D01*
X144778553Y-114470998D01*
X144739516Y-114425946D01*
X144735050Y-114417182D01*
X144610109Y-114245213D01*
X144459786Y-114094890D01*
X144287820Y-113969951D01*
X144098414Y-113873444D01*
X144098413Y-113873443D01*
X144098412Y-113873443D01*
X143896243Y-113807754D01*
X143896241Y-113807753D01*
X143896240Y-113807753D01*
X143734957Y-113782208D01*
X143686287Y-113774500D01*
X143473713Y-113774500D01*
X143425042Y-113782208D01*
X143263760Y-113807753D01*
X143061585Y-113873444D01*
X142872179Y-113969951D01*
X142700213Y-114094890D01*
X142549890Y-114245213D01*
X142424949Y-114417182D01*
X142420484Y-114425946D01*
X142372509Y-114476742D01*
X142304688Y-114493536D01*
X142238553Y-114470998D01*
X142199516Y-114425946D01*
X142195050Y-114417182D01*
X142070109Y-114245213D01*
X141919786Y-114094890D01*
X141747820Y-113969951D01*
X141558414Y-113873444D01*
X141558413Y-113873443D01*
X141558412Y-113873443D01*
X141356243Y-113807754D01*
X141356241Y-113807753D01*
X141356240Y-113807753D01*
X141194957Y-113782208D01*
X141146287Y-113774500D01*
X140933713Y-113774500D01*
X140885042Y-113782208D01*
X140723760Y-113807753D01*
X140521585Y-113873444D01*
X140332179Y-113969951D01*
X140160213Y-114094890D01*
X140009890Y-114245213D01*
X139884949Y-114417182D01*
X139880484Y-114425946D01*
X139832509Y-114476742D01*
X139764688Y-114493536D01*
X139698553Y-114470998D01*
X139659516Y-114425946D01*
X139655050Y-114417182D01*
X139530109Y-114245213D01*
X139379786Y-114094890D01*
X139207820Y-113969951D01*
X139018414Y-113873444D01*
X139018413Y-113873443D01*
X139018412Y-113873443D01*
X138816243Y-113807754D01*
X138816241Y-113807753D01*
X138816240Y-113807753D01*
X138654957Y-113782208D01*
X138606287Y-113774500D01*
X138393713Y-113774500D01*
X138345042Y-113782208D01*
X138183760Y-113807753D01*
X137981585Y-113873444D01*
X137792179Y-113969951D01*
X137620213Y-114094890D01*
X137469890Y-114245213D01*
X137344949Y-114417182D01*
X137340484Y-114425946D01*
X137292509Y-114476742D01*
X137224688Y-114493536D01*
X137158553Y-114470998D01*
X137119516Y-114425946D01*
X137115050Y-114417182D01*
X136990109Y-114245213D01*
X136839786Y-114094890D01*
X136667820Y-113969951D01*
X136478414Y-113873444D01*
X136478413Y-113873443D01*
X136478412Y-113873443D01*
X136276243Y-113807754D01*
X136276241Y-113807753D01*
X136276240Y-113807753D01*
X136114957Y-113782208D01*
X136066287Y-113774500D01*
X135853713Y-113774500D01*
X135805042Y-113782208D01*
X135643760Y-113807753D01*
X135441585Y-113873444D01*
X135252179Y-113969951D01*
X135080213Y-114094890D01*
X134929890Y-114245213D01*
X134804949Y-114417182D01*
X134800484Y-114425946D01*
X134752509Y-114476742D01*
X134684688Y-114493536D01*
X134618553Y-114470998D01*
X134579516Y-114425946D01*
X134575050Y-114417182D01*
X134450109Y-114245213D01*
X134299786Y-114094890D01*
X134127820Y-113969951D01*
X133938414Y-113873444D01*
X133938413Y-113873443D01*
X133938412Y-113873443D01*
X133736243Y-113807754D01*
X133736241Y-113807753D01*
X133736240Y-113807753D01*
X133574957Y-113782208D01*
X133526287Y-113774500D01*
X133313713Y-113774500D01*
X133265042Y-113782208D01*
X133103760Y-113807753D01*
X132901585Y-113873444D01*
X132712179Y-113969951D01*
X132540213Y-114094890D01*
X132389890Y-114245213D01*
X132264949Y-114417182D01*
X132260484Y-114425946D01*
X132212509Y-114476742D01*
X132144688Y-114493536D01*
X132078553Y-114470998D01*
X132039516Y-114425946D01*
X132035050Y-114417182D01*
X131910109Y-114245213D01*
X131759786Y-114094890D01*
X131587820Y-113969951D01*
X131398414Y-113873444D01*
X131398413Y-113873443D01*
X131398412Y-113873443D01*
X131196243Y-113807754D01*
X131196241Y-113807753D01*
X131196240Y-113807753D01*
X131034957Y-113782208D01*
X130986287Y-113774500D01*
X130773713Y-113774500D01*
X130725042Y-113782208D01*
X130563760Y-113807753D01*
X130361585Y-113873444D01*
X130172179Y-113969951D01*
X130000213Y-114094890D01*
X129849890Y-114245213D01*
X129724949Y-114417182D01*
X129720484Y-114425946D01*
X129672509Y-114476742D01*
X129604688Y-114493536D01*
X129538553Y-114470998D01*
X129499516Y-114425946D01*
X129495050Y-114417182D01*
X129370109Y-114245213D01*
X129219786Y-114094890D01*
X129047820Y-113969951D01*
X128858414Y-113873444D01*
X128858413Y-113873443D01*
X128858412Y-113873443D01*
X128656243Y-113807754D01*
X128656241Y-113807753D01*
X128656240Y-113807753D01*
X128494957Y-113782208D01*
X128446287Y-113774500D01*
X128233713Y-113774500D01*
X128185042Y-113782208D01*
X128023760Y-113807753D01*
X127821585Y-113873444D01*
X127632179Y-113969951D01*
X127460213Y-114094890D01*
X127309890Y-114245213D01*
X127184949Y-114417182D01*
X127180484Y-114425946D01*
X127132509Y-114476742D01*
X127064688Y-114493536D01*
X126998553Y-114470998D01*
X126959516Y-114425946D01*
X126955050Y-114417182D01*
X126830109Y-114245213D01*
X126679786Y-114094890D01*
X126507820Y-113969951D01*
X126318414Y-113873444D01*
X126318413Y-113873443D01*
X126318412Y-113873443D01*
X126116243Y-113807754D01*
X126116241Y-113807753D01*
X126116240Y-113807753D01*
X125954957Y-113782208D01*
X125906287Y-113774500D01*
X125693713Y-113774500D01*
X125645042Y-113782208D01*
X125483760Y-113807753D01*
X125281585Y-113873444D01*
X125092179Y-113969951D01*
X124920213Y-114094890D01*
X124769890Y-114245213D01*
X124644949Y-114417182D01*
X124640484Y-114425946D01*
X124592509Y-114476742D01*
X124524688Y-114493536D01*
X124458553Y-114470998D01*
X124419516Y-114425946D01*
X124415050Y-114417182D01*
X124290109Y-114245213D01*
X124139786Y-114094890D01*
X123967820Y-113969951D01*
X123778414Y-113873444D01*
X123778413Y-113873443D01*
X123778412Y-113873443D01*
X123576243Y-113807754D01*
X123576241Y-113807753D01*
X123576240Y-113807753D01*
X123414957Y-113782208D01*
X123366287Y-113774500D01*
X123153713Y-113774500D01*
X123105042Y-113782208D01*
X122943760Y-113807753D01*
X122741585Y-113873444D01*
X122552179Y-113969951D01*
X122380213Y-114094890D01*
X122229890Y-114245213D01*
X122104949Y-114417182D01*
X122100202Y-114426499D01*
X122052227Y-114477293D01*
X121984405Y-114494087D01*
X121918271Y-114471548D01*
X121879234Y-114426495D01*
X121874626Y-114417452D01*
X121835270Y-114363282D01*
X121835269Y-114363282D01*
X121202962Y-114995590D01*
X121185925Y-114932007D01*
X121120099Y-114817993D01*
X121027007Y-114724901D01*
X120912993Y-114659075D01*
X120849409Y-114642037D01*
X121481716Y-114009728D01*
X121427550Y-113970375D01*
X121238217Y-113873904D01*
X121036129Y-113808242D01*
X120826246Y-113775000D01*
X120613754Y-113775000D01*
X120403872Y-113808242D01*
X120403869Y-113808242D01*
X120201782Y-113873904D01*
X120012439Y-113970380D01*
X119958282Y-114009727D01*
X119958282Y-114009728D01*
X120590591Y-114642037D01*
X120527007Y-114659075D01*
X120412993Y-114724901D01*
X120319901Y-114817993D01*
X120254075Y-114932007D01*
X120237037Y-114995591D01*
X119604728Y-114363282D01*
X119604727Y-114363282D01*
X119565380Y-114417440D01*
X119565376Y-114417446D01*
X119560760Y-114426505D01*
X119512781Y-114477297D01*
X119444959Y-114494087D01*
X119378826Y-114471543D01*
X119339794Y-114426493D01*
X119335051Y-114417184D01*
X119335049Y-114417181D01*
X119335048Y-114417179D01*
X119210109Y-114245213D01*
X119059786Y-114094890D01*
X118887820Y-113969951D01*
X118698414Y-113873444D01*
X118698413Y-113873443D01*
X118698412Y-113873443D01*
X118496243Y-113807754D01*
X118496241Y-113807753D01*
X118496240Y-113807753D01*
X118334957Y-113782208D01*
X118286287Y-113774500D01*
X118073713Y-113774500D01*
X118025042Y-113782208D01*
X117863760Y-113807753D01*
X117661585Y-113873444D01*
X117472179Y-113969951D01*
X117300213Y-114094890D01*
X117149890Y-114245213D01*
X117024951Y-114417179D01*
X116928444Y-114606585D01*
X116862753Y-114808760D01*
X116829500Y-115018713D01*
X99500500Y-115018713D01*
X99500500Y-111871468D01*
X172547897Y-111871468D01*
X172575777Y-112011625D01*
X172575779Y-112011631D01*
X172630467Y-112143661D01*
X172630472Y-112143670D01*
X172709865Y-112262489D01*
X172709868Y-112262493D01*
X172810915Y-112363540D01*
X172810919Y-112363543D01*
X172929738Y-112442936D01*
X172929744Y-112442939D01*
X172929745Y-112442940D01*
X173061778Y-112497630D01*
X173061782Y-112497630D01*
X173061783Y-112497631D01*
X173201940Y-112525511D01*
X173201943Y-112525511D01*
X173344855Y-112525511D01*
X173439149Y-112506753D01*
X173485018Y-112497630D01*
X173550959Y-112470315D01*
X173620427Y-112462846D01*
X173645855Y-112470311D01*
X173711780Y-112497619D01*
X173711784Y-112497619D01*
X173711785Y-112497620D01*
X173851942Y-112525500D01*
X173851945Y-112525500D01*
X173994857Y-112525500D01*
X174089151Y-112506742D01*
X174135020Y-112497619D01*
X174267053Y-112442929D01*
X174385879Y-112363532D01*
X174486932Y-112262479D01*
X174566329Y-112143653D01*
X174621019Y-112011620D01*
X174630142Y-111965751D01*
X174648900Y-111871457D01*
X174648900Y-111728542D01*
X174621020Y-111588385D01*
X174621019Y-111588384D01*
X174621019Y-111588380D01*
X174578718Y-111486258D01*
X174566330Y-111456349D01*
X174566325Y-111456340D01*
X174486932Y-111337521D01*
X174486929Y-111337517D01*
X174385882Y-111236470D01*
X174385878Y-111236467D01*
X174267059Y-111157074D01*
X174267050Y-111157069D01*
X174135020Y-111102381D01*
X174135014Y-111102379D01*
X173994857Y-111074500D01*
X173994855Y-111074500D01*
X173851945Y-111074500D01*
X173851943Y-111074500D01*
X173711786Y-111102379D01*
X173711779Y-111102381D01*
X173645835Y-111129695D01*
X173576366Y-111137162D01*
X173550933Y-111129694D01*
X173485022Y-111102393D01*
X173485012Y-111102390D01*
X173344855Y-111074511D01*
X173344853Y-111074511D01*
X173201943Y-111074511D01*
X173201941Y-111074511D01*
X173061783Y-111102390D01*
X173061777Y-111102392D01*
X172929747Y-111157080D01*
X172929738Y-111157085D01*
X172810919Y-111236478D01*
X172810915Y-111236481D01*
X172709868Y-111337528D01*
X172709865Y-111337532D01*
X172630472Y-111456351D01*
X172630467Y-111456360D01*
X172575779Y-111588390D01*
X172575777Y-111588396D01*
X172547898Y-111728553D01*
X172547898Y-111728556D01*
X172547898Y-111871466D01*
X172547898Y-111871468D01*
X172547897Y-111871468D01*
X99500500Y-111871468D01*
X99500500Y-109130000D01*
X100095261Y-109130000D01*
X101170272Y-109130000D01*
X101078386Y-109168060D01*
X101008060Y-109238386D01*
X100970000Y-109330272D01*
X100970000Y-109429728D01*
X101008060Y-109521614D01*
X101078386Y-109591940D01*
X101170272Y-109630000D01*
X100095261Y-109630000D01*
X100098315Y-109649285D01*
X100098318Y-109649295D01*
X100154250Y-109821441D01*
X100154252Y-109821447D01*
X100236434Y-109982734D01*
X100342823Y-110129169D01*
X100470830Y-110257176D01*
X100617265Y-110363565D01*
X100778552Y-110445747D01*
X100778555Y-110445748D01*
X100950706Y-110501682D01*
X101129494Y-110530000D01*
X101370000Y-110530000D01*
X101370000Y-109630000D01*
X101870000Y-109630000D01*
X101870000Y-110530000D01*
X102110506Y-110530000D01*
X102289293Y-110501682D01*
X102461444Y-110445748D01*
X102461447Y-110445747D01*
X102622734Y-110363565D01*
X102769169Y-110257176D01*
X102897176Y-110129169D01*
X103003565Y-109982734D01*
X103085747Y-109821447D01*
X103085749Y-109821441D01*
X103141681Y-109649295D01*
X103141684Y-109649285D01*
X103144739Y-109630000D01*
X102069728Y-109630000D01*
X102161614Y-109591940D01*
X102231940Y-109521614D01*
X102270000Y-109429728D01*
X102270000Y-109330272D01*
X102231940Y-109238386D01*
X102161614Y-109168060D01*
X102069728Y-109130000D01*
X103144739Y-109130000D01*
X104195261Y-109130000D01*
X105220272Y-109130000D01*
X105128386Y-109168060D01*
X105058060Y-109238386D01*
X105020000Y-109330272D01*
X105020000Y-109429728D01*
X105058060Y-109521614D01*
X105128386Y-109591940D01*
X105220272Y-109630000D01*
X104195261Y-109630000D01*
X104198315Y-109649285D01*
X104198318Y-109649295D01*
X104254250Y-109821441D01*
X104254252Y-109821447D01*
X104336434Y-109982734D01*
X104442823Y-110129169D01*
X104570830Y-110257176D01*
X104717265Y-110363565D01*
X104878552Y-110445747D01*
X104878555Y-110445748D01*
X105050706Y-110501682D01*
X105229494Y-110530000D01*
X105570000Y-110530000D01*
X105570000Y-109630000D01*
X106070000Y-109630000D01*
X106070000Y-110530000D01*
X106410506Y-110530000D01*
X106589293Y-110501682D01*
X106761444Y-110445748D01*
X106761447Y-110445747D01*
X106922734Y-110363565D01*
X107069169Y-110257176D01*
X107197176Y-110129169D01*
X107303565Y-109982734D01*
X107385747Y-109821447D01*
X107385749Y-109821441D01*
X107441681Y-109649295D01*
X107441684Y-109649285D01*
X107444739Y-109630000D01*
X106419728Y-109630000D01*
X106511614Y-109591940D01*
X106581940Y-109521614D01*
X106620000Y-109429728D01*
X106620000Y-109330272D01*
X106581940Y-109238386D01*
X106511614Y-109168060D01*
X106419728Y-109130000D01*
X107444739Y-109130000D01*
X107441684Y-109110714D01*
X107441681Y-109110704D01*
X107385749Y-108938558D01*
X107385747Y-108938552D01*
X107303565Y-108777265D01*
X107197176Y-108630830D01*
X107137803Y-108571457D01*
X168874499Y-108571457D01*
X168902379Y-108711614D01*
X168902381Y-108711620D01*
X168957069Y-108843650D01*
X168957074Y-108843659D01*
X169036467Y-108962478D01*
X169036470Y-108962482D01*
X169137517Y-109063529D01*
X169137521Y-109063532D01*
X169256340Y-109142925D01*
X169256346Y-109142928D01*
X169256347Y-109142929D01*
X169388380Y-109197619D01*
X169388384Y-109197619D01*
X169388385Y-109197620D01*
X169528542Y-109225500D01*
X169528545Y-109225500D01*
X169671457Y-109225500D01*
X169765751Y-109206742D01*
X169811620Y-109197619D01*
X169943653Y-109142929D01*
X170062479Y-109063532D01*
X170163532Y-108962479D01*
X170242929Y-108843653D01*
X170297619Y-108711620D01*
X170306742Y-108665751D01*
X170325500Y-108571457D01*
X170325500Y-108428542D01*
X170297620Y-108288385D01*
X170297619Y-108288384D01*
X170297619Y-108288380D01*
X170242929Y-108156347D01*
X170242928Y-108156346D01*
X170242925Y-108156340D01*
X170163532Y-108037521D01*
X170163529Y-108037517D01*
X170062482Y-107936470D01*
X170062478Y-107936467D01*
X169943659Y-107857074D01*
X169943650Y-107857069D01*
X169811620Y-107802381D01*
X169811614Y-107802379D01*
X169671457Y-107774500D01*
X169671455Y-107774500D01*
X169528545Y-107774500D01*
X169528543Y-107774500D01*
X169388385Y-107802379D01*
X169388379Y-107802381D01*
X169256349Y-107857069D01*
X169256340Y-107857074D01*
X169137521Y-107936467D01*
X169137517Y-107936470D01*
X169036470Y-108037517D01*
X169036467Y-108037521D01*
X168957074Y-108156340D01*
X168957069Y-108156349D01*
X168902381Y-108288379D01*
X168902379Y-108288385D01*
X168874500Y-108428542D01*
X168874500Y-108428545D01*
X168874500Y-108571455D01*
X168874500Y-108571457D01*
X168874499Y-108571457D01*
X107137803Y-108571457D01*
X107069169Y-108502823D01*
X106922734Y-108396434D01*
X106761447Y-108314252D01*
X106761444Y-108314251D01*
X106589293Y-108258317D01*
X106410506Y-108230000D01*
X105953814Y-108230000D01*
X105886775Y-108210315D01*
X105841020Y-108157511D01*
X105831076Y-108088353D01*
X105834039Y-108073907D01*
X105850500Y-108012475D01*
X105850500Y-107867525D01*
X105812984Y-107727515D01*
X105740509Y-107601985D01*
X105638015Y-107499491D01*
X105638013Y-107499490D01*
X105638011Y-107499488D01*
X105512488Y-107427017D01*
X105512489Y-107427017D01*
X105501006Y-107423940D01*
X105372475Y-107389500D01*
X105227525Y-107389500D01*
X105098993Y-107423940D01*
X105087511Y-107427017D01*
X104961988Y-107499488D01*
X104961982Y-107499493D01*
X104859493Y-107601982D01*
X104859488Y-107601988D01*
X104787017Y-107727511D01*
X104787016Y-107727515D01*
X104749500Y-107867525D01*
X104749500Y-108012475D01*
X104765961Y-108073907D01*
X104787017Y-108152488D01*
X104814655Y-108200358D01*
X104831128Y-108268258D01*
X104808276Y-108334285D01*
X104763565Y-108372842D01*
X104717265Y-108396433D01*
X104570830Y-108502823D01*
X104442823Y-108630830D01*
X104336434Y-108777265D01*
X104254252Y-108938552D01*
X104254250Y-108938558D01*
X104198318Y-109110704D01*
X104198315Y-109110714D01*
X104195261Y-109130000D01*
X103144739Y-109130000D01*
X103141684Y-109110714D01*
X103141681Y-109110704D01*
X103085749Y-108938558D01*
X103085747Y-108938552D01*
X103003565Y-108777265D01*
X102897176Y-108630830D01*
X102769169Y-108502823D01*
X102622734Y-108396434D01*
X102461447Y-108314252D01*
X102461444Y-108314251D01*
X102289293Y-108258317D01*
X102110506Y-108230000D01*
X101870000Y-108230000D01*
X101870000Y-109130000D01*
X101370000Y-109130000D01*
X101370000Y-108230000D01*
X101129494Y-108230000D01*
X100950706Y-108258317D01*
X100778555Y-108314251D01*
X100778552Y-108314252D01*
X100617265Y-108396434D01*
X100470830Y-108502823D01*
X100342823Y-108630830D01*
X100236434Y-108777265D01*
X100154252Y-108938552D01*
X100154250Y-108938558D01*
X100098318Y-109110704D01*
X100098315Y-109110714D01*
X100095261Y-109130000D01*
X99500500Y-109130000D01*
X99500500Y-107300000D01*
X100291759Y-107300000D01*
X100335357Y-107405254D01*
X100335362Y-107405264D01*
X100417436Y-107528096D01*
X100417439Y-107528100D01*
X100521899Y-107632560D01*
X100521907Y-107632566D01*
X100644739Y-107714640D01*
X100644743Y-107714642D01*
X100749999Y-107758240D01*
X100750000Y-107758240D01*
X101250000Y-107758240D01*
X101355256Y-107714642D01*
X101355260Y-107714640D01*
X101478092Y-107632566D01*
X101478100Y-107632560D01*
X101582560Y-107528100D01*
X101582563Y-107528096D01*
X101664637Y-107405264D01*
X101664642Y-107405254D01*
X101708241Y-107300000D01*
X102291759Y-107300000D01*
X102335357Y-107405254D01*
X102335362Y-107405264D01*
X102417436Y-107528096D01*
X102417439Y-107528100D01*
X102521899Y-107632560D01*
X102521907Y-107632566D01*
X102644739Y-107714640D01*
X102644743Y-107714642D01*
X102749999Y-107758240D01*
X102750000Y-107758240D01*
X103250000Y-107758240D01*
X103355256Y-107714642D01*
X103355260Y-107714640D01*
X103478092Y-107632566D01*
X103478100Y-107632560D01*
X103582560Y-107528100D01*
X103582563Y-107528096D01*
X103664637Y-107405264D01*
X103664642Y-107405254D01*
X103708241Y-107300000D01*
X103250000Y-107300000D01*
X103250000Y-107758240D01*
X102750000Y-107758240D01*
X102750000Y-107300000D01*
X102291759Y-107300000D01*
X101708241Y-107300000D01*
X101250000Y-107300000D01*
X101250000Y-107758240D01*
X100750000Y-107758240D01*
X100750000Y-107300000D01*
X100291759Y-107300000D01*
X99500500Y-107300000D01*
X99500500Y-107020163D01*
X100850000Y-107020163D01*
X100850000Y-107079837D01*
X100872836Y-107134968D01*
X100915032Y-107177164D01*
X100970163Y-107200000D01*
X101029837Y-107200000D01*
X101084968Y-107177164D01*
X101127164Y-107134968D01*
X101150000Y-107079837D01*
X101150000Y-107020163D01*
X102850000Y-107020163D01*
X102850000Y-107079837D01*
X102872836Y-107134968D01*
X102915032Y-107177164D01*
X102970163Y-107200000D01*
X103029837Y-107200000D01*
X103084968Y-107177164D01*
X103127164Y-107134968D01*
X103150000Y-107079837D01*
X103150000Y-107020163D01*
X103127164Y-106965032D01*
X103084968Y-106922836D01*
X103029837Y-106900000D01*
X102970163Y-106900000D01*
X102915032Y-106922836D01*
X102872836Y-106965032D01*
X102850000Y-107020163D01*
X101150000Y-107020163D01*
X101127164Y-106965032D01*
X101084968Y-106922836D01*
X101029837Y-106900000D01*
X100970163Y-106900000D01*
X100915032Y-106922836D01*
X100872836Y-106965032D01*
X100850000Y-107020163D01*
X99500500Y-107020163D01*
X99500500Y-106799999D01*
X100291759Y-106799999D01*
X100291759Y-106800000D01*
X100750000Y-106800000D01*
X101250000Y-106800000D01*
X101708241Y-106800000D01*
X101708240Y-106799999D01*
X102291759Y-106799999D01*
X102291759Y-106800000D01*
X102750000Y-106800000D01*
X103250000Y-106800000D01*
X103708241Y-106800000D01*
X103708240Y-106799999D01*
X103664642Y-106694745D01*
X103664637Y-106694735D01*
X103582563Y-106571903D01*
X103582560Y-106571899D01*
X103478100Y-106467439D01*
X103478096Y-106467436D01*
X103355264Y-106385362D01*
X103355254Y-106385357D01*
X103250000Y-106341759D01*
X103250000Y-106800000D01*
X102750000Y-106800000D01*
X102750000Y-106341759D01*
X102749999Y-106341759D01*
X102644745Y-106385357D01*
X102644735Y-106385362D01*
X102521903Y-106467436D01*
X102521899Y-106467439D01*
X102417439Y-106571899D01*
X102417436Y-106571903D01*
X102335362Y-106694735D01*
X102335357Y-106694745D01*
X102291759Y-106799999D01*
X101708240Y-106799999D01*
X101664642Y-106694745D01*
X101664637Y-106694735D01*
X101582563Y-106571903D01*
X101582560Y-106571899D01*
X101478100Y-106467439D01*
X101478096Y-106467436D01*
X101355264Y-106385362D01*
X101355254Y-106385357D01*
X101250000Y-106341759D01*
X101250000Y-106800000D01*
X100750000Y-106800000D01*
X100750000Y-106341759D01*
X100749999Y-106341759D01*
X100644745Y-106385357D01*
X100644735Y-106385362D01*
X100521903Y-106467436D01*
X100521899Y-106467439D01*
X100417439Y-106571899D01*
X100417436Y-106571903D01*
X100335362Y-106694735D01*
X100335357Y-106694745D01*
X100291759Y-106799999D01*
X99500500Y-106799999D01*
X99500500Y-105871457D01*
X168649499Y-105871457D01*
X168677379Y-106011614D01*
X168677381Y-106011620D01*
X168732069Y-106143650D01*
X168732074Y-106143659D01*
X168811467Y-106262478D01*
X168811470Y-106262482D01*
X168912517Y-106363529D01*
X168912521Y-106363532D01*
X169031340Y-106442925D01*
X169031346Y-106442928D01*
X169031347Y-106442929D01*
X169163380Y-106497619D01*
X169163384Y-106497619D01*
X169163385Y-106497620D01*
X169303542Y-106525500D01*
X169303545Y-106525500D01*
X169446457Y-106525500D01*
X169540751Y-106506742D01*
X169586620Y-106497619D01*
X169718653Y-106442929D01*
X169837479Y-106363532D01*
X169938532Y-106262479D01*
X170017929Y-106143653D01*
X170072619Y-106011620D01*
X170100500Y-105871455D01*
X170100500Y-105728545D01*
X170100500Y-105728542D01*
X170072620Y-105588385D01*
X170072619Y-105588384D01*
X170072619Y-105588380D01*
X170017929Y-105456347D01*
X170017928Y-105456346D01*
X170017925Y-105456340D01*
X169938532Y-105337521D01*
X169938529Y-105337517D01*
X169837482Y-105236470D01*
X169837478Y-105236467D01*
X169718659Y-105157074D01*
X169718650Y-105157069D01*
X169586620Y-105102381D01*
X169586614Y-105102379D01*
X169446457Y-105074500D01*
X169446455Y-105074500D01*
X169303545Y-105074500D01*
X169303543Y-105074500D01*
X169163385Y-105102379D01*
X169163379Y-105102381D01*
X169031349Y-105157069D01*
X169031340Y-105157074D01*
X168912521Y-105236467D01*
X168912517Y-105236470D01*
X168811470Y-105337517D01*
X168811467Y-105337521D01*
X168732074Y-105456340D01*
X168732069Y-105456349D01*
X168677381Y-105588379D01*
X168677379Y-105588385D01*
X168649500Y-105728542D01*
X168649500Y-105728545D01*
X168649500Y-105871455D01*
X168649500Y-105871457D01*
X168649499Y-105871457D01*
X99500500Y-105871457D01*
X99500500Y-103300000D01*
X100291759Y-103300000D01*
X100335357Y-103405254D01*
X100335362Y-103405264D01*
X100417436Y-103528096D01*
X100417439Y-103528100D01*
X100521899Y-103632560D01*
X100521907Y-103632566D01*
X100644739Y-103714640D01*
X100644743Y-103714642D01*
X100749999Y-103758240D01*
X100750000Y-103758240D01*
X101250000Y-103758240D01*
X101355256Y-103714642D01*
X101355260Y-103714640D01*
X101478092Y-103632566D01*
X101478100Y-103632560D01*
X101582560Y-103528100D01*
X101582563Y-103528096D01*
X101664637Y-103405264D01*
X101664642Y-103405254D01*
X101708241Y-103300000D01*
X102291759Y-103300000D01*
X102335357Y-103405254D01*
X102335362Y-103405264D01*
X102417436Y-103528096D01*
X102417439Y-103528100D01*
X102521899Y-103632560D01*
X102521907Y-103632566D01*
X102644739Y-103714640D01*
X102644743Y-103714642D01*
X102749999Y-103758240D01*
X102750000Y-103758240D01*
X103250000Y-103758240D01*
X103355256Y-103714642D01*
X103355260Y-103714640D01*
X103478092Y-103632566D01*
X103478100Y-103632560D01*
X103582560Y-103528100D01*
X103582563Y-103528096D01*
X103664637Y-103405264D01*
X103664642Y-103405254D01*
X103708241Y-103300000D01*
X103250000Y-103300000D01*
X103250000Y-103758240D01*
X102750000Y-103758240D01*
X102750000Y-103300000D01*
X102291759Y-103300000D01*
X101708241Y-103300000D01*
X101250000Y-103300000D01*
X101250000Y-103758240D01*
X100750000Y-103758240D01*
X100750000Y-103300000D01*
X100291759Y-103300000D01*
X99500500Y-103300000D01*
X99500500Y-103020163D01*
X100850000Y-103020163D01*
X100850000Y-103079837D01*
X100872836Y-103134968D01*
X100915032Y-103177164D01*
X100970163Y-103200000D01*
X101029837Y-103200000D01*
X101084968Y-103177164D01*
X101127164Y-103134968D01*
X101150000Y-103079837D01*
X101150000Y-103020163D01*
X102850000Y-103020163D01*
X102850000Y-103079837D01*
X102872836Y-103134968D01*
X102915032Y-103177164D01*
X102970163Y-103200000D01*
X103029837Y-103200000D01*
X103084968Y-103177164D01*
X103127164Y-103134968D01*
X103150000Y-103079837D01*
X103150000Y-103020163D01*
X103127164Y-102965032D01*
X103084968Y-102922836D01*
X103029837Y-102900000D01*
X102970163Y-102900000D01*
X102915032Y-102922836D01*
X102872836Y-102965032D01*
X102850000Y-103020163D01*
X101150000Y-103020163D01*
X101127164Y-102965032D01*
X101084968Y-102922836D01*
X101029837Y-102900000D01*
X100970163Y-102900000D01*
X100915032Y-102922836D01*
X100872836Y-102965032D01*
X100850000Y-103020163D01*
X99500500Y-103020163D01*
X99500500Y-102799999D01*
X100291759Y-102799999D01*
X100291759Y-102800000D01*
X100750000Y-102800000D01*
X101250000Y-102800000D01*
X101708241Y-102800000D01*
X101708240Y-102799999D01*
X102291759Y-102799999D01*
X102291759Y-102800000D01*
X102750000Y-102800000D01*
X103250000Y-102800000D01*
X103708241Y-102800000D01*
X103708240Y-102799999D01*
X103664642Y-102694745D01*
X103664637Y-102694735D01*
X103582563Y-102571903D01*
X103582560Y-102571899D01*
X103478100Y-102467439D01*
X103478096Y-102467436D01*
X103355264Y-102385362D01*
X103355254Y-102385357D01*
X103250000Y-102341759D01*
X103250000Y-102800000D01*
X102750000Y-102800000D01*
X102750000Y-102341759D01*
X102644745Y-102385357D01*
X102644735Y-102385362D01*
X102521903Y-102467436D01*
X102521899Y-102467439D01*
X102417439Y-102571899D01*
X102417436Y-102571903D01*
X102335362Y-102694735D01*
X102335357Y-102694745D01*
X102291759Y-102799999D01*
X101708240Y-102799999D01*
X101664642Y-102694745D01*
X101664637Y-102694735D01*
X101582563Y-102571903D01*
X101582560Y-102571899D01*
X101478100Y-102467439D01*
X101478096Y-102467436D01*
X101355264Y-102385362D01*
X101355254Y-102385357D01*
X101250000Y-102341759D01*
X101250000Y-102800000D01*
X100750000Y-102800000D01*
X100750000Y-102341759D01*
X100644745Y-102385357D01*
X100644735Y-102385362D01*
X100521903Y-102467436D01*
X100521899Y-102467439D01*
X100417439Y-102571899D01*
X100417436Y-102571903D01*
X100335362Y-102694735D01*
X100335357Y-102694745D01*
X100291759Y-102799999D01*
X99500500Y-102799999D01*
X99500500Y-100470000D01*
X100095261Y-100470000D01*
X101170272Y-100470000D01*
X101078386Y-100508060D01*
X101008060Y-100578386D01*
X100970000Y-100670272D01*
X100970000Y-100769728D01*
X101008060Y-100861614D01*
X101078386Y-100931940D01*
X101170272Y-100970000D01*
X100095261Y-100970000D01*
X100098315Y-100989285D01*
X100098318Y-100989295D01*
X100154250Y-101161441D01*
X100154252Y-101161447D01*
X100236434Y-101322734D01*
X100342823Y-101469169D01*
X100470830Y-101597176D01*
X100617265Y-101703565D01*
X100778552Y-101785747D01*
X100778555Y-101785748D01*
X100950706Y-101841682D01*
X101129494Y-101870000D01*
X101370000Y-101870000D01*
X101370000Y-100970000D01*
X101870000Y-100970000D01*
X101870000Y-101870000D01*
X102110506Y-101870000D01*
X102289293Y-101841682D01*
X102461444Y-101785748D01*
X102461447Y-101785747D01*
X102622734Y-101703565D01*
X102769169Y-101597176D01*
X102897176Y-101469169D01*
X103003565Y-101322734D01*
X103085747Y-101161447D01*
X103085749Y-101161441D01*
X103141681Y-100989295D01*
X103141684Y-100989285D01*
X103144739Y-100970000D01*
X102069728Y-100970000D01*
X102161614Y-100931940D01*
X102231940Y-100861614D01*
X102270000Y-100769728D01*
X102270000Y-100670272D01*
X102231940Y-100578386D01*
X102161614Y-100508060D01*
X102069728Y-100470000D01*
X103144739Y-100470000D01*
X104195261Y-100470000D01*
X105220272Y-100470000D01*
X105128386Y-100508060D01*
X105058060Y-100578386D01*
X105020000Y-100670272D01*
X105020000Y-100769728D01*
X105058060Y-100861614D01*
X105128386Y-100931940D01*
X105220272Y-100970000D01*
X104195261Y-100970000D01*
X104198315Y-100989285D01*
X104198318Y-100989295D01*
X104254250Y-101161441D01*
X104254252Y-101161447D01*
X104336434Y-101322734D01*
X104442823Y-101469169D01*
X104570830Y-101597176D01*
X104717265Y-101703565D01*
X104763563Y-101727156D01*
X104814359Y-101775131D01*
X104831154Y-101842952D01*
X104814656Y-101899640D01*
X104787017Y-101947512D01*
X104787016Y-101947514D01*
X104787016Y-101947515D01*
X104749500Y-102087525D01*
X104749500Y-102232475D01*
X104779292Y-102343659D01*
X104787017Y-102372488D01*
X104859488Y-102498011D01*
X104859490Y-102498013D01*
X104859491Y-102498015D01*
X104961985Y-102600509D01*
X104961986Y-102600510D01*
X104961988Y-102600511D01*
X105087511Y-102672982D01*
X105087512Y-102672982D01*
X105087515Y-102672984D01*
X105227525Y-102710500D01*
X105227528Y-102710500D01*
X105372472Y-102710500D01*
X105372475Y-102710500D01*
X105512485Y-102672984D01*
X105638015Y-102600509D01*
X105740509Y-102498015D01*
X105812984Y-102372485D01*
X105850500Y-102232475D01*
X105850500Y-102087525D01*
X105846195Y-102071457D01*
X167774499Y-102071457D01*
X167802379Y-102211614D01*
X167802381Y-102211620D01*
X167857069Y-102343650D01*
X167857074Y-102343659D01*
X167936467Y-102462478D01*
X167936470Y-102462482D01*
X168037517Y-102563529D01*
X168037521Y-102563532D01*
X168156340Y-102642925D01*
X168156346Y-102642928D01*
X168156347Y-102642929D01*
X168288380Y-102697619D01*
X168288384Y-102697619D01*
X168288385Y-102697620D01*
X168428542Y-102725500D01*
X168428545Y-102725500D01*
X168571457Y-102725500D01*
X168665751Y-102706742D01*
X168711620Y-102697619D01*
X168843653Y-102642929D01*
X168962479Y-102563532D01*
X169063532Y-102462479D01*
X169142929Y-102343653D01*
X169197619Y-102211620D01*
X169222303Y-102087527D01*
X169225500Y-102071457D01*
X170174499Y-102071457D01*
X170202379Y-102211614D01*
X170202381Y-102211620D01*
X170257069Y-102343650D01*
X170257074Y-102343659D01*
X170336467Y-102462478D01*
X170336470Y-102462482D01*
X170437517Y-102563529D01*
X170437521Y-102563532D01*
X170556340Y-102642925D01*
X170556346Y-102642928D01*
X170556347Y-102642929D01*
X170688380Y-102697619D01*
X170688384Y-102697619D01*
X170688385Y-102697620D01*
X170828542Y-102725500D01*
X170828545Y-102725500D01*
X170971457Y-102725500D01*
X171065751Y-102706742D01*
X171111620Y-102697619D01*
X171243653Y-102642929D01*
X171362479Y-102563532D01*
X171463532Y-102462479D01*
X171542929Y-102343653D01*
X171597619Y-102211620D01*
X171622303Y-102087527D01*
X171625500Y-102071457D01*
X171625500Y-101928542D01*
X171597620Y-101788385D01*
X171597619Y-101788384D01*
X171597619Y-101788380D01*
X171555318Y-101686258D01*
X171542930Y-101656349D01*
X171542925Y-101656340D01*
X171463532Y-101537521D01*
X171463529Y-101537517D01*
X171362482Y-101436470D01*
X171362478Y-101436467D01*
X171243659Y-101357074D01*
X171243650Y-101357069D01*
X171111620Y-101302381D01*
X171111614Y-101302379D01*
X170971457Y-101274500D01*
X170971455Y-101274500D01*
X170828545Y-101274500D01*
X170828543Y-101274500D01*
X170688385Y-101302379D01*
X170688379Y-101302381D01*
X170556349Y-101357069D01*
X170556340Y-101357074D01*
X170437521Y-101436467D01*
X170437517Y-101436470D01*
X170336470Y-101537517D01*
X170336467Y-101537521D01*
X170257074Y-101656340D01*
X170257069Y-101656349D01*
X170202381Y-101788379D01*
X170202379Y-101788385D01*
X170174500Y-101928542D01*
X170174500Y-101928545D01*
X170174500Y-102071455D01*
X170174500Y-102071457D01*
X170174499Y-102071457D01*
X169225500Y-102071457D01*
X169225500Y-101928542D01*
X169197620Y-101788385D01*
X169197619Y-101788384D01*
X169197619Y-101788380D01*
X169155318Y-101686258D01*
X169142930Y-101656349D01*
X169142925Y-101656340D01*
X169063532Y-101537521D01*
X169063529Y-101537517D01*
X168962482Y-101436470D01*
X168962478Y-101436467D01*
X168843659Y-101357074D01*
X168843650Y-101357069D01*
X168711620Y-101302381D01*
X168711614Y-101302379D01*
X168571457Y-101274500D01*
X168571455Y-101274500D01*
X168428545Y-101274500D01*
X168428543Y-101274500D01*
X168288385Y-101302379D01*
X168288379Y-101302381D01*
X168156349Y-101357069D01*
X168156340Y-101357074D01*
X168037521Y-101436467D01*
X168037517Y-101436470D01*
X167936470Y-101537517D01*
X167936467Y-101537521D01*
X167857074Y-101656340D01*
X167857069Y-101656349D01*
X167802381Y-101788379D01*
X167802379Y-101788385D01*
X167774500Y-101928542D01*
X167774500Y-101928545D01*
X167774500Y-102071455D01*
X167774500Y-102071457D01*
X167774499Y-102071457D01*
X105846195Y-102071457D01*
X105834039Y-102026092D01*
X105835702Y-101956244D01*
X105874864Y-101898381D01*
X105939093Y-101870877D01*
X105953814Y-101870000D01*
X106410506Y-101870000D01*
X106589293Y-101841682D01*
X106703664Y-101804522D01*
X106761444Y-101785748D01*
X106761447Y-101785747D01*
X106922734Y-101703565D01*
X107069169Y-101597176D01*
X107197176Y-101469169D01*
X107303565Y-101322734D01*
X107385747Y-101161447D01*
X107385749Y-101161441D01*
X107441284Y-100990516D01*
X174393558Y-100990516D01*
X174421438Y-101130673D01*
X174421440Y-101130679D01*
X174476128Y-101262709D01*
X174476133Y-101262718D01*
X174555526Y-101381537D01*
X174555529Y-101381541D01*
X174656576Y-101482588D01*
X174656580Y-101482591D01*
X174775399Y-101561984D01*
X174775412Y-101561991D01*
X174842931Y-101589958D01*
X174897335Y-101633799D01*
X174910040Y-101657065D01*
X174935898Y-101719491D01*
X174938012Y-101724593D01*
X174938015Y-101724600D01*
X175017408Y-101843419D01*
X175017411Y-101843423D01*
X175118458Y-101944470D01*
X175118462Y-101944473D01*
X175237281Y-102023866D01*
X175237290Y-102023871D01*
X175267199Y-102036259D01*
X175369321Y-102078560D01*
X175369325Y-102078560D01*
X175369326Y-102078561D01*
X175509483Y-102106441D01*
X175509486Y-102106441D01*
X175652398Y-102106441D01*
X175747492Y-102087525D01*
X175792561Y-102078560D01*
X175924594Y-102023870D01*
X176043420Y-101944473D01*
X176144473Y-101843420D01*
X176223870Y-101724594D01*
X176278560Y-101592561D01*
X176300435Y-101482591D01*
X176306441Y-101452398D01*
X176306441Y-101309483D01*
X176278561Y-101169326D01*
X176278560Y-101169325D01*
X176278560Y-101169321D01*
X176223870Y-101037288D01*
X176223869Y-101037287D01*
X176223866Y-101037281D01*
X176144473Y-100918462D01*
X176144470Y-100918458D01*
X176043423Y-100817411D01*
X176043419Y-100817408D01*
X175924600Y-100738015D01*
X175924595Y-100738013D01*
X175924594Y-100738012D01*
X175857065Y-100710040D01*
X175802662Y-100666198D01*
X175789958Y-100642931D01*
X175761991Y-100575412D01*
X175761984Y-100575399D01*
X175682591Y-100456580D01*
X175682588Y-100456576D01*
X175581541Y-100355529D01*
X175581537Y-100355526D01*
X175462718Y-100276133D01*
X175462709Y-100276128D01*
X175330679Y-100221440D01*
X175330673Y-100221438D01*
X175190516Y-100193559D01*
X175190514Y-100193559D01*
X175047604Y-100193559D01*
X175047602Y-100193559D01*
X174907444Y-100221438D01*
X174907438Y-100221440D01*
X174775408Y-100276128D01*
X174775399Y-100276133D01*
X174656580Y-100355526D01*
X174656576Y-100355529D01*
X174555529Y-100456576D01*
X174555526Y-100456580D01*
X174476133Y-100575399D01*
X174476128Y-100575408D01*
X174421440Y-100707438D01*
X174421438Y-100707444D01*
X174393559Y-100847601D01*
X174393559Y-100847604D01*
X174393559Y-100990514D01*
X174393559Y-100990516D01*
X174393558Y-100990516D01*
X107441284Y-100990516D01*
X107441681Y-100989295D01*
X107441684Y-100989285D01*
X107444739Y-100970000D01*
X106419728Y-100970000D01*
X106511614Y-100931940D01*
X106581940Y-100861614D01*
X106620000Y-100769728D01*
X106620000Y-100670272D01*
X106581940Y-100578386D01*
X106511614Y-100508060D01*
X106419728Y-100470000D01*
X107444739Y-100470000D01*
X107441684Y-100450714D01*
X107441681Y-100450704D01*
X107385749Y-100278558D01*
X107385747Y-100278552D01*
X107303565Y-100117265D01*
X107197176Y-99970830D01*
X107069169Y-99842823D01*
X106922734Y-99736434D01*
X106761447Y-99654252D01*
X106761444Y-99654251D01*
X106589293Y-99598317D01*
X106410506Y-99570000D01*
X106070000Y-99570000D01*
X106070000Y-100470000D01*
X105570000Y-100470000D01*
X105570000Y-99570000D01*
X105229494Y-99570000D01*
X105050706Y-99598317D01*
X104878555Y-99654251D01*
X104878552Y-99654252D01*
X104717265Y-99736434D01*
X104570830Y-99842823D01*
X104442823Y-99970830D01*
X104336434Y-100117265D01*
X104254252Y-100278552D01*
X104254250Y-100278558D01*
X104198318Y-100450704D01*
X104198315Y-100450714D01*
X104195261Y-100470000D01*
X103144739Y-100470000D01*
X103141684Y-100450714D01*
X103141681Y-100450704D01*
X103085749Y-100278558D01*
X103085747Y-100278552D01*
X103003565Y-100117265D01*
X102897176Y-99970830D01*
X102769169Y-99842823D01*
X102622734Y-99736434D01*
X102461447Y-99654252D01*
X102461444Y-99654251D01*
X102289293Y-99598317D01*
X102110506Y-99570000D01*
X101870000Y-99570000D01*
X101870000Y-100470000D01*
X101370000Y-100470000D01*
X101370000Y-99570000D01*
X101129494Y-99570000D01*
X100950706Y-99598317D01*
X100778555Y-99654251D01*
X100778552Y-99654252D01*
X100617265Y-99736434D01*
X100470830Y-99842823D01*
X100342823Y-99970830D01*
X100236434Y-100117265D01*
X100154252Y-100278552D01*
X100154250Y-100278558D01*
X100098318Y-100450704D01*
X100098315Y-100450714D01*
X100095261Y-100470000D01*
X99500500Y-100470000D01*
X99500500Y-92978711D01*
X101249500Y-92978711D01*
X101249500Y-93221288D01*
X101281161Y-93461785D01*
X101343947Y-93696104D01*
X101436773Y-93920205D01*
X101436776Y-93920212D01*
X101558064Y-94130289D01*
X101558066Y-94130292D01*
X101558067Y-94130293D01*
X101705733Y-94322736D01*
X101705739Y-94322743D01*
X101877256Y-94494260D01*
X101877262Y-94494265D01*
X102069711Y-94641936D01*
X102279788Y-94763224D01*
X102503900Y-94856054D01*
X102738211Y-94918838D01*
X102918586Y-94942584D01*
X102978711Y-94950500D01*
X102978712Y-94950500D01*
X103221289Y-94950500D01*
X103269388Y-94944167D01*
X103461789Y-94918838D01*
X103696100Y-94856054D01*
X103920212Y-94763224D01*
X104130289Y-94641936D01*
X104322738Y-94494265D01*
X104494265Y-94322738D01*
X104641936Y-94130289D01*
X104763224Y-93920212D01*
X104856054Y-93696100D01*
X104918838Y-93461789D01*
X104950500Y-93221288D01*
X104950500Y-92978712D01*
X104918838Y-92738211D01*
X104856054Y-92503900D01*
X104801194Y-92371457D01*
X187174499Y-92371457D01*
X187202379Y-92511614D01*
X187202381Y-92511620D01*
X187257069Y-92643650D01*
X187257074Y-92643659D01*
X187336467Y-92762478D01*
X187336470Y-92762482D01*
X187437517Y-92863529D01*
X187437521Y-92863532D01*
X187556340Y-92942925D01*
X187556346Y-92942928D01*
X187556347Y-92942929D01*
X187688380Y-92997619D01*
X187688384Y-92997619D01*
X187688385Y-92997620D01*
X187828542Y-93025500D01*
X187828545Y-93025500D01*
X187971457Y-93025500D01*
X188065751Y-93006742D01*
X188111620Y-92997619D01*
X188243653Y-92942929D01*
X188362479Y-92863532D01*
X188463532Y-92762479D01*
X188542929Y-92643653D01*
X188597619Y-92511620D01*
X188625500Y-92371455D01*
X188625500Y-92228545D01*
X188625500Y-92228542D01*
X188597620Y-92088385D01*
X188597619Y-92088384D01*
X188597619Y-92088380D01*
X188542929Y-91956347D01*
X188542928Y-91956346D01*
X188542925Y-91956340D01*
X188463532Y-91837521D01*
X188463529Y-91837517D01*
X188362482Y-91736470D01*
X188362478Y-91736467D01*
X188243659Y-91657074D01*
X188243650Y-91657069D01*
X188111620Y-91602381D01*
X188111614Y-91602379D01*
X187971457Y-91574500D01*
X187971455Y-91574500D01*
X187828545Y-91574500D01*
X187828543Y-91574500D01*
X187688385Y-91602379D01*
X187688379Y-91602381D01*
X187556349Y-91657069D01*
X187556340Y-91657074D01*
X187437521Y-91736467D01*
X187437517Y-91736470D01*
X187336470Y-91837517D01*
X187336467Y-91837521D01*
X187257074Y-91956340D01*
X187257069Y-91956349D01*
X187202381Y-92088379D01*
X187202379Y-92088385D01*
X187174500Y-92228542D01*
X187174500Y-92228545D01*
X187174500Y-92371455D01*
X187174500Y-92371457D01*
X187174499Y-92371457D01*
X104801194Y-92371457D01*
X104763224Y-92279788D01*
X104641936Y-92069711D01*
X104581018Y-91990321D01*
X104494266Y-91877263D01*
X104494260Y-91877256D01*
X104322743Y-91705739D01*
X104322736Y-91705733D01*
X104130293Y-91558067D01*
X104130292Y-91558066D01*
X104130289Y-91558064D01*
X103920212Y-91436776D01*
X103920205Y-91436773D01*
X103696104Y-91343947D01*
X103461785Y-91281161D01*
X103221289Y-91249500D01*
X103221288Y-91249500D01*
X102978712Y-91249500D01*
X102978711Y-91249500D01*
X102738214Y-91281161D01*
X102503895Y-91343947D01*
X102279794Y-91436773D01*
X102279785Y-91436777D01*
X102069706Y-91558067D01*
X101877263Y-91705733D01*
X101877256Y-91705739D01*
X101705739Y-91877256D01*
X101705733Y-91877263D01*
X101558067Y-92069706D01*
X101436777Y-92279785D01*
X101436773Y-92279794D01*
X101343947Y-92503895D01*
X101281161Y-92738214D01*
X101249500Y-92978711D01*
X99500500Y-92978711D01*
X99500500Y-91071457D01*
X185374499Y-91071457D01*
X185402379Y-91211614D01*
X185402381Y-91211620D01*
X185457069Y-91343650D01*
X185457074Y-91343659D01*
X185536467Y-91462478D01*
X185536470Y-91462482D01*
X185637517Y-91563529D01*
X185637521Y-91563532D01*
X185756340Y-91642925D01*
X185756346Y-91642928D01*
X185756347Y-91642929D01*
X185888380Y-91697619D01*
X185888384Y-91697619D01*
X185888385Y-91697620D01*
X186028542Y-91725500D01*
X186028545Y-91725500D01*
X186171457Y-91725500D01*
X186270829Y-91705733D01*
X186311620Y-91697619D01*
X186443653Y-91642929D01*
X186562479Y-91563532D01*
X186663532Y-91462479D01*
X186742929Y-91343653D01*
X186797619Y-91211620D01*
X186825500Y-91071455D01*
X186825500Y-90928545D01*
X186825500Y-90928542D01*
X186797620Y-90788385D01*
X186797619Y-90788384D01*
X186797619Y-90788380D01*
X186742929Y-90656347D01*
X186742928Y-90656346D01*
X186742925Y-90656340D01*
X186663532Y-90537521D01*
X186663529Y-90537517D01*
X186562482Y-90436470D01*
X186562478Y-90436467D01*
X186443659Y-90357074D01*
X186443650Y-90357069D01*
X186311620Y-90302381D01*
X186311614Y-90302379D01*
X186171457Y-90274500D01*
X186171455Y-90274500D01*
X186028545Y-90274500D01*
X186028543Y-90274500D01*
X185888385Y-90302379D01*
X185888379Y-90302381D01*
X185756349Y-90357069D01*
X185756340Y-90357074D01*
X185637521Y-90436467D01*
X185637517Y-90436470D01*
X185536470Y-90537517D01*
X185536467Y-90537521D01*
X185457074Y-90656340D01*
X185457069Y-90656349D01*
X185402381Y-90788379D01*
X185402379Y-90788385D01*
X185374500Y-90928542D01*
X185374500Y-90928545D01*
X185374500Y-91071455D01*
X185374500Y-91071457D01*
X185374499Y-91071457D01*
X99500500Y-91071457D01*
X99500500Y-88220000D01*
X139015000Y-88220000D01*
X157015000Y-88220000D01*
X157015000Y-86229493D01*
X179145000Y-86229493D01*
X179145000Y-86570000D01*
X180045000Y-86570000D01*
X180045000Y-87070000D01*
X179145000Y-87070000D01*
X179145000Y-87410506D01*
X179173317Y-87589293D01*
X179229251Y-87761444D01*
X179229252Y-87761447D01*
X179311434Y-87922734D01*
X179417823Y-88069169D01*
X179545830Y-88197176D01*
X179692265Y-88303565D01*
X179853552Y-88385747D01*
X179853555Y-88385748D01*
X180025699Y-88441680D01*
X180025712Y-88441683D01*
X180045000Y-88444738D01*
X180045000Y-87419728D01*
X180083060Y-87511614D01*
X180153386Y-87581940D01*
X180245272Y-87620000D01*
X180344728Y-87620000D01*
X180436614Y-87581940D01*
X180506940Y-87511614D01*
X180545000Y-87419728D01*
X180545000Y-88444737D01*
X180564287Y-88441683D01*
X180564300Y-88441680D01*
X180736444Y-88385748D01*
X180736447Y-88385747D01*
X180897734Y-88303565D01*
X181044169Y-88197176D01*
X181172176Y-88069169D01*
X181278565Y-87922734D01*
X181360747Y-87761447D01*
X181360748Y-87761444D01*
X181416682Y-87589293D01*
X181445000Y-87410506D01*
X181445000Y-86953813D01*
X181464685Y-86886774D01*
X181517489Y-86841019D01*
X181586647Y-86831075D01*
X181601083Y-86834036D01*
X181662525Y-86850500D01*
X181662527Y-86850500D01*
X181807472Y-86850500D01*
X181807475Y-86850500D01*
X181947485Y-86812984D01*
X182073015Y-86740509D01*
X182175509Y-86638015D01*
X182247984Y-86512485D01*
X182285500Y-86372475D01*
X182285500Y-86227525D01*
X186964500Y-86227525D01*
X186964500Y-86372475D01*
X187002016Y-86512485D01*
X187002017Y-86512488D01*
X187074488Y-86638011D01*
X187074490Y-86638013D01*
X187074491Y-86638015D01*
X187176985Y-86740509D01*
X187176986Y-86740510D01*
X187176988Y-86740511D01*
X187302511Y-86812982D01*
X187302512Y-86812982D01*
X187302515Y-86812984D01*
X187442525Y-86850500D01*
X187442528Y-86850500D01*
X187587473Y-86850500D01*
X187587475Y-86850500D01*
X187648907Y-86834039D01*
X187718755Y-86835700D01*
X187776618Y-86874862D01*
X187804123Y-86939090D01*
X187805000Y-86953813D01*
X187805000Y-87410506D01*
X187833317Y-87589293D01*
X187889251Y-87761444D01*
X187889252Y-87761447D01*
X187971434Y-87922734D01*
X188077823Y-88069169D01*
X188205830Y-88197176D01*
X188352265Y-88303565D01*
X188513552Y-88385747D01*
X188513555Y-88385748D01*
X188685699Y-88441680D01*
X188685712Y-88441683D01*
X188705000Y-88444738D01*
X188705000Y-87419728D01*
X188743060Y-87511614D01*
X188813386Y-87581940D01*
X188905272Y-87620000D01*
X189004728Y-87620000D01*
X189096614Y-87581940D01*
X189166940Y-87511614D01*
X189205000Y-87419728D01*
X189205000Y-88444737D01*
X189224287Y-88441683D01*
X189224300Y-88441680D01*
X189396444Y-88385748D01*
X189396447Y-88385747D01*
X189557734Y-88303565D01*
X189704169Y-88197176D01*
X189832176Y-88069169D01*
X189938565Y-87922734D01*
X190020747Y-87761447D01*
X190020748Y-87761444D01*
X190076682Y-87589293D01*
X190105000Y-87410506D01*
X190105000Y-87070000D01*
X189205000Y-87070000D01*
X189205000Y-86570000D01*
X190105000Y-86570000D01*
X190105000Y-86229493D01*
X190076682Y-86050706D01*
X190020748Y-85878555D01*
X190020747Y-85878552D01*
X189938565Y-85717265D01*
X189832176Y-85570830D01*
X189704169Y-85442823D01*
X189557734Y-85336434D01*
X189396447Y-85254252D01*
X189396441Y-85254250D01*
X189224295Y-85198318D01*
X189224285Y-85198315D01*
X189205000Y-85195260D01*
X189205000Y-86220272D01*
X189166940Y-86128386D01*
X189096614Y-86058060D01*
X189004728Y-86020000D01*
X188905272Y-86020000D01*
X188813386Y-86058060D01*
X188743060Y-86128386D01*
X188705000Y-86220272D01*
X188705000Y-85195260D01*
X188685714Y-85198315D01*
X188685704Y-85198318D01*
X188513558Y-85254250D01*
X188513552Y-85254252D01*
X188352265Y-85336434D01*
X188205830Y-85442823D01*
X188077823Y-85570830D01*
X187971433Y-85717265D01*
X187947842Y-85763565D01*
X187899866Y-85814360D01*
X187832045Y-85831154D01*
X187775358Y-85814655D01*
X187727488Y-85787017D01*
X187727489Y-85787017D01*
X187716006Y-85783940D01*
X187587475Y-85749500D01*
X187442525Y-85749500D01*
X187313993Y-85783940D01*
X187302511Y-85787017D01*
X187176988Y-85859488D01*
X187176982Y-85859493D01*
X187074493Y-85961982D01*
X187074488Y-85961988D01*
X187002017Y-86087511D01*
X187002016Y-86087515D01*
X186964500Y-86227525D01*
X182285500Y-86227525D01*
X182247984Y-86087515D01*
X182226732Y-86050706D01*
X182175511Y-85961988D01*
X182175506Y-85961982D01*
X182073017Y-85859493D01*
X182073011Y-85859488D01*
X181947488Y-85787017D01*
X181947489Y-85787017D01*
X181936006Y-85783940D01*
X181807475Y-85749500D01*
X181662525Y-85749500D01*
X181522515Y-85787016D01*
X181522514Y-85787016D01*
X181522512Y-85787017D01*
X181474640Y-85814656D01*
X181406740Y-85831128D01*
X181340713Y-85808275D01*
X181302156Y-85763563D01*
X181278565Y-85717265D01*
X181172176Y-85570830D01*
X181044169Y-85442823D01*
X180897734Y-85336434D01*
X180736447Y-85254252D01*
X180736441Y-85254250D01*
X180564295Y-85198318D01*
X180564285Y-85198315D01*
X180545000Y-85195260D01*
X180545000Y-86220272D01*
X180506940Y-86128386D01*
X180436614Y-86058060D01*
X180344728Y-86020000D01*
X180245272Y-86020000D01*
X180153386Y-86058060D01*
X180083060Y-86128386D01*
X180045000Y-86220272D01*
X180045000Y-85195260D01*
X180025714Y-85198315D01*
X180025704Y-85198318D01*
X179853558Y-85254250D01*
X179853552Y-85254252D01*
X179692265Y-85336434D01*
X179545830Y-85442823D01*
X179417823Y-85570830D01*
X179311434Y-85717265D01*
X179229252Y-85878552D01*
X179229251Y-85878555D01*
X179173317Y-86050706D01*
X179145000Y-86229493D01*
X157015000Y-86229493D01*
X157015000Y-82893713D01*
X160829500Y-82893713D01*
X160829500Y-83106286D01*
X160860595Y-83302616D01*
X160862754Y-83316243D01*
X160920029Y-83492517D01*
X160928444Y-83518414D01*
X161024951Y-83707820D01*
X161149890Y-83879786D01*
X161300213Y-84030109D01*
X161472179Y-84155048D01*
X161472181Y-84155049D01*
X161472184Y-84155051D01*
X161661588Y-84251557D01*
X161863757Y-84317246D01*
X162073713Y-84350500D01*
X162073714Y-84350500D01*
X162286286Y-84350500D01*
X162286287Y-84350500D01*
X162496243Y-84317246D01*
X162698412Y-84251557D01*
X162887816Y-84155051D01*
X162909789Y-84139086D01*
X163059786Y-84030109D01*
X163059788Y-84030106D01*
X163059792Y-84030104D01*
X163210104Y-83879792D01*
X163210106Y-83879788D01*
X163210109Y-83879786D01*
X163335048Y-83707820D01*
X163335047Y-83707820D01*
X163335051Y-83707816D01*
X163339514Y-83699054D01*
X163387488Y-83648259D01*
X163455308Y-83631463D01*
X163521444Y-83653999D01*
X163560486Y-83699056D01*
X163564951Y-83707820D01*
X163689890Y-83879786D01*
X163840213Y-84030109D01*
X164012179Y-84155048D01*
X164012181Y-84155049D01*
X164012184Y-84155051D01*
X164201588Y-84251557D01*
X164403757Y-84317246D01*
X164613713Y-84350500D01*
X164613714Y-84350500D01*
X164826286Y-84350500D01*
X164826287Y-84350500D01*
X165036243Y-84317246D01*
X165238412Y-84251557D01*
X165427816Y-84155051D01*
X165449789Y-84139086D01*
X165599786Y-84030109D01*
X165599788Y-84030106D01*
X165599792Y-84030104D01*
X165750104Y-83879792D01*
X165750106Y-83879788D01*
X165750109Y-83879786D01*
X165875048Y-83707820D01*
X165875047Y-83707820D01*
X165875051Y-83707816D01*
X165879514Y-83699054D01*
X165927488Y-83648259D01*
X165995308Y-83631463D01*
X166061444Y-83653999D01*
X166100486Y-83699056D01*
X166104951Y-83707820D01*
X166229890Y-83879786D01*
X166380213Y-84030109D01*
X166552179Y-84155048D01*
X166552181Y-84155049D01*
X166552184Y-84155051D01*
X166741588Y-84251557D01*
X166943757Y-84317246D01*
X167153713Y-84350500D01*
X167153714Y-84350500D01*
X167366286Y-84350500D01*
X167366287Y-84350500D01*
X167576243Y-84317246D01*
X167778412Y-84251557D01*
X167967816Y-84155051D01*
X167989789Y-84139086D01*
X168139786Y-84030109D01*
X168139788Y-84030106D01*
X168139792Y-84030104D01*
X168290104Y-83879792D01*
X168290106Y-83879788D01*
X168290109Y-83879786D01*
X168415048Y-83707820D01*
X168415047Y-83707820D01*
X168415051Y-83707816D01*
X168419514Y-83699054D01*
X168467488Y-83648259D01*
X168535308Y-83631463D01*
X168601444Y-83653999D01*
X168640486Y-83699056D01*
X168644951Y-83707820D01*
X168769890Y-83879786D01*
X168920213Y-84030109D01*
X169092179Y-84155048D01*
X169092181Y-84155049D01*
X169092184Y-84155051D01*
X169281588Y-84251557D01*
X169483757Y-84317246D01*
X169693713Y-84350500D01*
X169693714Y-84350500D01*
X169906286Y-84350500D01*
X169906287Y-84350500D01*
X170116243Y-84317246D01*
X170318412Y-84251557D01*
X170507816Y-84155051D01*
X170529789Y-84139086D01*
X170679786Y-84030109D01*
X170679788Y-84030106D01*
X170679792Y-84030104D01*
X170830104Y-83879792D01*
X170830106Y-83879788D01*
X170830109Y-83879786D01*
X170910476Y-83769169D01*
X170955051Y-83707816D01*
X170959793Y-83698508D01*
X171007763Y-83647711D01*
X171075583Y-83630911D01*
X171141719Y-83653445D01*
X171180763Y-83698500D01*
X171185373Y-83707547D01*
X171224728Y-83761716D01*
X171857036Y-83129407D01*
X171874075Y-83192993D01*
X171939901Y-83307007D01*
X172032993Y-83400099D01*
X172147007Y-83465925D01*
X172210590Y-83482962D01*
X171578282Y-84115269D01*
X171578282Y-84115270D01*
X171632449Y-84154624D01*
X171821782Y-84251095D01*
X172023870Y-84316757D01*
X172233754Y-84350000D01*
X172446246Y-84350000D01*
X172656127Y-84316757D01*
X172656130Y-84316757D01*
X172858217Y-84251095D01*
X173047554Y-84154622D01*
X173101716Y-84115270D01*
X173101717Y-84115270D01*
X172469408Y-83482962D01*
X172532993Y-83465925D01*
X172647007Y-83400099D01*
X172740099Y-83307007D01*
X172805925Y-83192993D01*
X172822962Y-83129408D01*
X173493181Y-83799628D01*
X173526666Y-83860951D01*
X173529500Y-83887300D01*
X173529500Y-83897865D01*
X173529501Y-83897876D01*
X173535908Y-83957483D01*
X173586202Y-84092328D01*
X173586206Y-84092335D01*
X173672452Y-84207544D01*
X173672455Y-84207547D01*
X173787664Y-84293793D01*
X173787671Y-84293797D01*
X173922517Y-84344091D01*
X173922516Y-84344091D01*
X173929444Y-84344835D01*
X173982127Y-84350500D01*
X175777872Y-84350499D01*
X175837483Y-84344091D01*
X175972331Y-84293796D01*
X176030835Y-84250000D01*
X181916759Y-84250000D01*
X181960357Y-84355254D01*
X181960362Y-84355264D01*
X182042436Y-84478096D01*
X182042439Y-84478100D01*
X182146899Y-84582560D01*
X182146907Y-84582566D01*
X182269739Y-84664640D01*
X182269743Y-84664642D01*
X182374999Y-84708240D01*
X182375000Y-84708240D01*
X182875000Y-84708240D01*
X182980256Y-84664642D01*
X182980260Y-84664640D01*
X183103092Y-84582566D01*
X183103100Y-84582560D01*
X183207560Y-84478100D01*
X183207563Y-84478096D01*
X183289637Y-84355264D01*
X183289642Y-84355254D01*
X183333241Y-84250000D01*
X185916759Y-84250000D01*
X185960357Y-84355254D01*
X185960362Y-84355264D01*
X186042436Y-84478096D01*
X186042439Y-84478100D01*
X186146899Y-84582560D01*
X186146907Y-84582566D01*
X186269739Y-84664640D01*
X186269743Y-84664642D01*
X186374999Y-84708240D01*
X186375000Y-84708240D01*
X186875000Y-84708240D01*
X186980256Y-84664642D01*
X186980260Y-84664640D01*
X187103092Y-84582566D01*
X187103100Y-84582560D01*
X187207560Y-84478100D01*
X187207563Y-84478096D01*
X187289637Y-84355264D01*
X187289642Y-84355254D01*
X187333241Y-84250000D01*
X186875000Y-84250000D01*
X186875000Y-84708240D01*
X186375000Y-84708240D01*
X186375000Y-84250000D01*
X185916759Y-84250000D01*
X183333241Y-84250000D01*
X182875000Y-84250000D01*
X182875000Y-84708240D01*
X182375000Y-84708240D01*
X182375000Y-84250000D01*
X181916759Y-84250000D01*
X176030835Y-84250000D01*
X176087546Y-84207546D01*
X176173796Y-84092331D01*
X176224091Y-83957483D01*
X176230500Y-83897873D01*
X176230499Y-82129493D01*
X179145000Y-82129493D01*
X179145000Y-82370000D01*
X180045000Y-82370000D01*
X180045000Y-82870000D01*
X179145000Y-82870000D01*
X179145000Y-83110506D01*
X179173317Y-83289293D01*
X179229251Y-83461444D01*
X179229252Y-83461447D01*
X179311434Y-83622734D01*
X179417823Y-83769169D01*
X179545830Y-83897176D01*
X179692265Y-84003565D01*
X179853552Y-84085747D01*
X179853555Y-84085748D01*
X180025699Y-84141680D01*
X180025712Y-84141683D01*
X180045000Y-84144738D01*
X180045000Y-83069728D01*
X180083060Y-83161614D01*
X180153386Y-83231940D01*
X180245272Y-83270000D01*
X180344728Y-83270000D01*
X180436614Y-83231940D01*
X180506940Y-83161614D01*
X180545000Y-83069728D01*
X180545000Y-84144737D01*
X180564287Y-84141683D01*
X180564300Y-84141680D01*
X180636296Y-84118288D01*
X180736444Y-84085748D01*
X180736447Y-84085747D01*
X180897734Y-84003565D01*
X180943709Y-83970163D01*
X182475000Y-83970163D01*
X182475000Y-84029837D01*
X182497836Y-84084968D01*
X182540032Y-84127164D01*
X182595163Y-84150000D01*
X182654837Y-84150000D01*
X182709968Y-84127164D01*
X182752164Y-84084968D01*
X182775000Y-84029837D01*
X182775000Y-83970163D01*
X186475000Y-83970163D01*
X186475000Y-84029837D01*
X186497836Y-84084968D01*
X186540032Y-84127164D01*
X186595163Y-84150000D01*
X186654837Y-84150000D01*
X186709968Y-84127164D01*
X186752164Y-84084968D01*
X186775000Y-84029837D01*
X186775000Y-83970163D01*
X186752164Y-83915032D01*
X186709968Y-83872836D01*
X186654837Y-83850000D01*
X186595163Y-83850000D01*
X186540032Y-83872836D01*
X186497836Y-83915032D01*
X186475000Y-83970163D01*
X182775000Y-83970163D01*
X182752164Y-83915032D01*
X182709968Y-83872836D01*
X182654837Y-83850000D01*
X182595163Y-83850000D01*
X182540032Y-83872836D01*
X182497836Y-83915032D01*
X182475000Y-83970163D01*
X180943709Y-83970163D01*
X181044169Y-83897176D01*
X181172170Y-83769175D01*
X181186102Y-83749999D01*
X181916759Y-83749999D01*
X181916759Y-83750000D01*
X182375000Y-83750000D01*
X182875000Y-83750000D01*
X183333241Y-83750000D01*
X183333240Y-83749999D01*
X185916759Y-83749999D01*
X185916759Y-83750000D01*
X186375000Y-83750000D01*
X186875000Y-83750000D01*
X187333241Y-83750000D01*
X187333240Y-83749999D01*
X187289642Y-83644745D01*
X187289637Y-83644735D01*
X187207563Y-83521903D01*
X187207560Y-83521899D01*
X187103100Y-83417439D01*
X187103096Y-83417436D01*
X186980264Y-83335362D01*
X186980254Y-83335357D01*
X186875000Y-83291759D01*
X186875000Y-83750000D01*
X186375000Y-83750000D01*
X186375000Y-83291759D01*
X186374999Y-83291759D01*
X186269745Y-83335357D01*
X186269735Y-83335362D01*
X186146903Y-83417436D01*
X186146899Y-83417439D01*
X186042439Y-83521899D01*
X186042436Y-83521903D01*
X185960362Y-83644735D01*
X185960357Y-83644745D01*
X185916759Y-83749999D01*
X183333240Y-83749999D01*
X183289642Y-83644745D01*
X183289637Y-83644735D01*
X183207563Y-83521903D01*
X183207560Y-83521899D01*
X183103100Y-83417439D01*
X183103096Y-83417436D01*
X182980264Y-83335362D01*
X182980254Y-83335357D01*
X182875000Y-83291759D01*
X182875000Y-83750000D01*
X182375000Y-83750000D01*
X182375000Y-83291759D01*
X182374999Y-83291759D01*
X182269745Y-83335357D01*
X182269735Y-83335362D01*
X182146903Y-83417436D01*
X182146899Y-83417439D01*
X182042439Y-83521899D01*
X182042436Y-83521903D01*
X181960362Y-83644735D01*
X181960357Y-83644745D01*
X181916759Y-83749999D01*
X181186102Y-83749999D01*
X181229043Y-83690896D01*
X181229045Y-83690894D01*
X181278565Y-83622734D01*
X181360747Y-83461447D01*
X181360748Y-83461444D01*
X181416682Y-83289293D01*
X181445000Y-83110506D01*
X181445000Y-82870000D01*
X180545000Y-82870000D01*
X180545000Y-82370000D01*
X181445000Y-82370000D01*
X181445000Y-82250000D01*
X181916759Y-82250000D01*
X181960357Y-82355254D01*
X181960362Y-82355264D01*
X182042436Y-82478096D01*
X182042439Y-82478100D01*
X182146899Y-82582560D01*
X182146907Y-82582566D01*
X182269739Y-82664640D01*
X182269743Y-82664642D01*
X182374999Y-82708240D01*
X182375000Y-82708240D01*
X182875000Y-82708240D01*
X182980256Y-82664642D01*
X182980260Y-82664640D01*
X183103092Y-82582566D01*
X183103100Y-82582560D01*
X183207560Y-82478100D01*
X183207563Y-82478096D01*
X183289637Y-82355264D01*
X183289642Y-82355254D01*
X183333241Y-82250000D01*
X185916759Y-82250000D01*
X185960357Y-82355254D01*
X185960362Y-82355264D01*
X186042436Y-82478096D01*
X186042439Y-82478100D01*
X186146899Y-82582560D01*
X186146907Y-82582566D01*
X186269739Y-82664640D01*
X186269743Y-82664642D01*
X186374999Y-82708240D01*
X186375000Y-82708240D01*
X186875000Y-82708240D01*
X186885051Y-82704077D01*
X186980256Y-82664642D01*
X186980260Y-82664640D01*
X187103092Y-82582566D01*
X187103100Y-82582560D01*
X187207560Y-82478100D01*
X187207563Y-82478096D01*
X187289637Y-82355264D01*
X187289642Y-82355254D01*
X187333241Y-82250000D01*
X186875000Y-82250000D01*
X186875000Y-82708240D01*
X186375000Y-82708240D01*
X186375000Y-82250000D01*
X185916759Y-82250000D01*
X183333241Y-82250000D01*
X182875000Y-82250000D01*
X182875000Y-82708240D01*
X182375000Y-82708240D01*
X182375000Y-82250000D01*
X181916759Y-82250000D01*
X181445000Y-82250000D01*
X181445000Y-82129493D01*
X181419764Y-81970163D01*
X182475000Y-81970163D01*
X182475000Y-82029837D01*
X182497836Y-82084968D01*
X182540032Y-82127164D01*
X182595163Y-82150000D01*
X182654837Y-82150000D01*
X182709968Y-82127164D01*
X182752164Y-82084968D01*
X182775000Y-82029837D01*
X182775000Y-81970163D01*
X186475000Y-81970163D01*
X186475000Y-82029837D01*
X186497836Y-82084968D01*
X186540032Y-82127164D01*
X186595163Y-82150000D01*
X186654837Y-82150000D01*
X186704345Y-82129493D01*
X187805000Y-82129493D01*
X187805000Y-82370000D01*
X188705000Y-82370000D01*
X188705000Y-82870000D01*
X187805000Y-82870000D01*
X187805000Y-83110506D01*
X187833317Y-83289293D01*
X187889251Y-83461444D01*
X187889252Y-83461447D01*
X187971434Y-83622734D01*
X188077823Y-83769169D01*
X188205830Y-83897176D01*
X188352265Y-84003565D01*
X188513552Y-84085747D01*
X188513555Y-84085748D01*
X188685699Y-84141680D01*
X188685712Y-84141683D01*
X188705000Y-84144738D01*
X188705000Y-83069728D01*
X188743060Y-83161614D01*
X188813386Y-83231940D01*
X188905272Y-83270000D01*
X189004728Y-83270000D01*
X189096614Y-83231940D01*
X189166940Y-83161614D01*
X189205000Y-83069728D01*
X189205000Y-84144737D01*
X189224287Y-84141683D01*
X189224300Y-84141680D01*
X189396444Y-84085748D01*
X189396447Y-84085747D01*
X189557734Y-84003565D01*
X189704169Y-83897176D01*
X189832176Y-83769169D01*
X189938565Y-83622734D01*
X190020747Y-83461447D01*
X190020748Y-83461444D01*
X190076682Y-83289293D01*
X190105000Y-83110506D01*
X190105000Y-82870000D01*
X189205000Y-82870000D01*
X189205000Y-82370000D01*
X190105000Y-82370000D01*
X190105000Y-82129493D01*
X190076682Y-81950706D01*
X190020748Y-81778555D01*
X190020747Y-81778552D01*
X189938565Y-81617265D01*
X189832176Y-81470830D01*
X189704169Y-81342823D01*
X189557734Y-81236434D01*
X189396447Y-81154252D01*
X189396441Y-81154250D01*
X189224295Y-81098318D01*
X189224285Y-81098315D01*
X189205000Y-81095260D01*
X189205000Y-82170272D01*
X189166940Y-82078386D01*
X189096614Y-82008060D01*
X189004728Y-81970000D01*
X188905272Y-81970000D01*
X188813386Y-82008060D01*
X188743060Y-82078386D01*
X188705000Y-82170272D01*
X188705000Y-81095260D01*
X188685714Y-81098315D01*
X188685704Y-81098318D01*
X188513558Y-81154250D01*
X188513552Y-81154252D01*
X188352265Y-81236434D01*
X188205830Y-81342823D01*
X188077823Y-81470830D01*
X187971434Y-81617265D01*
X187889252Y-81778552D01*
X187889251Y-81778555D01*
X187833317Y-81950706D01*
X187805000Y-82129493D01*
X186704345Y-82129493D01*
X186709968Y-82127164D01*
X186752164Y-82084968D01*
X186775000Y-82029837D01*
X186775000Y-81970163D01*
X186752164Y-81915032D01*
X186709968Y-81872836D01*
X186654837Y-81850000D01*
X186595163Y-81850000D01*
X186540032Y-81872836D01*
X186497836Y-81915032D01*
X186475000Y-81970163D01*
X182775000Y-81970163D01*
X182752164Y-81915032D01*
X182709968Y-81872836D01*
X182654837Y-81850000D01*
X182595163Y-81850000D01*
X182540032Y-81872836D01*
X182497836Y-81915032D01*
X182475000Y-81970163D01*
X181419764Y-81970163D01*
X181416682Y-81950706D01*
X181368398Y-81802099D01*
X181360748Y-81778555D01*
X181360747Y-81778552D01*
X181346198Y-81749999D01*
X181916759Y-81749999D01*
X181916759Y-81750000D01*
X182375000Y-81750000D01*
X182875000Y-81750000D01*
X183333241Y-81750000D01*
X183333240Y-81749999D01*
X185916759Y-81749999D01*
X185916759Y-81750000D01*
X186375000Y-81750000D01*
X186875000Y-81750000D01*
X187333241Y-81750000D01*
X187333240Y-81749999D01*
X187289642Y-81644745D01*
X187289637Y-81644735D01*
X187207563Y-81521903D01*
X187207560Y-81521899D01*
X187103100Y-81417439D01*
X187103096Y-81417436D01*
X186980264Y-81335362D01*
X186980254Y-81335357D01*
X186875000Y-81291759D01*
X186875000Y-81750000D01*
X186375000Y-81750000D01*
X186375000Y-81291759D01*
X186374999Y-81291759D01*
X186269745Y-81335357D01*
X186269735Y-81335362D01*
X186146903Y-81417436D01*
X186146899Y-81417439D01*
X186042439Y-81521899D01*
X186042436Y-81521903D01*
X185960362Y-81644735D01*
X185960357Y-81644745D01*
X185916759Y-81749999D01*
X183333240Y-81749999D01*
X183289642Y-81644745D01*
X183289637Y-81644735D01*
X183207563Y-81521903D01*
X183207560Y-81521899D01*
X183103100Y-81417439D01*
X183103096Y-81417436D01*
X182980264Y-81335362D01*
X182980254Y-81335357D01*
X182875000Y-81291759D01*
X182875000Y-81750000D01*
X182375000Y-81750000D01*
X182375000Y-81291759D01*
X182374999Y-81291759D01*
X182269745Y-81335357D01*
X182269735Y-81335362D01*
X182146903Y-81417436D01*
X182146899Y-81417439D01*
X182042439Y-81521899D01*
X182042436Y-81521903D01*
X181960362Y-81644735D01*
X181960357Y-81644745D01*
X181916759Y-81749999D01*
X181346198Y-81749999D01*
X181278565Y-81617265D01*
X181172176Y-81470830D01*
X181044169Y-81342823D01*
X180897734Y-81236434D01*
X180736447Y-81154252D01*
X180736441Y-81154250D01*
X180564295Y-81098318D01*
X180564285Y-81098315D01*
X180545000Y-81095260D01*
X180545000Y-82170272D01*
X180506940Y-82078386D01*
X180436614Y-82008060D01*
X180344728Y-81970000D01*
X180245272Y-81970000D01*
X180153386Y-82008060D01*
X180083060Y-82078386D01*
X180045000Y-82170272D01*
X180045000Y-81095260D01*
X180025714Y-81098315D01*
X180025704Y-81098318D01*
X179853558Y-81154250D01*
X179853552Y-81154252D01*
X179692265Y-81236434D01*
X179545830Y-81342823D01*
X179417823Y-81470830D01*
X179311434Y-81617265D01*
X179229252Y-81778552D01*
X179229251Y-81778555D01*
X179173317Y-81950706D01*
X179145000Y-82129493D01*
X176230499Y-82129493D01*
X176230499Y-82102128D01*
X176224091Y-82042517D01*
X176211239Y-82008060D01*
X176173797Y-81907671D01*
X176173793Y-81907664D01*
X176087547Y-81792455D01*
X176087544Y-81792452D01*
X175972335Y-81706206D01*
X175972328Y-81706202D01*
X175837482Y-81655908D01*
X175837483Y-81655908D01*
X175777883Y-81649501D01*
X175777881Y-81649500D01*
X175777873Y-81649500D01*
X175777864Y-81649500D01*
X173982129Y-81649500D01*
X173982123Y-81649501D01*
X173922516Y-81655908D01*
X173787671Y-81706202D01*
X173787664Y-81706206D01*
X173672455Y-81792452D01*
X173672452Y-81792455D01*
X173586206Y-81907664D01*
X173586202Y-81907671D01*
X173535908Y-82042517D01*
X173529501Y-82102116D01*
X173529501Y-82102123D01*
X173529500Y-82102135D01*
X173529500Y-82112690D01*
X173509815Y-82179729D01*
X173493181Y-82200371D01*
X172822962Y-82870590D01*
X172805925Y-82807007D01*
X172740099Y-82692993D01*
X172647007Y-82599901D01*
X172532993Y-82534075D01*
X172469409Y-82517037D01*
X173101716Y-81884728D01*
X173047550Y-81845375D01*
X172858217Y-81748904D01*
X172656129Y-81683242D01*
X172446246Y-81650000D01*
X172233754Y-81650000D01*
X172023872Y-81683242D01*
X172023869Y-81683242D01*
X171821782Y-81748904D01*
X171632439Y-81845380D01*
X171578282Y-81884727D01*
X171578282Y-81884728D01*
X172210591Y-82517037D01*
X172147007Y-82534075D01*
X172032993Y-82599901D01*
X171939901Y-82692993D01*
X171874075Y-82807007D01*
X171857037Y-82870591D01*
X171224728Y-82238282D01*
X171224727Y-82238282D01*
X171185380Y-82292440D01*
X171185376Y-82292446D01*
X171180760Y-82301505D01*
X171132781Y-82352297D01*
X171064959Y-82369087D01*
X170998826Y-82346543D01*
X170959794Y-82301493D01*
X170955051Y-82292184D01*
X170955049Y-82292181D01*
X170955048Y-82292179D01*
X170830109Y-82120213D01*
X170679786Y-81969890D01*
X170507820Y-81844951D01*
X170318414Y-81748444D01*
X170318413Y-81748443D01*
X170318412Y-81748443D01*
X170116243Y-81682754D01*
X170116241Y-81682753D01*
X170116240Y-81682753D01*
X169954957Y-81657208D01*
X169906287Y-81649500D01*
X169693713Y-81649500D01*
X169645042Y-81657208D01*
X169483760Y-81682753D01*
X169281585Y-81748444D01*
X169092179Y-81844951D01*
X168920213Y-81969890D01*
X168769890Y-82120213D01*
X168644949Y-82292182D01*
X168640484Y-82300946D01*
X168592509Y-82351742D01*
X168524688Y-82368536D01*
X168458553Y-82345998D01*
X168419516Y-82300946D01*
X168415050Y-82292182D01*
X168290109Y-82120213D01*
X168139786Y-81969890D01*
X167967820Y-81844951D01*
X167778414Y-81748444D01*
X167778413Y-81748443D01*
X167778412Y-81748443D01*
X167576243Y-81682754D01*
X167576241Y-81682753D01*
X167576240Y-81682753D01*
X167414957Y-81657208D01*
X167366287Y-81649500D01*
X167153713Y-81649500D01*
X167105042Y-81657208D01*
X166943760Y-81682753D01*
X166741585Y-81748444D01*
X166552179Y-81844951D01*
X166380213Y-81969890D01*
X166229890Y-82120213D01*
X166104949Y-82292182D01*
X166100484Y-82300946D01*
X166052509Y-82351742D01*
X165984688Y-82368536D01*
X165918553Y-82345998D01*
X165879516Y-82300946D01*
X165875050Y-82292182D01*
X165750109Y-82120213D01*
X165599786Y-81969890D01*
X165427820Y-81844951D01*
X165238414Y-81748444D01*
X165238413Y-81748443D01*
X165238412Y-81748443D01*
X165036243Y-81682754D01*
X165036241Y-81682753D01*
X165036240Y-81682753D01*
X164874957Y-81657208D01*
X164826287Y-81649500D01*
X164613713Y-81649500D01*
X164565042Y-81657208D01*
X164403760Y-81682753D01*
X164201585Y-81748444D01*
X164012179Y-81844951D01*
X163840213Y-81969890D01*
X163689890Y-82120213D01*
X163564949Y-82292182D01*
X163560484Y-82300946D01*
X163512509Y-82351742D01*
X163444688Y-82368536D01*
X163378553Y-82345998D01*
X163339516Y-82300946D01*
X163335050Y-82292182D01*
X163210109Y-82120213D01*
X163059786Y-81969890D01*
X162887820Y-81844951D01*
X162698414Y-81748444D01*
X162698413Y-81748443D01*
X162698412Y-81748443D01*
X162496243Y-81682754D01*
X162496241Y-81682753D01*
X162496240Y-81682753D01*
X162334957Y-81657208D01*
X162286287Y-81649500D01*
X162073713Y-81649500D01*
X162025042Y-81657208D01*
X161863760Y-81682753D01*
X161661585Y-81748444D01*
X161472179Y-81844951D01*
X161300213Y-81969890D01*
X161149890Y-82120213D01*
X161024951Y-82292179D01*
X160928444Y-82481585D01*
X160862753Y-82683760D01*
X160829500Y-82893713D01*
X157015000Y-82893713D01*
X157015000Y-82270000D01*
X139015000Y-82270000D01*
X139015000Y-88220000D01*
X99500500Y-88220000D01*
X99500500Y-84389818D01*
X107800000Y-84389818D01*
X107800000Y-84610181D01*
X107834473Y-84827835D01*
X107902567Y-85037410D01*
X108002611Y-85233756D01*
X108048932Y-85297513D01*
X108560689Y-84785755D01*
X108579668Y-84831574D01*
X108656274Y-84946224D01*
X108753776Y-85043726D01*
X108868426Y-85120332D01*
X108914242Y-85139309D01*
X108402485Y-85651065D01*
X108402485Y-85651066D01*
X108466243Y-85697388D01*
X108662589Y-85797432D01*
X108872164Y-85865526D01*
X109089819Y-85900000D01*
X109310181Y-85900000D01*
X109527835Y-85865526D01*
X109737410Y-85797432D01*
X109933760Y-85697386D01*
X109997513Y-85651066D01*
X109997514Y-85651066D01*
X109485757Y-85139309D01*
X109531574Y-85120332D01*
X109646224Y-85043726D01*
X109743726Y-84946224D01*
X109820332Y-84831574D01*
X109839309Y-84785757D01*
X110351066Y-85297514D01*
X110351066Y-85297513D01*
X110397386Y-85233760D01*
X110497432Y-85037410D01*
X110565526Y-84827835D01*
X110600000Y-84610181D01*
X110600000Y-84389818D01*
X110565526Y-84172164D01*
X110497432Y-83962589D01*
X110397388Y-83766243D01*
X110351066Y-83702485D01*
X110351065Y-83702485D01*
X109839309Y-84214241D01*
X109820332Y-84168426D01*
X109743726Y-84053776D01*
X109646224Y-83956274D01*
X109531574Y-83879668D01*
X109485755Y-83860689D01*
X109794311Y-83552135D01*
X112799500Y-83552135D01*
X112799500Y-85447870D01*
X112799501Y-85447876D01*
X112805908Y-85507483D01*
X112856202Y-85642328D01*
X112856206Y-85642335D01*
X112942452Y-85757544D01*
X112942455Y-85757547D01*
X113057664Y-85843793D01*
X113057671Y-85843797D01*
X113192517Y-85894091D01*
X113192516Y-85894091D01*
X113199444Y-85894835D01*
X113252127Y-85900500D01*
X115147872Y-85900499D01*
X115207483Y-85894091D01*
X115342331Y-85843796D01*
X115457546Y-85757546D01*
X115543796Y-85642331D01*
X115594091Y-85507483D01*
X115600500Y-85447873D01*
X115600499Y-83552128D01*
X115594091Y-83492517D01*
X115582578Y-83461650D01*
X115543797Y-83357671D01*
X115543793Y-83357664D01*
X115457547Y-83242455D01*
X115457544Y-83242452D01*
X115342335Y-83156206D01*
X115342328Y-83156202D01*
X115207482Y-83105908D01*
X115207483Y-83105908D01*
X115147883Y-83099501D01*
X115147881Y-83099500D01*
X115147873Y-83099500D01*
X115147864Y-83099500D01*
X113252129Y-83099500D01*
X113252123Y-83099501D01*
X113192516Y-83105908D01*
X113057671Y-83156202D01*
X113057664Y-83156206D01*
X112942455Y-83242452D01*
X112942452Y-83242455D01*
X112856206Y-83357664D01*
X112856202Y-83357671D01*
X112805908Y-83492517D01*
X112799501Y-83552116D01*
X112799501Y-83552123D01*
X112799500Y-83552135D01*
X109794311Y-83552135D01*
X109885321Y-83461125D01*
X109997513Y-83348932D01*
X109933756Y-83302611D01*
X109737410Y-83202567D01*
X109527835Y-83134473D01*
X109310181Y-83100000D01*
X109089819Y-83100000D01*
X108872164Y-83134473D01*
X108662589Y-83202567D01*
X108466233Y-83302616D01*
X108402485Y-83348931D01*
X108402485Y-83348932D01*
X108914243Y-83860690D01*
X108868426Y-83879668D01*
X108753776Y-83956274D01*
X108656274Y-84053776D01*
X108579668Y-84168426D01*
X108560690Y-84214243D01*
X108048932Y-83702485D01*
X108048931Y-83702485D01*
X108002616Y-83766233D01*
X107902567Y-83962589D01*
X107834473Y-84172164D01*
X107800000Y-84389818D01*
X99500500Y-84389818D01*
X99500500Y-80624500D01*
X99520185Y-80557461D01*
X99572989Y-80511706D01*
X99624500Y-80500500D01*
X191375500Y-80500500D01*
X191442539Y-80520185D01*
G37*
%TD.AperFunction*%
%TD*%
M02*
