%TF.GenerationSoftware,KiCad,Pcbnew,10.0.3*%
%TF.CreationDate,2026-06-22T11:34:40+02:00*%
%TF.ProjectId,presstimer,70726573-7374-4696-9d65-722e6b696361,rev?*%
%TF.SameCoordinates,Original*%
%TF.FileFunction,Legend,Bot*%
%TF.FilePolarity,Positive*%
%FSLAX46Y46*%
G04 Gerber Fmt 4.6, Leading zero omitted, Abs format (unit mm)*
G04 Created by KiCad (PCBNEW 10.0.3) date 2026-06-22 11:34:40*
%MOMM*%
%LPD*%
G01*
G04 APERTURE LIST*
G04 Aperture macros list*
%AMRoundRect*
0 Rectangle with rounded corners*
0 $1 Rounding radius*
0 $2 $3 $4 $5 $6 $7 $8 $9 X,Y pos of 4 corners*
0 Add a 4 corners polygon primitive as box body*
4,1,4,$2,$3,$4,$5,$6,$7,$8,$9,$2,$3,0*
0 Add four circle primitives for the rounded corners*
1,1,$1+$1,$2,$3*
1,1,$1+$1,$4,$5*
1,1,$1+$1,$6,$7*
1,1,$1+$1,$8,$9*
0 Add four rect primitives between the rounded corners*
20,1,$1+$1,$2,$3,$4,$5,0*
20,1,$1+$1,$4,$5,$6,$7,0*
20,1,$1+$1,$6,$7,$8,$9,0*
20,1,$1+$1,$8,$9,$2,$3,0*%
G04 Aperture macros list end*
%ADD10C,1.800000*%
%ADD11R,1.800000X1.800000*%
%ADD12R,2.200000X1.800000*%
%ADD13C,1.500000*%
%ADD14R,1.500000X1.500000*%
%ADD15R,1.700000X1.700000*%
%ADD16C,1.700000*%
%ADD17RoundRect,0.250000X-0.550000X-0.550000X0.550000X-0.550000X0.550000X0.550000X-0.550000X0.550000X0*%
%ADD18C,1.600000*%
%ADD19C,3.200000*%
%ADD20C,2.400000*%
%ADD21RoundRect,0.250000X0.550000X-0.550000X0.550000X0.550000X-0.550000X0.550000X-0.550000X-0.550000X0*%
%ADD22C,2.374900*%
%ADD23C,0.990600*%
%ADD24O,2.100000X1.300000*%
%ADD25O,2.300000X1.300000*%
%ADD26C,0.500000*%
%ADD27C,0.600000*%
%ADD28O,1.300000X2.300000*%
%ADD29O,1.300000X2.100000*%
G04 APERTURE END LIST*
%LPC*%
D10*
%TO.C,J10*%
X130500000Y-147600000D03*
D11*
X125500000Y-147600000D03*
%TD*%
D12*
%TO.C,U5*%
X130496022Y-134486900D03*
X125456022Y-134486900D03*
D13*
X109076022Y-134486900D03*
D14*
X105296022Y-134486900D03*
%TD*%
D15*
%TO.C,J5*%
X174880000Y-83000000D03*
D16*
X172340000Y-83000000D03*
X169800000Y-83000000D03*
X167260000Y-83000000D03*
X164720000Y-83000000D03*
X162180000Y-83000000D03*
%TD*%
D11*
%TO.C,J2*%
X102500000Y-117400000D03*
D10*
X102500000Y-122400000D03*
X102500000Y-127400000D03*
%TD*%
D17*
%TO.C,U4*%
X148300278Y-124600000D03*
D18*
X148300278Y-127140000D03*
X155920278Y-127140000D03*
X155920278Y-124600000D03*
%TD*%
D19*
%TO.C,H2*%
X157900000Y-147200000D03*
%TD*%
D20*
%TO.C,R22*%
X180250000Y-146650000D03*
X165010000Y-146650000D03*
%TD*%
D11*
%TO.C,J1*%
X114200000Y-84500000D03*
D10*
X109200000Y-84500000D03*
%TD*%
D19*
%TO.C,H1*%
X103100000Y-93100000D03*
%TD*%
D15*
%TO.C,J6*%
X166580000Y-119800000D03*
D16*
X169120000Y-119800000D03*
X171660000Y-119800000D03*
X174200000Y-119800000D03*
X176740000Y-119800000D03*
X179280000Y-119800000D03*
%TD*%
D20*
%TO.C,R27*%
X142505278Y-140100000D03*
X142505278Y-124860000D03*
%TD*%
D21*
%TO.C,U3*%
X165000000Y-140855000D03*
D18*
X167540000Y-140855000D03*
X167540000Y-133235000D03*
X165000000Y-133235000D03*
%TD*%
D19*
%TO.C,H3*%
X186775000Y-114400000D03*
%TD*%
D22*
%TO.C,J4*%
X188600000Y-130500000D03*
D23*
X188600000Y-127960000D03*
D22*
X188600000Y-125420000D03*
X185425000Y-130500000D03*
X185425000Y-125420000D03*
D23*
X183520000Y-128976000D03*
X183520000Y-126944000D03*
%TD*%
D11*
%TO.C,J8*%
X188000000Y-146700000D03*
D10*
X188000000Y-141700000D03*
%TD*%
D19*
%TO.C,H4*%
X104000000Y-147100000D03*
%TD*%
D16*
%TO.C,Q5*%
X118180000Y-115125000D03*
X120720000Y-115125000D03*
X123260000Y-115125000D03*
X125800000Y-115125000D03*
X128340000Y-115125000D03*
X130880000Y-115125000D03*
X133420000Y-115125000D03*
X135960000Y-115125000D03*
X138500000Y-115125000D03*
X141040000Y-115125000D03*
X143580000Y-115125000D03*
X146120000Y-115125000D03*
X148660000Y-115125000D03*
D15*
X151200000Y-115125000D03*
%TD*%
D24*
%TO.C,J3*%
X101620000Y-109380000D03*
D25*
X105820000Y-109380000D03*
D26*
X101000000Y-107050000D03*
X103000000Y-107050000D03*
X101000000Y-103050000D03*
X103000000Y-103050000D03*
D24*
X101620000Y-100720000D03*
D25*
X105820000Y-100720000D03*
D27*
X105300000Y-107940000D03*
X105300000Y-102160000D03*
%TD*%
D11*
%TO.C,J9*%
X142455278Y-147600000D03*
D10*
X147455278Y-147600000D03*
%TD*%
D27*
%TO.C,J11*%
X187515000Y-86300000D03*
X181735000Y-86300000D03*
D28*
X188955000Y-86820000D03*
D29*
X188955000Y-82620000D03*
D26*
X186625000Y-84000000D03*
X186625000Y-82000000D03*
X182625000Y-84000000D03*
X182625000Y-82000000D03*
D28*
X180295000Y-86820000D03*
D29*
X180295000Y-82620000D03*
%TD*%
%LPD*%
M02*
