%TF.GenerationSoftware,KiCad,Pcbnew,10.0.3*%
%TF.CreationDate,2026-06-22T23:01:38+02:00*%
%TF.ProjectId,presstimer,70726573-7374-4696-9d65-722e6b696361,rev?*%
%TF.SameCoordinates,Original*%
%TF.FileFunction,Soldermask,Bot*%
%TF.FilePolarity,Negative*%
%FSLAX46Y46*%
G04 Gerber Fmt 4.6, Leading zero omitted, Abs format (unit mm)*
G04 Created by KiCad (PCBNEW 10.0.3) date 2026-06-22 23:01:38*
%MOMM*%
%LPD*%
G01*
G04 APERTURE LIST*
G04 APERTURE END LIST*
G36*
X158018894Y-145555086D02*
G01*
X158029458Y-145555086D01*
X158081477Y-145563325D01*
X158221877Y-145581809D01*
X158256138Y-145590989D01*
X158285185Y-145595590D01*
X158341045Y-145613740D01*
X158430338Y-145637666D01*
X158487309Y-145661264D01*
X158531428Y-145675599D01*
X158572755Y-145696656D01*
X158629733Y-145720257D01*
X158709803Y-145766485D01*
X158762123Y-145793144D01*
X158785909Y-145810425D01*
X158816624Y-145828159D01*
X158928975Y-145914369D01*
X158971589Y-145945330D01*
X158979058Y-145952799D01*
X158987848Y-145959544D01*
X159140455Y-146112151D01*
X159147199Y-146120940D01*
X159154670Y-146128411D01*
X159185634Y-146171030D01*
X159271840Y-146283375D01*
X159289572Y-146314087D01*
X159306856Y-146337877D01*
X159333517Y-146390203D01*
X159379742Y-146470266D01*
X159403340Y-146527237D01*
X159424401Y-146568572D01*
X159438738Y-146612696D01*
X159462333Y-146669661D01*
X159486255Y-146758941D01*
X159504410Y-146814815D01*
X159509011Y-146843867D01*
X159518190Y-146878122D01*
X159536673Y-147018514D01*
X159544914Y-147070542D01*
X159544914Y-147081105D01*
X159546360Y-147092089D01*
X159546360Y-147307910D01*
X159544914Y-147318893D01*
X159544914Y-147329458D01*
X159536672Y-147381490D01*
X159518190Y-147521877D01*
X159509011Y-147556129D01*
X159504410Y-147585185D01*
X159486254Y-147641063D01*
X159462333Y-147730338D01*
X159438739Y-147787298D01*
X159424401Y-147831428D01*
X159403337Y-147872766D01*
X159379742Y-147929733D01*
X159333521Y-148009788D01*
X159306856Y-148062123D01*
X159289569Y-148085916D01*
X159271840Y-148116624D01*
X159185648Y-148228950D01*
X159154670Y-148271589D01*
X159147195Y-148279063D01*
X159140455Y-148287848D01*
X158987848Y-148440455D01*
X158979063Y-148447195D01*
X158971589Y-148454670D01*
X158928950Y-148485648D01*
X158816624Y-148571840D01*
X158785916Y-148589569D01*
X158762123Y-148606856D01*
X158709788Y-148633521D01*
X158629733Y-148679742D01*
X158572766Y-148703337D01*
X158531428Y-148724401D01*
X158487298Y-148738739D01*
X158430338Y-148762333D01*
X158341063Y-148786254D01*
X158285185Y-148804410D01*
X158256129Y-148809011D01*
X158221877Y-148818190D01*
X158081490Y-148836672D01*
X158029458Y-148844914D01*
X158018893Y-148844914D01*
X158007910Y-148846360D01*
X157792090Y-148846360D01*
X157781107Y-148844914D01*
X157770542Y-148844914D01*
X157718511Y-148836672D01*
X157578122Y-148818190D01*
X157543867Y-148809011D01*
X157514815Y-148804410D01*
X157458941Y-148786255D01*
X157369661Y-148762333D01*
X157312696Y-148738738D01*
X157268572Y-148724401D01*
X157227237Y-148703340D01*
X157170266Y-148679742D01*
X157090203Y-148633517D01*
X157037877Y-148606856D01*
X157014087Y-148589572D01*
X156983375Y-148571840D01*
X156871030Y-148485634D01*
X156828411Y-148454670D01*
X156820940Y-148447199D01*
X156812151Y-148440455D01*
X156659544Y-148287848D01*
X156652799Y-148279058D01*
X156645330Y-148271589D01*
X156614369Y-148228975D01*
X156528159Y-148116624D01*
X156510425Y-148085909D01*
X156493144Y-148062123D01*
X156466485Y-148009803D01*
X156420257Y-147929733D01*
X156396656Y-147872755D01*
X156375599Y-147831428D01*
X156361264Y-147787309D01*
X156337666Y-147730338D01*
X156313740Y-147641045D01*
X156295590Y-147585185D01*
X156290989Y-147556138D01*
X156281809Y-147521877D01*
X156263325Y-147381477D01*
X156255086Y-147329458D01*
X156255086Y-147318893D01*
X156253640Y-147307910D01*
X156253640Y-147092089D01*
X156255086Y-147081105D01*
X156255086Y-147070542D01*
X156263324Y-147018527D01*
X156281809Y-146878122D01*
X156290989Y-146843858D01*
X156295590Y-146814815D01*
X156313738Y-146758959D01*
X156337666Y-146669661D01*
X156361265Y-146612685D01*
X156375599Y-146568572D01*
X156396654Y-146527248D01*
X156420257Y-146470266D01*
X156466489Y-146390188D01*
X156493144Y-146337877D01*
X156510423Y-146314094D01*
X156528159Y-146283375D01*
X156614383Y-146171005D01*
X156645330Y-146128411D01*
X156652796Y-146120944D01*
X156659544Y-146112151D01*
X156812151Y-145959544D01*
X156820944Y-145952796D01*
X156828411Y-145945330D01*
X156871005Y-145914383D01*
X156983375Y-145828159D01*
X157014094Y-145810423D01*
X157037877Y-145793144D01*
X157090188Y-145766489D01*
X157170266Y-145720257D01*
X157227248Y-145696654D01*
X157268572Y-145675599D01*
X157312685Y-145661265D01*
X157369661Y-145637666D01*
X157458959Y-145613738D01*
X157514815Y-145595590D01*
X157543858Y-145590989D01*
X157578122Y-145581809D01*
X157718524Y-145563324D01*
X157770542Y-145555086D01*
X157781106Y-145555086D01*
X157792090Y-145553640D01*
X158007910Y-145553640D01*
X158018894Y-145555086D01*
G37*
G36*
X104118894Y-145455086D02*
G01*
X104129458Y-145455086D01*
X104181477Y-145463325D01*
X104321877Y-145481809D01*
X104356138Y-145490989D01*
X104385185Y-145495590D01*
X104441045Y-145513740D01*
X104530338Y-145537666D01*
X104587309Y-145561264D01*
X104631428Y-145575599D01*
X104672755Y-145596656D01*
X104729733Y-145620257D01*
X104809803Y-145666485D01*
X104862123Y-145693144D01*
X104885909Y-145710425D01*
X104916624Y-145728159D01*
X105028975Y-145814369D01*
X105071589Y-145845330D01*
X105079058Y-145852799D01*
X105087848Y-145859544D01*
X105240455Y-146012151D01*
X105247199Y-146020940D01*
X105254670Y-146028411D01*
X105285634Y-146071030D01*
X105371840Y-146183375D01*
X105389572Y-146214087D01*
X105406856Y-146237877D01*
X105433517Y-146290203D01*
X105479742Y-146370266D01*
X105503340Y-146427237D01*
X105524401Y-146468572D01*
X105538738Y-146512696D01*
X105562333Y-146569661D01*
X105586255Y-146658941D01*
X105604410Y-146714815D01*
X105609011Y-146743867D01*
X105618190Y-146778122D01*
X105636673Y-146918514D01*
X105644914Y-146970542D01*
X105644914Y-146981105D01*
X105646360Y-146992089D01*
X105646360Y-147207910D01*
X105644914Y-147218893D01*
X105644914Y-147229458D01*
X105636672Y-147281490D01*
X105618190Y-147421877D01*
X105609011Y-147456129D01*
X105604410Y-147485185D01*
X105586254Y-147541063D01*
X105562333Y-147630338D01*
X105538739Y-147687298D01*
X105524401Y-147731428D01*
X105503337Y-147772766D01*
X105479742Y-147829733D01*
X105433521Y-147909788D01*
X105406856Y-147962123D01*
X105389569Y-147985916D01*
X105371840Y-148016624D01*
X105285648Y-148128950D01*
X105254670Y-148171589D01*
X105247195Y-148179063D01*
X105240455Y-148187848D01*
X105087848Y-148340455D01*
X105079063Y-148347195D01*
X105071589Y-148354670D01*
X105028950Y-148385648D01*
X104916624Y-148471840D01*
X104885916Y-148489569D01*
X104862123Y-148506856D01*
X104809788Y-148533521D01*
X104729733Y-148579742D01*
X104672766Y-148603337D01*
X104631428Y-148624401D01*
X104587298Y-148638739D01*
X104530338Y-148662333D01*
X104441063Y-148686254D01*
X104385185Y-148704410D01*
X104356129Y-148709011D01*
X104321877Y-148718190D01*
X104181490Y-148736672D01*
X104129458Y-148744914D01*
X104118893Y-148744914D01*
X104107910Y-148746360D01*
X103892090Y-148746360D01*
X103881107Y-148744914D01*
X103870542Y-148744914D01*
X103818511Y-148736672D01*
X103678122Y-148718190D01*
X103643867Y-148709011D01*
X103614815Y-148704410D01*
X103558941Y-148686255D01*
X103469661Y-148662333D01*
X103412696Y-148638738D01*
X103368572Y-148624401D01*
X103327237Y-148603340D01*
X103270266Y-148579742D01*
X103190203Y-148533517D01*
X103137877Y-148506856D01*
X103114087Y-148489572D01*
X103083375Y-148471840D01*
X102971030Y-148385634D01*
X102928411Y-148354670D01*
X102920940Y-148347199D01*
X102912151Y-148340455D01*
X102759544Y-148187848D01*
X102752799Y-148179058D01*
X102745330Y-148171589D01*
X102714369Y-148128975D01*
X102628159Y-148016624D01*
X102610425Y-147985909D01*
X102593144Y-147962123D01*
X102566485Y-147909803D01*
X102520257Y-147829733D01*
X102496656Y-147772755D01*
X102475599Y-147731428D01*
X102461264Y-147687309D01*
X102437666Y-147630338D01*
X102413740Y-147541045D01*
X102395590Y-147485185D01*
X102390989Y-147456138D01*
X102381809Y-147421877D01*
X102363325Y-147281477D01*
X102355086Y-147229458D01*
X102355086Y-147218893D01*
X102353640Y-147207910D01*
X102353640Y-146992089D01*
X102355086Y-146981105D01*
X102355086Y-146970542D01*
X102363324Y-146918527D01*
X102381809Y-146778122D01*
X102390989Y-146743858D01*
X102395590Y-146714815D01*
X102413738Y-146658959D01*
X102437666Y-146569661D01*
X102461265Y-146512685D01*
X102475599Y-146468572D01*
X102496654Y-146427248D01*
X102520257Y-146370266D01*
X102566489Y-146290188D01*
X102593144Y-146237877D01*
X102610423Y-146214094D01*
X102628159Y-146183375D01*
X102714383Y-146071005D01*
X102745330Y-146028411D01*
X102752796Y-146020944D01*
X102759544Y-146012151D01*
X102912151Y-145859544D01*
X102920944Y-145852796D01*
X102928411Y-145845330D01*
X102971005Y-145814383D01*
X103083375Y-145728159D01*
X103114094Y-145710423D01*
X103137877Y-145693144D01*
X103190188Y-145666489D01*
X103270266Y-145620257D01*
X103327248Y-145596654D01*
X103368572Y-145575599D01*
X103412685Y-145561265D01*
X103469661Y-145537666D01*
X103558959Y-145513738D01*
X103614815Y-145495590D01*
X103643858Y-145490989D01*
X103678122Y-145481809D01*
X103818524Y-145463324D01*
X103870542Y-145455086D01*
X103881106Y-145455086D01*
X103892090Y-145453640D01*
X104107910Y-145453640D01*
X104118894Y-145455086D01*
G37*
G36*
X126419134Y-146653806D02*
G01*
X126435355Y-146664645D01*
X126446194Y-146680866D01*
X126450000Y-146700000D01*
X126450000Y-148500000D01*
X126446194Y-148519134D01*
X126435355Y-148535355D01*
X126419134Y-148546194D01*
X126400000Y-148550000D01*
X124600000Y-148550000D01*
X124580866Y-148546194D01*
X124564645Y-148535355D01*
X124553806Y-148519134D01*
X124550000Y-148500000D01*
X124550000Y-146700000D01*
X124553806Y-146680866D01*
X124564645Y-146664645D01*
X124580866Y-146653806D01*
X124600000Y-146650000D01*
X126400000Y-146650000D01*
X126419134Y-146653806D01*
G37*
G36*
X143374412Y-146653806D02*
G01*
X143390633Y-146664645D01*
X143401472Y-146680866D01*
X143405278Y-146700000D01*
X143405278Y-148500000D01*
X143401472Y-148519134D01*
X143390633Y-148535355D01*
X143374412Y-148546194D01*
X143355278Y-148550000D01*
X141555278Y-148550000D01*
X141536144Y-148546194D01*
X141519923Y-148535355D01*
X141509084Y-148519134D01*
X141505278Y-148500000D01*
X141505278Y-146700000D01*
X141509084Y-146680866D01*
X141519923Y-146664645D01*
X141536144Y-146653806D01*
X141555278Y-146650000D01*
X143355278Y-146650000D01*
X143374412Y-146653806D01*
G37*
G36*
X130775770Y-146690907D02*
G01*
X130947827Y-146762175D01*
X131102674Y-146865640D01*
X131234360Y-146997326D01*
X131337825Y-147152173D01*
X131409093Y-147324230D01*
X131445425Y-147506884D01*
X131445425Y-147693116D01*
X131409093Y-147875770D01*
X131337825Y-148047827D01*
X131234360Y-148202674D01*
X131102674Y-148334360D01*
X130947827Y-148437825D01*
X130775770Y-148509093D01*
X130593116Y-148545425D01*
X130406884Y-148545425D01*
X130224230Y-148509093D01*
X130052173Y-148437825D01*
X129897326Y-148334360D01*
X129765640Y-148202674D01*
X129662175Y-148047827D01*
X129590907Y-147875770D01*
X129554575Y-147693116D01*
X129554575Y-147506884D01*
X129590907Y-147324230D01*
X129662175Y-147152173D01*
X129765640Y-146997326D01*
X129897326Y-146865640D01*
X130052173Y-146762175D01*
X130224230Y-146690907D01*
X130406884Y-146654575D01*
X130593116Y-146654575D01*
X130775770Y-146690907D01*
G37*
G36*
X147731048Y-146690907D02*
G01*
X147903105Y-146762175D01*
X148057952Y-146865640D01*
X148189638Y-146997326D01*
X148293103Y-147152173D01*
X148364371Y-147324230D01*
X148400703Y-147506884D01*
X148400703Y-147693116D01*
X148364371Y-147875770D01*
X148293103Y-148047827D01*
X148189638Y-148202674D01*
X148057952Y-148334360D01*
X147903105Y-148437825D01*
X147731048Y-148509093D01*
X147548394Y-148545425D01*
X147362162Y-148545425D01*
X147179508Y-148509093D01*
X147007451Y-148437825D01*
X146852604Y-148334360D01*
X146720918Y-148202674D01*
X146617453Y-148047827D01*
X146546185Y-147875770D01*
X146509853Y-147693116D01*
X146509853Y-147506884D01*
X146546185Y-147324230D01*
X146617453Y-147152173D01*
X146720918Y-146997326D01*
X146852604Y-146865640D01*
X147007451Y-146762175D01*
X147179508Y-146690907D01*
X147362162Y-146654575D01*
X147548394Y-146654575D01*
X147731048Y-146690907D01*
G37*
G36*
X165301807Y-145434538D02*
G01*
X165488354Y-145495151D01*
X165663123Y-145584200D01*
X165821810Y-145699493D01*
X165960507Y-145838190D01*
X166075800Y-145996877D01*
X166164849Y-146171646D01*
X166225462Y-146358193D01*
X166256147Y-146551926D01*
X166256147Y-146748074D01*
X166225462Y-146941807D01*
X166164849Y-147128354D01*
X166075800Y-147303123D01*
X165960507Y-147461810D01*
X165821810Y-147600507D01*
X165663123Y-147715800D01*
X165488354Y-147804849D01*
X165301807Y-147865462D01*
X165108074Y-147896147D01*
X164911926Y-147896147D01*
X164718193Y-147865462D01*
X164531646Y-147804849D01*
X164356877Y-147715800D01*
X164198190Y-147600507D01*
X164059493Y-147461810D01*
X163944200Y-147303123D01*
X163855151Y-147128354D01*
X163794538Y-146941807D01*
X163763853Y-146748074D01*
X163763853Y-146551926D01*
X163794538Y-146358193D01*
X163855151Y-146171646D01*
X163944200Y-145996877D01*
X164059493Y-145838190D01*
X164198190Y-145699493D01*
X164356877Y-145584200D01*
X164531646Y-145495151D01*
X164718193Y-145434538D01*
X164911926Y-145403853D01*
X165108074Y-145403853D01*
X165301807Y-145434538D01*
G37*
G36*
X180541807Y-145434538D02*
G01*
X180728354Y-145495151D01*
X180903123Y-145584200D01*
X181061810Y-145699493D01*
X181200507Y-145838190D01*
X181315800Y-145996877D01*
X181404849Y-146171646D01*
X181465462Y-146358193D01*
X181496147Y-146551926D01*
X181496147Y-146748074D01*
X181465462Y-146941807D01*
X181404849Y-147128354D01*
X181315800Y-147303123D01*
X181200507Y-147461810D01*
X181061810Y-147600507D01*
X180903123Y-147715800D01*
X180728354Y-147804849D01*
X180541807Y-147865462D01*
X180348074Y-147896147D01*
X180151926Y-147896147D01*
X179958193Y-147865462D01*
X179771646Y-147804849D01*
X179596877Y-147715800D01*
X179438190Y-147600507D01*
X179299493Y-147461810D01*
X179184200Y-147303123D01*
X179095151Y-147128354D01*
X179034538Y-146941807D01*
X179003853Y-146748074D01*
X179003853Y-146551926D01*
X179034538Y-146358193D01*
X179095151Y-146171646D01*
X179184200Y-145996877D01*
X179299493Y-145838190D01*
X179438190Y-145699493D01*
X179596877Y-145584200D01*
X179771646Y-145495151D01*
X179958193Y-145434538D01*
X180151926Y-145403853D01*
X180348074Y-145403853D01*
X180541807Y-145434538D01*
G37*
G36*
X188919134Y-145753806D02*
G01*
X188935355Y-145764645D01*
X188946194Y-145780866D01*
X188950000Y-145800000D01*
X188950000Y-147600000D01*
X188946194Y-147619134D01*
X188935355Y-147635355D01*
X188919134Y-147646194D01*
X188900000Y-147650000D01*
X187100000Y-147650000D01*
X187080866Y-147646194D01*
X187064645Y-147635355D01*
X187053806Y-147619134D01*
X187050000Y-147600000D01*
X187050000Y-145800000D01*
X187053806Y-145780866D01*
X187064645Y-145764645D01*
X187080866Y-145753806D01*
X187100000Y-145750000D01*
X188900000Y-145750000D01*
X188919134Y-145753806D01*
G37*
G36*
X188275770Y-140790907D02*
G01*
X188447827Y-140862175D01*
X188602674Y-140965640D01*
X188734360Y-141097326D01*
X188837825Y-141252173D01*
X188909093Y-141424230D01*
X188945425Y-141606884D01*
X188945425Y-141793116D01*
X188909093Y-141975770D01*
X188837825Y-142147827D01*
X188734360Y-142302674D01*
X188602674Y-142434360D01*
X188447827Y-142537825D01*
X188275770Y-142609093D01*
X188093116Y-142645425D01*
X187906884Y-142645425D01*
X187724230Y-142609093D01*
X187552173Y-142537825D01*
X187397326Y-142434360D01*
X187265640Y-142302674D01*
X187162175Y-142147827D01*
X187090907Y-141975770D01*
X187054575Y-141793116D01*
X187054575Y-141606884D01*
X187090907Y-141424230D01*
X187162175Y-141252173D01*
X187265640Y-141097326D01*
X187397326Y-140965640D01*
X187552173Y-140862175D01*
X187724230Y-140790907D01*
X187906884Y-140754575D01*
X188093116Y-140754575D01*
X188275770Y-140790907D01*
G37*
G36*
X165618685Y-140012969D02*
G01*
X165627358Y-140016798D01*
X165634925Y-140017901D01*
X165682223Y-140041023D01*
X165719541Y-140057501D01*
X165722996Y-140060956D01*
X165723920Y-140061408D01*
X165793591Y-140131079D01*
X165794042Y-140132002D01*
X165797499Y-140135459D01*
X165813978Y-140172782D01*
X165837098Y-140220073D01*
X165838200Y-140227639D01*
X165842031Y-140236315D01*
X165850000Y-140305000D01*
X165850000Y-141405000D01*
X165842031Y-141473685D01*
X165838199Y-141482361D01*
X165837098Y-141489925D01*
X165813985Y-141537202D01*
X165797499Y-141574541D01*
X165794041Y-141577998D01*
X165793591Y-141578920D01*
X165723920Y-141648591D01*
X165722998Y-141649041D01*
X165719541Y-141652499D01*
X165682207Y-141668983D01*
X165634926Y-141692098D01*
X165627361Y-141693200D01*
X165618685Y-141697031D01*
X165550000Y-141705000D01*
X164450000Y-141705000D01*
X164381315Y-141697031D01*
X164372638Y-141693200D01*
X164365074Y-141692098D01*
X164317787Y-141668981D01*
X164280459Y-141652499D01*
X164277002Y-141649042D01*
X164276079Y-141648591D01*
X164206408Y-141578920D01*
X164205956Y-141577996D01*
X164202501Y-141574541D01*
X164186025Y-141537228D01*
X164162901Y-141489926D01*
X164161798Y-141482357D01*
X164157969Y-141473685D01*
X164150000Y-141405000D01*
X164150000Y-140305000D01*
X164157969Y-140236315D01*
X164161798Y-140227642D01*
X164162901Y-140220074D01*
X164186028Y-140172766D01*
X164202501Y-140135459D01*
X164205955Y-140132004D01*
X164206408Y-140131079D01*
X164276079Y-140061408D01*
X164277004Y-140060955D01*
X164280459Y-140057501D01*
X164317761Y-140041030D01*
X164365073Y-140017901D01*
X164372642Y-140016798D01*
X164381315Y-140012969D01*
X164450000Y-140005000D01*
X165550000Y-140005000D01*
X165618685Y-140012969D01*
G37*
G36*
X167786742Y-140041601D02*
G01*
X167940687Y-140105367D01*
X168079234Y-140197941D01*
X168197059Y-140315766D01*
X168289633Y-140454313D01*
X168353399Y-140608258D01*
X168385907Y-140771685D01*
X168385907Y-140938315D01*
X168353399Y-141101742D01*
X168289633Y-141255687D01*
X168197059Y-141394234D01*
X168079234Y-141512059D01*
X167940687Y-141604633D01*
X167786742Y-141668399D01*
X167623315Y-141700907D01*
X167456685Y-141700907D01*
X167293258Y-141668399D01*
X167139313Y-141604633D01*
X167000766Y-141512059D01*
X166882941Y-141394234D01*
X166790367Y-141255687D01*
X166726601Y-141101742D01*
X166694093Y-140938315D01*
X166694093Y-140771685D01*
X166726601Y-140608258D01*
X166790367Y-140454313D01*
X166882941Y-140315766D01*
X167000766Y-140197941D01*
X167139313Y-140105367D01*
X167293258Y-140041601D01*
X167456685Y-140009093D01*
X167623315Y-140009093D01*
X167786742Y-140041601D01*
G37*
G36*
X142797085Y-138884538D02*
G01*
X142983632Y-138945151D01*
X143158401Y-139034200D01*
X143317088Y-139149493D01*
X143455785Y-139288190D01*
X143571078Y-139446877D01*
X143660127Y-139621646D01*
X143720740Y-139808193D01*
X143751425Y-140001926D01*
X143751425Y-140198074D01*
X143720740Y-140391807D01*
X143660127Y-140578354D01*
X143571078Y-140753123D01*
X143455785Y-140911810D01*
X143317088Y-141050507D01*
X143158401Y-141165800D01*
X142983632Y-141254849D01*
X142797085Y-141315462D01*
X142603352Y-141346147D01*
X142407204Y-141346147D01*
X142213471Y-141315462D01*
X142026924Y-141254849D01*
X141852155Y-141165800D01*
X141693468Y-141050507D01*
X141554771Y-140911810D01*
X141439478Y-140753123D01*
X141350429Y-140578354D01*
X141289816Y-140391807D01*
X141259131Y-140198074D01*
X141259131Y-140001926D01*
X141289816Y-139808193D01*
X141350429Y-139621646D01*
X141439478Y-139446877D01*
X141554771Y-139288190D01*
X141693468Y-139149493D01*
X141852155Y-139034200D01*
X142026924Y-138945151D01*
X142213471Y-138884538D01*
X142407204Y-138853853D01*
X142603352Y-138853853D01*
X142797085Y-138884538D01*
G37*
G36*
X126575156Y-133540706D02*
G01*
X126591377Y-133551545D01*
X126602216Y-133567766D01*
X126606022Y-133586900D01*
X126606022Y-135386900D01*
X126602216Y-135406034D01*
X126591377Y-135422255D01*
X126575156Y-135433094D01*
X126556022Y-135436900D01*
X124356022Y-135436900D01*
X124336888Y-135433094D01*
X124320667Y-135422255D01*
X124309828Y-135406034D01*
X124306022Y-135386900D01*
X124306022Y-133586900D01*
X124309828Y-133567766D01*
X124320667Y-133551545D01*
X124336888Y-133540706D01*
X124356022Y-133536900D01*
X126556022Y-133536900D01*
X126575156Y-133540706D01*
G37*
G36*
X131615156Y-133540706D02*
G01*
X131631377Y-133551545D01*
X131642216Y-133567766D01*
X131646022Y-133586900D01*
X131646022Y-135386900D01*
X131642216Y-135406034D01*
X131631377Y-135422255D01*
X131615156Y-135433094D01*
X131596022Y-135436900D01*
X129396022Y-135436900D01*
X129376888Y-135433094D01*
X129360667Y-135422255D01*
X129349828Y-135406034D01*
X129346022Y-135386900D01*
X129346022Y-133586900D01*
X129349828Y-133567766D01*
X129360667Y-133551545D01*
X129376888Y-133540706D01*
X129396022Y-133536900D01*
X131596022Y-133536900D01*
X131615156Y-133540706D01*
G37*
G36*
X106065156Y-133690706D02*
G01*
X106081377Y-133701545D01*
X106092216Y-133717766D01*
X106096022Y-133736900D01*
X106096022Y-135236900D01*
X106092216Y-135256034D01*
X106081377Y-135272255D01*
X106065156Y-135283094D01*
X106046022Y-135286900D01*
X104546022Y-135286900D01*
X104526888Y-135283094D01*
X104510667Y-135272255D01*
X104499828Y-135256034D01*
X104496022Y-135236900D01*
X104496022Y-133736900D01*
X104499828Y-133717766D01*
X104510667Y-133701545D01*
X104526888Y-133690706D01*
X104546022Y-133686900D01*
X106046022Y-133686900D01*
X106065156Y-133690706D01*
G37*
G36*
X109308250Y-133721348D02*
G01*
X109453139Y-133781363D01*
X109583537Y-133868492D01*
X109694430Y-133979385D01*
X109781559Y-134109783D01*
X109841574Y-134254672D01*
X109872170Y-134408486D01*
X109872170Y-134565314D01*
X109841574Y-134719128D01*
X109781559Y-134864017D01*
X109694430Y-134994415D01*
X109583537Y-135105308D01*
X109453139Y-135192437D01*
X109308250Y-135252452D01*
X109154436Y-135283048D01*
X108997608Y-135283048D01*
X108843794Y-135252452D01*
X108698905Y-135192437D01*
X108568507Y-135105308D01*
X108457614Y-134994415D01*
X108370485Y-134864017D01*
X108310470Y-134719128D01*
X108279874Y-134565314D01*
X108279874Y-134408486D01*
X108310470Y-134254672D01*
X108370485Y-134109783D01*
X108457614Y-133979385D01*
X108568507Y-133868492D01*
X108698905Y-133781363D01*
X108843794Y-133721348D01*
X108997608Y-133690752D01*
X109154436Y-133690752D01*
X109308250Y-133721348D01*
G37*
G36*
X165246742Y-132421601D02*
G01*
X165400687Y-132485367D01*
X165539234Y-132577941D01*
X165657059Y-132695766D01*
X165749633Y-132834313D01*
X165813399Y-132988258D01*
X165845907Y-133151685D01*
X165845907Y-133318315D01*
X165813399Y-133481742D01*
X165749633Y-133635687D01*
X165657059Y-133774234D01*
X165539234Y-133892059D01*
X165400687Y-133984633D01*
X165246742Y-134048399D01*
X165083315Y-134080907D01*
X164916685Y-134080907D01*
X164753258Y-134048399D01*
X164599313Y-133984633D01*
X164460766Y-133892059D01*
X164342941Y-133774234D01*
X164250367Y-133635687D01*
X164186601Y-133481742D01*
X164154093Y-133318315D01*
X164154093Y-133151685D01*
X164186601Y-132988258D01*
X164250367Y-132834313D01*
X164342941Y-132695766D01*
X164460766Y-132577941D01*
X164599313Y-132485367D01*
X164753258Y-132421601D01*
X164916685Y-132389093D01*
X165083315Y-132389093D01*
X165246742Y-132421601D01*
G37*
G36*
X167786742Y-132421601D02*
G01*
X167940687Y-132485367D01*
X168079234Y-132577941D01*
X168197059Y-132695766D01*
X168289633Y-132834313D01*
X168353399Y-132988258D01*
X168385907Y-133151685D01*
X168385907Y-133318315D01*
X168353399Y-133481742D01*
X168289633Y-133635687D01*
X168197059Y-133774234D01*
X168079234Y-133892059D01*
X167940687Y-133984633D01*
X167786742Y-134048399D01*
X167623315Y-134080907D01*
X167456685Y-134080907D01*
X167293258Y-134048399D01*
X167139313Y-133984633D01*
X167000766Y-133892059D01*
X166882941Y-133774234D01*
X166790367Y-133635687D01*
X166726601Y-133481742D01*
X166694093Y-133318315D01*
X166694093Y-133151685D01*
X166726601Y-132988258D01*
X166790367Y-132834313D01*
X166882941Y-132695766D01*
X167000766Y-132577941D01*
X167139313Y-132485367D01*
X167293258Y-132421601D01*
X167456685Y-132389093D01*
X167623315Y-132389093D01*
X167786742Y-132421601D01*
G37*
G36*
X102775770Y-126490907D02*
G01*
X102947827Y-126562175D01*
X103102674Y-126665640D01*
X103234360Y-126797326D01*
X103337825Y-126952173D01*
X103409093Y-127124230D01*
X103445425Y-127306884D01*
X103445425Y-127493116D01*
X103409093Y-127675770D01*
X103337825Y-127847827D01*
X103234360Y-128002674D01*
X103102674Y-128134360D01*
X102947827Y-128237825D01*
X102775770Y-128309093D01*
X102593116Y-128345425D01*
X102406884Y-128345425D01*
X102224230Y-128309093D01*
X102052173Y-128237825D01*
X101897326Y-128134360D01*
X101765640Y-128002674D01*
X101662175Y-127847827D01*
X101590907Y-127675770D01*
X101554575Y-127493116D01*
X101554575Y-127306884D01*
X101590907Y-127124230D01*
X101662175Y-126952173D01*
X101765640Y-126797326D01*
X101897326Y-126665640D01*
X102052173Y-126562175D01*
X102224230Y-126490907D01*
X102406884Y-126454575D01*
X102593116Y-126454575D01*
X102775770Y-126490907D01*
G37*
G36*
X148547020Y-126326601D02*
G01*
X148700965Y-126390367D01*
X148839512Y-126482941D01*
X148957337Y-126600766D01*
X149049911Y-126739313D01*
X149113677Y-126893258D01*
X149146185Y-127056685D01*
X149146185Y-127223315D01*
X149113677Y-127386742D01*
X149049911Y-127540687D01*
X148957337Y-127679234D01*
X148839512Y-127797059D01*
X148700965Y-127889633D01*
X148547020Y-127953399D01*
X148383593Y-127985907D01*
X148216963Y-127985907D01*
X148053536Y-127953399D01*
X147899591Y-127889633D01*
X147761044Y-127797059D01*
X147643219Y-127679234D01*
X147550645Y-127540687D01*
X147486879Y-127386742D01*
X147454371Y-127223315D01*
X147454371Y-127056685D01*
X147486879Y-126893258D01*
X147550645Y-126739313D01*
X147643219Y-126600766D01*
X147761044Y-126482941D01*
X147899591Y-126390367D01*
X148053536Y-126326601D01*
X148216963Y-126294093D01*
X148383593Y-126294093D01*
X148547020Y-126326601D01*
G37*
G36*
X156167020Y-126326601D02*
G01*
X156320965Y-126390367D01*
X156459512Y-126482941D01*
X156577337Y-126600766D01*
X156669911Y-126739313D01*
X156733677Y-126893258D01*
X156766185Y-127056685D01*
X156766185Y-127223315D01*
X156733677Y-127386742D01*
X156669911Y-127540687D01*
X156577337Y-127679234D01*
X156459512Y-127797059D01*
X156320965Y-127889633D01*
X156167020Y-127953399D01*
X156003593Y-127985907D01*
X155836963Y-127985907D01*
X155673536Y-127953399D01*
X155519591Y-127889633D01*
X155381044Y-127797059D01*
X155263219Y-127679234D01*
X155170645Y-127540687D01*
X155106879Y-127386742D01*
X155074371Y-127223315D01*
X155074371Y-127056685D01*
X155106879Y-126893258D01*
X155170645Y-126739313D01*
X155263219Y-126600766D01*
X155381044Y-126482941D01*
X155519591Y-126390367D01*
X155673536Y-126326601D01*
X155836963Y-126294093D01*
X156003593Y-126294093D01*
X156167020Y-126326601D01*
G37*
G36*
X169918877Y-124371741D02*
G01*
X170103552Y-124431745D01*
X170276566Y-124519900D01*
X170433659Y-124634036D01*
X170570964Y-124771341D01*
X170685100Y-124928434D01*
X170773255Y-125101448D01*
X170833259Y-125286123D01*
X170863635Y-125477911D01*
X170863635Y-125672089D01*
X170833259Y-125863877D01*
X170773255Y-126048552D01*
X170685100Y-126221566D01*
X170570964Y-126378659D01*
X170433659Y-126515964D01*
X170276566Y-126630100D01*
X170103552Y-126718255D01*
X169918877Y-126778259D01*
X169727089Y-126808635D01*
X169532911Y-126808635D01*
X169341123Y-126778259D01*
X169156448Y-126718255D01*
X168983434Y-126630100D01*
X168826341Y-126515964D01*
X168689036Y-126378659D01*
X168574900Y-126221566D01*
X168486745Y-126048552D01*
X168426741Y-125863877D01*
X168396365Y-125672089D01*
X168396365Y-125477911D01*
X168426741Y-125286123D01*
X168486745Y-125101448D01*
X168574900Y-124928434D01*
X168689036Y-124771341D01*
X168826341Y-124634036D01*
X168983434Y-124519900D01*
X169156448Y-124431745D01*
X169341123Y-124371741D01*
X169532911Y-124341365D01*
X169727089Y-124341365D01*
X169918877Y-124371741D01*
G37*
G36*
X173093877Y-124371741D02*
G01*
X173278552Y-124431745D01*
X173451566Y-124519900D01*
X173608659Y-124634036D01*
X173745964Y-124771341D01*
X173860100Y-124928434D01*
X173948255Y-125101448D01*
X174008259Y-125286123D01*
X174038635Y-125477911D01*
X174038635Y-125672089D01*
X174008259Y-125863877D01*
X173948255Y-126048552D01*
X173860100Y-126221566D01*
X173745964Y-126378659D01*
X173608659Y-126515964D01*
X173451566Y-126630100D01*
X173278552Y-126718255D01*
X173093877Y-126778259D01*
X172902089Y-126808635D01*
X172707911Y-126808635D01*
X172516123Y-126778259D01*
X172331448Y-126718255D01*
X172158434Y-126630100D01*
X172001341Y-126515964D01*
X171864036Y-126378659D01*
X171749900Y-126221566D01*
X171661745Y-126048552D01*
X171601741Y-125863877D01*
X171571365Y-125672089D01*
X171571365Y-125477911D01*
X171601741Y-125286123D01*
X171661745Y-125101448D01*
X171749900Y-124928434D01*
X171864036Y-124771341D01*
X172001341Y-124634036D01*
X172158434Y-124519900D01*
X172331448Y-124431745D01*
X172516123Y-124371741D01*
X172707911Y-124341365D01*
X172902089Y-124341365D01*
X173093877Y-124371741D01*
G37*
G36*
X142797085Y-123644538D02*
G01*
X142983632Y-123705151D01*
X143158401Y-123794200D01*
X143317088Y-123909493D01*
X143455785Y-124048190D01*
X143571078Y-124206877D01*
X143660127Y-124381646D01*
X143720740Y-124568193D01*
X143751425Y-124761926D01*
X143751425Y-124958074D01*
X143720740Y-125151807D01*
X143660127Y-125338354D01*
X143571078Y-125513123D01*
X143455785Y-125671810D01*
X143317088Y-125810507D01*
X143158401Y-125925800D01*
X142983632Y-126014849D01*
X142797085Y-126075462D01*
X142603352Y-126106147D01*
X142407204Y-126106147D01*
X142213471Y-126075462D01*
X142026924Y-126014849D01*
X141852155Y-125925800D01*
X141693468Y-125810507D01*
X141554771Y-125671810D01*
X141439478Y-125513123D01*
X141350429Y-125338354D01*
X141289816Y-125151807D01*
X141259131Y-124958074D01*
X141259131Y-124761926D01*
X141289816Y-124568193D01*
X141350429Y-124381646D01*
X141439478Y-124206877D01*
X141554771Y-124048190D01*
X141693468Y-123909493D01*
X141852155Y-123794200D01*
X142026924Y-123705151D01*
X142213471Y-123644538D01*
X142407204Y-123613853D01*
X142603352Y-123613853D01*
X142797085Y-123644538D01*
G37*
G36*
X148918963Y-123757969D02*
G01*
X148927636Y-123761798D01*
X148935203Y-123762901D01*
X148982501Y-123786023D01*
X149019819Y-123802501D01*
X149023274Y-123805956D01*
X149024198Y-123806408D01*
X149093869Y-123876079D01*
X149094320Y-123877002D01*
X149097777Y-123880459D01*
X149114256Y-123917782D01*
X149137376Y-123965073D01*
X149138478Y-123972639D01*
X149142309Y-123981315D01*
X149150278Y-124050000D01*
X149150278Y-125150000D01*
X149142309Y-125218685D01*
X149138477Y-125227361D01*
X149137376Y-125234925D01*
X149114263Y-125282202D01*
X149097777Y-125319541D01*
X149094319Y-125322998D01*
X149093869Y-125323920D01*
X149024198Y-125393591D01*
X149023276Y-125394041D01*
X149019819Y-125397499D01*
X148982485Y-125413983D01*
X148935204Y-125437098D01*
X148927639Y-125438200D01*
X148918963Y-125442031D01*
X148850278Y-125450000D01*
X147750278Y-125450000D01*
X147681593Y-125442031D01*
X147672916Y-125438200D01*
X147665352Y-125437098D01*
X147618065Y-125413981D01*
X147580737Y-125397499D01*
X147577280Y-125394042D01*
X147576357Y-125393591D01*
X147506686Y-125323920D01*
X147506234Y-125322996D01*
X147502779Y-125319541D01*
X147486303Y-125282228D01*
X147463179Y-125234926D01*
X147462076Y-125227357D01*
X147458247Y-125218685D01*
X147450278Y-125150000D01*
X147450278Y-124050000D01*
X147458247Y-123981315D01*
X147462076Y-123972642D01*
X147463179Y-123965074D01*
X147486306Y-123917766D01*
X147502779Y-123880459D01*
X147506233Y-123877004D01*
X147506686Y-123876079D01*
X147576357Y-123806408D01*
X147577282Y-123805955D01*
X147580737Y-123802501D01*
X147618039Y-123786030D01*
X147665351Y-123762901D01*
X147672920Y-123761798D01*
X147681593Y-123757969D01*
X147750278Y-123750000D01*
X148850278Y-123750000D01*
X148918963Y-123757969D01*
G37*
G36*
X156167020Y-123786601D02*
G01*
X156320965Y-123850367D01*
X156459512Y-123942941D01*
X156577337Y-124060766D01*
X156669911Y-124199313D01*
X156733677Y-124353258D01*
X156766185Y-124516685D01*
X156766185Y-124683315D01*
X156733677Y-124846742D01*
X156669911Y-125000687D01*
X156577337Y-125139234D01*
X156459512Y-125257059D01*
X156320965Y-125349633D01*
X156167020Y-125413399D01*
X156003593Y-125445907D01*
X155836963Y-125445907D01*
X155673536Y-125413399D01*
X155519591Y-125349633D01*
X155381044Y-125257059D01*
X155263219Y-125139234D01*
X155170645Y-125000687D01*
X155106879Y-124846742D01*
X155074371Y-124683315D01*
X155074371Y-124516685D01*
X155106879Y-124353258D01*
X155170645Y-124199313D01*
X155263219Y-124060766D01*
X155381044Y-123942941D01*
X155519591Y-123850367D01*
X155673536Y-123786601D01*
X155836963Y-123754093D01*
X156003593Y-123754093D01*
X156167020Y-123786601D01*
G37*
G36*
X174918677Y-123547208D02*
G01*
X175041958Y-123618384D01*
X175142616Y-123719042D01*
X175213792Y-123842323D01*
X175250635Y-123979824D01*
X175250635Y-124122176D01*
X175213792Y-124259677D01*
X175142616Y-124382958D01*
X175041958Y-124483616D01*
X174918677Y-124554792D01*
X174781176Y-124591635D01*
X174638824Y-124591635D01*
X174501323Y-124554792D01*
X174378042Y-124483616D01*
X174277384Y-124382958D01*
X174206208Y-124259677D01*
X174169365Y-124122176D01*
X174169365Y-123979824D01*
X174206208Y-123842323D01*
X174277384Y-123719042D01*
X174378042Y-123618384D01*
X174501323Y-123547208D01*
X174638824Y-123510365D01*
X174781176Y-123510365D01*
X174918677Y-123547208D01*
G37*
G36*
X169838677Y-122531208D02*
G01*
X169961958Y-122602384D01*
X170062616Y-122703042D01*
X170133792Y-122826323D01*
X170170635Y-122963824D01*
X170170635Y-123106176D01*
X170133792Y-123243677D01*
X170062616Y-123366958D01*
X169961958Y-123467616D01*
X169838677Y-123538792D01*
X169701176Y-123575635D01*
X169558824Y-123575635D01*
X169421323Y-123538792D01*
X169298042Y-123467616D01*
X169197384Y-123366958D01*
X169126208Y-123243677D01*
X169089365Y-123106176D01*
X169089365Y-122963824D01*
X169126208Y-122826323D01*
X169197384Y-122703042D01*
X169298042Y-122602384D01*
X169421323Y-122531208D01*
X169558824Y-122494365D01*
X169701176Y-122494365D01*
X169838677Y-122531208D01*
G37*
G36*
X102775770Y-121490907D02*
G01*
X102947827Y-121562175D01*
X103102674Y-121665640D01*
X103234360Y-121797326D01*
X103337825Y-121952173D01*
X103409093Y-122124230D01*
X103445425Y-122306884D01*
X103445425Y-122493116D01*
X103409093Y-122675770D01*
X103337825Y-122847827D01*
X103234360Y-123002674D01*
X103102674Y-123134360D01*
X102947827Y-123237825D01*
X102775770Y-123309093D01*
X102593116Y-123345425D01*
X102406884Y-123345425D01*
X102224230Y-123309093D01*
X102052173Y-123237825D01*
X101897326Y-123134360D01*
X101765640Y-123002674D01*
X101662175Y-122847827D01*
X101590907Y-122675770D01*
X101554575Y-122493116D01*
X101554575Y-122306884D01*
X101590907Y-122124230D01*
X101662175Y-121952173D01*
X101765640Y-121797326D01*
X101897326Y-121665640D01*
X102052173Y-121562175D01*
X102224230Y-121490907D01*
X102406884Y-121454575D01*
X102593116Y-121454575D01*
X102775770Y-121490907D01*
G37*
G36*
X174918677Y-121515208D02*
G01*
X175041958Y-121586384D01*
X175142616Y-121687042D01*
X175213792Y-121810323D01*
X175250635Y-121947824D01*
X175250635Y-122090176D01*
X175213792Y-122227677D01*
X175142616Y-122350958D01*
X175041958Y-122451616D01*
X174918677Y-122522792D01*
X174781176Y-122559635D01*
X174638824Y-122559635D01*
X174501323Y-122522792D01*
X174378042Y-122451616D01*
X174277384Y-122350958D01*
X174206208Y-122227677D01*
X174169365Y-122090176D01*
X174169365Y-121947824D01*
X174206208Y-121810323D01*
X174277384Y-121687042D01*
X174378042Y-121586384D01*
X174501323Y-121515208D01*
X174638824Y-121478365D01*
X174781176Y-121478365D01*
X174918677Y-121515208D01*
G37*
G36*
X169918877Y-119291741D02*
G01*
X170103552Y-119351745D01*
X170276566Y-119439900D01*
X170433659Y-119554036D01*
X170570964Y-119691341D01*
X170685100Y-119848434D01*
X170773255Y-120021448D01*
X170833259Y-120206123D01*
X170863635Y-120397911D01*
X170863635Y-120592089D01*
X170833259Y-120783877D01*
X170773255Y-120968552D01*
X170685100Y-121141566D01*
X170570964Y-121298659D01*
X170433659Y-121435964D01*
X170276566Y-121550100D01*
X170103552Y-121638255D01*
X169918877Y-121698259D01*
X169727089Y-121728635D01*
X169532911Y-121728635D01*
X169341123Y-121698259D01*
X169156448Y-121638255D01*
X168983434Y-121550100D01*
X168826341Y-121435964D01*
X168689036Y-121298659D01*
X168574900Y-121141566D01*
X168486745Y-120968552D01*
X168426741Y-120783877D01*
X168396365Y-120592089D01*
X168396365Y-120397911D01*
X168426741Y-120206123D01*
X168486745Y-120021448D01*
X168574900Y-119848434D01*
X168689036Y-119691341D01*
X168826341Y-119554036D01*
X168983434Y-119439900D01*
X169156448Y-119351745D01*
X169341123Y-119291741D01*
X169532911Y-119261365D01*
X169727089Y-119261365D01*
X169918877Y-119291741D01*
G37*
G36*
X173093877Y-119291741D02*
G01*
X173278552Y-119351745D01*
X173451566Y-119439900D01*
X173608659Y-119554036D01*
X173745964Y-119691341D01*
X173860100Y-119848434D01*
X173948255Y-120021448D01*
X174008259Y-120206123D01*
X174038635Y-120397911D01*
X174038635Y-120592089D01*
X174008259Y-120783877D01*
X173948255Y-120968552D01*
X173860100Y-121141566D01*
X173745964Y-121298659D01*
X173608659Y-121435964D01*
X173451566Y-121550100D01*
X173278552Y-121638255D01*
X173093877Y-121698259D01*
X172902089Y-121728635D01*
X172707911Y-121728635D01*
X172516123Y-121698259D01*
X172331448Y-121638255D01*
X172158434Y-121550100D01*
X172001341Y-121435964D01*
X171864036Y-121298659D01*
X171749900Y-121141566D01*
X171661745Y-120968552D01*
X171601741Y-120783877D01*
X171571365Y-120592089D01*
X171571365Y-120397911D01*
X171601741Y-120206123D01*
X171661745Y-120021448D01*
X171749900Y-119848434D01*
X171864036Y-119691341D01*
X172001341Y-119554036D01*
X172158434Y-119439900D01*
X172331448Y-119351745D01*
X172516123Y-119291741D01*
X172707911Y-119261365D01*
X172902089Y-119261365D01*
X173093877Y-119291741D01*
G37*
G36*
X103419134Y-116453806D02*
G01*
X103435355Y-116464645D01*
X103446194Y-116480866D01*
X103450000Y-116500000D01*
X103450000Y-118300000D01*
X103446194Y-118319134D01*
X103435355Y-118335355D01*
X103419134Y-118346194D01*
X103400000Y-118350000D01*
X101600000Y-118350000D01*
X101580866Y-118346194D01*
X101564645Y-118335355D01*
X101553806Y-118319134D01*
X101550000Y-118300000D01*
X101550000Y-116500000D01*
X101553806Y-116480866D01*
X101564645Y-116464645D01*
X101580866Y-116453806D01*
X101600000Y-116450000D01*
X103400000Y-116450000D01*
X103419134Y-116453806D01*
G37*
G36*
X186893894Y-112755086D02*
G01*
X186904458Y-112755086D01*
X186956477Y-112763325D01*
X187096877Y-112781809D01*
X187131138Y-112790989D01*
X187160185Y-112795590D01*
X187216045Y-112813740D01*
X187305338Y-112837666D01*
X187362309Y-112861264D01*
X187406428Y-112875599D01*
X187447755Y-112896656D01*
X187504733Y-112920257D01*
X187584803Y-112966485D01*
X187637123Y-112993144D01*
X187660909Y-113010425D01*
X187691624Y-113028159D01*
X187803975Y-113114369D01*
X187846589Y-113145330D01*
X187854058Y-113152799D01*
X187862848Y-113159544D01*
X188015455Y-113312151D01*
X188022199Y-113320940D01*
X188029670Y-113328411D01*
X188060634Y-113371030D01*
X188146840Y-113483375D01*
X188164572Y-113514087D01*
X188181856Y-113537877D01*
X188208517Y-113590203D01*
X188254742Y-113670266D01*
X188278340Y-113727237D01*
X188299401Y-113768572D01*
X188313738Y-113812696D01*
X188337333Y-113869661D01*
X188361255Y-113958941D01*
X188379410Y-114014815D01*
X188384011Y-114043867D01*
X188393190Y-114078122D01*
X188411673Y-114218514D01*
X188419914Y-114270542D01*
X188419914Y-114281105D01*
X188421360Y-114292089D01*
X188421360Y-114507910D01*
X188419914Y-114518893D01*
X188419914Y-114529458D01*
X188411672Y-114581490D01*
X188393190Y-114721877D01*
X188384011Y-114756129D01*
X188379410Y-114785185D01*
X188361254Y-114841063D01*
X188337333Y-114930338D01*
X188313739Y-114987298D01*
X188299401Y-115031428D01*
X188278337Y-115072766D01*
X188254742Y-115129733D01*
X188208521Y-115209788D01*
X188181856Y-115262123D01*
X188164569Y-115285916D01*
X188146840Y-115316624D01*
X188060648Y-115428950D01*
X188029670Y-115471589D01*
X188022195Y-115479063D01*
X188015455Y-115487848D01*
X187862848Y-115640455D01*
X187854063Y-115647195D01*
X187846589Y-115654670D01*
X187803950Y-115685648D01*
X187691624Y-115771840D01*
X187660916Y-115789569D01*
X187637123Y-115806856D01*
X187584788Y-115833521D01*
X187504733Y-115879742D01*
X187447766Y-115903337D01*
X187406428Y-115924401D01*
X187362298Y-115938739D01*
X187305338Y-115962333D01*
X187216063Y-115986254D01*
X187160185Y-116004410D01*
X187131129Y-116009011D01*
X187096877Y-116018190D01*
X186956490Y-116036672D01*
X186904458Y-116044914D01*
X186893893Y-116044914D01*
X186882910Y-116046360D01*
X186667090Y-116046360D01*
X186656107Y-116044914D01*
X186645542Y-116044914D01*
X186593511Y-116036672D01*
X186453122Y-116018190D01*
X186418867Y-116009011D01*
X186389815Y-116004410D01*
X186333941Y-115986255D01*
X186244661Y-115962333D01*
X186187696Y-115938738D01*
X186143572Y-115924401D01*
X186102237Y-115903340D01*
X186045266Y-115879742D01*
X185965203Y-115833517D01*
X185912877Y-115806856D01*
X185889087Y-115789572D01*
X185858375Y-115771840D01*
X185746030Y-115685634D01*
X185703411Y-115654670D01*
X185695940Y-115647199D01*
X185687151Y-115640455D01*
X185534544Y-115487848D01*
X185527799Y-115479058D01*
X185520330Y-115471589D01*
X185489369Y-115428975D01*
X185403159Y-115316624D01*
X185385425Y-115285909D01*
X185368144Y-115262123D01*
X185341485Y-115209803D01*
X185295257Y-115129733D01*
X185271656Y-115072755D01*
X185250599Y-115031428D01*
X185236264Y-114987309D01*
X185212666Y-114930338D01*
X185188740Y-114841045D01*
X185170590Y-114785185D01*
X185165989Y-114756138D01*
X185156809Y-114721877D01*
X185138325Y-114581477D01*
X185130086Y-114529458D01*
X185130086Y-114518893D01*
X185128640Y-114507910D01*
X185128640Y-114292089D01*
X185130086Y-114281105D01*
X185130086Y-114270542D01*
X185138324Y-114218527D01*
X185156809Y-114078122D01*
X185165989Y-114043858D01*
X185170590Y-114014815D01*
X185188738Y-113958959D01*
X185212666Y-113869661D01*
X185236265Y-113812685D01*
X185250599Y-113768572D01*
X185271654Y-113727248D01*
X185295257Y-113670266D01*
X185341489Y-113590188D01*
X185368144Y-113537877D01*
X185385423Y-113514094D01*
X185403159Y-113483375D01*
X185489383Y-113371005D01*
X185520330Y-113328411D01*
X185527796Y-113320944D01*
X185534544Y-113312151D01*
X185687151Y-113159544D01*
X185695944Y-113152796D01*
X185703411Y-113145330D01*
X185746005Y-113114383D01*
X185858375Y-113028159D01*
X185889094Y-113010423D01*
X185912877Y-112993144D01*
X185965188Y-112966489D01*
X186045266Y-112920257D01*
X186102248Y-112896654D01*
X186143572Y-112875599D01*
X186187685Y-112861265D01*
X186244661Y-112837666D01*
X186333959Y-112813738D01*
X186389815Y-112795590D01*
X186418858Y-112790989D01*
X186453122Y-112781809D01*
X186593524Y-112763324D01*
X186645542Y-112755086D01*
X186656106Y-112755086D01*
X186667090Y-112753640D01*
X186882910Y-112753640D01*
X186893894Y-112755086D01*
G37*
G36*
X152669134Y-113903806D02*
G01*
X152685355Y-113914645D01*
X152696194Y-113930866D01*
X152700000Y-113950000D01*
X152700000Y-115650000D01*
X152696194Y-115669134D01*
X152685355Y-115685355D01*
X152669134Y-115696194D01*
X152650000Y-115700000D01*
X150950000Y-115700000D01*
X150930866Y-115696194D01*
X150914645Y-115685355D01*
X150903806Y-115669134D01*
X150900000Y-115650000D01*
X150900000Y-113950000D01*
X150903806Y-113930866D01*
X150914645Y-113914645D01*
X150930866Y-113903806D01*
X150950000Y-113900000D01*
X152650000Y-113900000D01*
X152669134Y-113903806D01*
G37*
G36*
X157569134Y-113903806D02*
G01*
X157585355Y-113914645D01*
X157596194Y-113930866D01*
X157600000Y-113950000D01*
X157600000Y-115650000D01*
X157596194Y-115669134D01*
X157585355Y-115685355D01*
X157569134Y-115696194D01*
X157550000Y-115700000D01*
X155850000Y-115700000D01*
X155830866Y-115696194D01*
X155814645Y-115685355D01*
X155803806Y-115669134D01*
X155800000Y-115650000D01*
X155800000Y-113950000D01*
X155803806Y-113930866D01*
X155814645Y-113914645D01*
X155830866Y-113903806D01*
X155850000Y-113900000D01*
X157550000Y-113900000D01*
X157569134Y-113903806D01*
G37*
G36*
X119041256Y-113938754D02*
G01*
X119204257Y-114006271D01*
X119350954Y-114104291D01*
X119475709Y-114229046D01*
X119573729Y-114375743D01*
X119641246Y-114538744D01*
X119675666Y-114711785D01*
X119675666Y-114888215D01*
X119641246Y-115061256D01*
X119573729Y-115224257D01*
X119475709Y-115370954D01*
X119350954Y-115495709D01*
X119204257Y-115593729D01*
X119041256Y-115661246D01*
X118868215Y-115695666D01*
X118691785Y-115695666D01*
X118518744Y-115661246D01*
X118355743Y-115593729D01*
X118209046Y-115495709D01*
X118084291Y-115370954D01*
X117986271Y-115224257D01*
X117918754Y-115061256D01*
X117884334Y-114888215D01*
X117884334Y-114711785D01*
X117918754Y-114538744D01*
X117986271Y-114375743D01*
X118084291Y-114229046D01*
X118209046Y-114104291D01*
X118355743Y-114006271D01*
X118518744Y-113938754D01*
X118691785Y-113904334D01*
X118868215Y-113904334D01*
X119041256Y-113938754D01*
G37*
G36*
X121581256Y-113938754D02*
G01*
X121744257Y-114006271D01*
X121890954Y-114104291D01*
X122015709Y-114229046D01*
X122113729Y-114375743D01*
X122181246Y-114538744D01*
X122215666Y-114711785D01*
X122215666Y-114888215D01*
X122181246Y-115061256D01*
X122113729Y-115224257D01*
X122015709Y-115370954D01*
X121890954Y-115495709D01*
X121744257Y-115593729D01*
X121581256Y-115661246D01*
X121408215Y-115695666D01*
X121231785Y-115695666D01*
X121058744Y-115661246D01*
X120895743Y-115593729D01*
X120749046Y-115495709D01*
X120624291Y-115370954D01*
X120526271Y-115224257D01*
X120458754Y-115061256D01*
X120424334Y-114888215D01*
X120424334Y-114711785D01*
X120458754Y-114538744D01*
X120526271Y-114375743D01*
X120624291Y-114229046D01*
X120749046Y-114104291D01*
X120895743Y-114006271D01*
X121058744Y-113938754D01*
X121231785Y-113904334D01*
X121408215Y-113904334D01*
X121581256Y-113938754D01*
G37*
G36*
X124121256Y-113938754D02*
G01*
X124284257Y-114006271D01*
X124430954Y-114104291D01*
X124555709Y-114229046D01*
X124653729Y-114375743D01*
X124721246Y-114538744D01*
X124755666Y-114711785D01*
X124755666Y-114888215D01*
X124721246Y-115061256D01*
X124653729Y-115224257D01*
X124555709Y-115370954D01*
X124430954Y-115495709D01*
X124284257Y-115593729D01*
X124121256Y-115661246D01*
X123948215Y-115695666D01*
X123771785Y-115695666D01*
X123598744Y-115661246D01*
X123435743Y-115593729D01*
X123289046Y-115495709D01*
X123164291Y-115370954D01*
X123066271Y-115224257D01*
X122998754Y-115061256D01*
X122964334Y-114888215D01*
X122964334Y-114711785D01*
X122998754Y-114538744D01*
X123066271Y-114375743D01*
X123164291Y-114229046D01*
X123289046Y-114104291D01*
X123435743Y-114006271D01*
X123598744Y-113938754D01*
X123771785Y-113904334D01*
X123948215Y-113904334D01*
X124121256Y-113938754D01*
G37*
G36*
X126661256Y-113938754D02*
G01*
X126824257Y-114006271D01*
X126970954Y-114104291D01*
X127095709Y-114229046D01*
X127193729Y-114375743D01*
X127261246Y-114538744D01*
X127295666Y-114711785D01*
X127295666Y-114888215D01*
X127261246Y-115061256D01*
X127193729Y-115224257D01*
X127095709Y-115370954D01*
X126970954Y-115495709D01*
X126824257Y-115593729D01*
X126661256Y-115661246D01*
X126488215Y-115695666D01*
X126311785Y-115695666D01*
X126138744Y-115661246D01*
X125975743Y-115593729D01*
X125829046Y-115495709D01*
X125704291Y-115370954D01*
X125606271Y-115224257D01*
X125538754Y-115061256D01*
X125504334Y-114888215D01*
X125504334Y-114711785D01*
X125538754Y-114538744D01*
X125606271Y-114375743D01*
X125704291Y-114229046D01*
X125829046Y-114104291D01*
X125975743Y-114006271D01*
X126138744Y-113938754D01*
X126311785Y-113904334D01*
X126488215Y-113904334D01*
X126661256Y-113938754D01*
G37*
G36*
X129201256Y-113938754D02*
G01*
X129364257Y-114006271D01*
X129510954Y-114104291D01*
X129635709Y-114229046D01*
X129733729Y-114375743D01*
X129801246Y-114538744D01*
X129835666Y-114711785D01*
X129835666Y-114888215D01*
X129801246Y-115061256D01*
X129733729Y-115224257D01*
X129635709Y-115370954D01*
X129510954Y-115495709D01*
X129364257Y-115593729D01*
X129201256Y-115661246D01*
X129028215Y-115695666D01*
X128851785Y-115695666D01*
X128678744Y-115661246D01*
X128515743Y-115593729D01*
X128369046Y-115495709D01*
X128244291Y-115370954D01*
X128146271Y-115224257D01*
X128078754Y-115061256D01*
X128044334Y-114888215D01*
X128044334Y-114711785D01*
X128078754Y-114538744D01*
X128146271Y-114375743D01*
X128244291Y-114229046D01*
X128369046Y-114104291D01*
X128515743Y-114006271D01*
X128678744Y-113938754D01*
X128851785Y-113904334D01*
X129028215Y-113904334D01*
X129201256Y-113938754D01*
G37*
G36*
X131741256Y-113938754D02*
G01*
X131904257Y-114006271D01*
X132050954Y-114104291D01*
X132175709Y-114229046D01*
X132273729Y-114375743D01*
X132341246Y-114538744D01*
X132375666Y-114711785D01*
X132375666Y-114888215D01*
X132341246Y-115061256D01*
X132273729Y-115224257D01*
X132175709Y-115370954D01*
X132050954Y-115495709D01*
X131904257Y-115593729D01*
X131741256Y-115661246D01*
X131568215Y-115695666D01*
X131391785Y-115695666D01*
X131218744Y-115661246D01*
X131055743Y-115593729D01*
X130909046Y-115495709D01*
X130784291Y-115370954D01*
X130686271Y-115224257D01*
X130618754Y-115061256D01*
X130584334Y-114888215D01*
X130584334Y-114711785D01*
X130618754Y-114538744D01*
X130686271Y-114375743D01*
X130784291Y-114229046D01*
X130909046Y-114104291D01*
X131055743Y-114006271D01*
X131218744Y-113938754D01*
X131391785Y-113904334D01*
X131568215Y-113904334D01*
X131741256Y-113938754D01*
G37*
G36*
X134281256Y-113938754D02*
G01*
X134444257Y-114006271D01*
X134590954Y-114104291D01*
X134715709Y-114229046D01*
X134813729Y-114375743D01*
X134881246Y-114538744D01*
X134915666Y-114711785D01*
X134915666Y-114888215D01*
X134881246Y-115061256D01*
X134813729Y-115224257D01*
X134715709Y-115370954D01*
X134590954Y-115495709D01*
X134444257Y-115593729D01*
X134281256Y-115661246D01*
X134108215Y-115695666D01*
X133931785Y-115695666D01*
X133758744Y-115661246D01*
X133595743Y-115593729D01*
X133449046Y-115495709D01*
X133324291Y-115370954D01*
X133226271Y-115224257D01*
X133158754Y-115061256D01*
X133124334Y-114888215D01*
X133124334Y-114711785D01*
X133158754Y-114538744D01*
X133226271Y-114375743D01*
X133324291Y-114229046D01*
X133449046Y-114104291D01*
X133595743Y-114006271D01*
X133758744Y-113938754D01*
X133931785Y-113904334D01*
X134108215Y-113904334D01*
X134281256Y-113938754D01*
G37*
G36*
X136821256Y-113938754D02*
G01*
X136984257Y-114006271D01*
X137130954Y-114104291D01*
X137255709Y-114229046D01*
X137353729Y-114375743D01*
X137421246Y-114538744D01*
X137455666Y-114711785D01*
X137455666Y-114888215D01*
X137421246Y-115061256D01*
X137353729Y-115224257D01*
X137255709Y-115370954D01*
X137130954Y-115495709D01*
X136984257Y-115593729D01*
X136821256Y-115661246D01*
X136648215Y-115695666D01*
X136471785Y-115695666D01*
X136298744Y-115661246D01*
X136135743Y-115593729D01*
X135989046Y-115495709D01*
X135864291Y-115370954D01*
X135766271Y-115224257D01*
X135698754Y-115061256D01*
X135664334Y-114888215D01*
X135664334Y-114711785D01*
X135698754Y-114538744D01*
X135766271Y-114375743D01*
X135864291Y-114229046D01*
X135989046Y-114104291D01*
X136135743Y-114006271D01*
X136298744Y-113938754D01*
X136471785Y-113904334D01*
X136648215Y-113904334D01*
X136821256Y-113938754D01*
G37*
G36*
X139361256Y-113938754D02*
G01*
X139524257Y-114006271D01*
X139670954Y-114104291D01*
X139795709Y-114229046D01*
X139893729Y-114375743D01*
X139961246Y-114538744D01*
X139995666Y-114711785D01*
X139995666Y-114888215D01*
X139961246Y-115061256D01*
X139893729Y-115224257D01*
X139795709Y-115370954D01*
X139670954Y-115495709D01*
X139524257Y-115593729D01*
X139361256Y-115661246D01*
X139188215Y-115695666D01*
X139011785Y-115695666D01*
X138838744Y-115661246D01*
X138675743Y-115593729D01*
X138529046Y-115495709D01*
X138404291Y-115370954D01*
X138306271Y-115224257D01*
X138238754Y-115061256D01*
X138204334Y-114888215D01*
X138204334Y-114711785D01*
X138238754Y-114538744D01*
X138306271Y-114375743D01*
X138404291Y-114229046D01*
X138529046Y-114104291D01*
X138675743Y-114006271D01*
X138838744Y-113938754D01*
X139011785Y-113904334D01*
X139188215Y-113904334D01*
X139361256Y-113938754D01*
G37*
G36*
X141901256Y-113938754D02*
G01*
X142064257Y-114006271D01*
X142210954Y-114104291D01*
X142335709Y-114229046D01*
X142433729Y-114375743D01*
X142501246Y-114538744D01*
X142535666Y-114711785D01*
X142535666Y-114888215D01*
X142501246Y-115061256D01*
X142433729Y-115224257D01*
X142335709Y-115370954D01*
X142210954Y-115495709D01*
X142064257Y-115593729D01*
X141901256Y-115661246D01*
X141728215Y-115695666D01*
X141551785Y-115695666D01*
X141378744Y-115661246D01*
X141215743Y-115593729D01*
X141069046Y-115495709D01*
X140944291Y-115370954D01*
X140846271Y-115224257D01*
X140778754Y-115061256D01*
X140744334Y-114888215D01*
X140744334Y-114711785D01*
X140778754Y-114538744D01*
X140846271Y-114375743D01*
X140944291Y-114229046D01*
X141069046Y-114104291D01*
X141215743Y-114006271D01*
X141378744Y-113938754D01*
X141551785Y-113904334D01*
X141728215Y-113904334D01*
X141901256Y-113938754D01*
G37*
G36*
X144441256Y-113938754D02*
G01*
X144604257Y-114006271D01*
X144750954Y-114104291D01*
X144875709Y-114229046D01*
X144973729Y-114375743D01*
X145041246Y-114538744D01*
X145075666Y-114711785D01*
X145075666Y-114888215D01*
X145041246Y-115061256D01*
X144973729Y-115224257D01*
X144875709Y-115370954D01*
X144750954Y-115495709D01*
X144604257Y-115593729D01*
X144441256Y-115661246D01*
X144268215Y-115695666D01*
X144091785Y-115695666D01*
X143918744Y-115661246D01*
X143755743Y-115593729D01*
X143609046Y-115495709D01*
X143484291Y-115370954D01*
X143386271Y-115224257D01*
X143318754Y-115061256D01*
X143284334Y-114888215D01*
X143284334Y-114711785D01*
X143318754Y-114538744D01*
X143386271Y-114375743D01*
X143484291Y-114229046D01*
X143609046Y-114104291D01*
X143755743Y-114006271D01*
X143918744Y-113938754D01*
X144091785Y-113904334D01*
X144268215Y-113904334D01*
X144441256Y-113938754D01*
G37*
G36*
X146981256Y-113938754D02*
G01*
X147144257Y-114006271D01*
X147290954Y-114104291D01*
X147415709Y-114229046D01*
X147513729Y-114375743D01*
X147581246Y-114538744D01*
X147615666Y-114711785D01*
X147615666Y-114888215D01*
X147581246Y-115061256D01*
X147513729Y-115224257D01*
X147415709Y-115370954D01*
X147290954Y-115495709D01*
X147144257Y-115593729D01*
X146981256Y-115661246D01*
X146808215Y-115695666D01*
X146631785Y-115695666D01*
X146458744Y-115661246D01*
X146295743Y-115593729D01*
X146149046Y-115495709D01*
X146024291Y-115370954D01*
X145926271Y-115224257D01*
X145858754Y-115061256D01*
X145824334Y-114888215D01*
X145824334Y-114711785D01*
X145858754Y-114538744D01*
X145926271Y-114375743D01*
X146024291Y-114229046D01*
X146149046Y-114104291D01*
X146295743Y-114006271D01*
X146458744Y-113938754D01*
X146631785Y-113904334D01*
X146808215Y-113904334D01*
X146981256Y-113938754D01*
G37*
G36*
X149521256Y-113938754D02*
G01*
X149684257Y-114006271D01*
X149830954Y-114104291D01*
X149955709Y-114229046D01*
X150053729Y-114375743D01*
X150121246Y-114538744D01*
X150155666Y-114711785D01*
X150155666Y-114888215D01*
X150121246Y-115061256D01*
X150053729Y-115224257D01*
X149955709Y-115370954D01*
X149830954Y-115495709D01*
X149684257Y-115593729D01*
X149521256Y-115661246D01*
X149348215Y-115695666D01*
X149171785Y-115695666D01*
X148998744Y-115661246D01*
X148835743Y-115593729D01*
X148689046Y-115495709D01*
X148564291Y-115370954D01*
X148466271Y-115224257D01*
X148398754Y-115061256D01*
X148364334Y-114888215D01*
X148364334Y-114711785D01*
X148398754Y-114538744D01*
X148466271Y-114375743D01*
X148564291Y-114229046D01*
X148689046Y-114104291D01*
X148835743Y-114006271D01*
X148998744Y-113938754D01*
X149171785Y-113904334D01*
X149348215Y-113904334D01*
X149521256Y-113938754D01*
G37*
G36*
X159501256Y-113938754D02*
G01*
X159664257Y-114006271D01*
X159810954Y-114104291D01*
X159935709Y-114229046D01*
X160033729Y-114375743D01*
X160101246Y-114538744D01*
X160135666Y-114711785D01*
X160135666Y-114888215D01*
X160101246Y-115061256D01*
X160033729Y-115224257D01*
X159935709Y-115370954D01*
X159810954Y-115495709D01*
X159664257Y-115593729D01*
X159501256Y-115661246D01*
X159328215Y-115695666D01*
X159151785Y-115695666D01*
X158978744Y-115661246D01*
X158815743Y-115593729D01*
X158669046Y-115495709D01*
X158544291Y-115370954D01*
X158446271Y-115224257D01*
X158378754Y-115061256D01*
X158344334Y-114888215D01*
X158344334Y-114711785D01*
X158378754Y-114538744D01*
X158446271Y-114375743D01*
X158544291Y-114229046D01*
X158669046Y-114104291D01*
X158815743Y-114006271D01*
X158978744Y-113938754D01*
X159151785Y-113904334D01*
X159328215Y-113904334D01*
X159501256Y-113938754D01*
G37*
G36*
X162041256Y-113938754D02*
G01*
X162204257Y-114006271D01*
X162350954Y-114104291D01*
X162475709Y-114229046D01*
X162573729Y-114375743D01*
X162641246Y-114538744D01*
X162675666Y-114711785D01*
X162675666Y-114888215D01*
X162641246Y-115061256D01*
X162573729Y-115224257D01*
X162475709Y-115370954D01*
X162350954Y-115495709D01*
X162204257Y-115593729D01*
X162041256Y-115661246D01*
X161868215Y-115695666D01*
X161691785Y-115695666D01*
X161518744Y-115661246D01*
X161355743Y-115593729D01*
X161209046Y-115495709D01*
X161084291Y-115370954D01*
X160986271Y-115224257D01*
X160918754Y-115061256D01*
X160884334Y-114888215D01*
X160884334Y-114711785D01*
X160918754Y-114538744D01*
X160986271Y-114375743D01*
X161084291Y-114229046D01*
X161209046Y-114104291D01*
X161355743Y-114006271D01*
X161518744Y-113938754D01*
X161691785Y-113904334D01*
X161868215Y-113904334D01*
X162041256Y-113938754D01*
G37*
G36*
X164581256Y-113938754D02*
G01*
X164744257Y-114006271D01*
X164890954Y-114104291D01*
X165015709Y-114229046D01*
X165113729Y-114375743D01*
X165181246Y-114538744D01*
X165215666Y-114711785D01*
X165215666Y-114888215D01*
X165181246Y-115061256D01*
X165113729Y-115224257D01*
X165015709Y-115370954D01*
X164890954Y-115495709D01*
X164744257Y-115593729D01*
X164581256Y-115661246D01*
X164408215Y-115695666D01*
X164231785Y-115695666D01*
X164058744Y-115661246D01*
X163895743Y-115593729D01*
X163749046Y-115495709D01*
X163624291Y-115370954D01*
X163526271Y-115224257D01*
X163458754Y-115061256D01*
X163424334Y-114888215D01*
X163424334Y-114711785D01*
X163458754Y-114538744D01*
X163526271Y-114375743D01*
X163624291Y-114229046D01*
X163749046Y-114104291D01*
X163895743Y-114006271D01*
X164058744Y-113938754D01*
X164231785Y-113904334D01*
X164408215Y-113904334D01*
X164581256Y-113938754D01*
G37*
G36*
X167121256Y-113938754D02*
G01*
X167284257Y-114006271D01*
X167430954Y-114104291D01*
X167555709Y-114229046D01*
X167653729Y-114375743D01*
X167721246Y-114538744D01*
X167755666Y-114711785D01*
X167755666Y-114888215D01*
X167721246Y-115061256D01*
X167653729Y-115224257D01*
X167555709Y-115370954D01*
X167430954Y-115495709D01*
X167284257Y-115593729D01*
X167121256Y-115661246D01*
X166948215Y-115695666D01*
X166771785Y-115695666D01*
X166598744Y-115661246D01*
X166435743Y-115593729D01*
X166289046Y-115495709D01*
X166164291Y-115370954D01*
X166066271Y-115224257D01*
X165998754Y-115061256D01*
X165964334Y-114888215D01*
X165964334Y-114711785D01*
X165998754Y-114538744D01*
X166066271Y-114375743D01*
X166164291Y-114229046D01*
X166289046Y-114104291D01*
X166435743Y-114006271D01*
X166598744Y-113938754D01*
X166771785Y-113904334D01*
X166948215Y-113904334D01*
X167121256Y-113938754D01*
G37*
G36*
X169661256Y-113938754D02*
G01*
X169824257Y-114006271D01*
X169970954Y-114104291D01*
X170095709Y-114229046D01*
X170193729Y-114375743D01*
X170261246Y-114538744D01*
X170295666Y-114711785D01*
X170295666Y-114888215D01*
X170261246Y-115061256D01*
X170193729Y-115224257D01*
X170095709Y-115370954D01*
X169970954Y-115495709D01*
X169824257Y-115593729D01*
X169661256Y-115661246D01*
X169488215Y-115695666D01*
X169311785Y-115695666D01*
X169138744Y-115661246D01*
X168975743Y-115593729D01*
X168829046Y-115495709D01*
X168704291Y-115370954D01*
X168606271Y-115224257D01*
X168538754Y-115061256D01*
X168504334Y-114888215D01*
X168504334Y-114711785D01*
X168538754Y-114538744D01*
X168606271Y-114375743D01*
X168704291Y-114229046D01*
X168829046Y-114104291D01*
X168975743Y-114006271D01*
X169138744Y-113938754D01*
X169311785Y-113904334D01*
X169488215Y-113904334D01*
X169661256Y-113938754D01*
G37*
G36*
X102088612Y-108683371D02*
G01*
X102223199Y-108710142D01*
X102349978Y-108762655D01*
X102464075Y-108838893D01*
X102561107Y-108935925D01*
X102637345Y-109050022D01*
X102689858Y-109176801D01*
X102716629Y-109311388D01*
X102716629Y-109448612D01*
X102689858Y-109583199D01*
X102637345Y-109709978D01*
X102561107Y-109824075D01*
X102464075Y-109921107D01*
X102349978Y-109997345D01*
X102223199Y-110049858D01*
X102088612Y-110076629D01*
X102020000Y-110080000D01*
X102018768Y-110080000D01*
X101221232Y-110080000D01*
X101220000Y-110080000D01*
X101151388Y-110076629D01*
X101016801Y-110049858D01*
X100890022Y-109997345D01*
X100775925Y-109921107D01*
X100678893Y-109824075D01*
X100602655Y-109709978D01*
X100550142Y-109583199D01*
X100523371Y-109448612D01*
X100523371Y-109311388D01*
X100550142Y-109176801D01*
X100602655Y-109050022D01*
X100678893Y-108935925D01*
X100775925Y-108838893D01*
X100890022Y-108762655D01*
X101016801Y-108710142D01*
X101151388Y-108683371D01*
X101220000Y-108680000D01*
X102020000Y-108680000D01*
X102088612Y-108683371D01*
G37*
G36*
X106388612Y-108683371D02*
G01*
X106523199Y-108710142D01*
X106649978Y-108762655D01*
X106764075Y-108838893D01*
X106861107Y-108935925D01*
X106937345Y-109050022D01*
X106989858Y-109176801D01*
X107016629Y-109311388D01*
X107016629Y-109448612D01*
X106989858Y-109583199D01*
X106937345Y-109709978D01*
X106861107Y-109824075D01*
X106764075Y-109921107D01*
X106649978Y-109997345D01*
X106523199Y-110049858D01*
X106388612Y-110076629D01*
X106320000Y-110080000D01*
X106318768Y-110080000D01*
X105321232Y-110080000D01*
X105320000Y-110080000D01*
X105251388Y-110076629D01*
X105116801Y-110049858D01*
X104990022Y-109997345D01*
X104875925Y-109921107D01*
X104778893Y-109824075D01*
X104702655Y-109709978D01*
X104650142Y-109583199D01*
X104623371Y-109448612D01*
X104623371Y-109311388D01*
X104650142Y-109176801D01*
X104702655Y-109050022D01*
X104778893Y-108935925D01*
X104875925Y-108838893D01*
X104990022Y-108762655D01*
X105116801Y-108710142D01*
X105251388Y-108683371D01*
X105320000Y-108680000D01*
X106320000Y-108680000D01*
X106388612Y-108683371D01*
G37*
G36*
X105433939Y-107616642D02*
G01*
X105513067Y-107662326D01*
X105577674Y-107726933D01*
X105623358Y-107806061D01*
X105647006Y-107894316D01*
X105647006Y-107985684D01*
X105623358Y-108073939D01*
X105577674Y-108153067D01*
X105513067Y-108217674D01*
X105433939Y-108263358D01*
X105345684Y-108287006D01*
X105254316Y-108287006D01*
X105166061Y-108263358D01*
X105086933Y-108217674D01*
X105022326Y-108153067D01*
X104976642Y-108073939D01*
X104952994Y-107985684D01*
X104952994Y-107894316D01*
X104976642Y-107806061D01*
X105022326Y-107726933D01*
X105086933Y-107662326D01*
X105166061Y-107616642D01*
X105254316Y-107592994D01*
X105345684Y-107592994D01*
X105433939Y-107616642D01*
G37*
G36*
X101114805Y-106772836D02*
G01*
X101182628Y-106811994D01*
X101238006Y-106867372D01*
X101277164Y-106935195D01*
X101297433Y-107010842D01*
X101297433Y-107089158D01*
X101277164Y-107164805D01*
X101238006Y-107232628D01*
X101182628Y-107288006D01*
X101114805Y-107327164D01*
X101039158Y-107347433D01*
X100960842Y-107347433D01*
X100885195Y-107327164D01*
X100817372Y-107288006D01*
X100761994Y-107232628D01*
X100722836Y-107164805D01*
X100702567Y-107089158D01*
X100702567Y-107010842D01*
X100722836Y-106935195D01*
X100761994Y-106867372D01*
X100817372Y-106811994D01*
X100885195Y-106772836D01*
X100960842Y-106752567D01*
X101039158Y-106752567D01*
X101114805Y-106772836D01*
G37*
G36*
X103114805Y-106772836D02*
G01*
X103182628Y-106811994D01*
X103238006Y-106867372D01*
X103277164Y-106935195D01*
X103297433Y-107010842D01*
X103297433Y-107089158D01*
X103277164Y-107164805D01*
X103238006Y-107232628D01*
X103182628Y-107288006D01*
X103114805Y-107327164D01*
X103039158Y-107347433D01*
X102960842Y-107347433D01*
X102885195Y-107327164D01*
X102817372Y-107288006D01*
X102761994Y-107232628D01*
X102722836Y-107164805D01*
X102702567Y-107089158D01*
X102702567Y-107010842D01*
X102722836Y-106935195D01*
X102761994Y-106867372D01*
X102817372Y-106811994D01*
X102885195Y-106772836D01*
X102960842Y-106752567D01*
X103039158Y-106752567D01*
X103114805Y-106772836D01*
G37*
G36*
X101114805Y-102772836D02*
G01*
X101182628Y-102811994D01*
X101238006Y-102867372D01*
X101277164Y-102935195D01*
X101297433Y-103010842D01*
X101297433Y-103089158D01*
X101277164Y-103164805D01*
X101238006Y-103232628D01*
X101182628Y-103288006D01*
X101114805Y-103327164D01*
X101039158Y-103347433D01*
X100960842Y-103347433D01*
X100885195Y-103327164D01*
X100817372Y-103288006D01*
X100761994Y-103232628D01*
X100722836Y-103164805D01*
X100702567Y-103089158D01*
X100702567Y-103010842D01*
X100722836Y-102935195D01*
X100761994Y-102867372D01*
X100817372Y-102811994D01*
X100885195Y-102772836D01*
X100960842Y-102752567D01*
X101039158Y-102752567D01*
X101114805Y-102772836D01*
G37*
G36*
X103114805Y-102772836D02*
G01*
X103182628Y-102811994D01*
X103238006Y-102867372D01*
X103277164Y-102935195D01*
X103297433Y-103010842D01*
X103297433Y-103089158D01*
X103277164Y-103164805D01*
X103238006Y-103232628D01*
X103182628Y-103288006D01*
X103114805Y-103327164D01*
X103039158Y-103347433D01*
X102960842Y-103347433D01*
X102885195Y-103327164D01*
X102817372Y-103288006D01*
X102761994Y-103232628D01*
X102722836Y-103164805D01*
X102702567Y-103089158D01*
X102702567Y-103010842D01*
X102722836Y-102935195D01*
X102761994Y-102867372D01*
X102817372Y-102811994D01*
X102885195Y-102772836D01*
X102960842Y-102752567D01*
X103039158Y-102752567D01*
X103114805Y-102772836D01*
G37*
G36*
X105433939Y-101836642D02*
G01*
X105513067Y-101882326D01*
X105577674Y-101946933D01*
X105623358Y-102026061D01*
X105647006Y-102114316D01*
X105647006Y-102205684D01*
X105623358Y-102293939D01*
X105577674Y-102373067D01*
X105513067Y-102437674D01*
X105433939Y-102483358D01*
X105345684Y-102507006D01*
X105254316Y-102507006D01*
X105166061Y-102483358D01*
X105086933Y-102437674D01*
X105022326Y-102373067D01*
X104976642Y-102293939D01*
X104952994Y-102205684D01*
X104952994Y-102114316D01*
X104976642Y-102026061D01*
X105022326Y-101946933D01*
X105086933Y-101882326D01*
X105166061Y-101836642D01*
X105254316Y-101812994D01*
X105345684Y-101812994D01*
X105433939Y-101836642D01*
G37*
G36*
X102088612Y-100023371D02*
G01*
X102223199Y-100050142D01*
X102349978Y-100102655D01*
X102464075Y-100178893D01*
X102561107Y-100275925D01*
X102637345Y-100390022D01*
X102689858Y-100516801D01*
X102716629Y-100651388D01*
X102716629Y-100788612D01*
X102689858Y-100923199D01*
X102637345Y-101049978D01*
X102561107Y-101164075D01*
X102464075Y-101261107D01*
X102349978Y-101337345D01*
X102223199Y-101389858D01*
X102088612Y-101416629D01*
X102020000Y-101420000D01*
X102018768Y-101420000D01*
X101221232Y-101420000D01*
X101220000Y-101420000D01*
X101151388Y-101416629D01*
X101016801Y-101389858D01*
X100890022Y-101337345D01*
X100775925Y-101261107D01*
X100678893Y-101164075D01*
X100602655Y-101049978D01*
X100550142Y-100923199D01*
X100523371Y-100788612D01*
X100523371Y-100651388D01*
X100550142Y-100516801D01*
X100602655Y-100390022D01*
X100678893Y-100275925D01*
X100775925Y-100178893D01*
X100890022Y-100102655D01*
X101016801Y-100050142D01*
X101151388Y-100023371D01*
X101220000Y-100020000D01*
X102020000Y-100020000D01*
X102088612Y-100023371D01*
G37*
G36*
X106388612Y-100023371D02*
G01*
X106523199Y-100050142D01*
X106649978Y-100102655D01*
X106764075Y-100178893D01*
X106861107Y-100275925D01*
X106937345Y-100390022D01*
X106989858Y-100516801D01*
X107016629Y-100651388D01*
X107016629Y-100788612D01*
X106989858Y-100923199D01*
X106937345Y-101049978D01*
X106861107Y-101164075D01*
X106764075Y-101261107D01*
X106649978Y-101337345D01*
X106523199Y-101389858D01*
X106388612Y-101416629D01*
X106320000Y-101420000D01*
X106318768Y-101420000D01*
X105321232Y-101420000D01*
X105320000Y-101420000D01*
X105251388Y-101416629D01*
X105116801Y-101389858D01*
X104990022Y-101337345D01*
X104875925Y-101261107D01*
X104778893Y-101164075D01*
X104702655Y-101049978D01*
X104650142Y-100923199D01*
X104623371Y-100788612D01*
X104623371Y-100651388D01*
X104650142Y-100516801D01*
X104702655Y-100390022D01*
X104778893Y-100275925D01*
X104875925Y-100178893D01*
X104990022Y-100102655D01*
X105116801Y-100050142D01*
X105251388Y-100023371D01*
X105320000Y-100020000D01*
X106320000Y-100020000D01*
X106388612Y-100023371D01*
G37*
G36*
X103218894Y-91455086D02*
G01*
X103229458Y-91455086D01*
X103281477Y-91463325D01*
X103421877Y-91481809D01*
X103456138Y-91490989D01*
X103485185Y-91495590D01*
X103541045Y-91513740D01*
X103630338Y-91537666D01*
X103687309Y-91561264D01*
X103731428Y-91575599D01*
X103772755Y-91596656D01*
X103829733Y-91620257D01*
X103909803Y-91666485D01*
X103962123Y-91693144D01*
X103985909Y-91710425D01*
X104016624Y-91728159D01*
X104128975Y-91814369D01*
X104171589Y-91845330D01*
X104179058Y-91852799D01*
X104187848Y-91859544D01*
X104340455Y-92012151D01*
X104347199Y-92020940D01*
X104354670Y-92028411D01*
X104385634Y-92071030D01*
X104471840Y-92183375D01*
X104489572Y-92214087D01*
X104506856Y-92237877D01*
X104533517Y-92290203D01*
X104579742Y-92370266D01*
X104603340Y-92427237D01*
X104624401Y-92468572D01*
X104638738Y-92512696D01*
X104662333Y-92569661D01*
X104686255Y-92658941D01*
X104704410Y-92714815D01*
X104709011Y-92743867D01*
X104718190Y-92778122D01*
X104736673Y-92918514D01*
X104744914Y-92970542D01*
X104744914Y-92981105D01*
X104746360Y-92992089D01*
X104746360Y-93207910D01*
X104744914Y-93218893D01*
X104744914Y-93229458D01*
X104736672Y-93281490D01*
X104718190Y-93421877D01*
X104709011Y-93456129D01*
X104704410Y-93485185D01*
X104686254Y-93541063D01*
X104662333Y-93630338D01*
X104638739Y-93687298D01*
X104624401Y-93731428D01*
X104603337Y-93772766D01*
X104579742Y-93829733D01*
X104533521Y-93909788D01*
X104506856Y-93962123D01*
X104489569Y-93985916D01*
X104471840Y-94016624D01*
X104385648Y-94128950D01*
X104354670Y-94171589D01*
X104347195Y-94179063D01*
X104340455Y-94187848D01*
X104187848Y-94340455D01*
X104179063Y-94347195D01*
X104171589Y-94354670D01*
X104128950Y-94385648D01*
X104016624Y-94471840D01*
X103985916Y-94489569D01*
X103962123Y-94506856D01*
X103909788Y-94533521D01*
X103829733Y-94579742D01*
X103772766Y-94603337D01*
X103731428Y-94624401D01*
X103687298Y-94638739D01*
X103630338Y-94662333D01*
X103541063Y-94686254D01*
X103485185Y-94704410D01*
X103456129Y-94709011D01*
X103421877Y-94718190D01*
X103281490Y-94736672D01*
X103229458Y-94744914D01*
X103218893Y-94744914D01*
X103207910Y-94746360D01*
X102992090Y-94746360D01*
X102981107Y-94744914D01*
X102970542Y-94744914D01*
X102918511Y-94736672D01*
X102778122Y-94718190D01*
X102743867Y-94709011D01*
X102714815Y-94704410D01*
X102658941Y-94686255D01*
X102569661Y-94662333D01*
X102512696Y-94638738D01*
X102468572Y-94624401D01*
X102427237Y-94603340D01*
X102370266Y-94579742D01*
X102290203Y-94533517D01*
X102237877Y-94506856D01*
X102214087Y-94489572D01*
X102183375Y-94471840D01*
X102071030Y-94385634D01*
X102028411Y-94354670D01*
X102020940Y-94347199D01*
X102012151Y-94340455D01*
X101859544Y-94187848D01*
X101852799Y-94179058D01*
X101845330Y-94171589D01*
X101814369Y-94128975D01*
X101728159Y-94016624D01*
X101710425Y-93985909D01*
X101693144Y-93962123D01*
X101666485Y-93909803D01*
X101620257Y-93829733D01*
X101596656Y-93772755D01*
X101575599Y-93731428D01*
X101561264Y-93687309D01*
X101537666Y-93630338D01*
X101513740Y-93541045D01*
X101495590Y-93485185D01*
X101490989Y-93456138D01*
X101481809Y-93421877D01*
X101463325Y-93281477D01*
X101455086Y-93229458D01*
X101455086Y-93218893D01*
X101453640Y-93207910D01*
X101453640Y-92992089D01*
X101455086Y-92981105D01*
X101455086Y-92970542D01*
X101463324Y-92918527D01*
X101481809Y-92778122D01*
X101490989Y-92743858D01*
X101495590Y-92714815D01*
X101513738Y-92658959D01*
X101537666Y-92569661D01*
X101561265Y-92512685D01*
X101575599Y-92468572D01*
X101596654Y-92427248D01*
X101620257Y-92370266D01*
X101666489Y-92290188D01*
X101693144Y-92237877D01*
X101710423Y-92214094D01*
X101728159Y-92183375D01*
X101814383Y-92071005D01*
X101845330Y-92028411D01*
X101852796Y-92020944D01*
X101859544Y-92012151D01*
X102012151Y-91859544D01*
X102020944Y-91852796D01*
X102028411Y-91845330D01*
X102071005Y-91814383D01*
X102183375Y-91728159D01*
X102214094Y-91710423D01*
X102237877Y-91693144D01*
X102290188Y-91666489D01*
X102370266Y-91620257D01*
X102427248Y-91596654D01*
X102468572Y-91575599D01*
X102512685Y-91561265D01*
X102569661Y-91537666D01*
X102658959Y-91513738D01*
X102714815Y-91495590D01*
X102743858Y-91490989D01*
X102778122Y-91481809D01*
X102918524Y-91463324D01*
X102970542Y-91455086D01*
X102981106Y-91455086D01*
X102992090Y-91453640D01*
X103207910Y-91453640D01*
X103218894Y-91455086D01*
G37*
G36*
X180498199Y-85650142D02*
G01*
X180624978Y-85702655D01*
X180739075Y-85778893D01*
X180836107Y-85875925D01*
X180912345Y-85990022D01*
X180964858Y-86116801D01*
X180991629Y-86251388D01*
X180995000Y-86320000D01*
X180995000Y-87320000D01*
X180991629Y-87388612D01*
X180964858Y-87523199D01*
X180912345Y-87649978D01*
X180836107Y-87764075D01*
X180739075Y-87861107D01*
X180624978Y-87937345D01*
X180498199Y-87989858D01*
X180363612Y-88016629D01*
X180226388Y-88016629D01*
X180091801Y-87989858D01*
X179965022Y-87937345D01*
X179850925Y-87861107D01*
X179753893Y-87764075D01*
X179677655Y-87649978D01*
X179625142Y-87523199D01*
X179598371Y-87388612D01*
X179595000Y-87320000D01*
X179595000Y-86320000D01*
X179598371Y-86251388D01*
X179625142Y-86116801D01*
X179677655Y-85990022D01*
X179753893Y-85875925D01*
X179850925Y-85778893D01*
X179965022Y-85702655D01*
X180091801Y-85650142D01*
X180226388Y-85623371D01*
X180363612Y-85623371D01*
X180498199Y-85650142D01*
G37*
G36*
X189158199Y-85650142D02*
G01*
X189284978Y-85702655D01*
X189399075Y-85778893D01*
X189496107Y-85875925D01*
X189572345Y-85990022D01*
X189624858Y-86116801D01*
X189651629Y-86251388D01*
X189655000Y-86320000D01*
X189655000Y-87320000D01*
X189651629Y-87388612D01*
X189624858Y-87523199D01*
X189572345Y-87649978D01*
X189496107Y-87764075D01*
X189399075Y-87861107D01*
X189284978Y-87937345D01*
X189158199Y-87989858D01*
X189023612Y-88016629D01*
X188886388Y-88016629D01*
X188751801Y-87989858D01*
X188625022Y-87937345D01*
X188510925Y-87861107D01*
X188413893Y-87764075D01*
X188337655Y-87649978D01*
X188285142Y-87523199D01*
X188258371Y-87388612D01*
X188255000Y-87320000D01*
X188255000Y-86320000D01*
X188258371Y-86251388D01*
X188285142Y-86116801D01*
X188337655Y-85990022D01*
X188413893Y-85875925D01*
X188510925Y-85778893D01*
X188625022Y-85702655D01*
X188751801Y-85650142D01*
X188886388Y-85623371D01*
X189023612Y-85623371D01*
X189158199Y-85650142D01*
G37*
G36*
X181868939Y-85976642D02*
G01*
X181948067Y-86022326D01*
X182012674Y-86086933D01*
X182058358Y-86166061D01*
X182082006Y-86254316D01*
X182082006Y-86345684D01*
X182058358Y-86433939D01*
X182012674Y-86513067D01*
X181948067Y-86577674D01*
X181868939Y-86623358D01*
X181780684Y-86647006D01*
X181689316Y-86647006D01*
X181601061Y-86623358D01*
X181521933Y-86577674D01*
X181457326Y-86513067D01*
X181411642Y-86433939D01*
X181387994Y-86345684D01*
X181387994Y-86254316D01*
X181411642Y-86166061D01*
X181457326Y-86086933D01*
X181521933Y-86022326D01*
X181601061Y-85976642D01*
X181689316Y-85952994D01*
X181780684Y-85952994D01*
X181868939Y-85976642D01*
G37*
G36*
X187648939Y-85976642D02*
G01*
X187728067Y-86022326D01*
X187792674Y-86086933D01*
X187838358Y-86166061D01*
X187862006Y-86254316D01*
X187862006Y-86345684D01*
X187838358Y-86433939D01*
X187792674Y-86513067D01*
X187728067Y-86577674D01*
X187648939Y-86623358D01*
X187560684Y-86647006D01*
X187469316Y-86647006D01*
X187381061Y-86623358D01*
X187301933Y-86577674D01*
X187237326Y-86513067D01*
X187191642Y-86433939D01*
X187167994Y-86345684D01*
X187167994Y-86254316D01*
X187191642Y-86166061D01*
X187237326Y-86086933D01*
X187301933Y-86022326D01*
X187381061Y-85976642D01*
X187469316Y-85952994D01*
X187560684Y-85952994D01*
X187648939Y-85976642D01*
G37*
G36*
X109292885Y-83455056D02*
G01*
X109302918Y-83455056D01*
X109342117Y-83462853D01*
X109445078Y-83479160D01*
X109478200Y-83489922D01*
X109504799Y-83495213D01*
X109542335Y-83510760D01*
X109601762Y-83530070D01*
X109657433Y-83558435D01*
X109694967Y-83573983D01*
X109717517Y-83589050D01*
X109748539Y-83604857D01*
X109832866Y-83666124D01*
X109866113Y-83688339D01*
X109873208Y-83695434D01*
X109881817Y-83701689D01*
X109998310Y-83818182D01*
X110004564Y-83826790D01*
X110011661Y-83833887D01*
X110033878Y-83867138D01*
X110095142Y-83951460D01*
X110110947Y-83982479D01*
X110126017Y-84005033D01*
X110141566Y-84042572D01*
X110169929Y-84098237D01*
X110189235Y-84157657D01*
X110204787Y-84195201D01*
X110210078Y-84221805D01*
X110220839Y-84254921D01*
X110237145Y-84357876D01*
X110244944Y-84397082D01*
X110244944Y-84407114D01*
X110246609Y-84417627D01*
X110246609Y-84582372D01*
X110244944Y-84592884D01*
X110244944Y-84602918D01*
X110237144Y-84642126D01*
X110220839Y-84745078D01*
X110210079Y-84778192D01*
X110204787Y-84804799D01*
X110189234Y-84842346D01*
X110169929Y-84901762D01*
X110141568Y-84957422D01*
X110126017Y-84994967D01*
X110110945Y-85017523D01*
X110095142Y-85048539D01*
X110033887Y-85132849D01*
X110011661Y-85166113D01*
X110004561Y-85173212D01*
X109998310Y-85181817D01*
X109881817Y-85298310D01*
X109873212Y-85304561D01*
X109866113Y-85311661D01*
X109832849Y-85333887D01*
X109748539Y-85395142D01*
X109717523Y-85410945D01*
X109694967Y-85426017D01*
X109657422Y-85441568D01*
X109601762Y-85469929D01*
X109542346Y-85489234D01*
X109504799Y-85504787D01*
X109478192Y-85510079D01*
X109445078Y-85520839D01*
X109342126Y-85537144D01*
X109302918Y-85544944D01*
X109292884Y-85544944D01*
X109282372Y-85546609D01*
X109117628Y-85546609D01*
X109107115Y-85544944D01*
X109097082Y-85544944D01*
X109057874Y-85537145D01*
X108954921Y-85520839D01*
X108921805Y-85510078D01*
X108895201Y-85504787D01*
X108857657Y-85489235D01*
X108798237Y-85469929D01*
X108742572Y-85441566D01*
X108705033Y-85426017D01*
X108682479Y-85410947D01*
X108651460Y-85395142D01*
X108567138Y-85333878D01*
X108533887Y-85311661D01*
X108526790Y-85304564D01*
X108518182Y-85298310D01*
X108401689Y-85181817D01*
X108395434Y-85173208D01*
X108388339Y-85166113D01*
X108366124Y-85132866D01*
X108304857Y-85048539D01*
X108289050Y-85017517D01*
X108273983Y-84994967D01*
X108258435Y-84957433D01*
X108230070Y-84901762D01*
X108210760Y-84842335D01*
X108195213Y-84804799D01*
X108189922Y-84778200D01*
X108179160Y-84745078D01*
X108162853Y-84642117D01*
X108155056Y-84602918D01*
X108155056Y-84592884D01*
X108153391Y-84582372D01*
X108153391Y-84417627D01*
X108155056Y-84407114D01*
X108155056Y-84397082D01*
X108162852Y-84357886D01*
X108179160Y-84254921D01*
X108189922Y-84221797D01*
X108195213Y-84195201D01*
X108210759Y-84157668D01*
X108230070Y-84098237D01*
X108258438Y-84042561D01*
X108273983Y-84005033D01*
X108289048Y-83982486D01*
X108304857Y-83951460D01*
X108366132Y-83867121D01*
X108388339Y-83833887D01*
X108395432Y-83826793D01*
X108401689Y-83818182D01*
X108518182Y-83701689D01*
X108526793Y-83695432D01*
X108533887Y-83688339D01*
X108567121Y-83666132D01*
X108651460Y-83604857D01*
X108682486Y-83589048D01*
X108705033Y-83573983D01*
X108742561Y-83558438D01*
X108798237Y-83530070D01*
X108857668Y-83510759D01*
X108895201Y-83495213D01*
X108921797Y-83489922D01*
X108954921Y-83479160D01*
X109057883Y-83462853D01*
X109097082Y-83455056D01*
X109107115Y-83455056D01*
X109117628Y-83453391D01*
X109282372Y-83453391D01*
X109292885Y-83455056D01*
G37*
G36*
X115119134Y-83553806D02*
G01*
X115135355Y-83564645D01*
X115146194Y-83580866D01*
X115150000Y-83600000D01*
X115150000Y-85400000D01*
X115146194Y-85419134D01*
X115135355Y-85435355D01*
X115119134Y-85446194D01*
X115100000Y-85450000D01*
X113300000Y-85450000D01*
X113280866Y-85446194D01*
X113264645Y-85435355D01*
X113253806Y-85419134D01*
X113250000Y-85400000D01*
X113250000Y-83600000D01*
X113253806Y-83580866D01*
X113264645Y-83564645D01*
X113280866Y-83553806D01*
X113300000Y-83550000D01*
X115100000Y-83550000D01*
X115119134Y-83553806D01*
G37*
G36*
X182739805Y-83722836D02*
G01*
X182807628Y-83761994D01*
X182863006Y-83817372D01*
X182902164Y-83885195D01*
X182922433Y-83960842D01*
X182922433Y-84039158D01*
X182902164Y-84114805D01*
X182863006Y-84182628D01*
X182807628Y-84238006D01*
X182739805Y-84277164D01*
X182664158Y-84297433D01*
X182585842Y-84297433D01*
X182510195Y-84277164D01*
X182442372Y-84238006D01*
X182386994Y-84182628D01*
X182347836Y-84114805D01*
X182327567Y-84039158D01*
X182327567Y-83960842D01*
X182347836Y-83885195D01*
X182386994Y-83817372D01*
X182442372Y-83761994D01*
X182510195Y-83722836D01*
X182585842Y-83702567D01*
X182664158Y-83702567D01*
X182739805Y-83722836D01*
G37*
G36*
X186739805Y-83722836D02*
G01*
X186807628Y-83761994D01*
X186863006Y-83817372D01*
X186902164Y-83885195D01*
X186922433Y-83960842D01*
X186922433Y-84039158D01*
X186902164Y-84114805D01*
X186863006Y-84182628D01*
X186807628Y-84238006D01*
X186739805Y-84277164D01*
X186664158Y-84297433D01*
X186585842Y-84297433D01*
X186510195Y-84277164D01*
X186442372Y-84238006D01*
X186386994Y-84182628D01*
X186347836Y-84114805D01*
X186327567Y-84039158D01*
X186327567Y-83960842D01*
X186347836Y-83885195D01*
X186386994Y-83817372D01*
X186442372Y-83761994D01*
X186510195Y-83722836D01*
X186585842Y-83702567D01*
X186664158Y-83702567D01*
X186739805Y-83722836D01*
G37*
G36*
X175749134Y-82103806D02*
G01*
X175765355Y-82114645D01*
X175776194Y-82130866D01*
X175780000Y-82150000D01*
X175780000Y-83850000D01*
X175776194Y-83869134D01*
X175765355Y-83885355D01*
X175749134Y-83896194D01*
X175730000Y-83900000D01*
X174030000Y-83900000D01*
X174010866Y-83896194D01*
X173994645Y-83885355D01*
X173983806Y-83869134D01*
X173980000Y-83850000D01*
X173980000Y-82150000D01*
X173983806Y-82130866D01*
X173994645Y-82114645D01*
X174010866Y-82103806D01*
X174030000Y-82100000D01*
X175730000Y-82100000D01*
X175749134Y-82103806D01*
G37*
G36*
X162441256Y-82138754D02*
G01*
X162604257Y-82206271D01*
X162750954Y-82304291D01*
X162875709Y-82429046D01*
X162973729Y-82575743D01*
X163041246Y-82738744D01*
X163075666Y-82911785D01*
X163075666Y-83088215D01*
X163041246Y-83261256D01*
X162973729Y-83424257D01*
X162875709Y-83570954D01*
X162750954Y-83695709D01*
X162604257Y-83793729D01*
X162441256Y-83861246D01*
X162268215Y-83895666D01*
X162091785Y-83895666D01*
X161918744Y-83861246D01*
X161755743Y-83793729D01*
X161609046Y-83695709D01*
X161484291Y-83570954D01*
X161386271Y-83424257D01*
X161318754Y-83261256D01*
X161284334Y-83088215D01*
X161284334Y-82911785D01*
X161318754Y-82738744D01*
X161386271Y-82575743D01*
X161484291Y-82429046D01*
X161609046Y-82304291D01*
X161755743Y-82206271D01*
X161918744Y-82138754D01*
X162091785Y-82104334D01*
X162268215Y-82104334D01*
X162441256Y-82138754D01*
G37*
G36*
X164981256Y-82138754D02*
G01*
X165144257Y-82206271D01*
X165290954Y-82304291D01*
X165415709Y-82429046D01*
X165513729Y-82575743D01*
X165581246Y-82738744D01*
X165615666Y-82911785D01*
X165615666Y-83088215D01*
X165581246Y-83261256D01*
X165513729Y-83424257D01*
X165415709Y-83570954D01*
X165290954Y-83695709D01*
X165144257Y-83793729D01*
X164981256Y-83861246D01*
X164808215Y-83895666D01*
X164631785Y-83895666D01*
X164458744Y-83861246D01*
X164295743Y-83793729D01*
X164149046Y-83695709D01*
X164024291Y-83570954D01*
X163926271Y-83424257D01*
X163858754Y-83261256D01*
X163824334Y-83088215D01*
X163824334Y-82911785D01*
X163858754Y-82738744D01*
X163926271Y-82575743D01*
X164024291Y-82429046D01*
X164149046Y-82304291D01*
X164295743Y-82206271D01*
X164458744Y-82138754D01*
X164631785Y-82104334D01*
X164808215Y-82104334D01*
X164981256Y-82138754D01*
G37*
G36*
X167521256Y-82138754D02*
G01*
X167684257Y-82206271D01*
X167830954Y-82304291D01*
X167955709Y-82429046D01*
X168053729Y-82575743D01*
X168121246Y-82738744D01*
X168155666Y-82911785D01*
X168155666Y-83088215D01*
X168121246Y-83261256D01*
X168053729Y-83424257D01*
X167955709Y-83570954D01*
X167830954Y-83695709D01*
X167684257Y-83793729D01*
X167521256Y-83861246D01*
X167348215Y-83895666D01*
X167171785Y-83895666D01*
X166998744Y-83861246D01*
X166835743Y-83793729D01*
X166689046Y-83695709D01*
X166564291Y-83570954D01*
X166466271Y-83424257D01*
X166398754Y-83261256D01*
X166364334Y-83088215D01*
X166364334Y-82911785D01*
X166398754Y-82738744D01*
X166466271Y-82575743D01*
X166564291Y-82429046D01*
X166689046Y-82304291D01*
X166835743Y-82206271D01*
X166998744Y-82138754D01*
X167171785Y-82104334D01*
X167348215Y-82104334D01*
X167521256Y-82138754D01*
G37*
G36*
X170061256Y-82138754D02*
G01*
X170224257Y-82206271D01*
X170370954Y-82304291D01*
X170495709Y-82429046D01*
X170593729Y-82575743D01*
X170661246Y-82738744D01*
X170695666Y-82911785D01*
X170695666Y-83088215D01*
X170661246Y-83261256D01*
X170593729Y-83424257D01*
X170495709Y-83570954D01*
X170370954Y-83695709D01*
X170224257Y-83793729D01*
X170061256Y-83861246D01*
X169888215Y-83895666D01*
X169711785Y-83895666D01*
X169538744Y-83861246D01*
X169375743Y-83793729D01*
X169229046Y-83695709D01*
X169104291Y-83570954D01*
X169006271Y-83424257D01*
X168938754Y-83261256D01*
X168904334Y-83088215D01*
X168904334Y-82911785D01*
X168938754Y-82738744D01*
X169006271Y-82575743D01*
X169104291Y-82429046D01*
X169229046Y-82304291D01*
X169375743Y-82206271D01*
X169538744Y-82138754D01*
X169711785Y-82104334D01*
X169888215Y-82104334D01*
X170061256Y-82138754D01*
G37*
G36*
X172601256Y-82138754D02*
G01*
X172764257Y-82206271D01*
X172910954Y-82304291D01*
X173035709Y-82429046D01*
X173133729Y-82575743D01*
X173201246Y-82738744D01*
X173235666Y-82911785D01*
X173235666Y-83088215D01*
X173201246Y-83261256D01*
X173133729Y-83424257D01*
X173035709Y-83570954D01*
X172910954Y-83695709D01*
X172764257Y-83793729D01*
X172601256Y-83861246D01*
X172428215Y-83895666D01*
X172251785Y-83895666D01*
X172078744Y-83861246D01*
X171915743Y-83793729D01*
X171769046Y-83695709D01*
X171644291Y-83570954D01*
X171546271Y-83424257D01*
X171478754Y-83261256D01*
X171444334Y-83088215D01*
X171444334Y-82911785D01*
X171478754Y-82738744D01*
X171546271Y-82575743D01*
X171644291Y-82429046D01*
X171769046Y-82304291D01*
X171915743Y-82206271D01*
X172078744Y-82138754D01*
X172251785Y-82104334D01*
X172428215Y-82104334D01*
X172601256Y-82138754D01*
G37*
G36*
X180498199Y-81550142D02*
G01*
X180624978Y-81602655D01*
X180739075Y-81678893D01*
X180836107Y-81775925D01*
X180912345Y-81890022D01*
X180964858Y-82016801D01*
X180991629Y-82151388D01*
X180995000Y-82220000D01*
X180995000Y-83020000D01*
X180991629Y-83088612D01*
X180964858Y-83223199D01*
X180912345Y-83349978D01*
X180836107Y-83464075D01*
X180739075Y-83561107D01*
X180624978Y-83637345D01*
X180498199Y-83689858D01*
X180363612Y-83716629D01*
X180226388Y-83716629D01*
X180091801Y-83689858D01*
X179965022Y-83637345D01*
X179850925Y-83561107D01*
X179753893Y-83464075D01*
X179677655Y-83349978D01*
X179625142Y-83223199D01*
X179598371Y-83088612D01*
X179595000Y-83020000D01*
X179595000Y-82220000D01*
X179598371Y-82151388D01*
X179625142Y-82016801D01*
X179677655Y-81890022D01*
X179753893Y-81775925D01*
X179850925Y-81678893D01*
X179965022Y-81602655D01*
X180091801Y-81550142D01*
X180226388Y-81523371D01*
X180363612Y-81523371D01*
X180498199Y-81550142D01*
G37*
G36*
X189158199Y-81550142D02*
G01*
X189284978Y-81602655D01*
X189399075Y-81678893D01*
X189496107Y-81775925D01*
X189572345Y-81890022D01*
X189624858Y-82016801D01*
X189651629Y-82151388D01*
X189655000Y-82220000D01*
X189655000Y-83020000D01*
X189651629Y-83088612D01*
X189624858Y-83223199D01*
X189572345Y-83349978D01*
X189496107Y-83464075D01*
X189399075Y-83561107D01*
X189284978Y-83637345D01*
X189158199Y-83689858D01*
X189023612Y-83716629D01*
X188886388Y-83716629D01*
X188751801Y-83689858D01*
X188625022Y-83637345D01*
X188510925Y-83561107D01*
X188413893Y-83464075D01*
X188337655Y-83349978D01*
X188285142Y-83223199D01*
X188258371Y-83088612D01*
X188255000Y-83020000D01*
X188255000Y-82220000D01*
X188258371Y-82151388D01*
X188285142Y-82016801D01*
X188337655Y-81890022D01*
X188413893Y-81775925D01*
X188510925Y-81678893D01*
X188625022Y-81602655D01*
X188751801Y-81550142D01*
X188886388Y-81523371D01*
X189023612Y-81523371D01*
X189158199Y-81550142D01*
G37*
G36*
X182739805Y-81722836D02*
G01*
X182807628Y-81761994D01*
X182863006Y-81817372D01*
X182902164Y-81885195D01*
X182922433Y-81960842D01*
X182922433Y-82039158D01*
X182902164Y-82114805D01*
X182863006Y-82182628D01*
X182807628Y-82238006D01*
X182739805Y-82277164D01*
X182664158Y-82297433D01*
X182585842Y-82297433D01*
X182510195Y-82277164D01*
X182442372Y-82238006D01*
X182386994Y-82182628D01*
X182347836Y-82114805D01*
X182327567Y-82039158D01*
X182327567Y-81960842D01*
X182347836Y-81885195D01*
X182386994Y-81817372D01*
X182442372Y-81761994D01*
X182510195Y-81722836D01*
X182585842Y-81702567D01*
X182664158Y-81702567D01*
X182739805Y-81722836D01*
G37*
G36*
X186739805Y-81722836D02*
G01*
X186807628Y-81761994D01*
X186863006Y-81817372D01*
X186902164Y-81885195D01*
X186922433Y-81960842D01*
X186922433Y-82039158D01*
X186902164Y-82114805D01*
X186863006Y-82182628D01*
X186807628Y-82238006D01*
X186739805Y-82277164D01*
X186664158Y-82297433D01*
X186585842Y-82297433D01*
X186510195Y-82277164D01*
X186442372Y-82238006D01*
X186386994Y-82182628D01*
X186347836Y-82114805D01*
X186327567Y-82039158D01*
X186327567Y-81960842D01*
X186347836Y-81885195D01*
X186386994Y-81817372D01*
X186442372Y-81761994D01*
X186510195Y-81722836D01*
X186585842Y-81702567D01*
X186664158Y-81702567D01*
X186739805Y-81722836D01*
G37*
M02*
