%TF.GenerationSoftware,KiCad,Pcbnew,10.0.3*%
%TF.CreationDate,2026-06-22T11:34:40+02:00*%
%TF.ProjectId,presstimer,70726573-7374-4696-9d65-722e6b696361,rev?*%
%TF.SameCoordinates,Original*%
%TF.FileFunction,Legend,Top*%
%TF.FilePolarity,Positive*%
%FSLAX46Y46*%
G04 Gerber Fmt 4.6, Leading zero omitted, Abs format (unit mm)*
G04 Created by KiCad (PCBNEW 10.0.3) date 2026-06-22 11:34:40*
%MOMM*%
%LPD*%
G01*
G04 APERTURE LIST*
G04 Aperture macros list*
%AMRoundRect*
0 Rectangle with rounded corners*
0 $1 Rounding radius*
0 $2 $3 $4 $5 $6 $7 $8 $9 X,Y pos of 4 corners*
0 Add a 4 corners polygon primitive as box body*
4,1,4,$2,$3,$4,$5,$6,$7,$8,$9,$2,$3,0*
0 Add four circle primitives for the rounded corners*
1,1,$1+$1,$2,$3*
1,1,$1+$1,$4,$5*
1,1,$1+$1,$6,$7*
1,1,$1+$1,$8,$9*
0 Add four rect primitives between the rounded corners*
20,1,$1+$1,$2,$3,$4,$5,0*
20,1,$1+$1,$4,$5,$6,$7,0*
20,1,$1+$1,$6,$7,$8,$9,0*
20,1,$1+$1,$8,$9,$2,$3,0*%
G04 Aperture macros list end*
%ADD10C,0.150000*%
%ADD11C,0.100000*%
%ADD12C,0.120000*%
%ADD13C,0.410555*%
%ADD14RoundRect,0.150000X-0.150000X0.587500X-0.150000X-0.587500X0.150000X-0.587500X0.150000X0.587500X0*%
%ADD15C,1.800000*%
%ADD16R,1.800000X1.800000*%
%ADD17R,2.200000X1.800000*%
%ADD18C,1.500000*%
%ADD19R,1.500000X1.500000*%
%ADD20RoundRect,0.219000X-0.294000X0.219000X-0.294000X-0.219000X0.294000X-0.219000X0.294000X0.219000X0*%
%ADD21RoundRect,0.219000X0.219000X0.294000X-0.219000X0.294000X-0.219000X-0.294000X0.219000X-0.294000X0*%
%ADD22RoundRect,0.219000X-0.219000X-0.294000X0.219000X-0.294000X0.219000X0.294000X-0.219000X0.294000X0*%
%ADD23RoundRect,0.269000X-0.269000X-0.494000X0.269000X-0.494000X0.269000X0.494000X-0.269000X0.494000X0*%
%ADD24RoundRect,0.169000X-0.219000X0.169000X-0.219000X-0.169000X0.219000X-0.169000X0.219000X0.169000X0*%
%ADD25RoundRect,0.150000X0.150000X-0.587500X0.150000X0.587500X-0.150000X0.587500X-0.150000X-0.587500X0*%
%ADD26RoundRect,0.244444X-0.305556X-0.660556X0.305556X-0.660556X0.305556X0.660556X-0.305556X0.660556X0*%
%ADD27R,1.700000X1.700000*%
%ADD28C,1.700000*%
%ADD29RoundRect,0.225000X0.375000X-0.225000X0.375000X0.225000X-0.375000X0.225000X-0.375000X-0.225000X0*%
%ADD30RoundRect,0.225000X0.225000X0.375000X-0.225000X0.375000X-0.225000X-0.375000X0.225000X-0.375000X0*%
%ADD31RoundRect,0.150000X-0.587500X-0.150000X0.587500X-0.150000X0.587500X0.150000X-0.587500X0.150000X0*%
%ADD32RoundRect,0.250000X0.750000X-0.275000X0.750000X0.275000X-0.750000X0.275000X-0.750000X-0.275000X0*%
%ADD33RoundRect,0.269000X0.494000X-0.269000X0.494000X0.269000X-0.494000X0.269000X-0.494000X-0.269000X0*%
%ADD34RoundRect,0.169000X-0.169000X-0.219000X0.169000X-0.219000X0.169000X0.219000X-0.169000X0.219000X0*%
%ADD35RoundRect,0.219000X0.294000X-0.219000X0.294000X0.219000X-0.294000X0.219000X-0.294000X-0.219000X0*%
%ADD36RoundRect,0.250000X-0.550000X-0.550000X0.550000X-0.550000X0.550000X0.550000X-0.550000X0.550000X0*%
%ADD37C,1.600000*%
%ADD38RoundRect,0.244000X0.269000X-0.244000X0.269000X0.244000X-0.269000X0.244000X-0.269000X-0.244000X0*%
%ADD39C,3.200000*%
%ADD40C,2.400000*%
%ADD41RoundRect,0.169000X0.219000X-0.169000X0.219000X0.169000X-0.219000X0.169000X-0.219000X-0.169000X0*%
%ADD42RoundRect,0.267317X-0.470683X0.280683X-0.470683X-0.280683X0.470683X-0.280683X0.470683X0.280683X0*%
%ADD43RoundRect,0.261500X0.476500X-0.261500X0.476500X0.261500X-0.476500X0.261500X-0.476500X-0.261500X0*%
%ADD44RoundRect,0.244000X-0.269000X0.244000X-0.269000X-0.244000X0.269000X-0.244000X0.269000X0.244000X0*%
%ADD45RoundRect,0.244000X-0.244000X-0.269000X0.244000X-0.269000X0.244000X0.269000X-0.244000X0.269000X0*%
%ADD46RoundRect,0.250000X0.550000X-0.550000X0.550000X0.550000X-0.550000X0.550000X-0.550000X-0.550000X0*%
%ADD47C,2.374900*%
%ADD48C,0.990600*%
%ADD49C,0.787400*%
%ADD50RoundRect,0.267317X0.470683X-0.280683X0.470683X0.280683X-0.470683X0.280683X-0.470683X-0.280683X0*%
%ADD51RoundRect,0.210000X-0.690000X0.490000X-0.690000X-0.490000X0.690000X-0.490000X0.690000X0.490000X0*%
%ADD52RoundRect,0.270000X-0.630000X1.480000X-0.630000X-1.480000X0.630000X-1.480000X0.630000X1.480000X0*%
%ADD53RoundRect,0.269000X0.269000X0.494000X-0.269000X0.494000X-0.269000X-0.494000X0.269000X-0.494000X0*%
%ADD54R,1.500000X0.900000*%
%ADD55R,0.900000X1.500000*%
%ADD56R,0.900000X0.900000*%
%ADD57RoundRect,0.062500X0.062500X-0.337500X0.062500X0.337500X-0.062500X0.337500X-0.062500X-0.337500X0*%
%ADD58RoundRect,0.062500X0.337500X-0.062500X0.337500X0.062500X-0.337500X0.062500X-0.337500X-0.062500X0*%
%ADD59R,3.350000X3.350000*%
%ADD60RoundRect,0.169000X0.169000X0.219000X-0.169000X0.219000X-0.169000X-0.219000X0.169000X-0.219000X0*%
%ADD61RoundRect,0.267317X-0.280683X-0.470683X0.280683X-0.470683X0.280683X0.470683X-0.280683X0.470683X0*%
%ADD62O,2.100000X1.300000*%
%ADD63O,2.300000X1.300000*%
%ADD64C,0.500000*%
%ADD65RoundRect,0.500000X-1.000000X2.000000X-1.000000X-2.000000X1.000000X-2.000000X1.000000X2.000000X0*%
%ADD66R,1.400000X0.500000*%
%ADD67R,1.400000X0.300000*%
%ADD68C,0.600000*%
%ADD69R,0.300000X1.400000*%
%ADD70R,0.500000X1.400000*%
%ADD71O,1.300000X2.300000*%
%ADD72O,1.300000X2.100000*%
%ADD73RoundRect,0.500000X2.000000X1.000000X-2.000000X1.000000X-2.000000X-1.000000X2.000000X-1.000000X0*%
%ADD74R,1.600000X0.850000*%
G04 APERTURE END LIST*
D10*
X117425057Y-130296428D02*
X117377438Y-130391666D01*
X117377438Y-130391666D02*
X117282200Y-130486904D01*
X117282200Y-130486904D02*
X117139342Y-130629761D01*
X117139342Y-130629761D02*
X117091723Y-130724999D01*
X117091723Y-130724999D02*
X117091723Y-130820237D01*
X117329819Y-130772618D02*
X117282200Y-130867856D01*
X117282200Y-130867856D02*
X117186961Y-130963094D01*
X117186961Y-130963094D02*
X116996485Y-131010713D01*
X116996485Y-131010713D02*
X116663152Y-131010713D01*
X116663152Y-131010713D02*
X116472676Y-130963094D01*
X116472676Y-130963094D02*
X116377438Y-130867856D01*
X116377438Y-130867856D02*
X116329819Y-130772618D01*
X116329819Y-130772618D02*
X116329819Y-130582142D01*
X116329819Y-130582142D02*
X116377438Y-130486904D01*
X116377438Y-130486904D02*
X116472676Y-130391666D01*
X116472676Y-130391666D02*
X116663152Y-130344047D01*
X116663152Y-130344047D02*
X116996485Y-130344047D01*
X116996485Y-130344047D02*
X117186961Y-130391666D01*
X117186961Y-130391666D02*
X117282200Y-130486904D01*
X117282200Y-130486904D02*
X117329819Y-130582142D01*
X117329819Y-130582142D02*
X117329819Y-130772618D01*
X117329819Y-129391666D02*
X117329819Y-129963094D01*
X117329819Y-129677380D02*
X116329819Y-129677380D01*
X116329819Y-129677380D02*
X116472676Y-129772618D01*
X116472676Y-129772618D02*
X116567914Y-129867856D01*
X116567914Y-129867856D02*
X116615533Y-129963094D01*
X116329819Y-128772618D02*
X116329819Y-128677380D01*
X116329819Y-128677380D02*
X116377438Y-128582142D01*
X116377438Y-128582142D02*
X116425057Y-128534523D01*
X116425057Y-128534523D02*
X116520295Y-128486904D01*
X116520295Y-128486904D02*
X116710771Y-128439285D01*
X116710771Y-128439285D02*
X116948866Y-128439285D01*
X116948866Y-128439285D02*
X117139342Y-128486904D01*
X117139342Y-128486904D02*
X117234580Y-128534523D01*
X117234580Y-128534523D02*
X117282200Y-128582142D01*
X117282200Y-128582142D02*
X117329819Y-128677380D01*
X117329819Y-128677380D02*
X117329819Y-128772618D01*
X117329819Y-128772618D02*
X117282200Y-128867856D01*
X117282200Y-128867856D02*
X117234580Y-128915475D01*
X117234580Y-128915475D02*
X117139342Y-128963094D01*
X117139342Y-128963094D02*
X116948866Y-129010713D01*
X116948866Y-129010713D02*
X116710771Y-129010713D01*
X116710771Y-129010713D02*
X116520295Y-128963094D01*
X116520295Y-128963094D02*
X116425057Y-128915475D01*
X116425057Y-128915475D02*
X116377438Y-128867856D01*
X116377438Y-128867856D02*
X116329819Y-128772618D01*
D11*
X127106221Y-144255519D02*
X127106221Y-144969804D01*
X127106221Y-144969804D02*
X127058602Y-145112661D01*
X127058602Y-145112661D02*
X126963364Y-145207900D01*
X126963364Y-145207900D02*
X126820507Y-145255519D01*
X126820507Y-145255519D02*
X126725269Y-145255519D01*
X128106221Y-145255519D02*
X127534793Y-145255519D01*
X127820507Y-145255519D02*
X127820507Y-144255519D01*
X127820507Y-144255519D02*
X127725269Y-144398376D01*
X127725269Y-144398376D02*
X127630031Y-144493614D01*
X127630031Y-144493614D02*
X127534793Y-144541233D01*
X128725269Y-144255519D02*
X128820507Y-144255519D01*
X128820507Y-144255519D02*
X128915745Y-144303138D01*
X128915745Y-144303138D02*
X128963364Y-144350757D01*
X128963364Y-144350757D02*
X129010983Y-144445995D01*
X129010983Y-144445995D02*
X129058602Y-144636471D01*
X129058602Y-144636471D02*
X129058602Y-144874566D01*
X129058602Y-144874566D02*
X129010983Y-145065042D01*
X129010983Y-145065042D02*
X128963364Y-145160280D01*
X128963364Y-145160280D02*
X128915745Y-145207900D01*
X128915745Y-145207900D02*
X128820507Y-145255519D01*
X128820507Y-145255519D02*
X128725269Y-145255519D01*
X128725269Y-145255519D02*
X128630031Y-145207900D01*
X128630031Y-145207900D02*
X128582412Y-145160280D01*
X128582412Y-145160280D02*
X128534793Y-145065042D01*
X128534793Y-145065042D02*
X128487174Y-144874566D01*
X128487174Y-144874566D02*
X128487174Y-144636471D01*
X128487174Y-144636471D02*
X128534793Y-144445995D01*
X128534793Y-144445995D02*
X128582412Y-144350757D01*
X128582412Y-144350757D02*
X128630031Y-144303138D01*
X128630031Y-144303138D02*
X128725269Y-144255519D01*
D10*
X115534117Y-136941719D02*
X115534117Y-137751242D01*
X115534117Y-137751242D02*
X115581736Y-137846480D01*
X115581736Y-137846480D02*
X115629355Y-137894100D01*
X115629355Y-137894100D02*
X115724593Y-137941719D01*
X115724593Y-137941719D02*
X115915069Y-137941719D01*
X115915069Y-137941719D02*
X116010307Y-137894100D01*
X116010307Y-137894100D02*
X116057926Y-137846480D01*
X116057926Y-137846480D02*
X116105545Y-137751242D01*
X116105545Y-137751242D02*
X116105545Y-136941719D01*
X117057926Y-136941719D02*
X116581736Y-136941719D01*
X116581736Y-136941719D02*
X116534117Y-137417909D01*
X116534117Y-137417909D02*
X116581736Y-137370290D01*
X116581736Y-137370290D02*
X116676974Y-137322671D01*
X116676974Y-137322671D02*
X116915069Y-137322671D01*
X116915069Y-137322671D02*
X117010307Y-137370290D01*
X117010307Y-137370290D02*
X117057926Y-137417909D01*
X117057926Y-137417909D02*
X117105545Y-137513147D01*
X117105545Y-137513147D02*
X117105545Y-137751242D01*
X117105545Y-137751242D02*
X117057926Y-137846480D01*
X117057926Y-137846480D02*
X117010307Y-137894100D01*
X117010307Y-137894100D02*
X116915069Y-137941719D01*
X116915069Y-137941719D02*
X116676974Y-137941719D01*
X116676974Y-137941719D02*
X116581736Y-137894100D01*
X116581736Y-137894100D02*
X116534117Y-137846480D01*
X115729819Y-126492857D02*
X115253628Y-126826190D01*
X115729819Y-127064285D02*
X114729819Y-127064285D01*
X114729819Y-127064285D02*
X114729819Y-126683333D01*
X114729819Y-126683333D02*
X114777438Y-126588095D01*
X114777438Y-126588095D02*
X114825057Y-126540476D01*
X114825057Y-126540476D02*
X114920295Y-126492857D01*
X114920295Y-126492857D02*
X115063152Y-126492857D01*
X115063152Y-126492857D02*
X115158390Y-126540476D01*
X115158390Y-126540476D02*
X115206009Y-126588095D01*
X115206009Y-126588095D02*
X115253628Y-126683333D01*
X115253628Y-126683333D02*
X115253628Y-127064285D01*
X114825057Y-126111904D02*
X114777438Y-126064285D01*
X114777438Y-126064285D02*
X114729819Y-125969047D01*
X114729819Y-125969047D02*
X114729819Y-125730952D01*
X114729819Y-125730952D02*
X114777438Y-125635714D01*
X114777438Y-125635714D02*
X114825057Y-125588095D01*
X114825057Y-125588095D02*
X114920295Y-125540476D01*
X114920295Y-125540476D02*
X115015533Y-125540476D01*
X115015533Y-125540476D02*
X115158390Y-125588095D01*
X115158390Y-125588095D02*
X115729819Y-126159523D01*
X115729819Y-126159523D02*
X115729819Y-125540476D01*
X115729819Y-124588095D02*
X115729819Y-125159523D01*
X115729819Y-124873809D02*
X114729819Y-124873809D01*
X114729819Y-124873809D02*
X114872676Y-124969047D01*
X114872676Y-124969047D02*
X114967914Y-125064285D01*
X114967914Y-125064285D02*
X115015533Y-125159523D01*
X174157142Y-103654819D02*
X173823809Y-103178628D01*
X173585714Y-103654819D02*
X173585714Y-102654819D01*
X173585714Y-102654819D02*
X173966666Y-102654819D01*
X173966666Y-102654819D02*
X174061904Y-102702438D01*
X174061904Y-102702438D02*
X174109523Y-102750057D01*
X174109523Y-102750057D02*
X174157142Y-102845295D01*
X174157142Y-102845295D02*
X174157142Y-102988152D01*
X174157142Y-102988152D02*
X174109523Y-103083390D01*
X174109523Y-103083390D02*
X174061904Y-103131009D01*
X174061904Y-103131009D02*
X173966666Y-103178628D01*
X173966666Y-103178628D02*
X173585714Y-103178628D01*
X174490476Y-102654819D02*
X175109523Y-102654819D01*
X175109523Y-102654819D02*
X174776190Y-103035771D01*
X174776190Y-103035771D02*
X174919047Y-103035771D01*
X174919047Y-103035771D02*
X175014285Y-103083390D01*
X175014285Y-103083390D02*
X175061904Y-103131009D01*
X175061904Y-103131009D02*
X175109523Y-103226247D01*
X175109523Y-103226247D02*
X175109523Y-103464342D01*
X175109523Y-103464342D02*
X175061904Y-103559580D01*
X175061904Y-103559580D02*
X175014285Y-103607200D01*
X175014285Y-103607200D02*
X174919047Y-103654819D01*
X174919047Y-103654819D02*
X174633333Y-103654819D01*
X174633333Y-103654819D02*
X174538095Y-103607200D01*
X174538095Y-103607200D02*
X174490476Y-103559580D01*
X176061904Y-103654819D02*
X175490476Y-103654819D01*
X175776190Y-103654819D02*
X175776190Y-102654819D01*
X175776190Y-102654819D02*
X175680952Y-102797676D01*
X175680952Y-102797676D02*
X175585714Y-102892914D01*
X175585714Y-102892914D02*
X175490476Y-102940533D01*
X160257142Y-103277319D02*
X159923809Y-102801128D01*
X159685714Y-103277319D02*
X159685714Y-102277319D01*
X159685714Y-102277319D02*
X160066666Y-102277319D01*
X160066666Y-102277319D02*
X160161904Y-102324938D01*
X160161904Y-102324938D02*
X160209523Y-102372557D01*
X160209523Y-102372557D02*
X160257142Y-102467795D01*
X160257142Y-102467795D02*
X160257142Y-102610652D01*
X160257142Y-102610652D02*
X160209523Y-102705890D01*
X160209523Y-102705890D02*
X160161904Y-102753509D01*
X160161904Y-102753509D02*
X160066666Y-102801128D01*
X160066666Y-102801128D02*
X159685714Y-102801128D01*
X160590476Y-102277319D02*
X161209523Y-102277319D01*
X161209523Y-102277319D02*
X160876190Y-102658271D01*
X160876190Y-102658271D02*
X161019047Y-102658271D01*
X161019047Y-102658271D02*
X161114285Y-102705890D01*
X161114285Y-102705890D02*
X161161904Y-102753509D01*
X161161904Y-102753509D02*
X161209523Y-102848747D01*
X161209523Y-102848747D02*
X161209523Y-103086842D01*
X161209523Y-103086842D02*
X161161904Y-103182080D01*
X161161904Y-103182080D02*
X161114285Y-103229700D01*
X161114285Y-103229700D02*
X161019047Y-103277319D01*
X161019047Y-103277319D02*
X160733333Y-103277319D01*
X160733333Y-103277319D02*
X160638095Y-103229700D01*
X160638095Y-103229700D02*
X160590476Y-103182080D01*
X161828571Y-102277319D02*
X161923809Y-102277319D01*
X161923809Y-102277319D02*
X162019047Y-102324938D01*
X162019047Y-102324938D02*
X162066666Y-102372557D01*
X162066666Y-102372557D02*
X162114285Y-102467795D01*
X162114285Y-102467795D02*
X162161904Y-102658271D01*
X162161904Y-102658271D02*
X162161904Y-102896366D01*
X162161904Y-102896366D02*
X162114285Y-103086842D01*
X162114285Y-103086842D02*
X162066666Y-103182080D01*
X162066666Y-103182080D02*
X162019047Y-103229700D01*
X162019047Y-103229700D02*
X161923809Y-103277319D01*
X161923809Y-103277319D02*
X161828571Y-103277319D01*
X161828571Y-103277319D02*
X161733333Y-103229700D01*
X161733333Y-103229700D02*
X161685714Y-103182080D01*
X161685714Y-103182080D02*
X161638095Y-103086842D01*
X161638095Y-103086842D02*
X161590476Y-102896366D01*
X161590476Y-102896366D02*
X161590476Y-102658271D01*
X161590476Y-102658271D02*
X161638095Y-102467795D01*
X161638095Y-102467795D02*
X161685714Y-102372557D01*
X161685714Y-102372557D02*
X161733333Y-102324938D01*
X161733333Y-102324938D02*
X161828571Y-102277319D01*
X175657142Y-113959580D02*
X175609523Y-114007200D01*
X175609523Y-114007200D02*
X175466666Y-114054819D01*
X175466666Y-114054819D02*
X175371428Y-114054819D01*
X175371428Y-114054819D02*
X175228571Y-114007200D01*
X175228571Y-114007200D02*
X175133333Y-113911961D01*
X175133333Y-113911961D02*
X175085714Y-113816723D01*
X175085714Y-113816723D02*
X175038095Y-113626247D01*
X175038095Y-113626247D02*
X175038095Y-113483390D01*
X175038095Y-113483390D02*
X175085714Y-113292914D01*
X175085714Y-113292914D02*
X175133333Y-113197676D01*
X175133333Y-113197676D02*
X175228571Y-113102438D01*
X175228571Y-113102438D02*
X175371428Y-113054819D01*
X175371428Y-113054819D02*
X175466666Y-113054819D01*
X175466666Y-113054819D02*
X175609523Y-113102438D01*
X175609523Y-113102438D02*
X175657142Y-113150057D01*
X176609523Y-114054819D02*
X176038095Y-114054819D01*
X176323809Y-114054819D02*
X176323809Y-113054819D01*
X176323809Y-113054819D02*
X176228571Y-113197676D01*
X176228571Y-113197676D02*
X176133333Y-113292914D01*
X176133333Y-113292914D02*
X176038095Y-113340533D01*
X176942857Y-113054819D02*
X177561904Y-113054819D01*
X177561904Y-113054819D02*
X177228571Y-113435771D01*
X177228571Y-113435771D02*
X177371428Y-113435771D01*
X177371428Y-113435771D02*
X177466666Y-113483390D01*
X177466666Y-113483390D02*
X177514285Y-113531009D01*
X177514285Y-113531009D02*
X177561904Y-113626247D01*
X177561904Y-113626247D02*
X177561904Y-113864342D01*
X177561904Y-113864342D02*
X177514285Y-113959580D01*
X177514285Y-113959580D02*
X177466666Y-114007200D01*
X177466666Y-114007200D02*
X177371428Y-114054819D01*
X177371428Y-114054819D02*
X177085714Y-114054819D01*
X177085714Y-114054819D02*
X176990476Y-114007200D01*
X176990476Y-114007200D02*
X176942857Y-113959580D01*
X114679819Y-109983094D02*
X113679819Y-109983094D01*
X113679819Y-109983094D02*
X113679819Y-109744999D01*
X113679819Y-109744999D02*
X113727438Y-109602142D01*
X113727438Y-109602142D02*
X113822676Y-109506904D01*
X113822676Y-109506904D02*
X113917914Y-109459285D01*
X113917914Y-109459285D02*
X114108390Y-109411666D01*
X114108390Y-109411666D02*
X114251247Y-109411666D01*
X114251247Y-109411666D02*
X114441723Y-109459285D01*
X114441723Y-109459285D02*
X114536961Y-109506904D01*
X114536961Y-109506904D02*
X114632200Y-109602142D01*
X114632200Y-109602142D02*
X114679819Y-109744999D01*
X114679819Y-109744999D02*
X114679819Y-109983094D01*
X114679819Y-108935475D02*
X114679819Y-108744999D01*
X114679819Y-108744999D02*
X114632200Y-108649761D01*
X114632200Y-108649761D02*
X114584580Y-108602142D01*
X114584580Y-108602142D02*
X114441723Y-108506904D01*
X114441723Y-108506904D02*
X114251247Y-108459285D01*
X114251247Y-108459285D02*
X113870295Y-108459285D01*
X113870295Y-108459285D02*
X113775057Y-108506904D01*
X113775057Y-108506904D02*
X113727438Y-108554523D01*
X113727438Y-108554523D02*
X113679819Y-108649761D01*
X113679819Y-108649761D02*
X113679819Y-108840237D01*
X113679819Y-108840237D02*
X113727438Y-108935475D01*
X113727438Y-108935475D02*
X113775057Y-108983094D01*
X113775057Y-108983094D02*
X113870295Y-109030713D01*
X113870295Y-109030713D02*
X114108390Y-109030713D01*
X114108390Y-109030713D02*
X114203628Y-108983094D01*
X114203628Y-108983094D02*
X114251247Y-108935475D01*
X114251247Y-108935475D02*
X114298866Y-108840237D01*
X114298866Y-108840237D02*
X114298866Y-108649761D01*
X114298866Y-108649761D02*
X114251247Y-108554523D01*
X114251247Y-108554523D02*
X114203628Y-108506904D01*
X114203628Y-108506904D02*
X114108390Y-108459285D01*
X163800057Y-99822738D02*
X163752438Y-99917976D01*
X163752438Y-99917976D02*
X163657200Y-100013214D01*
X163657200Y-100013214D02*
X163514342Y-100156071D01*
X163514342Y-100156071D02*
X163466723Y-100251309D01*
X163466723Y-100251309D02*
X163466723Y-100346547D01*
X163704819Y-100298928D02*
X163657200Y-100394166D01*
X163657200Y-100394166D02*
X163561961Y-100489404D01*
X163561961Y-100489404D02*
X163371485Y-100537023D01*
X163371485Y-100537023D02*
X163038152Y-100537023D01*
X163038152Y-100537023D02*
X162847676Y-100489404D01*
X162847676Y-100489404D02*
X162752438Y-100394166D01*
X162752438Y-100394166D02*
X162704819Y-100298928D01*
X162704819Y-100298928D02*
X162704819Y-100108452D01*
X162704819Y-100108452D02*
X162752438Y-100013214D01*
X162752438Y-100013214D02*
X162847676Y-99917976D01*
X162847676Y-99917976D02*
X163038152Y-99870357D01*
X163038152Y-99870357D02*
X163371485Y-99870357D01*
X163371485Y-99870357D02*
X163561961Y-99917976D01*
X163561961Y-99917976D02*
X163657200Y-100013214D01*
X163657200Y-100013214D02*
X163704819Y-100108452D01*
X163704819Y-100108452D02*
X163704819Y-100298928D01*
X163133390Y-99298928D02*
X163085771Y-99394166D01*
X163085771Y-99394166D02*
X163038152Y-99441785D01*
X163038152Y-99441785D02*
X162942914Y-99489404D01*
X162942914Y-99489404D02*
X162895295Y-99489404D01*
X162895295Y-99489404D02*
X162800057Y-99441785D01*
X162800057Y-99441785D02*
X162752438Y-99394166D01*
X162752438Y-99394166D02*
X162704819Y-99298928D01*
X162704819Y-99298928D02*
X162704819Y-99108452D01*
X162704819Y-99108452D02*
X162752438Y-99013214D01*
X162752438Y-99013214D02*
X162800057Y-98965595D01*
X162800057Y-98965595D02*
X162895295Y-98917976D01*
X162895295Y-98917976D02*
X162942914Y-98917976D01*
X162942914Y-98917976D02*
X163038152Y-98965595D01*
X163038152Y-98965595D02*
X163085771Y-99013214D01*
X163085771Y-99013214D02*
X163133390Y-99108452D01*
X163133390Y-99108452D02*
X163133390Y-99298928D01*
X163133390Y-99298928D02*
X163181009Y-99394166D01*
X163181009Y-99394166D02*
X163228628Y-99441785D01*
X163228628Y-99441785D02*
X163323866Y-99489404D01*
X163323866Y-99489404D02*
X163514342Y-99489404D01*
X163514342Y-99489404D02*
X163609580Y-99441785D01*
X163609580Y-99441785D02*
X163657200Y-99394166D01*
X163657200Y-99394166D02*
X163704819Y-99298928D01*
X163704819Y-99298928D02*
X163704819Y-99108452D01*
X163704819Y-99108452D02*
X163657200Y-99013214D01*
X163657200Y-99013214D02*
X163609580Y-98965595D01*
X163609580Y-98965595D02*
X163514342Y-98917976D01*
X163514342Y-98917976D02*
X163323866Y-98917976D01*
X163323866Y-98917976D02*
X163228628Y-98965595D01*
X163228628Y-98965595D02*
X163181009Y-99013214D01*
X163181009Y-99013214D02*
X163133390Y-99108452D01*
X112516666Y-91301009D02*
X112183333Y-91301009D01*
X112183333Y-91824819D02*
X112183333Y-90824819D01*
X112183333Y-90824819D02*
X112659523Y-90824819D01*
X113564285Y-91824819D02*
X112992857Y-91824819D01*
X113278571Y-91824819D02*
X113278571Y-90824819D01*
X113278571Y-90824819D02*
X113183333Y-90967676D01*
X113183333Y-90967676D02*
X113088095Y-91062914D01*
X113088095Y-91062914D02*
X112992857Y-91110533D01*
X176714819Y-83333333D02*
X177429104Y-83333333D01*
X177429104Y-83333333D02*
X177571961Y-83380952D01*
X177571961Y-83380952D02*
X177667200Y-83476190D01*
X177667200Y-83476190D02*
X177714819Y-83619047D01*
X177714819Y-83619047D02*
X177714819Y-83714285D01*
X176714819Y-82380952D02*
X176714819Y-82857142D01*
X176714819Y-82857142D02*
X177191009Y-82904761D01*
X177191009Y-82904761D02*
X177143390Y-82857142D01*
X177143390Y-82857142D02*
X177095771Y-82761904D01*
X177095771Y-82761904D02*
X177095771Y-82523809D01*
X177095771Y-82523809D02*
X177143390Y-82428571D01*
X177143390Y-82428571D02*
X177191009Y-82380952D01*
X177191009Y-82380952D02*
X177286247Y-82333333D01*
X177286247Y-82333333D02*
X177524342Y-82333333D01*
X177524342Y-82333333D02*
X177619580Y-82380952D01*
X177619580Y-82380952D02*
X177667200Y-82428571D01*
X177667200Y-82428571D02*
X177714819Y-82523809D01*
X177714819Y-82523809D02*
X177714819Y-82761904D01*
X177714819Y-82761904D02*
X177667200Y-82857142D01*
X177667200Y-82857142D02*
X177619580Y-82904761D01*
X165204819Y-108692857D02*
X164728628Y-109026190D01*
X165204819Y-109264285D02*
X164204819Y-109264285D01*
X164204819Y-109264285D02*
X164204819Y-108883333D01*
X164204819Y-108883333D02*
X164252438Y-108788095D01*
X164252438Y-108788095D02*
X164300057Y-108740476D01*
X164300057Y-108740476D02*
X164395295Y-108692857D01*
X164395295Y-108692857D02*
X164538152Y-108692857D01*
X164538152Y-108692857D02*
X164633390Y-108740476D01*
X164633390Y-108740476D02*
X164681009Y-108788095D01*
X164681009Y-108788095D02*
X164728628Y-108883333D01*
X164728628Y-108883333D02*
X164728628Y-109264285D01*
X165204819Y-107740476D02*
X165204819Y-108311904D01*
X165204819Y-108026190D02*
X164204819Y-108026190D01*
X164204819Y-108026190D02*
X164347676Y-108121428D01*
X164347676Y-108121428D02*
X164442914Y-108216666D01*
X164442914Y-108216666D02*
X164490533Y-108311904D01*
X164204819Y-107407142D02*
X164204819Y-106788095D01*
X164204819Y-106788095D02*
X164585771Y-107121428D01*
X164585771Y-107121428D02*
X164585771Y-106978571D01*
X164585771Y-106978571D02*
X164633390Y-106883333D01*
X164633390Y-106883333D02*
X164681009Y-106835714D01*
X164681009Y-106835714D02*
X164776247Y-106788095D01*
X164776247Y-106788095D02*
X165014342Y-106788095D01*
X165014342Y-106788095D02*
X165109580Y-106835714D01*
X165109580Y-106835714D02*
X165157200Y-106883333D01*
X165157200Y-106883333D02*
X165204819Y-106978571D01*
X165204819Y-106978571D02*
X165204819Y-107264285D01*
X165204819Y-107264285D02*
X165157200Y-107359523D01*
X165157200Y-107359523D02*
X165109580Y-107407142D01*
X189479819Y-99188094D02*
X188479819Y-99188094D01*
X188479819Y-99188094D02*
X188479819Y-98949999D01*
X188479819Y-98949999D02*
X188527438Y-98807142D01*
X188527438Y-98807142D02*
X188622676Y-98711904D01*
X188622676Y-98711904D02*
X188717914Y-98664285D01*
X188717914Y-98664285D02*
X188908390Y-98616666D01*
X188908390Y-98616666D02*
X189051247Y-98616666D01*
X189051247Y-98616666D02*
X189241723Y-98664285D01*
X189241723Y-98664285D02*
X189336961Y-98711904D01*
X189336961Y-98711904D02*
X189432200Y-98807142D01*
X189432200Y-98807142D02*
X189479819Y-98949999D01*
X189479819Y-98949999D02*
X189479819Y-99188094D01*
X188479819Y-97759523D02*
X188479819Y-97949999D01*
X188479819Y-97949999D02*
X188527438Y-98045237D01*
X188527438Y-98045237D02*
X188575057Y-98092856D01*
X188575057Y-98092856D02*
X188717914Y-98188094D01*
X188717914Y-98188094D02*
X188908390Y-98235713D01*
X188908390Y-98235713D02*
X189289342Y-98235713D01*
X189289342Y-98235713D02*
X189384580Y-98188094D01*
X189384580Y-98188094D02*
X189432200Y-98140475D01*
X189432200Y-98140475D02*
X189479819Y-98045237D01*
X189479819Y-98045237D02*
X189479819Y-97854761D01*
X189479819Y-97854761D02*
X189432200Y-97759523D01*
X189432200Y-97759523D02*
X189384580Y-97711904D01*
X189384580Y-97711904D02*
X189289342Y-97664285D01*
X189289342Y-97664285D02*
X189051247Y-97664285D01*
X189051247Y-97664285D02*
X188956009Y-97711904D01*
X188956009Y-97711904D02*
X188908390Y-97759523D01*
X188908390Y-97759523D02*
X188860771Y-97854761D01*
X188860771Y-97854761D02*
X188860771Y-98045237D01*
X188860771Y-98045237D02*
X188908390Y-98140475D01*
X188908390Y-98140475D02*
X188956009Y-98188094D01*
X188956009Y-98188094D02*
X189051247Y-98235713D01*
X118661905Y-101074819D02*
X118661905Y-100074819D01*
X118661905Y-100074819D02*
X118900000Y-100074819D01*
X118900000Y-100074819D02*
X119042857Y-100122438D01*
X119042857Y-100122438D02*
X119138095Y-100217676D01*
X119138095Y-100217676D02*
X119185714Y-100312914D01*
X119185714Y-100312914D02*
X119233333Y-100503390D01*
X119233333Y-100503390D02*
X119233333Y-100646247D01*
X119233333Y-100646247D02*
X119185714Y-100836723D01*
X119185714Y-100836723D02*
X119138095Y-100931961D01*
X119138095Y-100931961D02*
X119042857Y-101027200D01*
X119042857Y-101027200D02*
X118900000Y-101074819D01*
X118900000Y-101074819D02*
X118661905Y-101074819D01*
X120138095Y-100074819D02*
X119661905Y-100074819D01*
X119661905Y-100074819D02*
X119614286Y-100551009D01*
X119614286Y-100551009D02*
X119661905Y-100503390D01*
X119661905Y-100503390D02*
X119757143Y-100455771D01*
X119757143Y-100455771D02*
X119995238Y-100455771D01*
X119995238Y-100455771D02*
X120090476Y-100503390D01*
X120090476Y-100503390D02*
X120138095Y-100551009D01*
X120138095Y-100551009D02*
X120185714Y-100646247D01*
X120185714Y-100646247D02*
X120185714Y-100884342D01*
X120185714Y-100884342D02*
X120138095Y-100979580D01*
X120138095Y-100979580D02*
X120090476Y-101027200D01*
X120090476Y-101027200D02*
X119995238Y-101074819D01*
X119995238Y-101074819D02*
X119757143Y-101074819D01*
X119757143Y-101074819D02*
X119661905Y-101027200D01*
X119661905Y-101027200D02*
X119614286Y-100979580D01*
X128442261Y-118000057D02*
X128347023Y-117952438D01*
X128347023Y-117952438D02*
X128251785Y-117857200D01*
X128251785Y-117857200D02*
X128108928Y-117714342D01*
X128108928Y-117714342D02*
X128013690Y-117666723D01*
X128013690Y-117666723D02*
X127918452Y-117666723D01*
X127966071Y-117904819D02*
X127870833Y-117857200D01*
X127870833Y-117857200D02*
X127775595Y-117761961D01*
X127775595Y-117761961D02*
X127727976Y-117571485D01*
X127727976Y-117571485D02*
X127727976Y-117238152D01*
X127727976Y-117238152D02*
X127775595Y-117047676D01*
X127775595Y-117047676D02*
X127870833Y-116952438D01*
X127870833Y-116952438D02*
X127966071Y-116904819D01*
X127966071Y-116904819D02*
X128156547Y-116904819D01*
X128156547Y-116904819D02*
X128251785Y-116952438D01*
X128251785Y-116952438D02*
X128347023Y-117047676D01*
X128347023Y-117047676D02*
X128394642Y-117238152D01*
X128394642Y-117238152D02*
X128394642Y-117571485D01*
X128394642Y-117571485D02*
X128347023Y-117761961D01*
X128347023Y-117761961D02*
X128251785Y-117857200D01*
X128251785Y-117857200D02*
X128156547Y-117904819D01*
X128156547Y-117904819D02*
X127966071Y-117904819D01*
X129251785Y-116904819D02*
X129061309Y-116904819D01*
X129061309Y-116904819D02*
X128966071Y-116952438D01*
X128966071Y-116952438D02*
X128918452Y-117000057D01*
X128918452Y-117000057D02*
X128823214Y-117142914D01*
X128823214Y-117142914D02*
X128775595Y-117333390D01*
X128775595Y-117333390D02*
X128775595Y-117714342D01*
X128775595Y-117714342D02*
X128823214Y-117809580D01*
X128823214Y-117809580D02*
X128870833Y-117857200D01*
X128870833Y-117857200D02*
X128966071Y-117904819D01*
X128966071Y-117904819D02*
X129156547Y-117904819D01*
X129156547Y-117904819D02*
X129251785Y-117857200D01*
X129251785Y-117857200D02*
X129299404Y-117809580D01*
X129299404Y-117809580D02*
X129347023Y-117714342D01*
X129347023Y-117714342D02*
X129347023Y-117476247D01*
X129347023Y-117476247D02*
X129299404Y-117381009D01*
X129299404Y-117381009D02*
X129251785Y-117333390D01*
X129251785Y-117333390D02*
X129156547Y-117285771D01*
X129156547Y-117285771D02*
X128966071Y-117285771D01*
X128966071Y-117285771D02*
X128870833Y-117333390D01*
X128870833Y-117333390D02*
X128823214Y-117381009D01*
X128823214Y-117381009D02*
X128775595Y-117476247D01*
X132254819Y-91766666D02*
X131778628Y-92099999D01*
X132254819Y-92338094D02*
X131254819Y-92338094D01*
X131254819Y-92338094D02*
X131254819Y-91957142D01*
X131254819Y-91957142D02*
X131302438Y-91861904D01*
X131302438Y-91861904D02*
X131350057Y-91814285D01*
X131350057Y-91814285D02*
X131445295Y-91766666D01*
X131445295Y-91766666D02*
X131588152Y-91766666D01*
X131588152Y-91766666D02*
X131683390Y-91814285D01*
X131683390Y-91814285D02*
X131731009Y-91861904D01*
X131731009Y-91861904D02*
X131778628Y-91957142D01*
X131778628Y-91957142D02*
X131778628Y-92338094D01*
X131254819Y-91433332D02*
X131254819Y-90814285D01*
X131254819Y-90814285D02*
X131635771Y-91147618D01*
X131635771Y-91147618D02*
X131635771Y-91004761D01*
X131635771Y-91004761D02*
X131683390Y-90909523D01*
X131683390Y-90909523D02*
X131731009Y-90861904D01*
X131731009Y-90861904D02*
X131826247Y-90814285D01*
X131826247Y-90814285D02*
X132064342Y-90814285D01*
X132064342Y-90814285D02*
X132159580Y-90861904D01*
X132159580Y-90861904D02*
X132207200Y-90909523D01*
X132207200Y-90909523D02*
X132254819Y-91004761D01*
X132254819Y-91004761D02*
X132254819Y-91290475D01*
X132254819Y-91290475D02*
X132207200Y-91385713D01*
X132207200Y-91385713D02*
X132159580Y-91433332D01*
X161491667Y-97657200D02*
X161634524Y-97704819D01*
X161634524Y-97704819D02*
X161872619Y-97704819D01*
X161872619Y-97704819D02*
X161967857Y-97657200D01*
X161967857Y-97657200D02*
X162015476Y-97609580D01*
X162015476Y-97609580D02*
X162063095Y-97514342D01*
X162063095Y-97514342D02*
X162063095Y-97419104D01*
X162063095Y-97419104D02*
X162015476Y-97323866D01*
X162015476Y-97323866D02*
X161967857Y-97276247D01*
X161967857Y-97276247D02*
X161872619Y-97228628D01*
X161872619Y-97228628D02*
X161682143Y-97181009D01*
X161682143Y-97181009D02*
X161586905Y-97133390D01*
X161586905Y-97133390D02*
X161539286Y-97085771D01*
X161539286Y-97085771D02*
X161491667Y-96990533D01*
X161491667Y-96990533D02*
X161491667Y-96895295D01*
X161491667Y-96895295D02*
X161539286Y-96800057D01*
X161539286Y-96800057D02*
X161586905Y-96752438D01*
X161586905Y-96752438D02*
X161682143Y-96704819D01*
X161682143Y-96704819D02*
X161920238Y-96704819D01*
X161920238Y-96704819D02*
X162063095Y-96752438D01*
X162396429Y-96704819D02*
X162634524Y-97704819D01*
X162634524Y-97704819D02*
X162825000Y-96990533D01*
X162825000Y-96990533D02*
X163015476Y-97704819D01*
X163015476Y-97704819D02*
X163253572Y-96704819D01*
X163586905Y-96800057D02*
X163634524Y-96752438D01*
X163634524Y-96752438D02*
X163729762Y-96704819D01*
X163729762Y-96704819D02*
X163967857Y-96704819D01*
X163967857Y-96704819D02*
X164063095Y-96752438D01*
X164063095Y-96752438D02*
X164110714Y-96800057D01*
X164110714Y-96800057D02*
X164158333Y-96895295D01*
X164158333Y-96895295D02*
X164158333Y-96990533D01*
X164158333Y-96990533D02*
X164110714Y-97133390D01*
X164110714Y-97133390D02*
X163539286Y-97704819D01*
X163539286Y-97704819D02*
X164158333Y-97704819D01*
X181654819Y-98292857D02*
X181178628Y-98626190D01*
X181654819Y-98864285D02*
X180654819Y-98864285D01*
X180654819Y-98864285D02*
X180654819Y-98483333D01*
X180654819Y-98483333D02*
X180702438Y-98388095D01*
X180702438Y-98388095D02*
X180750057Y-98340476D01*
X180750057Y-98340476D02*
X180845295Y-98292857D01*
X180845295Y-98292857D02*
X180988152Y-98292857D01*
X180988152Y-98292857D02*
X181083390Y-98340476D01*
X181083390Y-98340476D02*
X181131009Y-98388095D01*
X181131009Y-98388095D02*
X181178628Y-98483333D01*
X181178628Y-98483333D02*
X181178628Y-98864285D01*
X180654819Y-97959523D02*
X180654819Y-97340476D01*
X180654819Y-97340476D02*
X181035771Y-97673809D01*
X181035771Y-97673809D02*
X181035771Y-97530952D01*
X181035771Y-97530952D02*
X181083390Y-97435714D01*
X181083390Y-97435714D02*
X181131009Y-97388095D01*
X181131009Y-97388095D02*
X181226247Y-97340476D01*
X181226247Y-97340476D02*
X181464342Y-97340476D01*
X181464342Y-97340476D02*
X181559580Y-97388095D01*
X181559580Y-97388095D02*
X181607200Y-97435714D01*
X181607200Y-97435714D02*
X181654819Y-97530952D01*
X181654819Y-97530952D02*
X181654819Y-97816666D01*
X181654819Y-97816666D02*
X181607200Y-97911904D01*
X181607200Y-97911904D02*
X181559580Y-97959523D01*
X180750057Y-96959523D02*
X180702438Y-96911904D01*
X180702438Y-96911904D02*
X180654819Y-96816666D01*
X180654819Y-96816666D02*
X180654819Y-96578571D01*
X180654819Y-96578571D02*
X180702438Y-96483333D01*
X180702438Y-96483333D02*
X180750057Y-96435714D01*
X180750057Y-96435714D02*
X180845295Y-96388095D01*
X180845295Y-96388095D02*
X180940533Y-96388095D01*
X180940533Y-96388095D02*
X181083390Y-96435714D01*
X181083390Y-96435714D02*
X181654819Y-97007142D01*
X181654819Y-97007142D02*
X181654819Y-96388095D01*
X162287142Y-129029819D02*
X161953809Y-128553628D01*
X161715714Y-129029819D02*
X161715714Y-128029819D01*
X161715714Y-128029819D02*
X162096666Y-128029819D01*
X162096666Y-128029819D02*
X162191904Y-128077438D01*
X162191904Y-128077438D02*
X162239523Y-128125057D01*
X162239523Y-128125057D02*
X162287142Y-128220295D01*
X162287142Y-128220295D02*
X162287142Y-128363152D01*
X162287142Y-128363152D02*
X162239523Y-128458390D01*
X162239523Y-128458390D02*
X162191904Y-128506009D01*
X162191904Y-128506009D02*
X162096666Y-128553628D01*
X162096666Y-128553628D02*
X161715714Y-128553628D01*
X162668095Y-128125057D02*
X162715714Y-128077438D01*
X162715714Y-128077438D02*
X162810952Y-128029819D01*
X162810952Y-128029819D02*
X163049047Y-128029819D01*
X163049047Y-128029819D02*
X163144285Y-128077438D01*
X163144285Y-128077438D02*
X163191904Y-128125057D01*
X163191904Y-128125057D02*
X163239523Y-128220295D01*
X163239523Y-128220295D02*
X163239523Y-128315533D01*
X163239523Y-128315533D02*
X163191904Y-128458390D01*
X163191904Y-128458390D02*
X162620476Y-129029819D01*
X162620476Y-129029819D02*
X163239523Y-129029819D01*
X163810952Y-128458390D02*
X163715714Y-128410771D01*
X163715714Y-128410771D02*
X163668095Y-128363152D01*
X163668095Y-128363152D02*
X163620476Y-128267914D01*
X163620476Y-128267914D02*
X163620476Y-128220295D01*
X163620476Y-128220295D02*
X163668095Y-128125057D01*
X163668095Y-128125057D02*
X163715714Y-128077438D01*
X163715714Y-128077438D02*
X163810952Y-128029819D01*
X163810952Y-128029819D02*
X164001428Y-128029819D01*
X164001428Y-128029819D02*
X164096666Y-128077438D01*
X164096666Y-128077438D02*
X164144285Y-128125057D01*
X164144285Y-128125057D02*
X164191904Y-128220295D01*
X164191904Y-128220295D02*
X164191904Y-128267914D01*
X164191904Y-128267914D02*
X164144285Y-128363152D01*
X164144285Y-128363152D02*
X164096666Y-128410771D01*
X164096666Y-128410771D02*
X164001428Y-128458390D01*
X164001428Y-128458390D02*
X163810952Y-128458390D01*
X163810952Y-128458390D02*
X163715714Y-128506009D01*
X163715714Y-128506009D02*
X163668095Y-128553628D01*
X163668095Y-128553628D02*
X163620476Y-128648866D01*
X163620476Y-128648866D02*
X163620476Y-128839342D01*
X163620476Y-128839342D02*
X163668095Y-128934580D01*
X163668095Y-128934580D02*
X163715714Y-128982200D01*
X163715714Y-128982200D02*
X163810952Y-129029819D01*
X163810952Y-129029819D02*
X164001428Y-129029819D01*
X164001428Y-129029819D02*
X164096666Y-128982200D01*
X164096666Y-128982200D02*
X164144285Y-128934580D01*
X164144285Y-128934580D02*
X164191904Y-128839342D01*
X164191904Y-128839342D02*
X164191904Y-128648866D01*
X164191904Y-128648866D02*
X164144285Y-128553628D01*
X164144285Y-128553628D02*
X164096666Y-128506009D01*
X164096666Y-128506009D02*
X164001428Y-128458390D01*
X135109580Y-87286666D02*
X135157200Y-87334285D01*
X135157200Y-87334285D02*
X135204819Y-87477142D01*
X135204819Y-87477142D02*
X135204819Y-87572380D01*
X135204819Y-87572380D02*
X135157200Y-87715237D01*
X135157200Y-87715237D02*
X135061961Y-87810475D01*
X135061961Y-87810475D02*
X134966723Y-87858094D01*
X134966723Y-87858094D02*
X134776247Y-87905713D01*
X134776247Y-87905713D02*
X134633390Y-87905713D01*
X134633390Y-87905713D02*
X134442914Y-87858094D01*
X134442914Y-87858094D02*
X134347676Y-87810475D01*
X134347676Y-87810475D02*
X134252438Y-87715237D01*
X134252438Y-87715237D02*
X134204819Y-87572380D01*
X134204819Y-87572380D02*
X134204819Y-87477142D01*
X134204819Y-87477142D02*
X134252438Y-87334285D01*
X134252438Y-87334285D02*
X134300057Y-87286666D01*
X134538152Y-86429523D02*
X135204819Y-86429523D01*
X134157200Y-86667618D02*
X134871485Y-86905713D01*
X134871485Y-86905713D02*
X134871485Y-86286666D01*
D11*
X105967580Y-122391666D02*
X105253295Y-122391666D01*
X105253295Y-122391666D02*
X105110438Y-122344047D01*
X105110438Y-122344047D02*
X105015200Y-122248809D01*
X105015200Y-122248809D02*
X104967580Y-122105952D01*
X104967580Y-122105952D02*
X104967580Y-122010714D01*
X105872342Y-122820238D02*
X105919961Y-122867857D01*
X105919961Y-122867857D02*
X105967580Y-122963095D01*
X105967580Y-122963095D02*
X105967580Y-123201190D01*
X105967580Y-123201190D02*
X105919961Y-123296428D01*
X105919961Y-123296428D02*
X105872342Y-123344047D01*
X105872342Y-123344047D02*
X105777104Y-123391666D01*
X105777104Y-123391666D02*
X105681866Y-123391666D01*
X105681866Y-123391666D02*
X105539009Y-123344047D01*
X105539009Y-123344047D02*
X104967580Y-122772619D01*
X104967580Y-122772619D02*
X104967580Y-123391666D01*
D10*
X189561905Y-90254819D02*
X189561905Y-89254819D01*
X189561905Y-89254819D02*
X189800000Y-89254819D01*
X189800000Y-89254819D02*
X189942857Y-89302438D01*
X189942857Y-89302438D02*
X190038095Y-89397676D01*
X190038095Y-89397676D02*
X190085714Y-89492914D01*
X190085714Y-89492914D02*
X190133333Y-89683390D01*
X190133333Y-89683390D02*
X190133333Y-89826247D01*
X190133333Y-89826247D02*
X190085714Y-90016723D01*
X190085714Y-90016723D02*
X190038095Y-90111961D01*
X190038095Y-90111961D02*
X189942857Y-90207200D01*
X189942857Y-90207200D02*
X189800000Y-90254819D01*
X189800000Y-90254819D02*
X189561905Y-90254819D01*
X190990476Y-89588152D02*
X190990476Y-90254819D01*
X190752381Y-89207200D02*
X190514286Y-89921485D01*
X190514286Y-89921485D02*
X191133333Y-89921485D01*
X133854819Y-97842857D02*
X133378628Y-98176190D01*
X133854819Y-98414285D02*
X132854819Y-98414285D01*
X132854819Y-98414285D02*
X132854819Y-98033333D01*
X132854819Y-98033333D02*
X132902438Y-97938095D01*
X132902438Y-97938095D02*
X132950057Y-97890476D01*
X132950057Y-97890476D02*
X133045295Y-97842857D01*
X133045295Y-97842857D02*
X133188152Y-97842857D01*
X133188152Y-97842857D02*
X133283390Y-97890476D01*
X133283390Y-97890476D02*
X133331009Y-97938095D01*
X133331009Y-97938095D02*
X133378628Y-98033333D01*
X133378628Y-98033333D02*
X133378628Y-98414285D01*
X133854819Y-96890476D02*
X133854819Y-97461904D01*
X133854819Y-97176190D02*
X132854819Y-97176190D01*
X132854819Y-97176190D02*
X132997676Y-97271428D01*
X132997676Y-97271428D02*
X133092914Y-97366666D01*
X133092914Y-97366666D02*
X133140533Y-97461904D01*
X133188152Y-96033333D02*
X133854819Y-96033333D01*
X132807200Y-96271428D02*
X133521485Y-96509523D01*
X133521485Y-96509523D02*
X133521485Y-95890476D01*
X155038095Y-121724819D02*
X155038095Y-122534342D01*
X155038095Y-122534342D02*
X155085714Y-122629580D01*
X155085714Y-122629580D02*
X155133333Y-122677200D01*
X155133333Y-122677200D02*
X155228571Y-122724819D01*
X155228571Y-122724819D02*
X155419047Y-122724819D01*
X155419047Y-122724819D02*
X155514285Y-122677200D01*
X155514285Y-122677200D02*
X155561904Y-122629580D01*
X155561904Y-122629580D02*
X155609523Y-122534342D01*
X155609523Y-122534342D02*
X155609523Y-121724819D01*
X156514285Y-122058152D02*
X156514285Y-122724819D01*
X156276190Y-121677200D02*
X156038095Y-122391485D01*
X156038095Y-122391485D02*
X156657142Y-122391485D01*
X161055097Y-123077857D02*
X160578906Y-123411190D01*
X161055097Y-123649285D02*
X160055097Y-123649285D01*
X160055097Y-123649285D02*
X160055097Y-123268333D01*
X160055097Y-123268333D02*
X160102716Y-123173095D01*
X160102716Y-123173095D02*
X160150335Y-123125476D01*
X160150335Y-123125476D02*
X160245573Y-123077857D01*
X160245573Y-123077857D02*
X160388430Y-123077857D01*
X160388430Y-123077857D02*
X160483668Y-123125476D01*
X160483668Y-123125476D02*
X160531287Y-123173095D01*
X160531287Y-123173095D02*
X160578906Y-123268333D01*
X160578906Y-123268333D02*
X160578906Y-123649285D01*
X160150335Y-122696904D02*
X160102716Y-122649285D01*
X160102716Y-122649285D02*
X160055097Y-122554047D01*
X160055097Y-122554047D02*
X160055097Y-122315952D01*
X160055097Y-122315952D02*
X160102716Y-122220714D01*
X160102716Y-122220714D02*
X160150335Y-122173095D01*
X160150335Y-122173095D02*
X160245573Y-122125476D01*
X160245573Y-122125476D02*
X160340811Y-122125476D01*
X160340811Y-122125476D02*
X160483668Y-122173095D01*
X160483668Y-122173095D02*
X161055097Y-122744523D01*
X161055097Y-122744523D02*
X161055097Y-122125476D01*
X161055097Y-121649285D02*
X161055097Y-121458809D01*
X161055097Y-121458809D02*
X161007478Y-121363571D01*
X161007478Y-121363571D02*
X160959858Y-121315952D01*
X160959858Y-121315952D02*
X160817001Y-121220714D01*
X160817001Y-121220714D02*
X160626525Y-121173095D01*
X160626525Y-121173095D02*
X160245573Y-121173095D01*
X160245573Y-121173095D02*
X160150335Y-121220714D01*
X160150335Y-121220714D02*
X160102716Y-121268333D01*
X160102716Y-121268333D02*
X160055097Y-121363571D01*
X160055097Y-121363571D02*
X160055097Y-121554047D01*
X160055097Y-121554047D02*
X160102716Y-121649285D01*
X160102716Y-121649285D02*
X160150335Y-121696904D01*
X160150335Y-121696904D02*
X160245573Y-121744523D01*
X160245573Y-121744523D02*
X160483668Y-121744523D01*
X160483668Y-121744523D02*
X160578906Y-121696904D01*
X160578906Y-121696904D02*
X160626525Y-121649285D01*
X160626525Y-121649285D02*
X160674144Y-121554047D01*
X160674144Y-121554047D02*
X160674144Y-121363571D01*
X160674144Y-121363571D02*
X160626525Y-121268333D01*
X160626525Y-121268333D02*
X160578906Y-121220714D01*
X160578906Y-121220714D02*
X160483668Y-121173095D01*
X109584580Y-127441389D02*
X109632200Y-127489008D01*
X109632200Y-127489008D02*
X109679819Y-127631865D01*
X109679819Y-127631865D02*
X109679819Y-127727103D01*
X109679819Y-127727103D02*
X109632200Y-127869960D01*
X109632200Y-127869960D02*
X109536961Y-127965198D01*
X109536961Y-127965198D02*
X109441723Y-128012817D01*
X109441723Y-128012817D02*
X109251247Y-128060436D01*
X109251247Y-128060436D02*
X109108390Y-128060436D01*
X109108390Y-128060436D02*
X108917914Y-128012817D01*
X108917914Y-128012817D02*
X108822676Y-127965198D01*
X108822676Y-127965198D02*
X108727438Y-127869960D01*
X108727438Y-127869960D02*
X108679819Y-127727103D01*
X108679819Y-127727103D02*
X108679819Y-127631865D01*
X108679819Y-127631865D02*
X108727438Y-127489008D01*
X108727438Y-127489008D02*
X108775057Y-127441389D01*
X108679819Y-127108055D02*
X108679819Y-126441389D01*
X108679819Y-126441389D02*
X109679819Y-126869960D01*
X157138095Y-143504819D02*
X157138095Y-142504819D01*
X157138095Y-142981009D02*
X157709523Y-142981009D01*
X157709523Y-143504819D02*
X157709523Y-142504819D01*
X158138095Y-142600057D02*
X158185714Y-142552438D01*
X158185714Y-142552438D02*
X158280952Y-142504819D01*
X158280952Y-142504819D02*
X158519047Y-142504819D01*
X158519047Y-142504819D02*
X158614285Y-142552438D01*
X158614285Y-142552438D02*
X158661904Y-142600057D01*
X158661904Y-142600057D02*
X158709523Y-142695295D01*
X158709523Y-142695295D02*
X158709523Y-142790533D01*
X158709523Y-142790533D02*
X158661904Y-142933390D01*
X158661904Y-142933390D02*
X158090476Y-143504819D01*
X158090476Y-143504819D02*
X158709523Y-143504819D01*
X171987142Y-150024819D02*
X171653809Y-149548628D01*
X171415714Y-150024819D02*
X171415714Y-149024819D01*
X171415714Y-149024819D02*
X171796666Y-149024819D01*
X171796666Y-149024819D02*
X171891904Y-149072438D01*
X171891904Y-149072438D02*
X171939523Y-149120057D01*
X171939523Y-149120057D02*
X171987142Y-149215295D01*
X171987142Y-149215295D02*
X171987142Y-149358152D01*
X171987142Y-149358152D02*
X171939523Y-149453390D01*
X171939523Y-149453390D02*
X171891904Y-149501009D01*
X171891904Y-149501009D02*
X171796666Y-149548628D01*
X171796666Y-149548628D02*
X171415714Y-149548628D01*
X172368095Y-149120057D02*
X172415714Y-149072438D01*
X172415714Y-149072438D02*
X172510952Y-149024819D01*
X172510952Y-149024819D02*
X172749047Y-149024819D01*
X172749047Y-149024819D02*
X172844285Y-149072438D01*
X172844285Y-149072438D02*
X172891904Y-149120057D01*
X172891904Y-149120057D02*
X172939523Y-149215295D01*
X172939523Y-149215295D02*
X172939523Y-149310533D01*
X172939523Y-149310533D02*
X172891904Y-149453390D01*
X172891904Y-149453390D02*
X172320476Y-150024819D01*
X172320476Y-150024819D02*
X172939523Y-150024819D01*
X173320476Y-149120057D02*
X173368095Y-149072438D01*
X173368095Y-149072438D02*
X173463333Y-149024819D01*
X173463333Y-149024819D02*
X173701428Y-149024819D01*
X173701428Y-149024819D02*
X173796666Y-149072438D01*
X173796666Y-149072438D02*
X173844285Y-149120057D01*
X173844285Y-149120057D02*
X173891904Y-149215295D01*
X173891904Y-149215295D02*
X173891904Y-149310533D01*
X173891904Y-149310533D02*
X173844285Y-149453390D01*
X173844285Y-149453390D02*
X173272857Y-150024819D01*
X173272857Y-150024819D02*
X173891904Y-150024819D01*
X113554819Y-100238094D02*
X112554819Y-100238094D01*
X112554819Y-100238094D02*
X112554819Y-99999999D01*
X112554819Y-99999999D02*
X112602438Y-99857142D01*
X112602438Y-99857142D02*
X112697676Y-99761904D01*
X112697676Y-99761904D02*
X112792914Y-99714285D01*
X112792914Y-99714285D02*
X112983390Y-99666666D01*
X112983390Y-99666666D02*
X113126247Y-99666666D01*
X113126247Y-99666666D02*
X113316723Y-99714285D01*
X113316723Y-99714285D02*
X113411961Y-99761904D01*
X113411961Y-99761904D02*
X113507200Y-99857142D01*
X113507200Y-99857142D02*
X113554819Y-99999999D01*
X113554819Y-99999999D02*
X113554819Y-100238094D01*
X112554819Y-99333332D02*
X112554819Y-98714285D01*
X112554819Y-98714285D02*
X112935771Y-99047618D01*
X112935771Y-99047618D02*
X112935771Y-98904761D01*
X112935771Y-98904761D02*
X112983390Y-98809523D01*
X112983390Y-98809523D02*
X113031009Y-98761904D01*
X113031009Y-98761904D02*
X113126247Y-98714285D01*
X113126247Y-98714285D02*
X113364342Y-98714285D01*
X113364342Y-98714285D02*
X113459580Y-98761904D01*
X113459580Y-98761904D02*
X113507200Y-98809523D01*
X113507200Y-98809523D02*
X113554819Y-98904761D01*
X113554819Y-98904761D02*
X113554819Y-99190475D01*
X113554819Y-99190475D02*
X113507200Y-99285713D01*
X113507200Y-99285713D02*
X113459580Y-99333332D01*
D11*
X111983333Y-87342580D02*
X111983333Y-86628295D01*
X111983333Y-86628295D02*
X112030952Y-86485438D01*
X112030952Y-86485438D02*
X112126190Y-86390200D01*
X112126190Y-86390200D02*
X112269047Y-86342580D01*
X112269047Y-86342580D02*
X112364285Y-86342580D01*
X110983333Y-86342580D02*
X111554761Y-86342580D01*
X111269047Y-86342580D02*
X111269047Y-87342580D01*
X111269047Y-87342580D02*
X111364285Y-87199723D01*
X111364285Y-87199723D02*
X111459523Y-87104485D01*
X111459523Y-87104485D02*
X111554761Y-87056866D01*
D10*
X189057142Y-94179819D02*
X188723809Y-93703628D01*
X188485714Y-94179819D02*
X188485714Y-93179819D01*
X188485714Y-93179819D02*
X188866666Y-93179819D01*
X188866666Y-93179819D02*
X188961904Y-93227438D01*
X188961904Y-93227438D02*
X189009523Y-93275057D01*
X189009523Y-93275057D02*
X189057142Y-93370295D01*
X189057142Y-93370295D02*
X189057142Y-93513152D01*
X189057142Y-93513152D02*
X189009523Y-93608390D01*
X189009523Y-93608390D02*
X188961904Y-93656009D01*
X188961904Y-93656009D02*
X188866666Y-93703628D01*
X188866666Y-93703628D02*
X188485714Y-93703628D01*
X189438095Y-93275057D02*
X189485714Y-93227438D01*
X189485714Y-93227438D02*
X189580952Y-93179819D01*
X189580952Y-93179819D02*
X189819047Y-93179819D01*
X189819047Y-93179819D02*
X189914285Y-93227438D01*
X189914285Y-93227438D02*
X189961904Y-93275057D01*
X189961904Y-93275057D02*
X190009523Y-93370295D01*
X190009523Y-93370295D02*
X190009523Y-93465533D01*
X190009523Y-93465533D02*
X189961904Y-93608390D01*
X189961904Y-93608390D02*
X189390476Y-94179819D01*
X189390476Y-94179819D02*
X190009523Y-94179819D01*
X190866666Y-93179819D02*
X190676190Y-93179819D01*
X190676190Y-93179819D02*
X190580952Y-93227438D01*
X190580952Y-93227438D02*
X190533333Y-93275057D01*
X190533333Y-93275057D02*
X190438095Y-93417914D01*
X190438095Y-93417914D02*
X190390476Y-93608390D01*
X190390476Y-93608390D02*
X190390476Y-93989342D01*
X190390476Y-93989342D02*
X190438095Y-94084580D01*
X190438095Y-94084580D02*
X190485714Y-94132200D01*
X190485714Y-94132200D02*
X190580952Y-94179819D01*
X190580952Y-94179819D02*
X190771428Y-94179819D01*
X190771428Y-94179819D02*
X190866666Y-94132200D01*
X190866666Y-94132200D02*
X190914285Y-94084580D01*
X190914285Y-94084580D02*
X190961904Y-93989342D01*
X190961904Y-93989342D02*
X190961904Y-93751247D01*
X190961904Y-93751247D02*
X190914285Y-93656009D01*
X190914285Y-93656009D02*
X190866666Y-93608390D01*
X190866666Y-93608390D02*
X190771428Y-93560771D01*
X190771428Y-93560771D02*
X190580952Y-93560771D01*
X190580952Y-93560771D02*
X190485714Y-93608390D01*
X190485714Y-93608390D02*
X190438095Y-93656009D01*
X190438095Y-93656009D02*
X190390476Y-93751247D01*
X111729819Y-118547580D02*
X111253628Y-118880913D01*
X111729819Y-119119008D02*
X110729819Y-119119008D01*
X110729819Y-119119008D02*
X110729819Y-118738056D01*
X110729819Y-118738056D02*
X110777438Y-118642818D01*
X110777438Y-118642818D02*
X110825057Y-118595199D01*
X110825057Y-118595199D02*
X110920295Y-118547580D01*
X110920295Y-118547580D02*
X111063152Y-118547580D01*
X111063152Y-118547580D02*
X111158390Y-118595199D01*
X111158390Y-118595199D02*
X111206009Y-118642818D01*
X111206009Y-118642818D02*
X111253628Y-118738056D01*
X111253628Y-118738056D02*
X111253628Y-119119008D01*
X111729819Y-117595199D02*
X111729819Y-118166627D01*
X111729819Y-117880913D02*
X110729819Y-117880913D01*
X110729819Y-117880913D02*
X110872676Y-117976151D01*
X110872676Y-117976151D02*
X110967914Y-118071389D01*
X110967914Y-118071389D02*
X111015533Y-118166627D01*
X110729819Y-116976151D02*
X110729819Y-116880913D01*
X110729819Y-116880913D02*
X110777438Y-116785675D01*
X110777438Y-116785675D02*
X110825057Y-116738056D01*
X110825057Y-116738056D02*
X110920295Y-116690437D01*
X110920295Y-116690437D02*
X111110771Y-116642818D01*
X111110771Y-116642818D02*
X111348866Y-116642818D01*
X111348866Y-116642818D02*
X111539342Y-116690437D01*
X111539342Y-116690437D02*
X111634580Y-116738056D01*
X111634580Y-116738056D02*
X111682200Y-116785675D01*
X111682200Y-116785675D02*
X111729819Y-116880913D01*
X111729819Y-116880913D02*
X111729819Y-116976151D01*
X111729819Y-116976151D02*
X111682200Y-117071389D01*
X111682200Y-117071389D02*
X111634580Y-117119008D01*
X111634580Y-117119008D02*
X111539342Y-117166627D01*
X111539342Y-117166627D02*
X111348866Y-117214246D01*
X111348866Y-117214246D02*
X111110771Y-117214246D01*
X111110771Y-117214246D02*
X110920295Y-117166627D01*
X110920295Y-117166627D02*
X110825057Y-117119008D01*
X110825057Y-117119008D02*
X110777438Y-117071389D01*
X110777438Y-117071389D02*
X110729819Y-116976151D01*
X166454819Y-109460357D02*
X165978628Y-109793690D01*
X166454819Y-110031785D02*
X165454819Y-110031785D01*
X165454819Y-110031785D02*
X165454819Y-109650833D01*
X165454819Y-109650833D02*
X165502438Y-109555595D01*
X165502438Y-109555595D02*
X165550057Y-109507976D01*
X165550057Y-109507976D02*
X165645295Y-109460357D01*
X165645295Y-109460357D02*
X165788152Y-109460357D01*
X165788152Y-109460357D02*
X165883390Y-109507976D01*
X165883390Y-109507976D02*
X165931009Y-109555595D01*
X165931009Y-109555595D02*
X165978628Y-109650833D01*
X165978628Y-109650833D02*
X165978628Y-110031785D01*
X165454819Y-109127023D02*
X165454819Y-108507976D01*
X165454819Y-108507976D02*
X165835771Y-108841309D01*
X165835771Y-108841309D02*
X165835771Y-108698452D01*
X165835771Y-108698452D02*
X165883390Y-108603214D01*
X165883390Y-108603214D02*
X165931009Y-108555595D01*
X165931009Y-108555595D02*
X166026247Y-108507976D01*
X166026247Y-108507976D02*
X166264342Y-108507976D01*
X166264342Y-108507976D02*
X166359580Y-108555595D01*
X166359580Y-108555595D02*
X166407200Y-108603214D01*
X166407200Y-108603214D02*
X166454819Y-108698452D01*
X166454819Y-108698452D02*
X166454819Y-108984166D01*
X166454819Y-108984166D02*
X166407200Y-109079404D01*
X166407200Y-109079404D02*
X166359580Y-109127023D01*
X165883390Y-107936547D02*
X165835771Y-108031785D01*
X165835771Y-108031785D02*
X165788152Y-108079404D01*
X165788152Y-108079404D02*
X165692914Y-108127023D01*
X165692914Y-108127023D02*
X165645295Y-108127023D01*
X165645295Y-108127023D02*
X165550057Y-108079404D01*
X165550057Y-108079404D02*
X165502438Y-108031785D01*
X165502438Y-108031785D02*
X165454819Y-107936547D01*
X165454819Y-107936547D02*
X165454819Y-107746071D01*
X165454819Y-107746071D02*
X165502438Y-107650833D01*
X165502438Y-107650833D02*
X165550057Y-107603214D01*
X165550057Y-107603214D02*
X165645295Y-107555595D01*
X165645295Y-107555595D02*
X165692914Y-107555595D01*
X165692914Y-107555595D02*
X165788152Y-107603214D01*
X165788152Y-107603214D02*
X165835771Y-107650833D01*
X165835771Y-107650833D02*
X165883390Y-107746071D01*
X165883390Y-107746071D02*
X165883390Y-107936547D01*
X165883390Y-107936547D02*
X165931009Y-108031785D01*
X165931009Y-108031785D02*
X165978628Y-108079404D01*
X165978628Y-108079404D02*
X166073866Y-108127023D01*
X166073866Y-108127023D02*
X166264342Y-108127023D01*
X166264342Y-108127023D02*
X166359580Y-108079404D01*
X166359580Y-108079404D02*
X166407200Y-108031785D01*
X166407200Y-108031785D02*
X166454819Y-107936547D01*
X166454819Y-107936547D02*
X166454819Y-107746071D01*
X166454819Y-107746071D02*
X166407200Y-107650833D01*
X166407200Y-107650833D02*
X166359580Y-107603214D01*
X166359580Y-107603214D02*
X166264342Y-107555595D01*
X166264342Y-107555595D02*
X166073866Y-107555595D01*
X166073866Y-107555595D02*
X165978628Y-107603214D01*
X165978628Y-107603214D02*
X165931009Y-107650833D01*
X165931009Y-107650833D02*
X165883390Y-107746071D01*
X102338095Y-89404819D02*
X102338095Y-88404819D01*
X102338095Y-88881009D02*
X102909523Y-88881009D01*
X102909523Y-89404819D02*
X102909523Y-88404819D01*
X103909523Y-89404819D02*
X103338095Y-89404819D01*
X103623809Y-89404819D02*
X103623809Y-88404819D01*
X103623809Y-88404819D02*
X103528571Y-88547676D01*
X103528571Y-88547676D02*
X103433333Y-88642914D01*
X103433333Y-88642914D02*
X103338095Y-88690533D01*
X129654819Y-90738094D02*
X128654819Y-90738094D01*
X128654819Y-90738094D02*
X128654819Y-90499999D01*
X128654819Y-90499999D02*
X128702438Y-90357142D01*
X128702438Y-90357142D02*
X128797676Y-90261904D01*
X128797676Y-90261904D02*
X128892914Y-90214285D01*
X128892914Y-90214285D02*
X129083390Y-90166666D01*
X129083390Y-90166666D02*
X129226247Y-90166666D01*
X129226247Y-90166666D02*
X129416723Y-90214285D01*
X129416723Y-90214285D02*
X129511961Y-90261904D01*
X129511961Y-90261904D02*
X129607200Y-90357142D01*
X129607200Y-90357142D02*
X129654819Y-90499999D01*
X129654819Y-90499999D02*
X129654819Y-90738094D01*
X129654819Y-89214285D02*
X129654819Y-89785713D01*
X129654819Y-89499999D02*
X128654819Y-89499999D01*
X128654819Y-89499999D02*
X128797676Y-89595237D01*
X128797676Y-89595237D02*
X128892914Y-89690475D01*
X128892914Y-89690475D02*
X128940533Y-89785713D01*
X160964858Y-125676666D02*
X161012478Y-125724285D01*
X161012478Y-125724285D02*
X161060097Y-125867142D01*
X161060097Y-125867142D02*
X161060097Y-125962380D01*
X161060097Y-125962380D02*
X161012478Y-126105237D01*
X161012478Y-126105237D02*
X160917239Y-126200475D01*
X160917239Y-126200475D02*
X160822001Y-126248094D01*
X160822001Y-126248094D02*
X160631525Y-126295713D01*
X160631525Y-126295713D02*
X160488668Y-126295713D01*
X160488668Y-126295713D02*
X160298192Y-126248094D01*
X160298192Y-126248094D02*
X160202954Y-126200475D01*
X160202954Y-126200475D02*
X160107716Y-126105237D01*
X160107716Y-126105237D02*
X160060097Y-125962380D01*
X160060097Y-125962380D02*
X160060097Y-125867142D01*
X160060097Y-125867142D02*
X160107716Y-125724285D01*
X160107716Y-125724285D02*
X160155335Y-125676666D01*
X161060097Y-125200475D02*
X161060097Y-125009999D01*
X161060097Y-125009999D02*
X161012478Y-124914761D01*
X161012478Y-124914761D02*
X160964858Y-124867142D01*
X160964858Y-124867142D02*
X160822001Y-124771904D01*
X160822001Y-124771904D02*
X160631525Y-124724285D01*
X160631525Y-124724285D02*
X160250573Y-124724285D01*
X160250573Y-124724285D02*
X160155335Y-124771904D01*
X160155335Y-124771904D02*
X160107716Y-124819523D01*
X160107716Y-124819523D02*
X160060097Y-124914761D01*
X160060097Y-124914761D02*
X160060097Y-125105237D01*
X160060097Y-125105237D02*
X160107716Y-125200475D01*
X160107716Y-125200475D02*
X160155335Y-125248094D01*
X160155335Y-125248094D02*
X160250573Y-125295713D01*
X160250573Y-125295713D02*
X160488668Y-125295713D01*
X160488668Y-125295713D02*
X160583906Y-125248094D01*
X160583906Y-125248094D02*
X160631525Y-125200475D01*
X160631525Y-125200475D02*
X160679144Y-125105237D01*
X160679144Y-125105237D02*
X160679144Y-124914761D01*
X160679144Y-124914761D02*
X160631525Y-124819523D01*
X160631525Y-124819523D02*
X160583906Y-124771904D01*
X160583906Y-124771904D02*
X160488668Y-124724285D01*
X172950057Y-99895238D02*
X172902438Y-99990476D01*
X172902438Y-99990476D02*
X172807200Y-100085714D01*
X172807200Y-100085714D02*
X172664342Y-100228571D01*
X172664342Y-100228571D02*
X172616723Y-100323809D01*
X172616723Y-100323809D02*
X172616723Y-100419047D01*
X172854819Y-100371428D02*
X172807200Y-100466666D01*
X172807200Y-100466666D02*
X172711961Y-100561904D01*
X172711961Y-100561904D02*
X172521485Y-100609523D01*
X172521485Y-100609523D02*
X172188152Y-100609523D01*
X172188152Y-100609523D02*
X171997676Y-100561904D01*
X171997676Y-100561904D02*
X171902438Y-100466666D01*
X171902438Y-100466666D02*
X171854819Y-100371428D01*
X171854819Y-100371428D02*
X171854819Y-100180952D01*
X171854819Y-100180952D02*
X171902438Y-100085714D01*
X171902438Y-100085714D02*
X171997676Y-99990476D01*
X171997676Y-99990476D02*
X172188152Y-99942857D01*
X172188152Y-99942857D02*
X172521485Y-99942857D01*
X172521485Y-99942857D02*
X172711961Y-99990476D01*
X172711961Y-99990476D02*
X172807200Y-100085714D01*
X172807200Y-100085714D02*
X172854819Y-100180952D01*
X172854819Y-100180952D02*
X172854819Y-100371428D01*
X172854819Y-99466666D02*
X172854819Y-99276190D01*
X172854819Y-99276190D02*
X172807200Y-99180952D01*
X172807200Y-99180952D02*
X172759580Y-99133333D01*
X172759580Y-99133333D02*
X172616723Y-99038095D01*
X172616723Y-99038095D02*
X172426247Y-98990476D01*
X172426247Y-98990476D02*
X172045295Y-98990476D01*
X172045295Y-98990476D02*
X171950057Y-99038095D01*
X171950057Y-99038095D02*
X171902438Y-99085714D01*
X171902438Y-99085714D02*
X171854819Y-99180952D01*
X171854819Y-99180952D02*
X171854819Y-99371428D01*
X171854819Y-99371428D02*
X171902438Y-99466666D01*
X171902438Y-99466666D02*
X171950057Y-99514285D01*
X171950057Y-99514285D02*
X172045295Y-99561904D01*
X172045295Y-99561904D02*
X172283390Y-99561904D01*
X172283390Y-99561904D02*
X172378628Y-99514285D01*
X172378628Y-99514285D02*
X172426247Y-99466666D01*
X172426247Y-99466666D02*
X172473866Y-99371428D01*
X172473866Y-99371428D02*
X172473866Y-99180952D01*
X172473866Y-99180952D02*
X172426247Y-99085714D01*
X172426247Y-99085714D02*
X172378628Y-99038095D01*
X172378628Y-99038095D02*
X172283390Y-98990476D01*
X108957142Y-99554819D02*
X108623809Y-99078628D01*
X108385714Y-99554819D02*
X108385714Y-98554819D01*
X108385714Y-98554819D02*
X108766666Y-98554819D01*
X108766666Y-98554819D02*
X108861904Y-98602438D01*
X108861904Y-98602438D02*
X108909523Y-98650057D01*
X108909523Y-98650057D02*
X108957142Y-98745295D01*
X108957142Y-98745295D02*
X108957142Y-98888152D01*
X108957142Y-98888152D02*
X108909523Y-98983390D01*
X108909523Y-98983390D02*
X108861904Y-99031009D01*
X108861904Y-99031009D02*
X108766666Y-99078628D01*
X108766666Y-99078628D02*
X108385714Y-99078628D01*
X109338095Y-98650057D02*
X109385714Y-98602438D01*
X109385714Y-98602438D02*
X109480952Y-98554819D01*
X109480952Y-98554819D02*
X109719047Y-98554819D01*
X109719047Y-98554819D02*
X109814285Y-98602438D01*
X109814285Y-98602438D02*
X109861904Y-98650057D01*
X109861904Y-98650057D02*
X109909523Y-98745295D01*
X109909523Y-98745295D02*
X109909523Y-98840533D01*
X109909523Y-98840533D02*
X109861904Y-98983390D01*
X109861904Y-98983390D02*
X109290476Y-99554819D01*
X109290476Y-99554819D02*
X109909523Y-99554819D01*
X110814285Y-98554819D02*
X110338095Y-98554819D01*
X110338095Y-98554819D02*
X110290476Y-99031009D01*
X110290476Y-99031009D02*
X110338095Y-98983390D01*
X110338095Y-98983390D02*
X110433333Y-98935771D01*
X110433333Y-98935771D02*
X110671428Y-98935771D01*
X110671428Y-98935771D02*
X110766666Y-98983390D01*
X110766666Y-98983390D02*
X110814285Y-99031009D01*
X110814285Y-99031009D02*
X110861904Y-99126247D01*
X110861904Y-99126247D02*
X110861904Y-99364342D01*
X110861904Y-99364342D02*
X110814285Y-99459580D01*
X110814285Y-99459580D02*
X110766666Y-99507200D01*
X110766666Y-99507200D02*
X110671428Y-99554819D01*
X110671428Y-99554819D02*
X110433333Y-99554819D01*
X110433333Y-99554819D02*
X110338095Y-99507200D01*
X110338095Y-99507200D02*
X110290476Y-99459580D01*
X180254819Y-106000357D02*
X179778628Y-106333690D01*
X180254819Y-106571785D02*
X179254819Y-106571785D01*
X179254819Y-106571785D02*
X179254819Y-106190833D01*
X179254819Y-106190833D02*
X179302438Y-106095595D01*
X179302438Y-106095595D02*
X179350057Y-106047976D01*
X179350057Y-106047976D02*
X179445295Y-106000357D01*
X179445295Y-106000357D02*
X179588152Y-106000357D01*
X179588152Y-106000357D02*
X179683390Y-106047976D01*
X179683390Y-106047976D02*
X179731009Y-106095595D01*
X179731009Y-106095595D02*
X179778628Y-106190833D01*
X179778628Y-106190833D02*
X179778628Y-106571785D01*
X179254819Y-105667023D02*
X179254819Y-105047976D01*
X179254819Y-105047976D02*
X179635771Y-105381309D01*
X179635771Y-105381309D02*
X179635771Y-105238452D01*
X179635771Y-105238452D02*
X179683390Y-105143214D01*
X179683390Y-105143214D02*
X179731009Y-105095595D01*
X179731009Y-105095595D02*
X179826247Y-105047976D01*
X179826247Y-105047976D02*
X180064342Y-105047976D01*
X180064342Y-105047976D02*
X180159580Y-105095595D01*
X180159580Y-105095595D02*
X180207200Y-105143214D01*
X180207200Y-105143214D02*
X180254819Y-105238452D01*
X180254819Y-105238452D02*
X180254819Y-105524166D01*
X180254819Y-105524166D02*
X180207200Y-105619404D01*
X180207200Y-105619404D02*
X180159580Y-105667023D01*
X179254819Y-104714642D02*
X179254819Y-104047976D01*
X179254819Y-104047976D02*
X180254819Y-104476547D01*
X109929819Y-120271389D02*
X109453628Y-120604722D01*
X109929819Y-120842817D02*
X108929819Y-120842817D01*
X108929819Y-120842817D02*
X108929819Y-120461865D01*
X108929819Y-120461865D02*
X108977438Y-120366627D01*
X108977438Y-120366627D02*
X109025057Y-120319008D01*
X109025057Y-120319008D02*
X109120295Y-120271389D01*
X109120295Y-120271389D02*
X109263152Y-120271389D01*
X109263152Y-120271389D02*
X109358390Y-120319008D01*
X109358390Y-120319008D02*
X109406009Y-120366627D01*
X109406009Y-120366627D02*
X109453628Y-120461865D01*
X109453628Y-120461865D02*
X109453628Y-120842817D01*
X109929819Y-119795198D02*
X109929819Y-119604722D01*
X109929819Y-119604722D02*
X109882200Y-119509484D01*
X109882200Y-119509484D02*
X109834580Y-119461865D01*
X109834580Y-119461865D02*
X109691723Y-119366627D01*
X109691723Y-119366627D02*
X109501247Y-119319008D01*
X109501247Y-119319008D02*
X109120295Y-119319008D01*
X109120295Y-119319008D02*
X109025057Y-119366627D01*
X109025057Y-119366627D02*
X108977438Y-119414246D01*
X108977438Y-119414246D02*
X108929819Y-119509484D01*
X108929819Y-119509484D02*
X108929819Y-119699960D01*
X108929819Y-119699960D02*
X108977438Y-119795198D01*
X108977438Y-119795198D02*
X109025057Y-119842817D01*
X109025057Y-119842817D02*
X109120295Y-119890436D01*
X109120295Y-119890436D02*
X109358390Y-119890436D01*
X109358390Y-119890436D02*
X109453628Y-119842817D01*
X109453628Y-119842817D02*
X109501247Y-119795198D01*
X109501247Y-119795198D02*
X109548866Y-119699960D01*
X109548866Y-119699960D02*
X109548866Y-119509484D01*
X109548866Y-119509484D02*
X109501247Y-119414246D01*
X109501247Y-119414246D02*
X109453628Y-119366627D01*
X109453628Y-119366627D02*
X109358390Y-119319008D01*
X185111905Y-91679819D02*
X185111905Y-90679819D01*
X185111905Y-90679819D02*
X185350000Y-90679819D01*
X185350000Y-90679819D02*
X185492857Y-90727438D01*
X185492857Y-90727438D02*
X185588095Y-90822676D01*
X185588095Y-90822676D02*
X185635714Y-90917914D01*
X185635714Y-90917914D02*
X185683333Y-91108390D01*
X185683333Y-91108390D02*
X185683333Y-91251247D01*
X185683333Y-91251247D02*
X185635714Y-91441723D01*
X185635714Y-91441723D02*
X185588095Y-91536961D01*
X185588095Y-91536961D02*
X185492857Y-91632200D01*
X185492857Y-91632200D02*
X185350000Y-91679819D01*
X185350000Y-91679819D02*
X185111905Y-91679819D01*
X186254762Y-91108390D02*
X186159524Y-91060771D01*
X186159524Y-91060771D02*
X186111905Y-91013152D01*
X186111905Y-91013152D02*
X186064286Y-90917914D01*
X186064286Y-90917914D02*
X186064286Y-90870295D01*
X186064286Y-90870295D02*
X186111905Y-90775057D01*
X186111905Y-90775057D02*
X186159524Y-90727438D01*
X186159524Y-90727438D02*
X186254762Y-90679819D01*
X186254762Y-90679819D02*
X186445238Y-90679819D01*
X186445238Y-90679819D02*
X186540476Y-90727438D01*
X186540476Y-90727438D02*
X186588095Y-90775057D01*
X186588095Y-90775057D02*
X186635714Y-90870295D01*
X186635714Y-90870295D02*
X186635714Y-90917914D01*
X186635714Y-90917914D02*
X186588095Y-91013152D01*
X186588095Y-91013152D02*
X186540476Y-91060771D01*
X186540476Y-91060771D02*
X186445238Y-91108390D01*
X186445238Y-91108390D02*
X186254762Y-91108390D01*
X186254762Y-91108390D02*
X186159524Y-91156009D01*
X186159524Y-91156009D02*
X186111905Y-91203628D01*
X186111905Y-91203628D02*
X186064286Y-91298866D01*
X186064286Y-91298866D02*
X186064286Y-91489342D01*
X186064286Y-91489342D02*
X186111905Y-91584580D01*
X186111905Y-91584580D02*
X186159524Y-91632200D01*
X186159524Y-91632200D02*
X186254762Y-91679819D01*
X186254762Y-91679819D02*
X186445238Y-91679819D01*
X186445238Y-91679819D02*
X186540476Y-91632200D01*
X186540476Y-91632200D02*
X186588095Y-91584580D01*
X186588095Y-91584580D02*
X186635714Y-91489342D01*
X186635714Y-91489342D02*
X186635714Y-91298866D01*
X186635714Y-91298866D02*
X186588095Y-91203628D01*
X186588095Y-91203628D02*
X186540476Y-91156009D01*
X186540476Y-91156009D02*
X186445238Y-91108390D01*
X108854819Y-111542857D02*
X108378628Y-111876190D01*
X108854819Y-112114285D02*
X107854819Y-112114285D01*
X107854819Y-112114285D02*
X107854819Y-111733333D01*
X107854819Y-111733333D02*
X107902438Y-111638095D01*
X107902438Y-111638095D02*
X107950057Y-111590476D01*
X107950057Y-111590476D02*
X108045295Y-111542857D01*
X108045295Y-111542857D02*
X108188152Y-111542857D01*
X108188152Y-111542857D02*
X108283390Y-111590476D01*
X108283390Y-111590476D02*
X108331009Y-111638095D01*
X108331009Y-111638095D02*
X108378628Y-111733333D01*
X108378628Y-111733333D02*
X108378628Y-112114285D01*
X107950057Y-111161904D02*
X107902438Y-111114285D01*
X107902438Y-111114285D02*
X107854819Y-111019047D01*
X107854819Y-111019047D02*
X107854819Y-110780952D01*
X107854819Y-110780952D02*
X107902438Y-110685714D01*
X107902438Y-110685714D02*
X107950057Y-110638095D01*
X107950057Y-110638095D02*
X108045295Y-110590476D01*
X108045295Y-110590476D02*
X108140533Y-110590476D01*
X108140533Y-110590476D02*
X108283390Y-110638095D01*
X108283390Y-110638095D02*
X108854819Y-111209523D01*
X108854819Y-111209523D02*
X108854819Y-110590476D01*
X107854819Y-110257142D02*
X107854819Y-109638095D01*
X107854819Y-109638095D02*
X108235771Y-109971428D01*
X108235771Y-109971428D02*
X108235771Y-109828571D01*
X108235771Y-109828571D02*
X108283390Y-109733333D01*
X108283390Y-109733333D02*
X108331009Y-109685714D01*
X108331009Y-109685714D02*
X108426247Y-109638095D01*
X108426247Y-109638095D02*
X108664342Y-109638095D01*
X108664342Y-109638095D02*
X108759580Y-109685714D01*
X108759580Y-109685714D02*
X108807200Y-109733333D01*
X108807200Y-109733333D02*
X108854819Y-109828571D01*
X108854819Y-109828571D02*
X108854819Y-110114285D01*
X108854819Y-110114285D02*
X108807200Y-110209523D01*
X108807200Y-110209523D02*
X108759580Y-110257142D01*
X165953333Y-129109580D02*
X165905714Y-129157200D01*
X165905714Y-129157200D02*
X165762857Y-129204819D01*
X165762857Y-129204819D02*
X165667619Y-129204819D01*
X165667619Y-129204819D02*
X165524762Y-129157200D01*
X165524762Y-129157200D02*
X165429524Y-129061961D01*
X165429524Y-129061961D02*
X165381905Y-128966723D01*
X165381905Y-128966723D02*
X165334286Y-128776247D01*
X165334286Y-128776247D02*
X165334286Y-128633390D01*
X165334286Y-128633390D02*
X165381905Y-128442914D01*
X165381905Y-128442914D02*
X165429524Y-128347676D01*
X165429524Y-128347676D02*
X165524762Y-128252438D01*
X165524762Y-128252438D02*
X165667619Y-128204819D01*
X165667619Y-128204819D02*
X165762857Y-128204819D01*
X165762857Y-128204819D02*
X165905714Y-128252438D01*
X165905714Y-128252438D02*
X165953333Y-128300057D01*
X166524762Y-128633390D02*
X166429524Y-128585771D01*
X166429524Y-128585771D02*
X166381905Y-128538152D01*
X166381905Y-128538152D02*
X166334286Y-128442914D01*
X166334286Y-128442914D02*
X166334286Y-128395295D01*
X166334286Y-128395295D02*
X166381905Y-128300057D01*
X166381905Y-128300057D02*
X166429524Y-128252438D01*
X166429524Y-128252438D02*
X166524762Y-128204819D01*
X166524762Y-128204819D02*
X166715238Y-128204819D01*
X166715238Y-128204819D02*
X166810476Y-128252438D01*
X166810476Y-128252438D02*
X166858095Y-128300057D01*
X166858095Y-128300057D02*
X166905714Y-128395295D01*
X166905714Y-128395295D02*
X166905714Y-128442914D01*
X166905714Y-128442914D02*
X166858095Y-128538152D01*
X166858095Y-128538152D02*
X166810476Y-128585771D01*
X166810476Y-128585771D02*
X166715238Y-128633390D01*
X166715238Y-128633390D02*
X166524762Y-128633390D01*
X166524762Y-128633390D02*
X166429524Y-128681009D01*
X166429524Y-128681009D02*
X166381905Y-128728628D01*
X166381905Y-128728628D02*
X166334286Y-128823866D01*
X166334286Y-128823866D02*
X166334286Y-129014342D01*
X166334286Y-129014342D02*
X166381905Y-129109580D01*
X166381905Y-129109580D02*
X166429524Y-129157200D01*
X166429524Y-129157200D02*
X166524762Y-129204819D01*
X166524762Y-129204819D02*
X166715238Y-129204819D01*
X166715238Y-129204819D02*
X166810476Y-129157200D01*
X166810476Y-129157200D02*
X166858095Y-129109580D01*
X166858095Y-129109580D02*
X166905714Y-129014342D01*
X166905714Y-129014342D02*
X166905714Y-128823866D01*
X166905714Y-128823866D02*
X166858095Y-128728628D01*
X166858095Y-128728628D02*
X166810476Y-128681009D01*
X166810476Y-128681009D02*
X166715238Y-128633390D01*
X163654819Y-120133333D02*
X164369104Y-120133333D01*
X164369104Y-120133333D02*
X164511961Y-120180952D01*
X164511961Y-120180952D02*
X164607200Y-120276190D01*
X164607200Y-120276190D02*
X164654819Y-120419047D01*
X164654819Y-120419047D02*
X164654819Y-120514285D01*
X163654819Y-119228571D02*
X163654819Y-119419047D01*
X163654819Y-119419047D02*
X163702438Y-119514285D01*
X163702438Y-119514285D02*
X163750057Y-119561904D01*
X163750057Y-119561904D02*
X163892914Y-119657142D01*
X163892914Y-119657142D02*
X164083390Y-119704761D01*
X164083390Y-119704761D02*
X164464342Y-119704761D01*
X164464342Y-119704761D02*
X164559580Y-119657142D01*
X164559580Y-119657142D02*
X164607200Y-119609523D01*
X164607200Y-119609523D02*
X164654819Y-119514285D01*
X164654819Y-119514285D02*
X164654819Y-119323809D01*
X164654819Y-119323809D02*
X164607200Y-119228571D01*
X164607200Y-119228571D02*
X164559580Y-119180952D01*
X164559580Y-119180952D02*
X164464342Y-119133333D01*
X164464342Y-119133333D02*
X164226247Y-119133333D01*
X164226247Y-119133333D02*
X164131009Y-119180952D01*
X164131009Y-119180952D02*
X164083390Y-119228571D01*
X164083390Y-119228571D02*
X164035771Y-119323809D01*
X164035771Y-119323809D02*
X164035771Y-119514285D01*
X164035771Y-119514285D02*
X164083390Y-119609523D01*
X164083390Y-119609523D02*
X164131009Y-119657142D01*
X164131009Y-119657142D02*
X164226247Y-119704761D01*
X140040097Y-133122857D02*
X139563906Y-133456190D01*
X140040097Y-133694285D02*
X139040097Y-133694285D01*
X139040097Y-133694285D02*
X139040097Y-133313333D01*
X139040097Y-133313333D02*
X139087716Y-133218095D01*
X139087716Y-133218095D02*
X139135335Y-133170476D01*
X139135335Y-133170476D02*
X139230573Y-133122857D01*
X139230573Y-133122857D02*
X139373430Y-133122857D01*
X139373430Y-133122857D02*
X139468668Y-133170476D01*
X139468668Y-133170476D02*
X139516287Y-133218095D01*
X139516287Y-133218095D02*
X139563906Y-133313333D01*
X139563906Y-133313333D02*
X139563906Y-133694285D01*
X139135335Y-132741904D02*
X139087716Y-132694285D01*
X139087716Y-132694285D02*
X139040097Y-132599047D01*
X139040097Y-132599047D02*
X139040097Y-132360952D01*
X139040097Y-132360952D02*
X139087716Y-132265714D01*
X139087716Y-132265714D02*
X139135335Y-132218095D01*
X139135335Y-132218095D02*
X139230573Y-132170476D01*
X139230573Y-132170476D02*
X139325811Y-132170476D01*
X139325811Y-132170476D02*
X139468668Y-132218095D01*
X139468668Y-132218095D02*
X140040097Y-132789523D01*
X140040097Y-132789523D02*
X140040097Y-132170476D01*
X139040097Y-131837142D02*
X139040097Y-131170476D01*
X139040097Y-131170476D02*
X140040097Y-131599047D01*
X162124819Y-134161904D02*
X162934342Y-134161904D01*
X162934342Y-134161904D02*
X163029580Y-134114285D01*
X163029580Y-134114285D02*
X163077200Y-134066666D01*
X163077200Y-134066666D02*
X163124819Y-133971428D01*
X163124819Y-133971428D02*
X163124819Y-133780952D01*
X163124819Y-133780952D02*
X163077200Y-133685714D01*
X163077200Y-133685714D02*
X163029580Y-133638095D01*
X163029580Y-133638095D02*
X162934342Y-133590476D01*
X162934342Y-133590476D02*
X162124819Y-133590476D01*
X162124819Y-133209523D02*
X162124819Y-132590476D01*
X162124819Y-132590476D02*
X162505771Y-132923809D01*
X162505771Y-132923809D02*
X162505771Y-132780952D01*
X162505771Y-132780952D02*
X162553390Y-132685714D01*
X162553390Y-132685714D02*
X162601009Y-132638095D01*
X162601009Y-132638095D02*
X162696247Y-132590476D01*
X162696247Y-132590476D02*
X162934342Y-132590476D01*
X162934342Y-132590476D02*
X163029580Y-132638095D01*
X163029580Y-132638095D02*
X163077200Y-132685714D01*
X163077200Y-132685714D02*
X163124819Y-132780952D01*
X163124819Y-132780952D02*
X163124819Y-133066666D01*
X163124819Y-133066666D02*
X163077200Y-133161904D01*
X163077200Y-133161904D02*
X163029580Y-133209523D01*
X113229819Y-124747580D02*
X112753628Y-125080913D01*
X113229819Y-125319008D02*
X112229819Y-125319008D01*
X112229819Y-125319008D02*
X112229819Y-124938056D01*
X112229819Y-124938056D02*
X112277438Y-124842818D01*
X112277438Y-124842818D02*
X112325057Y-124795199D01*
X112325057Y-124795199D02*
X112420295Y-124747580D01*
X112420295Y-124747580D02*
X112563152Y-124747580D01*
X112563152Y-124747580D02*
X112658390Y-124795199D01*
X112658390Y-124795199D02*
X112706009Y-124842818D01*
X112706009Y-124842818D02*
X112753628Y-124938056D01*
X112753628Y-124938056D02*
X112753628Y-125319008D01*
X113229819Y-123795199D02*
X113229819Y-124366627D01*
X113229819Y-124080913D02*
X112229819Y-124080913D01*
X112229819Y-124080913D02*
X112372676Y-124176151D01*
X112372676Y-124176151D02*
X112467914Y-124271389D01*
X112467914Y-124271389D02*
X112515533Y-124366627D01*
X112229819Y-122890437D02*
X112229819Y-123366627D01*
X112229819Y-123366627D02*
X112706009Y-123414246D01*
X112706009Y-123414246D02*
X112658390Y-123366627D01*
X112658390Y-123366627D02*
X112610771Y-123271389D01*
X112610771Y-123271389D02*
X112610771Y-123033294D01*
X112610771Y-123033294D02*
X112658390Y-122938056D01*
X112658390Y-122938056D02*
X112706009Y-122890437D01*
X112706009Y-122890437D02*
X112801247Y-122842818D01*
X112801247Y-122842818D02*
X113039342Y-122842818D01*
X113039342Y-122842818D02*
X113134580Y-122890437D01*
X113134580Y-122890437D02*
X113182200Y-122938056D01*
X113182200Y-122938056D02*
X113229819Y-123033294D01*
X113229819Y-123033294D02*
X113229819Y-123271389D01*
X113229819Y-123271389D02*
X113182200Y-123366627D01*
X113182200Y-123366627D02*
X113134580Y-123414246D01*
X186013095Y-110704819D02*
X186013095Y-109704819D01*
X186013095Y-110181009D02*
X186584523Y-110181009D01*
X186584523Y-110704819D02*
X186584523Y-109704819D01*
X186965476Y-109704819D02*
X187584523Y-109704819D01*
X187584523Y-109704819D02*
X187251190Y-110085771D01*
X187251190Y-110085771D02*
X187394047Y-110085771D01*
X187394047Y-110085771D02*
X187489285Y-110133390D01*
X187489285Y-110133390D02*
X187536904Y-110181009D01*
X187536904Y-110181009D02*
X187584523Y-110276247D01*
X187584523Y-110276247D02*
X187584523Y-110514342D01*
X187584523Y-110514342D02*
X187536904Y-110609580D01*
X187536904Y-110609580D02*
X187489285Y-110657200D01*
X187489285Y-110657200D02*
X187394047Y-110704819D01*
X187394047Y-110704819D02*
X187108333Y-110704819D01*
X187108333Y-110704819D02*
X187013095Y-110657200D01*
X187013095Y-110657200D02*
X186965476Y-110609580D01*
X178957142Y-94154819D02*
X178623809Y-93678628D01*
X178385714Y-94154819D02*
X178385714Y-93154819D01*
X178385714Y-93154819D02*
X178766666Y-93154819D01*
X178766666Y-93154819D02*
X178861904Y-93202438D01*
X178861904Y-93202438D02*
X178909523Y-93250057D01*
X178909523Y-93250057D02*
X178957142Y-93345295D01*
X178957142Y-93345295D02*
X178957142Y-93488152D01*
X178957142Y-93488152D02*
X178909523Y-93583390D01*
X178909523Y-93583390D02*
X178861904Y-93631009D01*
X178861904Y-93631009D02*
X178766666Y-93678628D01*
X178766666Y-93678628D02*
X178385714Y-93678628D01*
X179338095Y-93250057D02*
X179385714Y-93202438D01*
X179385714Y-93202438D02*
X179480952Y-93154819D01*
X179480952Y-93154819D02*
X179719047Y-93154819D01*
X179719047Y-93154819D02*
X179814285Y-93202438D01*
X179814285Y-93202438D02*
X179861904Y-93250057D01*
X179861904Y-93250057D02*
X179909523Y-93345295D01*
X179909523Y-93345295D02*
X179909523Y-93440533D01*
X179909523Y-93440533D02*
X179861904Y-93583390D01*
X179861904Y-93583390D02*
X179290476Y-94154819D01*
X179290476Y-94154819D02*
X179909523Y-94154819D01*
X180766666Y-93488152D02*
X180766666Y-94154819D01*
X180528571Y-93107200D02*
X180290476Y-93821485D01*
X180290476Y-93821485D02*
X180909523Y-93821485D01*
X136759580Y-96566666D02*
X136807200Y-96614285D01*
X136807200Y-96614285D02*
X136854819Y-96757142D01*
X136854819Y-96757142D02*
X136854819Y-96852380D01*
X136854819Y-96852380D02*
X136807200Y-96995237D01*
X136807200Y-96995237D02*
X136711961Y-97090475D01*
X136711961Y-97090475D02*
X136616723Y-97138094D01*
X136616723Y-97138094D02*
X136426247Y-97185713D01*
X136426247Y-97185713D02*
X136283390Y-97185713D01*
X136283390Y-97185713D02*
X136092914Y-97138094D01*
X136092914Y-97138094D02*
X135997676Y-97090475D01*
X135997676Y-97090475D02*
X135902438Y-96995237D01*
X135902438Y-96995237D02*
X135854819Y-96852380D01*
X135854819Y-96852380D02*
X135854819Y-96757142D01*
X135854819Y-96757142D02*
X135902438Y-96614285D01*
X135902438Y-96614285D02*
X135950057Y-96566666D01*
X135854819Y-96233332D02*
X135854819Y-95614285D01*
X135854819Y-95614285D02*
X136235771Y-95947618D01*
X136235771Y-95947618D02*
X136235771Y-95804761D01*
X136235771Y-95804761D02*
X136283390Y-95709523D01*
X136283390Y-95709523D02*
X136331009Y-95661904D01*
X136331009Y-95661904D02*
X136426247Y-95614285D01*
X136426247Y-95614285D02*
X136664342Y-95614285D01*
X136664342Y-95614285D02*
X136759580Y-95661904D01*
X136759580Y-95661904D02*
X136807200Y-95709523D01*
X136807200Y-95709523D02*
X136854819Y-95804761D01*
X136854819Y-95804761D02*
X136854819Y-96090475D01*
X136854819Y-96090475D02*
X136807200Y-96185713D01*
X136807200Y-96185713D02*
X136759580Y-96233332D01*
X166604819Y-105840357D02*
X166128628Y-106173690D01*
X166604819Y-106411785D02*
X165604819Y-106411785D01*
X165604819Y-106411785D02*
X165604819Y-106030833D01*
X165604819Y-106030833D02*
X165652438Y-105935595D01*
X165652438Y-105935595D02*
X165700057Y-105887976D01*
X165700057Y-105887976D02*
X165795295Y-105840357D01*
X165795295Y-105840357D02*
X165938152Y-105840357D01*
X165938152Y-105840357D02*
X166033390Y-105887976D01*
X166033390Y-105887976D02*
X166081009Y-105935595D01*
X166081009Y-105935595D02*
X166128628Y-106030833D01*
X166128628Y-106030833D02*
X166128628Y-106411785D01*
X165604819Y-105507023D02*
X165604819Y-104887976D01*
X165604819Y-104887976D02*
X165985771Y-105221309D01*
X165985771Y-105221309D02*
X165985771Y-105078452D01*
X165985771Y-105078452D02*
X166033390Y-104983214D01*
X166033390Y-104983214D02*
X166081009Y-104935595D01*
X166081009Y-104935595D02*
X166176247Y-104887976D01*
X166176247Y-104887976D02*
X166414342Y-104887976D01*
X166414342Y-104887976D02*
X166509580Y-104935595D01*
X166509580Y-104935595D02*
X166557200Y-104983214D01*
X166557200Y-104983214D02*
X166604819Y-105078452D01*
X166604819Y-105078452D02*
X166604819Y-105364166D01*
X166604819Y-105364166D02*
X166557200Y-105459404D01*
X166557200Y-105459404D02*
X166509580Y-105507023D01*
X166604819Y-104411785D02*
X166604819Y-104221309D01*
X166604819Y-104221309D02*
X166557200Y-104126071D01*
X166557200Y-104126071D02*
X166509580Y-104078452D01*
X166509580Y-104078452D02*
X166366723Y-103983214D01*
X166366723Y-103983214D02*
X166176247Y-103935595D01*
X166176247Y-103935595D02*
X165795295Y-103935595D01*
X165795295Y-103935595D02*
X165700057Y-103983214D01*
X165700057Y-103983214D02*
X165652438Y-104030833D01*
X165652438Y-104030833D02*
X165604819Y-104126071D01*
X165604819Y-104126071D02*
X165604819Y-104316547D01*
X165604819Y-104316547D02*
X165652438Y-104411785D01*
X165652438Y-104411785D02*
X165700057Y-104459404D01*
X165700057Y-104459404D02*
X165795295Y-104507023D01*
X165795295Y-104507023D02*
X166033390Y-104507023D01*
X166033390Y-104507023D02*
X166128628Y-104459404D01*
X166128628Y-104459404D02*
X166176247Y-104411785D01*
X166176247Y-104411785D02*
X166223866Y-104316547D01*
X166223866Y-104316547D02*
X166223866Y-104126071D01*
X166223866Y-104126071D02*
X166176247Y-104030833D01*
X166176247Y-104030833D02*
X166128628Y-103983214D01*
X166128628Y-103983214D02*
X166033390Y-103935595D01*
X117559580Y-95316666D02*
X117607200Y-95364285D01*
X117607200Y-95364285D02*
X117654819Y-95507142D01*
X117654819Y-95507142D02*
X117654819Y-95602380D01*
X117654819Y-95602380D02*
X117607200Y-95745237D01*
X117607200Y-95745237D02*
X117511961Y-95840475D01*
X117511961Y-95840475D02*
X117416723Y-95888094D01*
X117416723Y-95888094D02*
X117226247Y-95935713D01*
X117226247Y-95935713D02*
X117083390Y-95935713D01*
X117083390Y-95935713D02*
X116892914Y-95888094D01*
X116892914Y-95888094D02*
X116797676Y-95840475D01*
X116797676Y-95840475D02*
X116702438Y-95745237D01*
X116702438Y-95745237D02*
X116654819Y-95602380D01*
X116654819Y-95602380D02*
X116654819Y-95507142D01*
X116654819Y-95507142D02*
X116702438Y-95364285D01*
X116702438Y-95364285D02*
X116750057Y-95316666D01*
X117654819Y-94364285D02*
X117654819Y-94935713D01*
X117654819Y-94649999D02*
X116654819Y-94649999D01*
X116654819Y-94649999D02*
X116797676Y-94745237D01*
X116797676Y-94745237D02*
X116892914Y-94840475D01*
X116892914Y-94840475D02*
X116940533Y-94935713D01*
X119238095Y-85714819D02*
X119238095Y-86524342D01*
X119238095Y-86524342D02*
X119285714Y-86619580D01*
X119285714Y-86619580D02*
X119333333Y-86667200D01*
X119333333Y-86667200D02*
X119428571Y-86714819D01*
X119428571Y-86714819D02*
X119619047Y-86714819D01*
X119619047Y-86714819D02*
X119714285Y-86667200D01*
X119714285Y-86667200D02*
X119761904Y-86619580D01*
X119761904Y-86619580D02*
X119809523Y-86524342D01*
X119809523Y-86524342D02*
X119809523Y-85714819D01*
X120809523Y-86714819D02*
X120238095Y-86714819D01*
X120523809Y-86714819D02*
X120523809Y-85714819D01*
X120523809Y-85714819D02*
X120428571Y-85857676D01*
X120428571Y-85857676D02*
X120333333Y-85952914D01*
X120333333Y-85952914D02*
X120238095Y-86000533D01*
X126583333Y-86109580D02*
X126535714Y-86157200D01*
X126535714Y-86157200D02*
X126392857Y-86204819D01*
X126392857Y-86204819D02*
X126297619Y-86204819D01*
X126297619Y-86204819D02*
X126154762Y-86157200D01*
X126154762Y-86157200D02*
X126059524Y-86061961D01*
X126059524Y-86061961D02*
X126011905Y-85966723D01*
X126011905Y-85966723D02*
X125964286Y-85776247D01*
X125964286Y-85776247D02*
X125964286Y-85633390D01*
X125964286Y-85633390D02*
X126011905Y-85442914D01*
X126011905Y-85442914D02*
X126059524Y-85347676D01*
X126059524Y-85347676D02*
X126154762Y-85252438D01*
X126154762Y-85252438D02*
X126297619Y-85204819D01*
X126297619Y-85204819D02*
X126392857Y-85204819D01*
X126392857Y-85204819D02*
X126535714Y-85252438D01*
X126535714Y-85252438D02*
X126583333Y-85300057D01*
X126964286Y-85300057D02*
X127011905Y-85252438D01*
X127011905Y-85252438D02*
X127107143Y-85204819D01*
X127107143Y-85204819D02*
X127345238Y-85204819D01*
X127345238Y-85204819D02*
X127440476Y-85252438D01*
X127440476Y-85252438D02*
X127488095Y-85300057D01*
X127488095Y-85300057D02*
X127535714Y-85395295D01*
X127535714Y-85395295D02*
X127535714Y-85490533D01*
X127535714Y-85490533D02*
X127488095Y-85633390D01*
X127488095Y-85633390D02*
X126916667Y-86204819D01*
X126916667Y-86204819D02*
X127535714Y-86204819D01*
X180659580Y-112442857D02*
X180707200Y-112490476D01*
X180707200Y-112490476D02*
X180754819Y-112633333D01*
X180754819Y-112633333D02*
X180754819Y-112728571D01*
X180754819Y-112728571D02*
X180707200Y-112871428D01*
X180707200Y-112871428D02*
X180611961Y-112966666D01*
X180611961Y-112966666D02*
X180516723Y-113014285D01*
X180516723Y-113014285D02*
X180326247Y-113061904D01*
X180326247Y-113061904D02*
X180183390Y-113061904D01*
X180183390Y-113061904D02*
X179992914Y-113014285D01*
X179992914Y-113014285D02*
X179897676Y-112966666D01*
X179897676Y-112966666D02*
X179802438Y-112871428D01*
X179802438Y-112871428D02*
X179754819Y-112728571D01*
X179754819Y-112728571D02*
X179754819Y-112633333D01*
X179754819Y-112633333D02*
X179802438Y-112490476D01*
X179802438Y-112490476D02*
X179850057Y-112442857D01*
X180754819Y-111490476D02*
X180754819Y-112061904D01*
X180754819Y-111776190D02*
X179754819Y-111776190D01*
X179754819Y-111776190D02*
X179897676Y-111871428D01*
X179897676Y-111871428D02*
X179992914Y-111966666D01*
X179992914Y-111966666D02*
X180040533Y-112061904D01*
X179850057Y-111109523D02*
X179802438Y-111061904D01*
X179802438Y-111061904D02*
X179754819Y-110966666D01*
X179754819Y-110966666D02*
X179754819Y-110728571D01*
X179754819Y-110728571D02*
X179802438Y-110633333D01*
X179802438Y-110633333D02*
X179850057Y-110585714D01*
X179850057Y-110585714D02*
X179945295Y-110538095D01*
X179945295Y-110538095D02*
X180040533Y-110538095D01*
X180040533Y-110538095D02*
X180183390Y-110585714D01*
X180183390Y-110585714D02*
X180754819Y-111157142D01*
X180754819Y-111157142D02*
X180754819Y-110538095D01*
X147253095Y-80424819D02*
X147253095Y-81234342D01*
X147253095Y-81234342D02*
X147300714Y-81329580D01*
X147300714Y-81329580D02*
X147348333Y-81377200D01*
X147348333Y-81377200D02*
X147443571Y-81424819D01*
X147443571Y-81424819D02*
X147634047Y-81424819D01*
X147634047Y-81424819D02*
X147729285Y-81377200D01*
X147729285Y-81377200D02*
X147776904Y-81329580D01*
X147776904Y-81329580D02*
X147824523Y-81234342D01*
X147824523Y-81234342D02*
X147824523Y-80424819D01*
X148253095Y-80520057D02*
X148300714Y-80472438D01*
X148300714Y-80472438D02*
X148395952Y-80424819D01*
X148395952Y-80424819D02*
X148634047Y-80424819D01*
X148634047Y-80424819D02*
X148729285Y-80472438D01*
X148729285Y-80472438D02*
X148776904Y-80520057D01*
X148776904Y-80520057D02*
X148824523Y-80615295D01*
X148824523Y-80615295D02*
X148824523Y-80710533D01*
X148824523Y-80710533D02*
X148776904Y-80853390D01*
X148776904Y-80853390D02*
X148205476Y-81424819D01*
X148205476Y-81424819D02*
X148824523Y-81424819D01*
X143253094Y-85439104D02*
X143729284Y-85439104D01*
X143157856Y-85724819D02*
X143491189Y-84724819D01*
X143491189Y-84724819D02*
X143824522Y-85724819D01*
X144157856Y-85058152D02*
X144157856Y-85724819D01*
X144157856Y-85153390D02*
X144205475Y-85105771D01*
X144205475Y-85105771D02*
X144300713Y-85058152D01*
X144300713Y-85058152D02*
X144443570Y-85058152D01*
X144443570Y-85058152D02*
X144538808Y-85105771D01*
X144538808Y-85105771D02*
X144586427Y-85201009D01*
X144586427Y-85201009D02*
X144586427Y-85724819D01*
X144919761Y-85058152D02*
X145300713Y-85058152D01*
X145062618Y-84724819D02*
X145062618Y-85581961D01*
X145062618Y-85581961D02*
X145110237Y-85677200D01*
X145110237Y-85677200D02*
X145205475Y-85724819D01*
X145205475Y-85724819D02*
X145300713Y-85724819D01*
X146014999Y-85677200D02*
X145919761Y-85724819D01*
X145919761Y-85724819D02*
X145729285Y-85724819D01*
X145729285Y-85724819D02*
X145634047Y-85677200D01*
X145634047Y-85677200D02*
X145586428Y-85581961D01*
X145586428Y-85581961D02*
X145586428Y-85201009D01*
X145586428Y-85201009D02*
X145634047Y-85105771D01*
X145634047Y-85105771D02*
X145729285Y-85058152D01*
X145729285Y-85058152D02*
X145919761Y-85058152D01*
X145919761Y-85058152D02*
X146014999Y-85105771D01*
X146014999Y-85105771D02*
X146062618Y-85201009D01*
X146062618Y-85201009D02*
X146062618Y-85296247D01*
X146062618Y-85296247D02*
X145586428Y-85391485D01*
X146491190Y-85058152D02*
X146491190Y-85724819D01*
X146491190Y-85153390D02*
X146538809Y-85105771D01*
X146538809Y-85105771D02*
X146634047Y-85058152D01*
X146634047Y-85058152D02*
X146776904Y-85058152D01*
X146776904Y-85058152D02*
X146872142Y-85105771D01*
X146872142Y-85105771D02*
X146919761Y-85201009D01*
X146919761Y-85201009D02*
X146919761Y-85724819D01*
X147395952Y-85058152D02*
X147395952Y-85724819D01*
X147395952Y-85153390D02*
X147443571Y-85105771D01*
X147443571Y-85105771D02*
X147538809Y-85058152D01*
X147538809Y-85058152D02*
X147681666Y-85058152D01*
X147681666Y-85058152D02*
X147776904Y-85105771D01*
X147776904Y-85105771D02*
X147824523Y-85201009D01*
X147824523Y-85201009D02*
X147824523Y-85724819D01*
X148729285Y-85724819D02*
X148729285Y-85201009D01*
X148729285Y-85201009D02*
X148681666Y-85105771D01*
X148681666Y-85105771D02*
X148586428Y-85058152D01*
X148586428Y-85058152D02*
X148395952Y-85058152D01*
X148395952Y-85058152D02*
X148300714Y-85105771D01*
X148729285Y-85677200D02*
X148634047Y-85724819D01*
X148634047Y-85724819D02*
X148395952Y-85724819D01*
X148395952Y-85724819D02*
X148300714Y-85677200D01*
X148300714Y-85677200D02*
X148253095Y-85581961D01*
X148253095Y-85581961D02*
X148253095Y-85486723D01*
X148253095Y-85486723D02*
X148300714Y-85391485D01*
X148300714Y-85391485D02*
X148395952Y-85343866D01*
X148395952Y-85343866D02*
X148634047Y-85343866D01*
X148634047Y-85343866D02*
X148729285Y-85296247D01*
X149919762Y-85439104D02*
X150395952Y-85439104D01*
X149824524Y-85724819D02*
X150157857Y-84724819D01*
X150157857Y-84724819D02*
X150491190Y-85724819D01*
X150824524Y-85724819D02*
X150824524Y-85058152D01*
X150824524Y-85248628D02*
X150872143Y-85153390D01*
X150872143Y-85153390D02*
X150919762Y-85105771D01*
X150919762Y-85105771D02*
X151015000Y-85058152D01*
X151015000Y-85058152D02*
X151110238Y-85058152D01*
X151824524Y-85677200D02*
X151729286Y-85724819D01*
X151729286Y-85724819D02*
X151538810Y-85724819D01*
X151538810Y-85724819D02*
X151443572Y-85677200D01*
X151443572Y-85677200D02*
X151395953Y-85581961D01*
X151395953Y-85581961D02*
X151395953Y-85201009D01*
X151395953Y-85201009D02*
X151443572Y-85105771D01*
X151443572Y-85105771D02*
X151538810Y-85058152D01*
X151538810Y-85058152D02*
X151729286Y-85058152D01*
X151729286Y-85058152D02*
X151824524Y-85105771D01*
X151824524Y-85105771D02*
X151872143Y-85201009D01*
X151872143Y-85201009D02*
X151872143Y-85296247D01*
X151872143Y-85296247D02*
X151395953Y-85391485D01*
X152729286Y-85724819D02*
X152729286Y-85201009D01*
X152729286Y-85201009D02*
X152681667Y-85105771D01*
X152681667Y-85105771D02*
X152586429Y-85058152D01*
X152586429Y-85058152D02*
X152395953Y-85058152D01*
X152395953Y-85058152D02*
X152300715Y-85105771D01*
X152729286Y-85677200D02*
X152634048Y-85724819D01*
X152634048Y-85724819D02*
X152395953Y-85724819D01*
X152395953Y-85724819D02*
X152300715Y-85677200D01*
X152300715Y-85677200D02*
X152253096Y-85581961D01*
X152253096Y-85581961D02*
X152253096Y-85486723D01*
X152253096Y-85486723D02*
X152300715Y-85391485D01*
X152300715Y-85391485D02*
X152395953Y-85343866D01*
X152395953Y-85343866D02*
X152634048Y-85343866D01*
X152634048Y-85343866D02*
X152729286Y-85296247D01*
X116554819Y-102838094D02*
X115554819Y-102838094D01*
X115554819Y-102838094D02*
X115554819Y-102599999D01*
X115554819Y-102599999D02*
X115602438Y-102457142D01*
X115602438Y-102457142D02*
X115697676Y-102361904D01*
X115697676Y-102361904D02*
X115792914Y-102314285D01*
X115792914Y-102314285D02*
X115983390Y-102266666D01*
X115983390Y-102266666D02*
X116126247Y-102266666D01*
X116126247Y-102266666D02*
X116316723Y-102314285D01*
X116316723Y-102314285D02*
X116411961Y-102361904D01*
X116411961Y-102361904D02*
X116507200Y-102457142D01*
X116507200Y-102457142D02*
X116554819Y-102599999D01*
X116554819Y-102599999D02*
X116554819Y-102838094D01*
X115554819Y-101933332D02*
X115554819Y-101266666D01*
X115554819Y-101266666D02*
X116554819Y-101695237D01*
D11*
X184632419Y-144683333D02*
X185346704Y-144683333D01*
X185346704Y-144683333D02*
X185489561Y-144730952D01*
X185489561Y-144730952D02*
X185584800Y-144826190D01*
X185584800Y-144826190D02*
X185632419Y-144969047D01*
X185632419Y-144969047D02*
X185632419Y-145064285D01*
X185060990Y-144064285D02*
X185013371Y-144159523D01*
X185013371Y-144159523D02*
X184965752Y-144207142D01*
X184965752Y-144207142D02*
X184870514Y-144254761D01*
X184870514Y-144254761D02*
X184822895Y-144254761D01*
X184822895Y-144254761D02*
X184727657Y-144207142D01*
X184727657Y-144207142D02*
X184680038Y-144159523D01*
X184680038Y-144159523D02*
X184632419Y-144064285D01*
X184632419Y-144064285D02*
X184632419Y-143873809D01*
X184632419Y-143873809D02*
X184680038Y-143778571D01*
X184680038Y-143778571D02*
X184727657Y-143730952D01*
X184727657Y-143730952D02*
X184822895Y-143683333D01*
X184822895Y-143683333D02*
X184870514Y-143683333D01*
X184870514Y-143683333D02*
X184965752Y-143730952D01*
X184965752Y-143730952D02*
X185013371Y-143778571D01*
X185013371Y-143778571D02*
X185060990Y-143873809D01*
X185060990Y-143873809D02*
X185060990Y-144064285D01*
X185060990Y-144064285D02*
X185108609Y-144159523D01*
X185108609Y-144159523D02*
X185156228Y-144207142D01*
X185156228Y-144207142D02*
X185251466Y-144254761D01*
X185251466Y-144254761D02*
X185441942Y-144254761D01*
X185441942Y-144254761D02*
X185537180Y-144207142D01*
X185537180Y-144207142D02*
X185584800Y-144159523D01*
X185584800Y-144159523D02*
X185632419Y-144064285D01*
X185632419Y-144064285D02*
X185632419Y-143873809D01*
X185632419Y-143873809D02*
X185584800Y-143778571D01*
X185584800Y-143778571D02*
X185537180Y-143730952D01*
X185537180Y-143730952D02*
X185441942Y-143683333D01*
X185441942Y-143683333D02*
X185251466Y-143683333D01*
X185251466Y-143683333D02*
X185156228Y-143730952D01*
X185156228Y-143730952D02*
X185108609Y-143778571D01*
X185108609Y-143778571D02*
X185060990Y-143873809D01*
D10*
X120337142Y-121579819D02*
X120003809Y-121103628D01*
X119765714Y-121579819D02*
X119765714Y-120579819D01*
X119765714Y-120579819D02*
X120146666Y-120579819D01*
X120146666Y-120579819D02*
X120241904Y-120627438D01*
X120241904Y-120627438D02*
X120289523Y-120675057D01*
X120289523Y-120675057D02*
X120337142Y-120770295D01*
X120337142Y-120770295D02*
X120337142Y-120913152D01*
X120337142Y-120913152D02*
X120289523Y-121008390D01*
X120289523Y-121008390D02*
X120241904Y-121056009D01*
X120241904Y-121056009D02*
X120146666Y-121103628D01*
X120146666Y-121103628D02*
X119765714Y-121103628D01*
X121289523Y-121579819D02*
X120718095Y-121579819D01*
X121003809Y-121579819D02*
X121003809Y-120579819D01*
X121003809Y-120579819D02*
X120908571Y-120722676D01*
X120908571Y-120722676D02*
X120813333Y-120817914D01*
X120813333Y-120817914D02*
X120718095Y-120865533D01*
X122146666Y-120579819D02*
X121956190Y-120579819D01*
X121956190Y-120579819D02*
X121860952Y-120627438D01*
X121860952Y-120627438D02*
X121813333Y-120675057D01*
X121813333Y-120675057D02*
X121718095Y-120817914D01*
X121718095Y-120817914D02*
X121670476Y-121008390D01*
X121670476Y-121008390D02*
X121670476Y-121389342D01*
X121670476Y-121389342D02*
X121718095Y-121484580D01*
X121718095Y-121484580D02*
X121765714Y-121532200D01*
X121765714Y-121532200D02*
X121860952Y-121579819D01*
X121860952Y-121579819D02*
X122051428Y-121579819D01*
X122051428Y-121579819D02*
X122146666Y-121532200D01*
X122146666Y-121532200D02*
X122194285Y-121484580D01*
X122194285Y-121484580D02*
X122241904Y-121389342D01*
X122241904Y-121389342D02*
X122241904Y-121151247D01*
X122241904Y-121151247D02*
X122194285Y-121056009D01*
X122194285Y-121056009D02*
X122146666Y-121008390D01*
X122146666Y-121008390D02*
X122051428Y-120960771D01*
X122051428Y-120960771D02*
X121860952Y-120960771D01*
X121860952Y-120960771D02*
X121765714Y-121008390D01*
X121765714Y-121008390D02*
X121718095Y-121056009D01*
X121718095Y-121056009D02*
X121670476Y-121151247D01*
X161434819Y-89591666D02*
X160958628Y-89924999D01*
X161434819Y-90163094D02*
X160434819Y-90163094D01*
X160434819Y-90163094D02*
X160434819Y-89782142D01*
X160434819Y-89782142D02*
X160482438Y-89686904D01*
X160482438Y-89686904D02*
X160530057Y-89639285D01*
X160530057Y-89639285D02*
X160625295Y-89591666D01*
X160625295Y-89591666D02*
X160768152Y-89591666D01*
X160768152Y-89591666D02*
X160863390Y-89639285D01*
X160863390Y-89639285D02*
X160911009Y-89686904D01*
X160911009Y-89686904D02*
X160958628Y-89782142D01*
X160958628Y-89782142D02*
X160958628Y-90163094D01*
X160530057Y-89210713D02*
X160482438Y-89163094D01*
X160482438Y-89163094D02*
X160434819Y-89067856D01*
X160434819Y-89067856D02*
X160434819Y-88829761D01*
X160434819Y-88829761D02*
X160482438Y-88734523D01*
X160482438Y-88734523D02*
X160530057Y-88686904D01*
X160530057Y-88686904D02*
X160625295Y-88639285D01*
X160625295Y-88639285D02*
X160720533Y-88639285D01*
X160720533Y-88639285D02*
X160863390Y-88686904D01*
X160863390Y-88686904D02*
X161434819Y-89258332D01*
X161434819Y-89258332D02*
X161434819Y-88639285D01*
X181232142Y-102254819D02*
X180898809Y-101778628D01*
X180660714Y-102254819D02*
X180660714Y-101254819D01*
X180660714Y-101254819D02*
X181041666Y-101254819D01*
X181041666Y-101254819D02*
X181136904Y-101302438D01*
X181136904Y-101302438D02*
X181184523Y-101350057D01*
X181184523Y-101350057D02*
X181232142Y-101445295D01*
X181232142Y-101445295D02*
X181232142Y-101588152D01*
X181232142Y-101588152D02*
X181184523Y-101683390D01*
X181184523Y-101683390D02*
X181136904Y-101731009D01*
X181136904Y-101731009D02*
X181041666Y-101778628D01*
X181041666Y-101778628D02*
X180660714Y-101778628D01*
X181565476Y-101254819D02*
X182184523Y-101254819D01*
X182184523Y-101254819D02*
X181851190Y-101635771D01*
X181851190Y-101635771D02*
X181994047Y-101635771D01*
X181994047Y-101635771D02*
X182089285Y-101683390D01*
X182089285Y-101683390D02*
X182136904Y-101731009D01*
X182136904Y-101731009D02*
X182184523Y-101826247D01*
X182184523Y-101826247D02*
X182184523Y-102064342D01*
X182184523Y-102064342D02*
X182136904Y-102159580D01*
X182136904Y-102159580D02*
X182089285Y-102207200D01*
X182089285Y-102207200D02*
X181994047Y-102254819D01*
X181994047Y-102254819D02*
X181708333Y-102254819D01*
X181708333Y-102254819D02*
X181613095Y-102207200D01*
X181613095Y-102207200D02*
X181565476Y-102159580D01*
X183041666Y-101588152D02*
X183041666Y-102254819D01*
X182803571Y-101207200D02*
X182565476Y-101921485D01*
X182565476Y-101921485D02*
X183184523Y-101921485D01*
X103238095Y-143404819D02*
X103238095Y-142404819D01*
X103238095Y-142881009D02*
X103809523Y-142881009D01*
X103809523Y-143404819D02*
X103809523Y-142404819D01*
X104714285Y-142738152D02*
X104714285Y-143404819D01*
X104476190Y-142357200D02*
X104238095Y-143071485D01*
X104238095Y-143071485D02*
X104857142Y-143071485D01*
X169009819Y-108169404D02*
X169819342Y-108169404D01*
X169819342Y-108169404D02*
X169914580Y-108121785D01*
X169914580Y-108121785D02*
X169962200Y-108074166D01*
X169962200Y-108074166D02*
X170009819Y-107978928D01*
X170009819Y-107978928D02*
X170009819Y-107788452D01*
X170009819Y-107788452D02*
X169962200Y-107693214D01*
X169962200Y-107693214D02*
X169914580Y-107645595D01*
X169914580Y-107645595D02*
X169819342Y-107597976D01*
X169819342Y-107597976D02*
X169009819Y-107597976D01*
X169009819Y-106693214D02*
X169009819Y-106883690D01*
X169009819Y-106883690D02*
X169057438Y-106978928D01*
X169057438Y-106978928D02*
X169105057Y-107026547D01*
X169105057Y-107026547D02*
X169247914Y-107121785D01*
X169247914Y-107121785D02*
X169438390Y-107169404D01*
X169438390Y-107169404D02*
X169819342Y-107169404D01*
X169819342Y-107169404D02*
X169914580Y-107121785D01*
X169914580Y-107121785D02*
X169962200Y-107074166D01*
X169962200Y-107074166D02*
X170009819Y-106978928D01*
X170009819Y-106978928D02*
X170009819Y-106788452D01*
X170009819Y-106788452D02*
X169962200Y-106693214D01*
X169962200Y-106693214D02*
X169914580Y-106645595D01*
X169914580Y-106645595D02*
X169819342Y-106597976D01*
X169819342Y-106597976D02*
X169581247Y-106597976D01*
X169581247Y-106597976D02*
X169486009Y-106645595D01*
X169486009Y-106645595D02*
X169438390Y-106693214D01*
X169438390Y-106693214D02*
X169390771Y-106788452D01*
X169390771Y-106788452D02*
X169390771Y-106978928D01*
X169390771Y-106978928D02*
X169438390Y-107074166D01*
X169438390Y-107074166D02*
X169486009Y-107121785D01*
X169486009Y-107121785D02*
X169581247Y-107169404D01*
X167154819Y-89566666D02*
X166678628Y-89899999D01*
X167154819Y-90138094D02*
X166154819Y-90138094D01*
X166154819Y-90138094D02*
X166154819Y-89757142D01*
X166154819Y-89757142D02*
X166202438Y-89661904D01*
X166202438Y-89661904D02*
X166250057Y-89614285D01*
X166250057Y-89614285D02*
X166345295Y-89566666D01*
X166345295Y-89566666D02*
X166488152Y-89566666D01*
X166488152Y-89566666D02*
X166583390Y-89614285D01*
X166583390Y-89614285D02*
X166631009Y-89661904D01*
X166631009Y-89661904D02*
X166678628Y-89757142D01*
X166678628Y-89757142D02*
X166678628Y-90138094D01*
X167154819Y-88614285D02*
X167154819Y-89185713D01*
X167154819Y-88899999D02*
X166154819Y-88899999D01*
X166154819Y-88899999D02*
X166297676Y-88995237D01*
X166297676Y-88995237D02*
X166392914Y-89090475D01*
X166392914Y-89090475D02*
X166440533Y-89185713D01*
X178710714Y-90854819D02*
X178710714Y-89854819D01*
X178710714Y-89854819D02*
X178948809Y-89854819D01*
X178948809Y-89854819D02*
X179091666Y-89902438D01*
X179091666Y-89902438D02*
X179186904Y-89997676D01*
X179186904Y-89997676D02*
X179234523Y-90092914D01*
X179234523Y-90092914D02*
X179282142Y-90283390D01*
X179282142Y-90283390D02*
X179282142Y-90426247D01*
X179282142Y-90426247D02*
X179234523Y-90616723D01*
X179234523Y-90616723D02*
X179186904Y-90711961D01*
X179186904Y-90711961D02*
X179091666Y-90807200D01*
X179091666Y-90807200D02*
X178948809Y-90854819D01*
X178948809Y-90854819D02*
X178710714Y-90854819D01*
X180234523Y-90854819D02*
X179663095Y-90854819D01*
X179948809Y-90854819D02*
X179948809Y-89854819D01*
X179948809Y-89854819D02*
X179853571Y-89997676D01*
X179853571Y-89997676D02*
X179758333Y-90092914D01*
X179758333Y-90092914D02*
X179663095Y-90140533D01*
X180853571Y-89854819D02*
X180948809Y-89854819D01*
X180948809Y-89854819D02*
X181044047Y-89902438D01*
X181044047Y-89902438D02*
X181091666Y-89950057D01*
X181091666Y-89950057D02*
X181139285Y-90045295D01*
X181139285Y-90045295D02*
X181186904Y-90235771D01*
X181186904Y-90235771D02*
X181186904Y-90473866D01*
X181186904Y-90473866D02*
X181139285Y-90664342D01*
X181139285Y-90664342D02*
X181091666Y-90759580D01*
X181091666Y-90759580D02*
X181044047Y-90807200D01*
X181044047Y-90807200D02*
X180948809Y-90854819D01*
X180948809Y-90854819D02*
X180853571Y-90854819D01*
X180853571Y-90854819D02*
X180758333Y-90807200D01*
X180758333Y-90807200D02*
X180710714Y-90759580D01*
X180710714Y-90759580D02*
X180663095Y-90664342D01*
X180663095Y-90664342D02*
X180615476Y-90473866D01*
X180615476Y-90473866D02*
X180615476Y-90235771D01*
X180615476Y-90235771D02*
X180663095Y-90045295D01*
X180663095Y-90045295D02*
X180710714Y-89950057D01*
X180710714Y-89950057D02*
X180758333Y-89902438D01*
X180758333Y-89902438D02*
X180853571Y-89854819D01*
X148404761Y-112900057D02*
X148309523Y-112852438D01*
X148309523Y-112852438D02*
X148214285Y-112757200D01*
X148214285Y-112757200D02*
X148071428Y-112614342D01*
X148071428Y-112614342D02*
X147976190Y-112566723D01*
X147976190Y-112566723D02*
X147880952Y-112566723D01*
X147928571Y-112804819D02*
X147833333Y-112757200D01*
X147833333Y-112757200D02*
X147738095Y-112661961D01*
X147738095Y-112661961D02*
X147690476Y-112471485D01*
X147690476Y-112471485D02*
X147690476Y-112138152D01*
X147690476Y-112138152D02*
X147738095Y-111947676D01*
X147738095Y-111947676D02*
X147833333Y-111852438D01*
X147833333Y-111852438D02*
X147928571Y-111804819D01*
X147928571Y-111804819D02*
X148119047Y-111804819D01*
X148119047Y-111804819D02*
X148214285Y-111852438D01*
X148214285Y-111852438D02*
X148309523Y-111947676D01*
X148309523Y-111947676D02*
X148357142Y-112138152D01*
X148357142Y-112138152D02*
X148357142Y-112471485D01*
X148357142Y-112471485D02*
X148309523Y-112661961D01*
X148309523Y-112661961D02*
X148214285Y-112757200D01*
X148214285Y-112757200D02*
X148119047Y-112804819D01*
X148119047Y-112804819D02*
X147928571Y-112804819D01*
X149261904Y-111804819D02*
X148785714Y-111804819D01*
X148785714Y-111804819D02*
X148738095Y-112281009D01*
X148738095Y-112281009D02*
X148785714Y-112233390D01*
X148785714Y-112233390D02*
X148880952Y-112185771D01*
X148880952Y-112185771D02*
X149119047Y-112185771D01*
X149119047Y-112185771D02*
X149214285Y-112233390D01*
X149214285Y-112233390D02*
X149261904Y-112281009D01*
X149261904Y-112281009D02*
X149309523Y-112376247D01*
X149309523Y-112376247D02*
X149309523Y-112614342D01*
X149309523Y-112614342D02*
X149261904Y-112709580D01*
X149261904Y-112709580D02*
X149214285Y-112757200D01*
X149214285Y-112757200D02*
X149119047Y-112804819D01*
X149119047Y-112804819D02*
X148880952Y-112804819D01*
X148880952Y-112804819D02*
X148785714Y-112757200D01*
X148785714Y-112757200D02*
X148738095Y-112709580D01*
X158858333Y-110654819D02*
X158525000Y-110178628D01*
X158286905Y-110654819D02*
X158286905Y-109654819D01*
X158286905Y-109654819D02*
X158667857Y-109654819D01*
X158667857Y-109654819D02*
X158763095Y-109702438D01*
X158763095Y-109702438D02*
X158810714Y-109750057D01*
X158810714Y-109750057D02*
X158858333Y-109845295D01*
X158858333Y-109845295D02*
X158858333Y-109988152D01*
X158858333Y-109988152D02*
X158810714Y-110083390D01*
X158810714Y-110083390D02*
X158763095Y-110131009D01*
X158763095Y-110131009D02*
X158667857Y-110178628D01*
X158667857Y-110178628D02*
X158286905Y-110178628D01*
X159715476Y-109988152D02*
X159715476Y-110654819D01*
X159477381Y-109607200D02*
X159239286Y-110321485D01*
X159239286Y-110321485D02*
X159858333Y-110321485D01*
X126487142Y-120029819D02*
X126153809Y-119553628D01*
X125915714Y-120029819D02*
X125915714Y-119029819D01*
X125915714Y-119029819D02*
X126296666Y-119029819D01*
X126296666Y-119029819D02*
X126391904Y-119077438D01*
X126391904Y-119077438D02*
X126439523Y-119125057D01*
X126439523Y-119125057D02*
X126487142Y-119220295D01*
X126487142Y-119220295D02*
X126487142Y-119363152D01*
X126487142Y-119363152D02*
X126439523Y-119458390D01*
X126439523Y-119458390D02*
X126391904Y-119506009D01*
X126391904Y-119506009D02*
X126296666Y-119553628D01*
X126296666Y-119553628D02*
X125915714Y-119553628D01*
X127439523Y-120029819D02*
X126868095Y-120029819D01*
X127153809Y-120029819D02*
X127153809Y-119029819D01*
X127153809Y-119029819D02*
X127058571Y-119172676D01*
X127058571Y-119172676D02*
X126963333Y-119267914D01*
X126963333Y-119267914D02*
X126868095Y-119315533D01*
X127772857Y-119029819D02*
X128439523Y-119029819D01*
X128439523Y-119029819D02*
X128010952Y-120029819D01*
X180757142Y-108454819D02*
X180423809Y-107978628D01*
X180185714Y-108454819D02*
X180185714Y-107454819D01*
X180185714Y-107454819D02*
X180566666Y-107454819D01*
X180566666Y-107454819D02*
X180661904Y-107502438D01*
X180661904Y-107502438D02*
X180709523Y-107550057D01*
X180709523Y-107550057D02*
X180757142Y-107645295D01*
X180757142Y-107645295D02*
X180757142Y-107788152D01*
X180757142Y-107788152D02*
X180709523Y-107883390D01*
X180709523Y-107883390D02*
X180661904Y-107931009D01*
X180661904Y-107931009D02*
X180566666Y-107978628D01*
X180566666Y-107978628D02*
X180185714Y-107978628D01*
X181090476Y-107454819D02*
X181709523Y-107454819D01*
X181709523Y-107454819D02*
X181376190Y-107835771D01*
X181376190Y-107835771D02*
X181519047Y-107835771D01*
X181519047Y-107835771D02*
X181614285Y-107883390D01*
X181614285Y-107883390D02*
X181661904Y-107931009D01*
X181661904Y-107931009D02*
X181709523Y-108026247D01*
X181709523Y-108026247D02*
X181709523Y-108264342D01*
X181709523Y-108264342D02*
X181661904Y-108359580D01*
X181661904Y-108359580D02*
X181614285Y-108407200D01*
X181614285Y-108407200D02*
X181519047Y-108454819D01*
X181519047Y-108454819D02*
X181233333Y-108454819D01*
X181233333Y-108454819D02*
X181138095Y-108407200D01*
X181138095Y-108407200D02*
X181090476Y-108359580D01*
X182566666Y-107454819D02*
X182376190Y-107454819D01*
X182376190Y-107454819D02*
X182280952Y-107502438D01*
X182280952Y-107502438D02*
X182233333Y-107550057D01*
X182233333Y-107550057D02*
X182138095Y-107692914D01*
X182138095Y-107692914D02*
X182090476Y-107883390D01*
X182090476Y-107883390D02*
X182090476Y-108264342D01*
X182090476Y-108264342D02*
X182138095Y-108359580D01*
X182138095Y-108359580D02*
X182185714Y-108407200D01*
X182185714Y-108407200D02*
X182280952Y-108454819D01*
X182280952Y-108454819D02*
X182471428Y-108454819D01*
X182471428Y-108454819D02*
X182566666Y-108407200D01*
X182566666Y-108407200D02*
X182614285Y-108359580D01*
X182614285Y-108359580D02*
X182661904Y-108264342D01*
X182661904Y-108264342D02*
X182661904Y-108026247D01*
X182661904Y-108026247D02*
X182614285Y-107931009D01*
X182614285Y-107931009D02*
X182566666Y-107883390D01*
X182566666Y-107883390D02*
X182471428Y-107835771D01*
X182471428Y-107835771D02*
X182280952Y-107835771D01*
X182280952Y-107835771D02*
X182185714Y-107883390D01*
X182185714Y-107883390D02*
X182138095Y-107931009D01*
X182138095Y-107931009D02*
X182090476Y-108026247D01*
X99054819Y-105383333D02*
X99769104Y-105383333D01*
X99769104Y-105383333D02*
X99911961Y-105430952D01*
X99911961Y-105430952D02*
X100007200Y-105526190D01*
X100007200Y-105526190D02*
X100054819Y-105669047D01*
X100054819Y-105669047D02*
X100054819Y-105764285D01*
X99054819Y-105002380D02*
X99054819Y-104383333D01*
X99054819Y-104383333D02*
X99435771Y-104716666D01*
X99435771Y-104716666D02*
X99435771Y-104573809D01*
X99435771Y-104573809D02*
X99483390Y-104478571D01*
X99483390Y-104478571D02*
X99531009Y-104430952D01*
X99531009Y-104430952D02*
X99626247Y-104383333D01*
X99626247Y-104383333D02*
X99864342Y-104383333D01*
X99864342Y-104383333D02*
X99959580Y-104430952D01*
X99959580Y-104430952D02*
X100007200Y-104478571D01*
X100007200Y-104478571D02*
X100054819Y-104573809D01*
X100054819Y-104573809D02*
X100054819Y-104859523D01*
X100054819Y-104859523D02*
X100007200Y-104954761D01*
X100007200Y-104954761D02*
X99959580Y-105002380D01*
X185509580Y-102930357D02*
X185557200Y-102977976D01*
X185557200Y-102977976D02*
X185604819Y-103120833D01*
X185604819Y-103120833D02*
X185604819Y-103216071D01*
X185604819Y-103216071D02*
X185557200Y-103358928D01*
X185557200Y-103358928D02*
X185461961Y-103454166D01*
X185461961Y-103454166D02*
X185366723Y-103501785D01*
X185366723Y-103501785D02*
X185176247Y-103549404D01*
X185176247Y-103549404D02*
X185033390Y-103549404D01*
X185033390Y-103549404D02*
X184842914Y-103501785D01*
X184842914Y-103501785D02*
X184747676Y-103454166D01*
X184747676Y-103454166D02*
X184652438Y-103358928D01*
X184652438Y-103358928D02*
X184604819Y-103216071D01*
X184604819Y-103216071D02*
X184604819Y-103120833D01*
X184604819Y-103120833D02*
X184652438Y-102977976D01*
X184652438Y-102977976D02*
X184700057Y-102930357D01*
X185604819Y-101977976D02*
X185604819Y-102549404D01*
X185604819Y-102263690D02*
X184604819Y-102263690D01*
X184604819Y-102263690D02*
X184747676Y-102358928D01*
X184747676Y-102358928D02*
X184842914Y-102454166D01*
X184842914Y-102454166D02*
X184890533Y-102549404D01*
X184604819Y-101358928D02*
X184604819Y-101263690D01*
X184604819Y-101263690D02*
X184652438Y-101168452D01*
X184652438Y-101168452D02*
X184700057Y-101120833D01*
X184700057Y-101120833D02*
X184795295Y-101073214D01*
X184795295Y-101073214D02*
X184985771Y-101025595D01*
X184985771Y-101025595D02*
X185223866Y-101025595D01*
X185223866Y-101025595D02*
X185414342Y-101073214D01*
X185414342Y-101073214D02*
X185509580Y-101120833D01*
X185509580Y-101120833D02*
X185557200Y-101168452D01*
X185557200Y-101168452D02*
X185604819Y-101263690D01*
X185604819Y-101263690D02*
X185604819Y-101358928D01*
X185604819Y-101358928D02*
X185557200Y-101454166D01*
X185557200Y-101454166D02*
X185509580Y-101501785D01*
X185509580Y-101501785D02*
X185414342Y-101549404D01*
X185414342Y-101549404D02*
X185223866Y-101597023D01*
X185223866Y-101597023D02*
X184985771Y-101597023D01*
X184985771Y-101597023D02*
X184795295Y-101549404D01*
X184795295Y-101549404D02*
X184700057Y-101501785D01*
X184700057Y-101501785D02*
X184652438Y-101454166D01*
X184652438Y-101454166D02*
X184604819Y-101358928D01*
D11*
X144391944Y-144247419D02*
X144391944Y-144961704D01*
X144391944Y-144961704D02*
X144344325Y-145104561D01*
X144344325Y-145104561D02*
X144249087Y-145199800D01*
X144249087Y-145199800D02*
X144106230Y-145247419D01*
X144106230Y-145247419D02*
X144010992Y-145247419D01*
X144915754Y-145247419D02*
X145106230Y-145247419D01*
X145106230Y-145247419D02*
X145201468Y-145199800D01*
X145201468Y-145199800D02*
X145249087Y-145152180D01*
X145249087Y-145152180D02*
X145344325Y-145009323D01*
X145344325Y-145009323D02*
X145391944Y-144818847D01*
X145391944Y-144818847D02*
X145391944Y-144437895D01*
X145391944Y-144437895D02*
X145344325Y-144342657D01*
X145344325Y-144342657D02*
X145296706Y-144295038D01*
X145296706Y-144295038D02*
X145201468Y-144247419D01*
X145201468Y-144247419D02*
X145010992Y-144247419D01*
X145010992Y-144247419D02*
X144915754Y-144295038D01*
X144915754Y-144295038D02*
X144868135Y-144342657D01*
X144868135Y-144342657D02*
X144820516Y-144437895D01*
X144820516Y-144437895D02*
X144820516Y-144675990D01*
X144820516Y-144675990D02*
X144868135Y-144771228D01*
X144868135Y-144771228D02*
X144915754Y-144818847D01*
X144915754Y-144818847D02*
X145010992Y-144866466D01*
X145010992Y-144866466D02*
X145201468Y-144866466D01*
X145201468Y-144866466D02*
X145296706Y-144818847D01*
X145296706Y-144818847D02*
X145344325Y-144771228D01*
X145344325Y-144771228D02*
X145391944Y-144675990D01*
D10*
X123609580Y-99242857D02*
X123657200Y-99290476D01*
X123657200Y-99290476D02*
X123704819Y-99433333D01*
X123704819Y-99433333D02*
X123704819Y-99528571D01*
X123704819Y-99528571D02*
X123657200Y-99671428D01*
X123657200Y-99671428D02*
X123561961Y-99766666D01*
X123561961Y-99766666D02*
X123466723Y-99814285D01*
X123466723Y-99814285D02*
X123276247Y-99861904D01*
X123276247Y-99861904D02*
X123133390Y-99861904D01*
X123133390Y-99861904D02*
X122942914Y-99814285D01*
X122942914Y-99814285D02*
X122847676Y-99766666D01*
X122847676Y-99766666D02*
X122752438Y-99671428D01*
X122752438Y-99671428D02*
X122704819Y-99528571D01*
X122704819Y-99528571D02*
X122704819Y-99433333D01*
X122704819Y-99433333D02*
X122752438Y-99290476D01*
X122752438Y-99290476D02*
X122800057Y-99242857D01*
X123704819Y-98290476D02*
X123704819Y-98861904D01*
X123704819Y-98576190D02*
X122704819Y-98576190D01*
X122704819Y-98576190D02*
X122847676Y-98671428D01*
X122847676Y-98671428D02*
X122942914Y-98766666D01*
X122942914Y-98766666D02*
X122990533Y-98861904D01*
X123704819Y-97338095D02*
X123704819Y-97909523D01*
X123704819Y-97623809D02*
X122704819Y-97623809D01*
X122704819Y-97623809D02*
X122847676Y-97719047D01*
X122847676Y-97719047D02*
X122942914Y-97814285D01*
X122942914Y-97814285D02*
X122990533Y-97909523D01*
X137209580Y-87086666D02*
X137257200Y-87134285D01*
X137257200Y-87134285D02*
X137304819Y-87277142D01*
X137304819Y-87277142D02*
X137304819Y-87372380D01*
X137304819Y-87372380D02*
X137257200Y-87515237D01*
X137257200Y-87515237D02*
X137161961Y-87610475D01*
X137161961Y-87610475D02*
X137066723Y-87658094D01*
X137066723Y-87658094D02*
X136876247Y-87705713D01*
X136876247Y-87705713D02*
X136733390Y-87705713D01*
X136733390Y-87705713D02*
X136542914Y-87658094D01*
X136542914Y-87658094D02*
X136447676Y-87610475D01*
X136447676Y-87610475D02*
X136352438Y-87515237D01*
X136352438Y-87515237D02*
X136304819Y-87372380D01*
X136304819Y-87372380D02*
X136304819Y-87277142D01*
X136304819Y-87277142D02*
X136352438Y-87134285D01*
X136352438Y-87134285D02*
X136400057Y-87086666D01*
X136304819Y-86181904D02*
X136304819Y-86658094D01*
X136304819Y-86658094D02*
X136781009Y-86705713D01*
X136781009Y-86705713D02*
X136733390Y-86658094D01*
X136733390Y-86658094D02*
X136685771Y-86562856D01*
X136685771Y-86562856D02*
X136685771Y-86324761D01*
X136685771Y-86324761D02*
X136733390Y-86229523D01*
X136733390Y-86229523D02*
X136781009Y-86181904D01*
X136781009Y-86181904D02*
X136876247Y-86134285D01*
X136876247Y-86134285D02*
X137114342Y-86134285D01*
X137114342Y-86134285D02*
X137209580Y-86181904D01*
X137209580Y-86181904D02*
X137257200Y-86229523D01*
X137257200Y-86229523D02*
X137304819Y-86324761D01*
X137304819Y-86324761D02*
X137304819Y-86562856D01*
X137304819Y-86562856D02*
X137257200Y-86658094D01*
X137257200Y-86658094D02*
X137209580Y-86705713D01*
X183815476Y-80192319D02*
X183815476Y-80906604D01*
X183815476Y-80906604D02*
X183767857Y-81049461D01*
X183767857Y-81049461D02*
X183672619Y-81144700D01*
X183672619Y-81144700D02*
X183529762Y-81192319D01*
X183529762Y-81192319D02*
X183434524Y-81192319D01*
X184815476Y-81192319D02*
X184244048Y-81192319D01*
X184529762Y-81192319D02*
X184529762Y-80192319D01*
X184529762Y-80192319D02*
X184434524Y-80335176D01*
X184434524Y-80335176D02*
X184339286Y-80430414D01*
X184339286Y-80430414D02*
X184244048Y-80478033D01*
X185767857Y-81192319D02*
X185196429Y-81192319D01*
X185482143Y-81192319D02*
X185482143Y-80192319D01*
X185482143Y-80192319D02*
X185386905Y-80335176D01*
X185386905Y-80335176D02*
X185291667Y-80430414D01*
X185291667Y-80430414D02*
X185196429Y-80478033D01*
X171716667Y-97607200D02*
X171859524Y-97654819D01*
X171859524Y-97654819D02*
X172097619Y-97654819D01*
X172097619Y-97654819D02*
X172192857Y-97607200D01*
X172192857Y-97607200D02*
X172240476Y-97559580D01*
X172240476Y-97559580D02*
X172288095Y-97464342D01*
X172288095Y-97464342D02*
X172288095Y-97369104D01*
X172288095Y-97369104D02*
X172240476Y-97273866D01*
X172240476Y-97273866D02*
X172192857Y-97226247D01*
X172192857Y-97226247D02*
X172097619Y-97178628D01*
X172097619Y-97178628D02*
X171907143Y-97131009D01*
X171907143Y-97131009D02*
X171811905Y-97083390D01*
X171811905Y-97083390D02*
X171764286Y-97035771D01*
X171764286Y-97035771D02*
X171716667Y-96940533D01*
X171716667Y-96940533D02*
X171716667Y-96845295D01*
X171716667Y-96845295D02*
X171764286Y-96750057D01*
X171764286Y-96750057D02*
X171811905Y-96702438D01*
X171811905Y-96702438D02*
X171907143Y-96654819D01*
X171907143Y-96654819D02*
X172145238Y-96654819D01*
X172145238Y-96654819D02*
X172288095Y-96702438D01*
X172621429Y-96654819D02*
X172859524Y-97654819D01*
X172859524Y-97654819D02*
X173050000Y-96940533D01*
X173050000Y-96940533D02*
X173240476Y-97654819D01*
X173240476Y-97654819D02*
X173478572Y-96654819D01*
X174383333Y-97654819D02*
X173811905Y-97654819D01*
X174097619Y-97654819D02*
X174097619Y-96654819D01*
X174097619Y-96654819D02*
X174002381Y-96797676D01*
X174002381Y-96797676D02*
X173907143Y-96892914D01*
X173907143Y-96892914D02*
X173811905Y-96940533D01*
X164236905Y-114729819D02*
X164236905Y-113729819D01*
X164236905Y-113729819D02*
X164475000Y-113729819D01*
X164475000Y-113729819D02*
X164617857Y-113777438D01*
X164617857Y-113777438D02*
X164713095Y-113872676D01*
X164713095Y-113872676D02*
X164760714Y-113967914D01*
X164760714Y-113967914D02*
X164808333Y-114158390D01*
X164808333Y-114158390D02*
X164808333Y-114301247D01*
X164808333Y-114301247D02*
X164760714Y-114491723D01*
X164760714Y-114491723D02*
X164713095Y-114586961D01*
X164713095Y-114586961D02*
X164617857Y-114682200D01*
X164617857Y-114682200D02*
X164475000Y-114729819D01*
X164475000Y-114729819D02*
X164236905Y-114729819D01*
X165189286Y-113825057D02*
X165236905Y-113777438D01*
X165236905Y-113777438D02*
X165332143Y-113729819D01*
X165332143Y-113729819D02*
X165570238Y-113729819D01*
X165570238Y-113729819D02*
X165665476Y-113777438D01*
X165665476Y-113777438D02*
X165713095Y-113825057D01*
X165713095Y-113825057D02*
X165760714Y-113920295D01*
X165760714Y-113920295D02*
X165760714Y-114015533D01*
X165760714Y-114015533D02*
X165713095Y-114158390D01*
X165713095Y-114158390D02*
X165141667Y-114729819D01*
X165141667Y-114729819D02*
X165760714Y-114729819D01*
X157928571Y-113587295D02*
X157471428Y-113587295D01*
X157700000Y-113587295D02*
X157700000Y-112787295D01*
X157700000Y-112787295D02*
X157623809Y-112901580D01*
X157623809Y-112901580D02*
X157547619Y-112977771D01*
X157547619Y-112977771D02*
X157471428Y-113015866D01*
D12*
%TO.C,Q10*%
X114580000Y-128512500D02*
X114250000Y-128752500D01*
X114250000Y-128272500D01*
X114580000Y-128512500D01*
G36*
X114580000Y-128512500D02*
G01*
X114250000Y-128752500D01*
X114250000Y-128272500D01*
X114580000Y-128512500D01*
G37*
X115760000Y-130572500D02*
X114760000Y-130572500D01*
X115760000Y-129052500D02*
X115760000Y-130572500D01*
X115710000Y-129052500D02*
X115760000Y-129052500D01*
X113810000Y-129052500D02*
X114590000Y-129052500D01*
X113640000Y-130572500D02*
X112640000Y-130572500D01*
X112640000Y-130572500D02*
X112640000Y-129052500D01*
X112640000Y-129052500D02*
X112690000Y-129052500D01*
%TO.C,J10*%
D13*
X121605277Y-148000000D02*
G75*
G02*
X121194723Y-148000000I-205277J0D01*
G01*
X121194723Y-148000000D02*
G75*
G02*
X121605277Y-148000000I205277J0D01*
G01*
D11*
X122150000Y-142350000D02*
X133850000Y-142350000D01*
X133850000Y-151850000D01*
X122150000Y-151850000D01*
X122150000Y-142350000D01*
X121400000Y-149600000D02*
X121700000Y-149300000D01*
X121400000Y-149600000D02*
X121100000Y-149300000D01*
X121400000Y-148900000D02*
X121400000Y-149600000D01*
X121100000Y-149300000D02*
X121400000Y-149600000D01*
%TO.C,U5*%
D12*
X132601022Y-140913100D02*
X104203822Y-140913100D01*
X132601022Y-132986900D02*
X132601022Y-140913100D01*
D11*
X106261222Y-135986900D02*
X104178422Y-135986900D01*
D12*
X106261222Y-132986900D02*
X106261222Y-135986900D01*
X104203822Y-140913100D02*
X104203822Y-132986900D01*
X104203822Y-132986900D02*
X132601022Y-132986900D01*
%TO.C,D9*%
D10*
X113600000Y-106095000D02*
X113600000Y-108055000D01*
X113600000Y-108055000D02*
X114800000Y-108055000D01*
X114800000Y-106095000D02*
X114800000Y-108055000D01*
%TO.C,Q8*%
D12*
X164090000Y-98967500D02*
X165090000Y-98967500D01*
X164090000Y-100487500D02*
X164090000Y-98967500D01*
X164140000Y-100487500D02*
X164090000Y-100487500D01*
X166040000Y-100487500D02*
X165260000Y-100487500D01*
X166210000Y-98967500D02*
X167210000Y-98967500D01*
X167210000Y-98967500D02*
X167210000Y-100487500D01*
X167210000Y-100487500D02*
X167160000Y-100487500D01*
X165270000Y-101027500D02*
X165600000Y-100787500D01*
X165600000Y-101267500D01*
X165270000Y-101027500D01*
G36*
X165600000Y-101267500D02*
G01*
X165270000Y-101027500D01*
X165600000Y-100787500D01*
X165600000Y-101267500D01*
G37*
%TO.C,F1*%
X112122936Y-92290000D02*
X113577064Y-92290000D01*
X112122936Y-94110000D02*
X113577064Y-94110000D01*
%TO.C,J5*%
X176260000Y-81620000D02*
X176260000Y-83000000D01*
X174880000Y-81620000D02*
X176260000Y-81620000D01*
X173610000Y-84380000D02*
X160800000Y-84380000D01*
X173610000Y-81620000D02*
X173610000Y-84380000D01*
X173610000Y-81620000D02*
X160800000Y-81620000D01*
X160800000Y-81620000D02*
X160800000Y-84380000D01*
%TO.C,D6*%
X186050000Y-100810000D02*
X186050000Y-96800000D01*
X186050000Y-100810000D02*
X188050000Y-100810000D01*
X188050000Y-100810000D02*
X188050000Y-96800000D01*
%TO.C,D5*%
X121760000Y-101520000D02*
X117750000Y-101520000D01*
X121760000Y-103520000D02*
X117750000Y-103520000D01*
X121760000Y-103520000D02*
X121760000Y-101520000D01*
%TO.C,Q6*%
X129297500Y-118290000D02*
X129297500Y-119290000D01*
X127777500Y-118290000D02*
X129297500Y-118290000D01*
X127777500Y-118340000D02*
X127777500Y-118290000D01*
X127777500Y-120240000D02*
X127777500Y-119460000D01*
X129297500Y-120410000D02*
X129297500Y-121410000D01*
X129297500Y-121410000D02*
X127777500Y-121410000D01*
X127777500Y-121410000D02*
X127777500Y-121360000D01*
X127237500Y-119470000D02*
X127477500Y-119800000D01*
X126997500Y-119800000D01*
X127237500Y-119470000D01*
G36*
X127477500Y-119800000D02*
G01*
X126997500Y-119800000D01*
X127237500Y-119470000D01*
X127477500Y-119800000D01*
G37*
%TO.C,SW2*%
X164450000Y-95400000D02*
X164450000Y-91200000D01*
X164450000Y-91200000D02*
X164060000Y-91200000D01*
X164060000Y-95400000D02*
X164450000Y-95400000D01*
X161540000Y-95400000D02*
X161150000Y-95400000D01*
X161150000Y-95400000D02*
X161150000Y-91200000D01*
X161150000Y-91200000D02*
X161540000Y-91200000D01*
%TO.C,J2*%
D11*
X100500000Y-113300000D02*
X100800000Y-113600000D01*
X100500000Y-113300000D02*
X100800000Y-113000000D01*
X101200000Y-113300000D02*
X100500000Y-113300000D01*
X100800000Y-113000000D02*
X100500000Y-113300000D01*
X98250000Y-114050000D02*
X107750000Y-114050000D01*
X107750000Y-130750000D01*
X98250000Y-130750000D01*
X98250000Y-114050000D01*
D13*
X102305277Y-113300000D02*
G75*
G02*
X101894723Y-113300000I-205277J0D01*
G01*
X101894723Y-113300000D02*
G75*
G02*
X102305277Y-113300000I205277J0D01*
G01*
%TO.C,D4*%
D10*
X187025000Y-89162500D02*
X188985000Y-89162500D01*
X187025000Y-90362500D02*
X188985000Y-90362500D01*
X188985000Y-90362500D02*
X188985000Y-89162500D01*
%TO.C,U4*%
D12*
X149460278Y-123270000D02*
X149460278Y-128470000D01*
X149460278Y-128470000D02*
X154760278Y-128470000D01*
X151110278Y-123270000D02*
X149460278Y-123270000D01*
X154760278Y-123270000D02*
X153110278Y-123270000D01*
X154760278Y-128470000D02*
X154760278Y-123270000D01*
X153110278Y-123270000D02*
G75*
G02*
X151110278Y-123270000I-1000000J0D01*
G01*
%TO.C,R22*%
X166450000Y-146650000D02*
X167560000Y-146650000D01*
X178810000Y-146650000D02*
X177700000Y-146650000D01*
X167560000Y-144730000D02*
X177700000Y-144730000D01*
X177700000Y-148570000D01*
X167560000Y-148570000D01*
X167560000Y-144730000D01*
%TO.C,D3*%
D10*
X112500000Y-102520000D02*
X112500000Y-100560000D01*
X113700000Y-100560000D02*
X112500000Y-100560000D01*
X113700000Y-102520000D02*
X113700000Y-100560000D01*
%TO.C,J1*%
D11*
X118300000Y-82500000D02*
X118000000Y-82800000D01*
X118300000Y-82500000D02*
X118600000Y-82800000D01*
X118300000Y-83200000D02*
X118300000Y-82500000D01*
X118600000Y-82800000D02*
X118300000Y-82500000D01*
X105850000Y-80250000D02*
X117550000Y-80250000D01*
X117550000Y-89750000D01*
X105850000Y-89750000D01*
X105850000Y-80250000D01*
D13*
X118505277Y-84100000D02*
G75*
G02*
X118094723Y-84100000I-205277J0D01*
G01*
X118094723Y-84100000D02*
G75*
G02*
X118505277Y-84100000I205277J0D01*
G01*
%TO.C,D1*%
D10*
X128200000Y-91800000D02*
X128200000Y-94490000D01*
X128200000Y-94490000D02*
X130120000Y-94490000D01*
X130120000Y-94490000D02*
X130120000Y-91800000D01*
%TO.C,Q9*%
D12*
X171210000Y-101122500D02*
X170210000Y-101122500D01*
X171210000Y-99602500D02*
X171210000Y-101122500D01*
X171160000Y-99602500D02*
X171210000Y-99602500D01*
X169260000Y-99602500D02*
X170040000Y-99602500D01*
X169090000Y-101122500D02*
X168090000Y-101122500D01*
X168090000Y-101122500D02*
X168090000Y-99602500D01*
X168090000Y-99602500D02*
X168140000Y-99602500D01*
X170030000Y-99062500D02*
X169700000Y-99302500D01*
X169700000Y-98822500D01*
X170030000Y-99062500D01*
G36*
X170030000Y-99062500D02*
G01*
X169700000Y-99302500D01*
X169700000Y-98822500D01*
X170030000Y-99062500D01*
G37*
%TO.C,D8*%
D10*
X186335000Y-93400000D02*
X186335000Y-92200000D01*
X184375000Y-93400000D02*
X186335000Y-93400000D01*
X184375000Y-92200000D02*
X186335000Y-92200000D01*
%TO.C,J6*%
D12*
X165200000Y-121180000D02*
X165200000Y-119800000D01*
X166580000Y-121180000D02*
X165200000Y-121180000D01*
X167850000Y-121180000D02*
X180660000Y-121180000D01*
X167850000Y-121180000D02*
X167850000Y-118420000D01*
X180660000Y-121180000D02*
X180660000Y-118420000D01*
X167850000Y-118420000D02*
X180660000Y-118420000D01*
%TO.C,R27*%
X142505278Y-126300000D02*
X142505278Y-127410000D01*
X142505278Y-138660000D02*
X142505278Y-137550000D01*
X140585278Y-127410000D02*
X144425278Y-127410000D01*
X144425278Y-137550000D01*
X140585278Y-137550000D01*
X140585278Y-127410000D01*
%TO.C,U3*%
X163670000Y-139695000D02*
X168870000Y-139695000D01*
X168870000Y-139695000D02*
X168870000Y-134395000D01*
X163670000Y-138045000D02*
X163670000Y-139695000D01*
X163670000Y-134395000D02*
X163670000Y-136045000D01*
X168870000Y-134395000D02*
X163670000Y-134395000D01*
X163670000Y-136045000D02*
G75*
G02*
X163670000Y-138045000I0J-1000000D01*
G01*
%TO.C,J4*%
X187965000Y-126690000D02*
X187965000Y-127325000D01*
X187330000Y-126690000D02*
X187965000Y-126690000D01*
%TO.C,U1*%
X121240000Y-87490000D02*
X121240000Y-88750000D01*
X121240000Y-94310000D02*
X121240000Y-93050000D01*
X125000000Y-87490000D02*
X121240000Y-87490000D01*
X125000000Y-94310000D02*
X121240000Y-94310000D01*
X119960000Y-87630000D02*
X119720000Y-87300000D01*
X120200000Y-87300000D01*
X119960000Y-87630000D01*
G36*
X119960000Y-87630000D02*
G01*
X119720000Y-87300000D01*
X120200000Y-87300000D01*
X119960000Y-87630000D01*
G37*
%TO.C,U2*%
X139015000Y-82270000D02*
X139015000Y-89020000D01*
X139015000Y-82270000D02*
X157015000Y-82270000D01*
X139015000Y-107020000D02*
X139015000Y-107770000D01*
X139015000Y-107770000D02*
X140015000Y-107770000D01*
X157015000Y-82270000D02*
X157015000Y-89020000D01*
X157015000Y-88210000D02*
X139015000Y-88210000D01*
X157015000Y-107020000D02*
X157015000Y-107770000D01*
X157015000Y-107770000D02*
X156015000Y-107770000D01*
%TO.C,D7*%
D10*
X115512500Y-105195000D02*
X115512500Y-103235000D01*
X116712500Y-103235000D02*
X115512500Y-103235000D01*
X116712500Y-105195000D02*
X116712500Y-103235000D01*
%TO.C,J8*%
D11*
X189700000Y-151100000D02*
X190000000Y-150800000D01*
X189300000Y-150800000D02*
X190000000Y-150800000D01*
X190000000Y-150800000D02*
X189700000Y-151100000D01*
X190000000Y-150800000D02*
X189700000Y-150500000D01*
X182750000Y-138350000D02*
X192250000Y-138350000D01*
X192250000Y-150050000D01*
X182750000Y-150050000D01*
X182750000Y-138350000D01*
D13*
X188605277Y-150800000D02*
G75*
G02*
X188194723Y-150800000I-205277J0D01*
G01*
X188194723Y-150800000D02*
G75*
G02*
X188605277Y-150800000I205277J0D01*
G01*
%TO.C,U6*%
D12*
X170745000Y-104797500D02*
X171470000Y-104797500D01*
X170745000Y-105522500D02*
X170745000Y-104797500D01*
X170745000Y-110017500D02*
X170745000Y-109292500D01*
X171470000Y-110017500D02*
X170745000Y-110017500D01*
X175240000Y-104797500D02*
X175965000Y-104797500D01*
X175965000Y-104797500D02*
X175965000Y-105522500D01*
X175965000Y-109292500D02*
X175965000Y-110017500D01*
X175965000Y-110017500D02*
X175240000Y-110017500D01*
X171855000Y-110517500D02*
X172095000Y-110847500D01*
X171615000Y-110847500D01*
X171855000Y-110517500D01*
G36*
X172095000Y-110847500D02*
G01*
X171615000Y-110847500D01*
X171855000Y-110517500D01*
X172095000Y-110847500D01*
G37*
%TO.C,D10*%
D10*
X181740000Y-89900000D02*
X181740000Y-91100000D01*
X183700000Y-89900000D02*
X181740000Y-89900000D01*
X183700000Y-91100000D02*
X181740000Y-91100000D01*
%TO.C,Q5*%
D12*
X152580000Y-113745000D02*
X152580000Y-115125000D01*
X151200000Y-113745000D02*
X152580000Y-113745000D01*
X149930000Y-116505000D02*
X116800000Y-116505000D01*
X149930000Y-113745000D02*
X149930000Y-116505000D01*
X149930000Y-113745000D02*
X116800000Y-113745000D01*
X116800000Y-113745000D02*
X116800000Y-116505000D01*
%TO.C,J9*%
D11*
X138055278Y-149300000D02*
X138355278Y-149600000D01*
X138355278Y-148900000D02*
X138355278Y-149600000D01*
X138355278Y-149600000D02*
X138055278Y-149300000D01*
X138355278Y-149600000D02*
X138655278Y-149300000D01*
X139105278Y-142350000D02*
X150805278Y-142350000D01*
X150805278Y-151850000D01*
X139105278Y-151850000D01*
X139105278Y-142350000D01*
D13*
X138560555Y-148000000D02*
G75*
G02*
X138150001Y-148000000I-205277J0D01*
G01*
X138150001Y-148000000D02*
G75*
G02*
X138560555Y-148000000I205277J0D01*
G01*
%TO.C,SW1*%
D12*
X174850000Y-95400000D02*
X174850000Y-91200000D01*
X174850000Y-91200000D02*
X174460000Y-91200000D01*
X174460000Y-95400000D02*
X174850000Y-95400000D01*
X171940000Y-95400000D02*
X171550000Y-95400000D01*
X171550000Y-95400000D02*
X171550000Y-91200000D01*
X171550000Y-91200000D02*
X171940000Y-91200000D01*
%TO.C,D2*%
X158100000Y-112100000D02*
X158100000Y-116100000D01*
X158100000Y-112100000D02*
X163700000Y-112100000D01*
X158100000Y-116100000D02*
X163100000Y-116100000D01*
X163700000Y-115500000D02*
X163100000Y-116100000D01*
X163700000Y-115500000D02*
X163700000Y-112100000D01*
%TD*%
%LPC*%
D14*
%TO.C,Q10*%
X114200000Y-130750000D03*
X113250000Y-128875000D03*
X115150000Y-128875000D03*
%TD*%
D15*
%TO.C,J10*%
X130500000Y-147600000D03*
D16*
X125500000Y-147600000D03*
%TD*%
D17*
%TO.C,U5*%
X130496022Y-134486900D03*
X125456022Y-134486900D03*
D18*
X109076022Y-134486900D03*
D19*
X105296022Y-134486900D03*
%TD*%
D20*
%TO.C,R21*%
X116800000Y-127270000D03*
X116800000Y-125630000D03*
%TD*%
D21*
%TO.C,R6*%
X164800000Y-85850000D03*
X163160000Y-85850000D03*
%TD*%
%TO.C,R5*%
X164800000Y-88100000D03*
X163160000Y-88100000D03*
%TD*%
D22*
%TO.C,R31*%
X172580000Y-103152500D03*
X170940000Y-103152500D03*
%TD*%
D21*
%TO.C,R30*%
X162980000Y-102800000D03*
X164620000Y-102800000D03*
%TD*%
D23*
%TO.C,C13*%
X177200000Y-111652500D03*
X175300000Y-111652500D03*
%TD*%
D24*
%TO.C,D9*%
X114200000Y-107495000D03*
X114200000Y-106095000D03*
%TD*%
D25*
%TO.C,Q8*%
X164700000Y-100665000D03*
X166600000Y-100665000D03*
X165650000Y-98790000D03*
%TD*%
D26*
%TO.C,F1*%
X111387500Y-93200000D03*
X114287500Y-93200000D03*
%TD*%
D27*
%TO.C,J5*%
X174880000Y-83000000D03*
D28*
X172340000Y-83000000D03*
X169800000Y-83000000D03*
X167260000Y-83000000D03*
X164720000Y-83000000D03*
X162180000Y-83000000D03*
%TD*%
D20*
%TO.C,R13*%
X164750000Y-110235000D03*
X164750000Y-111875000D03*
%TD*%
D29*
%TO.C,D6*%
X187050000Y-100100000D03*
X187050000Y-96800000D03*
%TD*%
D30*
%TO.C,D5*%
X121050000Y-102520000D03*
X117750000Y-102520000D03*
%TD*%
D31*
%TO.C,Q6*%
X127600000Y-118900000D03*
X127600000Y-120800000D03*
X129475000Y-119850000D03*
%TD*%
D20*
%TO.C,R3*%
X131800000Y-93380000D03*
X131800000Y-95020000D03*
%TD*%
D32*
%TO.C,SW2*%
X162800000Y-95525000D03*
X162800000Y-91075000D03*
%TD*%
D20*
%TO.C,R32*%
X182700000Y-98470000D03*
X182700000Y-96830000D03*
%TD*%
D22*
%TO.C,R28*%
X162110000Y-130250000D03*
X163750000Y-130250000D03*
%TD*%
D33*
%TO.C,C4*%
X134700000Y-90920000D03*
X134700000Y-89020000D03*
%TD*%
D16*
%TO.C,J2*%
X102500000Y-117400000D03*
D15*
X102500000Y-122400000D03*
X102500000Y-127400000D03*
%TD*%
D34*
%TO.C,D4*%
X188425000Y-89762500D03*
X187025000Y-89762500D03*
%TD*%
D35*
%TO.C,R14*%
X133400000Y-95020000D03*
X133400000Y-93380000D03*
%TD*%
D36*
%TO.C,U4*%
X148300278Y-124600000D03*
D37*
X148300278Y-127140000D03*
X155920278Y-127140000D03*
X155920278Y-124600000D03*
%TD*%
D20*
%TO.C,R29*%
X158905278Y-121615000D03*
X158905278Y-123255000D03*
%TD*%
D38*
%TO.C,C7*%
X109275000Y-130664723D03*
X109275000Y-129104723D03*
%TD*%
D39*
%TO.C,H2*%
X157900000Y-147200000D03*
%TD*%
D40*
%TO.C,R22*%
X180250000Y-146650000D03*
X165010000Y-146650000D03*
%TD*%
D41*
%TO.C,D3*%
X113100000Y-101120000D03*
X113100000Y-102520000D03*
%TD*%
D16*
%TO.C,J1*%
X114200000Y-84500000D03*
D15*
X109200000Y-84500000D03*
%TD*%
D22*
%TO.C,R26*%
X188880000Y-92300000D03*
X190520000Y-92300000D03*
%TD*%
D35*
%TO.C,R10*%
X111275000Y-121744723D03*
X111275000Y-120104723D03*
%TD*%
D42*
%TO.C,R38*%
X167800000Y-107907500D03*
X167800000Y-109727500D03*
%TD*%
D39*
%TO.C,H1*%
X103100000Y-93100000D03*
%TD*%
D43*
%TO.C,D1*%
X129160000Y-93740000D03*
X129160000Y-91860000D03*
%TD*%
D44*
%TO.C,C9*%
X158905278Y-125030000D03*
X158905278Y-126590000D03*
%TD*%
D14*
%TO.C,Q9*%
X170600000Y-99425000D03*
X168700000Y-99425000D03*
X169650000Y-101300000D03*
%TD*%
D22*
%TO.C,R25*%
X108780000Y-100600000D03*
X110420000Y-100600000D03*
%TD*%
D20*
%TO.C,R37*%
X178030000Y-104537500D03*
X178030000Y-106177500D03*
%TD*%
D35*
%TO.C,R9*%
X109450000Y-123434723D03*
X109450000Y-121794723D03*
%TD*%
D34*
%TO.C,D8*%
X184375000Y-92800000D03*
X185775000Y-92800000D03*
%TD*%
D20*
%TO.C,R23*%
X108400000Y-107075000D03*
X108400000Y-108715000D03*
%TD*%
D45*
%TO.C,C8*%
X165340000Y-130250000D03*
X166900000Y-130250000D03*
%TD*%
D27*
%TO.C,J6*%
X166580000Y-119800000D03*
D28*
X169120000Y-119800000D03*
X171660000Y-119800000D03*
X174200000Y-119800000D03*
X176740000Y-119800000D03*
X179280000Y-119800000D03*
%TD*%
D40*
%TO.C,R27*%
X142505278Y-140100000D03*
X142505278Y-124860000D03*
%TD*%
D46*
%TO.C,U3*%
X165000000Y-140855000D03*
D37*
X167540000Y-140855000D03*
X167540000Y-133235000D03*
X165000000Y-133235000D03*
%TD*%
D35*
%TO.C,R15*%
X111275000Y-125059723D03*
X111275000Y-123419723D03*
%TD*%
D39*
%TO.C,H3*%
X186775000Y-114400000D03*
%TD*%
D47*
%TO.C,J4*%
X188600000Y-130500000D03*
D48*
X188600000Y-127960000D03*
D47*
X188600000Y-125420000D03*
X185425000Y-130500000D03*
X185425000Y-125420000D03*
D48*
X183520000Y-128976000D03*
X183520000Y-126944000D03*
D49*
X187330000Y-127325000D03*
X187330000Y-128595000D03*
X186060000Y-127325000D03*
X186060000Y-128595000D03*
X184790000Y-127325000D03*
X184790000Y-128595000D03*
%TD*%
D21*
%TO.C,R24*%
X180420000Y-92300000D03*
X178780000Y-92300000D03*
%TD*%
D44*
%TO.C,C3*%
X136400000Y-93020000D03*
X136400000Y-94580000D03*
%TD*%
D50*
%TO.C,R39*%
X167800000Y-106107500D03*
X167800000Y-104287500D03*
%TD*%
D33*
%TO.C,C1*%
X117050000Y-93200000D03*
X117050000Y-91300000D03*
%TD*%
D51*
%TO.C,U1*%
X120000000Y-88600000D03*
X120000000Y-90900000D03*
X120000000Y-93200000D03*
D52*
X126400000Y-90900000D03*
%TD*%
D53*
%TO.C,C2*%
X124800000Y-85800000D03*
X122900000Y-85800000D03*
%TD*%
D44*
%TO.C,C12*%
X178800000Y-111180000D03*
X178800000Y-109620000D03*
%TD*%
D54*
%TO.C,U2*%
X139265000Y-89760000D03*
X139265000Y-91030000D03*
X139265000Y-92300000D03*
X139265000Y-93570000D03*
X139265000Y-94840000D03*
X139265000Y-96110000D03*
X139265000Y-97380000D03*
X139265000Y-98650000D03*
X139265000Y-99920000D03*
X139265000Y-101190000D03*
X139265000Y-102460000D03*
X139265000Y-103730000D03*
X139265000Y-105000000D03*
X139265000Y-106270000D03*
D55*
X141030000Y-107520000D03*
X142300000Y-107520000D03*
X143570000Y-107520000D03*
X144840000Y-107520000D03*
X146110000Y-107520000D03*
X147380000Y-107520000D03*
X148650000Y-107520000D03*
X149920000Y-107520000D03*
X151190000Y-107520000D03*
X152460000Y-107520000D03*
X153730000Y-107520000D03*
X155000000Y-107520000D03*
D54*
X156765000Y-106270000D03*
X156765000Y-105000000D03*
X156765000Y-103730000D03*
X156765000Y-102460000D03*
X156765000Y-101190000D03*
X156765000Y-99920000D03*
X156765000Y-98650000D03*
X156765000Y-97380000D03*
X156765000Y-96110000D03*
X156765000Y-94840000D03*
X156765000Y-93570000D03*
X156765000Y-92300000D03*
X156765000Y-91030000D03*
X156765000Y-89760000D03*
D56*
X145115000Y-96080000D03*
X145115000Y-97480000D03*
X145115000Y-98880000D03*
X145115000Y-98880000D03*
X146515000Y-96080000D03*
X146515000Y-96080000D03*
X146515000Y-97480000D03*
X146515000Y-98880000D03*
X147915000Y-96080000D03*
X147915000Y-97480000D03*
X147915000Y-98880000D03*
%TD*%
D41*
%TO.C,D7*%
X116112500Y-103795000D03*
X116112500Y-105195000D03*
%TD*%
D16*
%TO.C,J8*%
X188000000Y-146700000D03*
D15*
X188000000Y-141700000D03*
%TD*%
D22*
%TO.C,R16*%
X120160000Y-119600000D03*
X121800000Y-119600000D03*
%TD*%
D35*
%TO.C,R2*%
X161055000Y-87595000D03*
X161055000Y-85955000D03*
%TD*%
D21*
%TO.C,R34*%
X182695000Y-100375000D03*
X181055000Y-100375000D03*
%TD*%
D39*
%TO.C,H4*%
X104000000Y-147100000D03*
%TD*%
D57*
%TO.C,U6*%
X171855000Y-109857500D03*
X172355000Y-109857500D03*
X172855000Y-109857500D03*
X173355000Y-109857500D03*
X173855000Y-109857500D03*
X174355000Y-109857500D03*
X174855000Y-109857500D03*
D58*
X175805000Y-108907500D03*
X175805000Y-108407500D03*
X175805000Y-107907500D03*
X175805000Y-107407500D03*
X175805000Y-106907500D03*
X175805000Y-106407500D03*
X175805000Y-105907500D03*
D57*
X174855000Y-104957500D03*
X174355000Y-104957500D03*
X173855000Y-104957500D03*
X173355000Y-104957500D03*
X172855000Y-104957500D03*
X172355000Y-104957500D03*
X171855000Y-104957500D03*
D58*
X170905000Y-105907500D03*
X170905000Y-106407500D03*
X170905000Y-106907500D03*
X170905000Y-107407500D03*
X170905000Y-107907500D03*
X170905000Y-108407500D03*
X170905000Y-108907500D03*
D59*
X173355000Y-107407500D03*
%TD*%
D20*
%TO.C,R1*%
X166700000Y-86055000D03*
X166700000Y-87695000D03*
%TD*%
D60*
%TO.C,D10*%
X182300000Y-90500000D03*
X183700000Y-90500000D03*
%TD*%
D28*
%TO.C,Q5*%
X118180000Y-115125000D03*
X120720000Y-115125000D03*
X123260000Y-115125000D03*
X125800000Y-115125000D03*
X128340000Y-115125000D03*
X130880000Y-115125000D03*
X133420000Y-115125000D03*
X135960000Y-115125000D03*
X138500000Y-115125000D03*
X141040000Y-115125000D03*
X143580000Y-115125000D03*
X146120000Y-115125000D03*
X148660000Y-115125000D03*
D27*
X151200000Y-115125000D03*
%TD*%
D61*
%TO.C,R4*%
X161030000Y-110225000D03*
X162850000Y-110225000D03*
%TD*%
D21*
%TO.C,R17*%
X124855000Y-119600000D03*
X123215000Y-119600000D03*
%TD*%
%TO.C,R36*%
X178945000Y-108002500D03*
X177305000Y-108002500D03*
%TD*%
D62*
%TO.C,J3*%
X101620000Y-109380000D03*
D63*
X105820000Y-109380000D03*
D64*
X101000000Y-107050000D03*
X103000000Y-107050000D03*
D65*
X102000000Y-105050000D03*
D64*
X101000000Y-103050000D03*
X103000000Y-103050000D03*
D62*
X101620000Y-100720000D03*
D63*
X105820000Y-100720000D03*
D66*
X106500000Y-101850000D03*
X106500000Y-102650000D03*
D67*
X106500000Y-103300000D03*
X106500000Y-104300000D03*
X106500000Y-105800000D03*
X106500000Y-106800000D03*
D66*
X106500000Y-108250000D03*
X106500000Y-107450000D03*
D67*
X106500000Y-106300000D03*
X106500000Y-105300000D03*
X106500000Y-104800000D03*
X106500000Y-103800000D03*
D68*
X105300000Y-107940000D03*
X105300000Y-102160000D03*
%TD*%
D23*
%TO.C,C10*%
X186875000Y-102287500D03*
X188775000Y-102287500D03*
%TD*%
D16*
%TO.C,J9*%
X142455278Y-147600000D03*
D15*
X147455278Y-147600000D03*
%TD*%
D33*
%TO.C,C11*%
X123250000Y-102745000D03*
X123250000Y-100845000D03*
%TD*%
D38*
%TO.C,C5*%
X136850000Y-90700000D03*
X136850000Y-89140000D03*
%TD*%
D68*
%TO.C,J11*%
X187515000Y-86300000D03*
X181735000Y-86300000D03*
D69*
X185875000Y-87500000D03*
X184875000Y-87500000D03*
X184375000Y-87500000D03*
X183375000Y-87500000D03*
D70*
X182225000Y-87500000D03*
X181425000Y-87500000D03*
D69*
X182875000Y-87500000D03*
X183875000Y-87500000D03*
X185375000Y-87500000D03*
X186375000Y-87500000D03*
D70*
X187025000Y-87500000D03*
X187825000Y-87500000D03*
D71*
X188955000Y-86820000D03*
D72*
X188955000Y-82620000D03*
D64*
X186625000Y-84000000D03*
X186625000Y-82000000D03*
D73*
X184625000Y-83000000D03*
D64*
X182625000Y-84000000D03*
X182625000Y-82000000D03*
D71*
X180295000Y-86820000D03*
D72*
X180295000Y-82620000D03*
%TD*%
D32*
%TO.C,SW1*%
X173200000Y-95525000D03*
X173200000Y-91075000D03*
%TD*%
D74*
%TO.C,D2*%
X159150000Y-113225000D03*
X159150000Y-114975000D03*
X162650000Y-114975000D03*
X162650000Y-113225000D03*
%TD*%
%LPD*%
M02*
