M48
; DRILL file KiCad 10.0.3 date 2026-06-22T11:34:40
; FORMAT={-:-/ absolute / inch / decimal}
; #@! TF.CreationDate,2026-06-22T11:34:40+02:00
; #@! TF.GenerationSoftware,Kicad,Pcbnew,10.0.3
; #@! TF.FileFunction,Plated,1,4,PTH
FMAT,2
INCH
; #@! TA.AperFunction,Plated,PTH,ViaDrill
T1C0.0118
; #@! TA.AperFunction,Plated,PTH,ComponentDrill
T2C0.0118
; #@! TA.AperFunction,Plated,PTH,ComponentDrill
T3C0.0197
; #@! TA.AperFunction,Plated,PTH,ComponentDrill
T4C0.0315
; #@! TA.AperFunction,Plated,PTH,ComponentDrill
T5C0.0394
; #@! TA.AperFunction,Plated,PTH,ComponentDrill
T6C0.0472
; #@! TA.AperFunction,Plated,PTH,ComponentDrill
T7C0.0551
%
G90
G05
T1
X6.6339Y-4.0157
X6.6683Y-4.1654
X6.6772Y-4.2717
X6.7283Y-4.0157
X6.8218Y-4.4016
X6.8474Y-4.4016
X6.8945Y-3.9732
X6.9126Y-3.9914
X7.3268Y-3.5827
X7.3976Y-3.6339
T2
X3.9764Y-4.0571
X3.9764Y-4.2146
X4.0551Y-4.0571
X4.0551Y-4.2146
X7.19Y-3.2283
X7.19Y-3.3071
X7.3474Y-3.2283
X7.3474Y-3.3071
T4
X4.1455Y-5.2948
X4.2943Y-5.2948
X5.8386Y-4.9055
X5.8386Y-5.0055
X6.1386Y-4.9055
X6.1386Y-5.0055
X6.4961Y-5.2455
X6.4961Y-5.5455
X6.5961Y-5.2455
X6.5961Y-5.5455
T5
X4.6528Y-4.5325
X4.7528Y-4.5325
X4.8528Y-4.5325
X4.9528Y-4.5325
X5.0528Y-4.5325
X5.1528Y-4.5325
X5.2528Y-4.5325
X5.3528Y-4.5325
X5.4528Y-4.5325
X5.5528Y-4.5325
X5.6528Y-4.5325
X5.7528Y-4.5325
X5.8528Y-4.5325
X5.9528Y-4.5325
X6.385Y-3.2677
X6.485Y-3.2677
X6.5583Y-4.7165
X6.585Y-3.2677
X6.6583Y-4.7165
X6.685Y-3.2677
X6.7583Y-4.7165
X6.785Y-3.2677
X6.8583Y-4.7165
X6.885Y-3.2677
X6.9583Y-4.7165
X7.0583Y-4.7165
T6
X5.6104Y-4.9157
X5.6104Y-5.5157
X6.4965Y-5.7736
X7.0965Y-5.7736
T7
X4.0354Y-4.622
X4.0354Y-4.8189
X4.0354Y-5.0157
X4.2992Y-3.3268
X4.4961Y-3.3268
X4.9409Y-5.811
X5.1378Y-5.811
X5.6085Y-5.811
X5.8053Y-5.811
X7.4016Y-5.5787
X7.4016Y-5.7756
T3
G00X4.0165Y-3.9654
M15
G01X3.985Y-3.9654
M16
G05
G00X4.0165Y-4.3063
M15
G01X3.985Y-4.3063
M16
G05
G00X4.1878Y-3.9654
M15
G01X4.1445Y-3.9654
M16
G05
G00X4.1878Y-4.3063
M15
G01X4.1445Y-4.3063
M16
G05
G00X7.0982Y-3.2685
M15
G01X7.0982Y-3.237
M16
G05
G00X7.0982Y-3.4398
M15
G01X7.0982Y-3.3965
M16
G05
G00X7.4392Y-3.2685
M15
G01X7.4392Y-3.237
M16
G05
G00X7.4392Y-3.4398
M15
G01X7.4392Y-3.3965
M16
G05
T6
G00X4.9333Y-5.2948
M15
G01X4.9451Y-5.2948
M16
G05
G00X5.1317Y-5.2948
M15
G01X5.1435Y-5.2948
M16
G05
M30
