%TF.GenerationSoftware,KiCad,Pcbnew,10.0.3*%
%TF.CreationDate,2026-06-23T11:35:37+02:00*%
%TF.ProjectId,presstimer,70726573-7374-4696-9d65-722e6b696361,rev?*%
%TF.SameCoordinates,Original*%
%TF.FileFunction,Paste,Top*%
%TF.FilePolarity,Positive*%
%FSLAX46Y46*%
G04 Gerber Fmt 4.6, Leading zero omitted, Abs format (unit mm)*
G04 Created by KiCad (PCBNEW 10.0.3) date 2026-06-23 11:35:37*
%MOMM*%
%LPD*%
G01*
G04 APERTURE LIST*
G04 Aperture macros list*
%AMRoundRect*
0 Rectangle with rounded corners*
0 $1 Rounding radius*
0 $2 $3 $4 $5 $6 $7 $8 $9 X,Y pos of 4 corners*
0 Add a 4 corners polygon primitive as box body*
4,1,4,$2,$3,$4,$5,$6,$7,$8,$9,$2,$3,0*
0 Add four circle primitives for the rounded corners*
1,1,$1+$1,$2,$3*
1,1,$1+$1,$4,$5*
1,1,$1+$1,$6,$7*
1,1,$1+$1,$8,$9*
0 Add four rect primitives between the rounded corners*
20,1,$1+$1,$2,$3,$4,$5,0*
20,1,$1+$1,$4,$5,$6,$7,0*
20,1,$1+$1,$6,$7,$8,$9,0*
20,1,$1+$1,$8,$9,$2,$3,0*%
G04 Aperture macros list end*
%ADD10RoundRect,0.150000X-0.200000X0.150000X-0.200000X-0.150000X0.200000X-0.150000X0.200000X0.150000X0*%
%ADD11RoundRect,0.150000X0.150000X-0.587500X0.150000X0.587500X-0.150000X0.587500X-0.150000X-0.587500X0*%
%ADD12RoundRect,0.244444X-0.305556X-0.660556X0.305556X-0.660556X0.305556X0.660556X-0.305556X0.660556X0*%
%ADD13RoundRect,0.200000X-0.275000X0.200000X-0.275000X-0.200000X0.275000X-0.200000X0.275000X0.200000X0*%
%ADD14RoundRect,0.225000X0.375000X-0.225000X0.375000X0.225000X-0.375000X0.225000X-0.375000X-0.225000X0*%
%ADD15RoundRect,0.225000X0.225000X0.375000X-0.225000X0.375000X-0.225000X-0.375000X0.225000X-0.375000X0*%
%ADD16RoundRect,0.150000X-0.587500X-0.150000X0.587500X-0.150000X0.587500X0.150000X-0.587500X0.150000X0*%
%ADD17RoundRect,0.250000X0.750000X-0.275000X0.750000X0.275000X-0.750000X0.275000X-0.750000X-0.275000X0*%
%ADD18RoundRect,0.250000X0.475000X-0.250000X0.475000X0.250000X-0.475000X0.250000X-0.475000X-0.250000X0*%
%ADD19RoundRect,0.150000X-0.150000X-0.200000X0.150000X-0.200000X0.150000X0.200000X-0.150000X0.200000X0*%
%ADD20RoundRect,0.200000X0.275000X-0.200000X0.275000X0.200000X-0.275000X0.200000X-0.275000X-0.200000X0*%
%ADD21RoundRect,0.225000X0.225000X0.250000X-0.225000X0.250000X-0.225000X-0.250000X0.225000X-0.250000X0*%
%ADD22RoundRect,0.200000X-0.200000X-0.275000X0.200000X-0.275000X0.200000X0.275000X-0.200000X0.275000X0*%
%ADD23RoundRect,0.250000X-0.250000X-0.475000X0.250000X-0.475000X0.250000X0.475000X-0.250000X0.475000X0*%
%ADD24RoundRect,0.150000X0.200000X-0.150000X0.200000X0.150000X-0.200000X0.150000X-0.200000X-0.150000X0*%
%ADD25RoundRect,0.150000X-0.150000X0.587500X-0.150000X-0.587500X0.150000X-0.587500X0.150000X0.587500X0*%
%ADD26RoundRect,0.200000X0.200000X0.275000X-0.200000X0.275000X-0.200000X-0.275000X0.200000X-0.275000X0*%
%ADD27RoundRect,0.248780X-0.451220X0.261220X-0.451220X-0.261220X0.451220X-0.261220X0.451220X0.261220X0*%
%ADD28RoundRect,0.242500X0.457500X-0.242500X0.457500X0.242500X-0.457500X0.242500X-0.457500X-0.242500X0*%
%ADD29RoundRect,0.225000X-0.250000X0.225000X-0.250000X-0.225000X0.250000X-0.225000X0.250000X0.225000X0*%
%ADD30RoundRect,0.225000X-0.225000X-0.250000X0.225000X-0.250000X0.225000X0.250000X-0.225000X0.250000X0*%
%ADD31RoundRect,0.248780X0.451220X-0.261220X0.451220X0.261220X-0.451220X0.261220X-0.451220X-0.261220X0*%
%ADD32RoundRect,0.210000X-0.690000X0.490000X-0.690000X-0.490000X0.690000X-0.490000X0.690000X0.490000X0*%
%ADD33RoundRect,0.270000X-0.630000X1.480000X-0.630000X-1.480000X0.630000X-1.480000X0.630000X1.480000X0*%
%ADD34RoundRect,0.250000X0.250000X0.475000X-0.250000X0.475000X-0.250000X-0.475000X0.250000X-0.475000X0*%
%ADD35R,1.500000X0.900000*%
%ADD36R,0.900000X1.500000*%
%ADD37R,0.900000X0.900000*%
%ADD38RoundRect,0.225000X0.225000X-0.225000X0.225000X0.225000X-0.225000X0.225000X-0.225000X-0.225000X0*%
%ADD39RoundRect,0.062500X0.062500X-0.337500X0.062500X0.337500X-0.062500X0.337500X-0.062500X-0.337500X0*%
%ADD40RoundRect,0.062500X0.337500X-0.062500X0.337500X0.062500X-0.337500X0.062500X-0.337500X-0.062500X0*%
%ADD41RoundRect,0.150000X0.150000X0.200000X-0.150000X0.200000X-0.150000X-0.200000X0.150000X-0.200000X0*%
%ADD42R,1.400000X0.300000*%
%ADD43R,1.400000X0.500000*%
%ADD44RoundRect,0.500000X-1.000000X2.000000X-1.000000X-2.000000X1.000000X-2.000000X1.000000X2.000000X0*%
%ADD45RoundRect,0.225000X0.250000X-0.225000X0.250000X0.225000X-0.250000X0.225000X-0.250000X-0.225000X0*%
%ADD46R,0.300000X1.400000*%
%ADD47R,0.500000X1.400000*%
%ADD48RoundRect,0.500000X2.000000X1.000000X-2.000000X1.000000X-2.000000X-1.000000X2.000000X-1.000000X0*%
%ADD49R,1.600000X0.850000*%
G04 APERTURE END LIST*
D10*
%TO.C,D9*%
X114200000Y-106400000D03*
X114200000Y-105000000D03*
%TD*%
D11*
%TO.C,Q8*%
X164700000Y-100665000D03*
X166600000Y-100665000D03*
X165650000Y-98790000D03*
%TD*%
D12*
%TO.C,F1*%
X111387500Y-93200000D03*
X114287500Y-93200000D03*
%TD*%
D13*
%TO.C,R13*%
X178900000Y-123680000D03*
X178900000Y-125320000D03*
%TD*%
D14*
%TO.C,D6*%
X187050000Y-100100000D03*
X187050000Y-96800000D03*
%TD*%
D15*
%TO.C,D5*%
X121050000Y-100700000D03*
X117750000Y-100700000D03*
%TD*%
D16*
%TO.C,Q6*%
X134200000Y-109320000D03*
X134200000Y-111220000D03*
X136075000Y-110270000D03*
%TD*%
D13*
%TO.C,R3*%
X131800000Y-93380000D03*
X131800000Y-95020000D03*
%TD*%
D17*
%TO.C,SW2*%
X162800000Y-95525000D03*
X162800000Y-91075000D03*
%TD*%
D13*
%TO.C,R32*%
X182700000Y-96830000D03*
X182700000Y-98470000D03*
%TD*%
%TO.C,R28*%
X165400000Y-126980000D03*
X165400000Y-128620000D03*
%TD*%
D18*
%TO.C,C4*%
X134700000Y-90920000D03*
X134700000Y-89020000D03*
%TD*%
D19*
%TO.C,D4*%
X188425000Y-89762500D03*
X187025000Y-89762500D03*
%TD*%
D20*
%TO.C,R14*%
X133400000Y-95020000D03*
X133400000Y-93380000D03*
%TD*%
D13*
%TO.C,R29*%
X158905278Y-121615000D03*
X158905278Y-123255000D03*
%TD*%
D21*
%TO.C,C7*%
X111280000Y-126500000D03*
X109720000Y-126500000D03*
%TD*%
D22*
%TO.C,R31*%
X170940000Y-103152500D03*
X172580000Y-103152500D03*
%TD*%
D23*
%TO.C,C13*%
X175300000Y-111652500D03*
X177200000Y-111652500D03*
%TD*%
D24*
%TO.C,D3*%
X113100000Y-101120000D03*
X113100000Y-102520000D03*
%TD*%
D25*
%TO.C,Q10*%
X115150000Y-128875000D03*
X113250000Y-128875000D03*
X114200000Y-130750000D03*
%TD*%
D26*
%TO.C,R30*%
X164620000Y-102800000D03*
X162980000Y-102800000D03*
%TD*%
D22*
%TO.C,R26*%
X188880000Y-92300000D03*
X190520000Y-92300000D03*
%TD*%
D20*
%TO.C,R10*%
X111275000Y-121744723D03*
X111275000Y-120104723D03*
%TD*%
D27*
%TO.C,R38*%
X167800000Y-107907500D03*
X167800000Y-109727500D03*
%TD*%
D28*
%TO.C,D1*%
X129160000Y-93740000D03*
X129160000Y-91860000D03*
%TD*%
D20*
%TO.C,R6*%
X167400000Y-87220000D03*
X167400000Y-85580000D03*
%TD*%
D29*
%TO.C,C9*%
X158000000Y-125030000D03*
X158000000Y-126590000D03*
%TD*%
D25*
%TO.C,Q9*%
X170600000Y-99425000D03*
X168700000Y-99425000D03*
X169650000Y-101300000D03*
%TD*%
D22*
%TO.C,R25*%
X108780000Y-100600000D03*
X110420000Y-100600000D03*
%TD*%
D13*
%TO.C,R37*%
X178800000Y-104180000D03*
X178800000Y-105820000D03*
%TD*%
D20*
%TO.C,R9*%
X109450000Y-123434723D03*
X109450000Y-121794723D03*
%TD*%
D19*
%TO.C,D8*%
X186000000Y-91800000D03*
X184600000Y-91800000D03*
%TD*%
D13*
%TO.C,R23*%
X109800000Y-107075000D03*
X109800000Y-108715000D03*
%TD*%
D30*
%TO.C,C8*%
X165340000Y-131250000D03*
X166900000Y-131250000D03*
%TD*%
D20*
%TO.C,R15*%
X111275000Y-125059723D03*
X111275000Y-123419723D03*
%TD*%
D26*
%TO.C,R24*%
X180420000Y-92300000D03*
X178780000Y-92300000D03*
%TD*%
D21*
%TO.C,C3*%
X137180000Y-92500000D03*
X135620000Y-92500000D03*
%TD*%
D31*
%TO.C,R39*%
X167800000Y-106107500D03*
X167800000Y-104287500D03*
%TD*%
D18*
%TO.C,C1*%
X117050000Y-93200000D03*
X117050000Y-91300000D03*
%TD*%
D32*
%TO.C,U1*%
X120000000Y-88600000D03*
X120000000Y-90900000D03*
X120000000Y-93200000D03*
D33*
X126400000Y-90900000D03*
%TD*%
D34*
%TO.C,C2*%
X124350000Y-85800000D03*
X122450000Y-85800000D03*
%TD*%
D30*
%TO.C,C12*%
X177720000Y-108500000D03*
X179280000Y-108500000D03*
%TD*%
D35*
%TO.C,U2*%
X139265000Y-89760000D03*
X139265000Y-91030000D03*
X139265000Y-92300000D03*
X139265000Y-93570000D03*
X139265000Y-94840000D03*
X139265000Y-96110000D03*
X139265000Y-97380000D03*
X139265000Y-98650000D03*
X139265000Y-99920000D03*
X139265000Y-101190000D03*
X139265000Y-102460000D03*
X139265000Y-103730000D03*
X139265000Y-105000000D03*
X139265000Y-106270000D03*
D36*
X141030000Y-107520000D03*
X142300000Y-107520000D03*
X143570000Y-107520000D03*
X144840000Y-107520000D03*
X146110000Y-107520000D03*
X147380000Y-107520000D03*
X148650000Y-107520000D03*
X149920000Y-107520000D03*
X151190000Y-107520000D03*
X152460000Y-107520000D03*
X153730000Y-107520000D03*
X155000000Y-107520000D03*
D35*
X156765000Y-106270000D03*
X156765000Y-105000000D03*
X156765000Y-103730000D03*
X156765000Y-102460000D03*
X156765000Y-101190000D03*
X156765000Y-99920000D03*
X156765000Y-98650000D03*
X156765000Y-97380000D03*
X156765000Y-96110000D03*
X156765000Y-94840000D03*
X156765000Y-93570000D03*
X156765000Y-92300000D03*
X156765000Y-91030000D03*
X156765000Y-89760000D03*
D37*
X145115000Y-96080000D03*
X145115000Y-97480000D03*
X145115000Y-98880000D03*
X145115000Y-98880000D03*
X146515000Y-96080000D03*
X146515000Y-96080000D03*
X146515000Y-97480000D03*
X146515000Y-98880000D03*
X147915000Y-96080000D03*
X147915000Y-97480000D03*
X147915000Y-98880000D03*
%TD*%
D24*
%TO.C,D7*%
X116112500Y-102700000D03*
X116112500Y-104100000D03*
%TD*%
D22*
%TO.C,R16*%
X130400000Y-108020000D03*
X132040000Y-108020000D03*
%TD*%
D20*
%TO.C,R2*%
X167400000Y-90420000D03*
X167400000Y-88780000D03*
%TD*%
D26*
%TO.C,R34*%
X182695000Y-100375000D03*
X181055000Y-100375000D03*
%TD*%
D38*
%TO.C,U6*%
X172235000Y-108527500D03*
X173355000Y-108527500D03*
X174475000Y-108527500D03*
X172235000Y-107407500D03*
X173355000Y-107407500D03*
X174475000Y-107407500D03*
X172235000Y-106287500D03*
X173355000Y-106287500D03*
X174475000Y-106287500D03*
D39*
X171855000Y-109857500D03*
X172355000Y-109857500D03*
X172855000Y-109857500D03*
X173355000Y-109857500D03*
X173855000Y-109857500D03*
X174355000Y-109857500D03*
X174855000Y-109857500D03*
D40*
X175805000Y-108907500D03*
X175805000Y-108407500D03*
X175805000Y-107907500D03*
X175805000Y-107407500D03*
X175805000Y-106907500D03*
X175805000Y-106407500D03*
X175805000Y-105907500D03*
D39*
X174855000Y-104957500D03*
X174355000Y-104957500D03*
X173855000Y-104957500D03*
X173355000Y-104957500D03*
X172855000Y-104957500D03*
X172355000Y-104957500D03*
X171855000Y-104957500D03*
D40*
X170905000Y-105907500D03*
X170905000Y-106407500D03*
X170905000Y-106907500D03*
X170905000Y-107407500D03*
X170905000Y-107907500D03*
X170905000Y-108407500D03*
X170905000Y-108907500D03*
%TD*%
D13*
%TO.C,R1*%
X169800000Y-88780000D03*
X169800000Y-90420000D03*
%TD*%
D41*
%TO.C,D10*%
X182300000Y-89800000D03*
X183700000Y-89800000D03*
%TD*%
D27*
%TO.C,R4*%
X178800000Y-119615000D03*
X178800000Y-121435000D03*
%TD*%
D20*
%TO.C,R17*%
X131200000Y-112040000D03*
X131200000Y-110400000D03*
%TD*%
D13*
%TO.C,R5*%
X169800000Y-85580000D03*
X169800000Y-87220000D03*
%TD*%
%TO.C,R36*%
X176200000Y-114680000D03*
X176200000Y-116320000D03*
%TD*%
D42*
%TO.C,J3*%
X106500000Y-103800000D03*
X106500000Y-104800000D03*
X106500000Y-105300000D03*
X106500000Y-106300000D03*
D43*
X106500000Y-107450000D03*
X106500000Y-108250000D03*
D42*
X106500000Y-106800000D03*
X106500000Y-105800000D03*
X106500000Y-104300000D03*
X106500000Y-103300000D03*
D43*
X106500000Y-102650000D03*
X106500000Y-101850000D03*
D44*
X102000000Y-105050000D03*
%TD*%
D23*
%TO.C,C10*%
X186875000Y-102287500D03*
X188775000Y-102287500D03*
%TD*%
D18*
%TO.C,C11*%
X123250000Y-100925000D03*
X123250000Y-99025000D03*
%TD*%
D45*
%TO.C,C5*%
X136850000Y-90700000D03*
X136850000Y-89140000D03*
%TD*%
D13*
%TO.C,R21*%
X116800000Y-125630000D03*
X116800000Y-127270000D03*
%TD*%
D46*
%TO.C,J11*%
X185875000Y-87500000D03*
X184875000Y-87500000D03*
X184375000Y-87500000D03*
X183375000Y-87500000D03*
D47*
X182225000Y-87500000D03*
X181425000Y-87500000D03*
D46*
X182875000Y-87500000D03*
X183875000Y-87500000D03*
X185375000Y-87500000D03*
X186375000Y-87500000D03*
D47*
X187025000Y-87500000D03*
X187825000Y-87500000D03*
D48*
X184625000Y-83000000D03*
%TD*%
D17*
%TO.C,SW1*%
X173200000Y-95525000D03*
X173200000Y-91075000D03*
%TD*%
D49*
%TO.C,D2*%
X181350000Y-123525000D03*
X181350000Y-125275000D03*
X184850000Y-125275000D03*
X184850000Y-123525000D03*
%TD*%
M02*
