%TF.GenerationSoftware,KiCad,Pcbnew,10.0.4*%
%TF.CreationDate,2026-07-20T12:02:51+02:00*%
%TF.ProjectId,presstimer,70726573-7374-4696-9d65-722e6b696361,rev?*%
%TF.SameCoordinates,Original*%
%TF.FileFunction,Legend,Bot*%
%TF.FilePolarity,Positive*%
%FSLAX46Y46*%
G04 Gerber Fmt 4.6, Leading zero omitted, Abs format (unit mm)*
G04 Created by KiCad (PCBNEW 10.0.4) date 2026-07-20 12:02:51*
%MOMM*%
%LPD*%
G01*
G04 APERTURE LIST*
%ADD10C,0.200000*%
G04 APERTURE END LIST*
D10*
G36*
X118683569Y-111552589D02*
G01*
X118683569Y-111466225D01*
X118541469Y-111466225D01*
X118541469Y-111552589D01*
X118538436Y-111592108D01*
X118530226Y-111622513D01*
X118517728Y-111645744D01*
X118499750Y-111664090D01*
X118477853Y-111674999D01*
X118450757Y-111678814D01*
X118422132Y-111674969D01*
X118398981Y-111664014D01*
X118379975Y-111645744D01*
X118366548Y-111622382D01*
X118357794Y-111591975D01*
X118354574Y-111552589D01*
X118357330Y-111506021D01*
X118366053Y-111454208D01*
X118379873Y-111401606D01*
X118399368Y-111345471D01*
X118252920Y-111345471D01*
X118237866Y-111401747D01*
X118226982Y-111456407D01*
X118220149Y-111510611D01*
X118217945Y-111561333D01*
X118222005Y-111626493D01*
X118233315Y-111680567D01*
X118250898Y-111725379D01*
X118274267Y-111762443D01*
X118304996Y-111793949D01*
X118340400Y-111816179D01*
X118381406Y-111829821D01*
X118429459Y-111834592D01*
X118476292Y-111829676D01*
X118515356Y-111815715D01*
X118548307Y-111793022D01*
X118574685Y-111762658D01*
X118594925Y-111723772D01*
X118608684Y-111674467D01*
X118624035Y-111730215D01*
X118647383Y-111773895D01*
X118678391Y-111807774D01*
X118717000Y-111832611D01*
X118763903Y-111848152D01*
X118821273Y-111853692D01*
X118879648Y-111848460D01*
X118928052Y-111833740D01*
X118968437Y-111810260D01*
X119002160Y-111777732D01*
X119027790Y-111738619D01*
X119047237Y-111690157D01*
X119059866Y-111630386D01*
X119064441Y-111556937D01*
X119061830Y-111495549D01*
X119054037Y-111435353D01*
X119041280Y-111376500D01*
X119024044Y-111320852D01*
X118874274Y-111320852D01*
X118896748Y-111373874D01*
X118913353Y-111431787D01*
X118923333Y-111492333D01*
X118926737Y-111556937D01*
X118922983Y-111599709D01*
X118912618Y-111633719D01*
X118896402Y-111660789D01*
X118873874Y-111682018D01*
X118847109Y-111694646D01*
X118814728Y-111699037D01*
X118774504Y-111694419D01*
X118742828Y-111681543D01*
X118717714Y-111660789D01*
X118699497Y-111633352D01*
X118687826Y-111598032D01*
X118683569Y-111552589D01*
G37*
G36*
X118914183Y-112262945D02*
G01*
X118232697Y-112406658D01*
X118232697Y-112568982D01*
X119048615Y-112374955D01*
X119048615Y-112151424D01*
X118232697Y-111957446D01*
X118232697Y-112119721D01*
X118914183Y-112262945D01*
G37*
G36*
X121462581Y-111055408D02*
G01*
X121306852Y-111055408D01*
X121306852Y-110945010D01*
X121171297Y-110945010D01*
X121171297Y-111196385D01*
X121545135Y-111196385D01*
X121580253Y-111147378D01*
X121605512Y-111093901D01*
X121620775Y-111036442D01*
X121625979Y-110973978D01*
X121621189Y-110910987D01*
X121607504Y-110856219D01*
X121585511Y-110808297D01*
X121555182Y-110766154D01*
X121515875Y-110729100D01*
X121471607Y-110699919D01*
X121419517Y-110676224D01*
X121358386Y-110658323D01*
X121286761Y-110646861D01*
X121203000Y-110642784D01*
X121117706Y-110646936D01*
X121045256Y-110658574D01*
X120983871Y-110676686D01*
X120931981Y-110700584D01*
X120888268Y-110729930D01*
X120849742Y-110767151D01*
X120819812Y-110809961D01*
X120797965Y-110859141D01*
X120784290Y-110915860D01*
X120779483Y-110981598D01*
X120782969Y-111030332D01*
X120793453Y-111078318D01*
X120810475Y-111124432D01*
X120833607Y-111167418D01*
X121012295Y-111167418D01*
X120973503Y-111130430D01*
X120946447Y-111089504D01*
X120929938Y-111043793D01*
X120924319Y-110993077D01*
X120928963Y-110948608D01*
X120942092Y-110911924D01*
X120963331Y-110881356D01*
X120993439Y-110855911D01*
X121028165Y-110837802D01*
X121073078Y-110823569D01*
X121130475Y-110814078D01*
X121203000Y-110810579D01*
X121273064Y-110813899D01*
X121329495Y-110822975D01*
X121374541Y-110836700D01*
X121410166Y-110854299D01*
X121441678Y-110879093D01*
X121463426Y-110907965D01*
X121476598Y-110941662D01*
X121481192Y-110981598D01*
X121476552Y-111025317D01*
X121470505Y-111042645D01*
X121462581Y-111055408D01*
G37*
G36*
X120794235Y-111317578D02*
G01*
X120794235Y-111490844D01*
X121387159Y-111718186D01*
X120794235Y-111718186D01*
X120794235Y-111860286D01*
X121610153Y-111860286D01*
X121610153Y-111688095D01*
X121017229Y-111459679D01*
X121610153Y-111459679D01*
X121610153Y-111317578D01*
X120794235Y-111317578D01*
G37*
G36*
X121610153Y-112173845D02*
G01*
X121605462Y-112256847D01*
X121592493Y-112324897D01*
X121572547Y-112380438D01*
X121546404Y-112425548D01*
X121514263Y-112461856D01*
X121475650Y-112490772D01*
X121427172Y-112514730D01*
X121366906Y-112533260D01*
X121292528Y-112545416D01*
X121201388Y-112549832D01*
X121110444Y-112545413D01*
X121036283Y-112533253D01*
X120976240Y-112514722D01*
X120927984Y-112490767D01*
X120889587Y-112461856D01*
X120857649Y-112425580D01*
X120831654Y-112380490D01*
X120811811Y-112324953D01*
X120798904Y-112256886D01*
X120796048Y-112206085D01*
X120939608Y-112206085D01*
X120943888Y-112253129D01*
X120955659Y-112290067D01*
X120974046Y-112319067D01*
X120999203Y-112341591D01*
X121029004Y-112357258D01*
X121070433Y-112369988D01*
X121126669Y-112378736D01*
X121201388Y-112382038D01*
X121276702Y-112378732D01*
X121333336Y-112369976D01*
X121375009Y-112357245D01*
X121404940Y-112341591D01*
X121430214Y-112319051D01*
X121448674Y-112290042D01*
X121460486Y-112253109D01*
X121464779Y-112206085D01*
X121464779Y-112162366D01*
X120939608Y-112162366D01*
X120939608Y-112206085D01*
X120796048Y-112206085D01*
X120794235Y-112173845D01*
X120794235Y-112001165D01*
X121610153Y-112001165D01*
X121610153Y-112173845D01*
G37*
G36*
X124148195Y-111843336D02*
G01*
X124165405Y-111804147D01*
X124177700Y-111762980D01*
X124185020Y-111720215D01*
X124187518Y-111674467D01*
X124182702Y-111608452D01*
X124169014Y-111551585D01*
X124147163Y-111502364D01*
X124117254Y-111459603D01*
X124078782Y-111422506D01*
X124035076Y-111393253D01*
X123983228Y-111369433D01*
X123921929Y-111351383D01*
X123849621Y-111339789D01*
X123764539Y-111335653D01*
X123679227Y-111339793D01*
X123606769Y-111351395D01*
X123545384Y-111369450D01*
X123493504Y-111393267D01*
X123449807Y-111422506D01*
X123411315Y-111459606D01*
X123381392Y-111502369D01*
X123359533Y-111551589D01*
X123345840Y-111608455D01*
X123341022Y-111674467D01*
X123343525Y-111720284D01*
X123350889Y-111763518D01*
X123363233Y-111804987D01*
X123380345Y-111843336D01*
X123559619Y-111843336D01*
X123525503Y-111800945D01*
X123503638Y-111762687D01*
X123490269Y-111722869D01*
X123485858Y-111682087D01*
X123490498Y-111639456D01*
X123503700Y-111603898D01*
X123525253Y-111573868D01*
X123556102Y-111548486D01*
X123591360Y-111530388D01*
X123636387Y-111516235D01*
X123693303Y-111506845D01*
X123764539Y-111503399D01*
X123835495Y-111506840D01*
X123892265Y-111516222D01*
X123937248Y-111530373D01*
X123972536Y-111548486D01*
X124003360Y-111573865D01*
X124024899Y-111603894D01*
X124038094Y-111639453D01*
X124042731Y-111682087D01*
X124038331Y-111722871D01*
X124024999Y-111762687D01*
X124003088Y-111800944D01*
X123968921Y-111843336D01*
X124148195Y-111843336D01*
G37*
G36*
X123813729Y-112205011D02*
G01*
X123778365Y-112124918D01*
X123745890Y-112072235D01*
X123716179Y-112039952D01*
X123679837Y-112016721D01*
X123634804Y-112002045D01*
X123578768Y-111996769D01*
X123524210Y-112001583D01*
X123477937Y-112015250D01*
X123438379Y-112037221D01*
X123404427Y-112067795D01*
X123377711Y-112104849D01*
X123357983Y-112148779D01*
X123345473Y-112200916D01*
X123341022Y-112262945D01*
X123344214Y-112319048D01*
X123353869Y-112375492D01*
X123369668Y-112431165D01*
X123391824Y-112486965D01*
X123549214Y-112486965D01*
X123516623Y-112433947D01*
X123493527Y-112381501D01*
X123479072Y-112327712D01*
X123474378Y-112275499D01*
X123477395Y-112237103D01*
X123485529Y-112207896D01*
X123497874Y-112185862D01*
X123515545Y-112168714D01*
X123537495Y-112158358D01*
X123565090Y-112154697D01*
X123596260Y-112160460D01*
X123621119Y-112177363D01*
X123641615Y-112207151D01*
X123670017Y-112272227D01*
X123696248Y-112341640D01*
X123724646Y-112404620D01*
X123756626Y-112451943D01*
X123791894Y-112486428D01*
X123833798Y-112511675D01*
X123883259Y-112527351D01*
X123942152Y-112532883D01*
X124003462Y-112527715D01*
X124053236Y-112513341D01*
X124093740Y-112490743D01*
X124126604Y-112459903D01*
X124151426Y-112422361D01*
X124170459Y-112374688D01*
X124182952Y-112314613D01*
X124187518Y-112239400D01*
X124183920Y-112178936D01*
X124173010Y-112117816D01*
X124155109Y-112058021D01*
X124130170Y-112000042D01*
X123963499Y-112000042D01*
X124004409Y-112065155D01*
X124031789Y-112124899D01*
X124048725Y-112185614D01*
X124054211Y-112244334D01*
X124050810Y-112283215D01*
X124041522Y-112313374D01*
X124027149Y-112336707D01*
X124007081Y-112354677D01*
X123982327Y-112365612D01*
X123951433Y-112369484D01*
X123916939Y-112363960D01*
X123887246Y-112347600D01*
X123863226Y-112321780D01*
X123843771Y-112284243D01*
X123813729Y-112205011D01*
G37*
G36*
X126733230Y-110812728D02*
G01*
X126410780Y-110812728D01*
X126410780Y-110864117D01*
X126415499Y-110889767D01*
X126430342Y-110914695D01*
X126458031Y-110939936D01*
X126503153Y-110965771D01*
X126527186Y-110977250D01*
X126733230Y-111075583D01*
X126733230Y-111252659D01*
X126439747Y-111105136D01*
X126393245Y-111079149D01*
X126370627Y-111061661D01*
X126356039Y-111042285D01*
X126347961Y-111019846D01*
X126336367Y-111068849D01*
X126316433Y-111107527D01*
X126288366Y-111137913D01*
X126253073Y-111159919D01*
X126209196Y-111173871D01*
X126154472Y-111178897D01*
X126091516Y-111173866D01*
X126042008Y-111160086D01*
X126003196Y-111138825D01*
X125973048Y-111110314D01*
X125950954Y-111075294D01*
X125933488Y-111028148D01*
X125921708Y-110965738D01*
X125917547Y-110888688D01*
X126052867Y-110888688D01*
X126056349Y-110932597D01*
X126065381Y-110963127D01*
X126078561Y-110983796D01*
X126097669Y-110998661D01*
X126125103Y-111008500D01*
X126163802Y-111012226D01*
X126202442Y-111008478D01*
X126229998Y-110998551D01*
X126249336Y-110983503D01*
X126262679Y-110962673D01*
X126271779Y-110932197D01*
X126275274Y-110888688D01*
X126275274Y-110812728D01*
X126052867Y-110812728D01*
X126052867Y-110888688D01*
X125917547Y-110888688D01*
X125917312Y-110884340D01*
X125917312Y-110651528D01*
X126733230Y-110651528D01*
X126733230Y-110812728D01*
G37*
G36*
X126375267Y-111531291D02*
G01*
X126339903Y-111451198D01*
X126307428Y-111398515D01*
X126277717Y-111366232D01*
X126241375Y-111343001D01*
X126196342Y-111328325D01*
X126140306Y-111323049D01*
X126085748Y-111327863D01*
X126039475Y-111341530D01*
X125999917Y-111363501D01*
X125965965Y-111394075D01*
X125939249Y-111431129D01*
X125919521Y-111475059D01*
X125907011Y-111527196D01*
X125902560Y-111589225D01*
X125905752Y-111645328D01*
X125915407Y-111701772D01*
X125931206Y-111757445D01*
X125953362Y-111813245D01*
X126110752Y-111813245D01*
X126078161Y-111760227D01*
X126055065Y-111707781D01*
X126040610Y-111653992D01*
X126035916Y-111601779D01*
X126038933Y-111563383D01*
X126047067Y-111534176D01*
X126059412Y-111512142D01*
X126077083Y-111494994D01*
X126099033Y-111484638D01*
X126126628Y-111480977D01*
X126157798Y-111486740D01*
X126182657Y-111503643D01*
X126203153Y-111533431D01*
X126231555Y-111598507D01*
X126257786Y-111667920D01*
X126286184Y-111730900D01*
X126318164Y-111778223D01*
X126353432Y-111812708D01*
X126395336Y-111837955D01*
X126444797Y-111853631D01*
X126503690Y-111859163D01*
X126565000Y-111853995D01*
X126614774Y-111839621D01*
X126655278Y-111817023D01*
X126688142Y-111786183D01*
X126712964Y-111748641D01*
X126731997Y-111700968D01*
X126744490Y-111640893D01*
X126749056Y-111565680D01*
X126745458Y-111505216D01*
X126734548Y-111444096D01*
X126716647Y-111384301D01*
X126691708Y-111326322D01*
X126525037Y-111326322D01*
X126565947Y-111391435D01*
X126593327Y-111451179D01*
X126610263Y-111511894D01*
X126615749Y-111570614D01*
X126612348Y-111609495D01*
X126603060Y-111639654D01*
X126588687Y-111662987D01*
X126568619Y-111680957D01*
X126543865Y-111691892D01*
X126512971Y-111695764D01*
X126478477Y-111690240D01*
X126448784Y-111673880D01*
X126424764Y-111648060D01*
X126405309Y-111610523D01*
X126375267Y-111531291D01*
G37*
G36*
X126733230Y-112343789D02*
G01*
X126733230Y-112182589D01*
X126058289Y-112182589D01*
X126058289Y-111975471D01*
X125917312Y-111975471D01*
X125917312Y-112550907D01*
X126058289Y-112550907D01*
X126058289Y-112343789D01*
X126733230Y-112343789D01*
G37*
G36*
X129294769Y-111500126D02*
G01*
X129290078Y-111583128D01*
X129277109Y-111651178D01*
X129257163Y-111706719D01*
X129231020Y-111751829D01*
X129198879Y-111788137D01*
X129160266Y-111817053D01*
X129111788Y-111841011D01*
X129051522Y-111859541D01*
X128977144Y-111871697D01*
X128886004Y-111876113D01*
X128795060Y-111871694D01*
X128720899Y-111859534D01*
X128660856Y-111841003D01*
X128612600Y-111817049D01*
X128574203Y-111788137D01*
X128542265Y-111751861D01*
X128516270Y-111706771D01*
X128496427Y-111651234D01*
X128483520Y-111583167D01*
X128480664Y-111532366D01*
X128624224Y-111532366D01*
X128628504Y-111579410D01*
X128640275Y-111616348D01*
X128658662Y-111645348D01*
X128683819Y-111667872D01*
X128713620Y-111683539D01*
X128755049Y-111696269D01*
X128811285Y-111705017D01*
X128886004Y-111708319D01*
X128961318Y-111705013D01*
X129017952Y-111696257D01*
X129059625Y-111683526D01*
X129089556Y-111667872D01*
X129114830Y-111645332D01*
X129133290Y-111616323D01*
X129145102Y-111579390D01*
X129149395Y-111532366D01*
X129149395Y-111488647D01*
X128624224Y-111488647D01*
X128624224Y-111532366D01*
X128480664Y-111532366D01*
X128478851Y-111500126D01*
X128478851Y-111327446D01*
X129294769Y-111327446D01*
X129294769Y-111500126D01*
G37*
G36*
X129271272Y-112517056D02*
G01*
X129288482Y-112477867D01*
X129300777Y-112436700D01*
X129308097Y-112393935D01*
X129310595Y-112348186D01*
X129305779Y-112282171D01*
X129292091Y-112225305D01*
X129270240Y-112176084D01*
X129240331Y-112133323D01*
X129201859Y-112096225D01*
X129158153Y-112066972D01*
X129106305Y-112043153D01*
X129045006Y-112025103D01*
X128972698Y-112013508D01*
X128887616Y-112009372D01*
X128802304Y-112013512D01*
X128729846Y-112025114D01*
X128668461Y-112043170D01*
X128616581Y-112066987D01*
X128572884Y-112096225D01*
X128534392Y-112133325D01*
X128504469Y-112176088D01*
X128482610Y-112225309D01*
X128468917Y-112282174D01*
X128464099Y-112348186D01*
X128466602Y-112394003D01*
X128473966Y-112437237D01*
X128486310Y-112478706D01*
X128503422Y-112517056D01*
X128682696Y-112517056D01*
X128648580Y-112474664D01*
X128626715Y-112436407D01*
X128613346Y-112396588D01*
X128608935Y-112355806D01*
X128613575Y-112313176D01*
X128626777Y-112277618D01*
X128648330Y-112247587D01*
X128679179Y-112222206D01*
X128714437Y-112204107D01*
X128759464Y-112189955D01*
X128816380Y-112180564D01*
X128887616Y-112177118D01*
X128958572Y-112180559D01*
X129015342Y-112189941D01*
X129060325Y-112204093D01*
X129095613Y-112222206D01*
X129126437Y-112247584D01*
X129147976Y-112277613D01*
X129161171Y-112313173D01*
X129165808Y-112355806D01*
X129161408Y-112396591D01*
X129148076Y-112436407D01*
X129126165Y-112474663D01*
X129091998Y-112517056D01*
X129271272Y-112517056D01*
G37*
G36*
X131498344Y-110857571D02*
G01*
X131462980Y-110777478D01*
X131430505Y-110724796D01*
X131400794Y-110692512D01*
X131364452Y-110669282D01*
X131319419Y-110654606D01*
X131263383Y-110649330D01*
X131208825Y-110654144D01*
X131162552Y-110667810D01*
X131122994Y-110689782D01*
X131089042Y-110720356D01*
X131062326Y-110757409D01*
X131042598Y-110801339D01*
X131030088Y-110853477D01*
X131025637Y-110915506D01*
X131028829Y-110971608D01*
X131038484Y-111028053D01*
X131054283Y-111083726D01*
X131076439Y-111139525D01*
X131233829Y-111139525D01*
X131201238Y-111086507D01*
X131178142Y-111034061D01*
X131163687Y-110980272D01*
X131158993Y-110928060D01*
X131162010Y-110889663D01*
X131170144Y-110860457D01*
X131182489Y-110838423D01*
X131200160Y-110821274D01*
X131222110Y-110810919D01*
X131249705Y-110807257D01*
X131280875Y-110813020D01*
X131305734Y-110829923D01*
X131326230Y-110859711D01*
X131354632Y-110924787D01*
X131380863Y-110994201D01*
X131409261Y-111057181D01*
X131441241Y-111104503D01*
X131476509Y-111138988D01*
X131518413Y-111164235D01*
X131567874Y-111179911D01*
X131626767Y-111185443D01*
X131688077Y-111180276D01*
X131737851Y-111165901D01*
X131778355Y-111143304D01*
X131811219Y-111112463D01*
X131836041Y-111074922D01*
X131855074Y-111027248D01*
X131867567Y-110967173D01*
X131872133Y-110891961D01*
X131868535Y-110831496D01*
X131857625Y-110770377D01*
X131839724Y-110710581D01*
X131814785Y-110652603D01*
X131648114Y-110652603D01*
X131689024Y-110717715D01*
X131716404Y-110777460D01*
X131733340Y-110838175D01*
X131738826Y-110896895D01*
X131735425Y-110935776D01*
X131726137Y-110965934D01*
X131711764Y-110989267D01*
X131691696Y-111007238D01*
X131666942Y-111018173D01*
X131636048Y-111022045D01*
X131601554Y-111016521D01*
X131571861Y-111000160D01*
X131547841Y-110974341D01*
X131528386Y-110936804D01*
X131498344Y-110857571D01*
G37*
G36*
X131856307Y-111500126D02*
G01*
X131851616Y-111583128D01*
X131838647Y-111651177D01*
X131818701Y-111706718D01*
X131792558Y-111751829D01*
X131760417Y-111788137D01*
X131721804Y-111817053D01*
X131673326Y-111841010D01*
X131613060Y-111859540D01*
X131538682Y-111871696D01*
X131447542Y-111876113D01*
X131356598Y-111871693D01*
X131282437Y-111859533D01*
X131222394Y-111841002D01*
X131174138Y-111817048D01*
X131135741Y-111788137D01*
X131103803Y-111751861D01*
X131077808Y-111706771D01*
X131057965Y-111651233D01*
X131045058Y-111583166D01*
X131042202Y-111532366D01*
X131185762Y-111532366D01*
X131190042Y-111579409D01*
X131201813Y-111616347D01*
X131220200Y-111645348D01*
X131245357Y-111667872D01*
X131275158Y-111683539D01*
X131316587Y-111696268D01*
X131372823Y-111705017D01*
X131447542Y-111708318D01*
X131522856Y-111705012D01*
X131579490Y-111696256D01*
X131621163Y-111683525D01*
X131651094Y-111667872D01*
X131676368Y-111645331D01*
X131694828Y-111616323D01*
X131706640Y-111579389D01*
X131710933Y-111532366D01*
X131710933Y-111488646D01*
X131185762Y-111488646D01*
X131185762Y-111532366D01*
X131042202Y-111532366D01*
X131040389Y-111500126D01*
X131040389Y-111327446D01*
X131856307Y-111327446D01*
X131856307Y-111500126D01*
G37*
G36*
X131182489Y-112020265D02*
G01*
X131040389Y-112020265D01*
X131040389Y-112506113D01*
X131182489Y-112506113D01*
X131182489Y-112343789D01*
X131714206Y-112343789D01*
X131714206Y-112506113D01*
X131856307Y-112506113D01*
X131856307Y-112020265D01*
X131714206Y-112020265D01*
X131714206Y-112182589D01*
X131182489Y-112182589D01*
X131182489Y-112020265D01*
G37*
G36*
X134059883Y-110857571D02*
G01*
X134024519Y-110777478D01*
X133992044Y-110724796D01*
X133962333Y-110692512D01*
X133925991Y-110669282D01*
X133880958Y-110654606D01*
X133824922Y-110649330D01*
X133770364Y-110654144D01*
X133724091Y-110667810D01*
X133684533Y-110689782D01*
X133650581Y-110720356D01*
X133623865Y-110757409D01*
X133604137Y-110801339D01*
X133591627Y-110853477D01*
X133587176Y-110915506D01*
X133590368Y-110971608D01*
X133600023Y-111028053D01*
X133615822Y-111083726D01*
X133637978Y-111139525D01*
X133795368Y-111139525D01*
X133762777Y-111086507D01*
X133739681Y-111034061D01*
X133725226Y-110980272D01*
X133720532Y-110928060D01*
X133723549Y-110889663D01*
X133731683Y-110860457D01*
X133744028Y-110838423D01*
X133761699Y-110821274D01*
X133783649Y-110810919D01*
X133811244Y-110807257D01*
X133842414Y-110813020D01*
X133867273Y-110829923D01*
X133887769Y-110859711D01*
X133916171Y-110924787D01*
X133942402Y-110994201D01*
X133970800Y-111057181D01*
X134002780Y-111104503D01*
X134038048Y-111138988D01*
X134079952Y-111164235D01*
X134129413Y-111179911D01*
X134188306Y-111185443D01*
X134249616Y-111180276D01*
X134299390Y-111165901D01*
X134339894Y-111143304D01*
X134372758Y-111112463D01*
X134397580Y-111074922D01*
X134416613Y-111027248D01*
X134429106Y-110967173D01*
X134433672Y-110891961D01*
X134430074Y-110831496D01*
X134419164Y-110770377D01*
X134401263Y-110710581D01*
X134376324Y-110652603D01*
X134209653Y-110652603D01*
X134250563Y-110717715D01*
X134277943Y-110777460D01*
X134294879Y-110838175D01*
X134300365Y-110896895D01*
X134296964Y-110935776D01*
X134287676Y-110965934D01*
X134273303Y-110989267D01*
X134253235Y-111007238D01*
X134228481Y-111018173D01*
X134197587Y-111022045D01*
X134163093Y-111016521D01*
X134133400Y-111000160D01*
X134109380Y-110974341D01*
X134089925Y-110936804D01*
X134059883Y-110857571D01*
G37*
G36*
X134394349Y-111843336D02*
G01*
X134411559Y-111804147D01*
X134423854Y-111762980D01*
X134431174Y-111720215D01*
X134433672Y-111674466D01*
X134428856Y-111608451D01*
X134415168Y-111551585D01*
X134393317Y-111502364D01*
X134363408Y-111459603D01*
X134324936Y-111422505D01*
X134281230Y-111393252D01*
X134229382Y-111369433D01*
X134168083Y-111351383D01*
X134095775Y-111339788D01*
X134010693Y-111335652D01*
X133925381Y-111339792D01*
X133852923Y-111351394D01*
X133791538Y-111369450D01*
X133739658Y-111393267D01*
X133695961Y-111422505D01*
X133657469Y-111459605D01*
X133627546Y-111502368D01*
X133605687Y-111551589D01*
X133591994Y-111608454D01*
X133587176Y-111674466D01*
X133589679Y-111720283D01*
X133597043Y-111763517D01*
X133609387Y-111804986D01*
X133626499Y-111843336D01*
X133805773Y-111843336D01*
X133771657Y-111800944D01*
X133749792Y-111762687D01*
X133736423Y-111722868D01*
X133732012Y-111682086D01*
X133736652Y-111639456D01*
X133749854Y-111603898D01*
X133771407Y-111573867D01*
X133802256Y-111548486D01*
X133837514Y-111530387D01*
X133882541Y-111516235D01*
X133939457Y-111506844D01*
X134010693Y-111503398D01*
X134081649Y-111506839D01*
X134138419Y-111516221D01*
X134183402Y-111530373D01*
X134218690Y-111548486D01*
X134249514Y-111573864D01*
X134271053Y-111603893D01*
X134284248Y-111639453D01*
X134288885Y-111682086D01*
X134284485Y-111722871D01*
X134271153Y-111762687D01*
X134249242Y-111800943D01*
X134215075Y-111843336D01*
X134394349Y-111843336D01*
G37*
G36*
X133601928Y-111990223D02*
G01*
X133601928Y-112151423D01*
X133924377Y-112151423D01*
X133601928Y-112403922D01*
X133601928Y-112586469D01*
X133923254Y-112329037D01*
X134417846Y-112595750D01*
X134417846Y-112416476D01*
X134050602Y-112223035D01*
X134141314Y-112151423D01*
X134417846Y-112151423D01*
X134417846Y-111990223D01*
X133601928Y-111990223D01*
G37*
G36*
X136979384Y-111583755D02*
G01*
X136975189Y-111666794D01*
X136963949Y-111730630D01*
X136947316Y-111778950D01*
X136926383Y-111814906D01*
X136897311Y-111844816D01*
X136860405Y-111866773D01*
X136813908Y-111880834D01*
X136755315Y-111885932D01*
X136707061Y-111882571D01*
X136666901Y-111873174D01*
X136633448Y-111858450D01*
X136605594Y-111838647D01*
X136582515Y-111813433D01*
X136564221Y-111782356D01*
X136550781Y-111744339D01*
X136542726Y-111697963D01*
X136533187Y-111748135D01*
X136515871Y-111786851D01*
X136491386Y-111816518D01*
X136459576Y-111838229D01*
X136419362Y-111851988D01*
X136368386Y-111856965D01*
X136317994Y-111852243D01*
X136276582Y-111838984D01*
X136242331Y-111817822D01*
X136214024Y-111788381D01*
X136193086Y-111753437D01*
X136176924Y-111709118D01*
X136166283Y-111653366D01*
X136162391Y-111583755D01*
X136290814Y-111583755D01*
X136293873Y-111623365D01*
X136301837Y-111651212D01*
X136313480Y-111670314D01*
X136330440Y-111684357D01*
X136354017Y-111693449D01*
X136386460Y-111696839D01*
X136418910Y-111693492D01*
X136442168Y-111684575D01*
X136458609Y-111670901D01*
X136469737Y-111652181D01*
X136477452Y-111624235D01*
X136480444Y-111583755D01*
X136608867Y-111583755D01*
X136612773Y-111632647D01*
X136622938Y-111666892D01*
X136637834Y-111690294D01*
X136659403Y-111707207D01*
X136690039Y-111718338D01*
X136732894Y-111722534D01*
X136775140Y-111718438D01*
X136804398Y-111707723D01*
X136824192Y-111691661D01*
X136837444Y-111669289D01*
X136846766Y-111634844D01*
X136850423Y-111583755D01*
X136850423Y-111476630D01*
X136608867Y-111476630D01*
X136608867Y-111583755D01*
X136480444Y-111583755D01*
X136480444Y-111476630D01*
X136290814Y-111476630D01*
X136290814Y-111583755D01*
X136162391Y-111583755D01*
X136162391Y-111320852D01*
X136979384Y-111320852D01*
X136979384Y-111583755D01*
G37*
G36*
X136979384Y-112049233D02*
G01*
X136163466Y-112049233D01*
X136163466Y-112210482D01*
X136837283Y-112210482D01*
X136837283Y-112555304D01*
X136979384Y-112555304D01*
X136979384Y-112049233D01*
G37*
G36*
X139182960Y-110857571D02*
G01*
X139147596Y-110777478D01*
X139115121Y-110724796D01*
X139085410Y-110692512D01*
X139049068Y-110669282D01*
X139004035Y-110654606D01*
X138947999Y-110649330D01*
X138893441Y-110654144D01*
X138847168Y-110667810D01*
X138807610Y-110689782D01*
X138773658Y-110720356D01*
X138746942Y-110757409D01*
X138727214Y-110801339D01*
X138714704Y-110853477D01*
X138710253Y-110915506D01*
X138713445Y-110971608D01*
X138723100Y-111028053D01*
X138738899Y-111083726D01*
X138761055Y-111139525D01*
X138918445Y-111139525D01*
X138885854Y-111086507D01*
X138862758Y-111034061D01*
X138848303Y-110980272D01*
X138843609Y-110928060D01*
X138846626Y-110889663D01*
X138854760Y-110860457D01*
X138867105Y-110838423D01*
X138884776Y-110821274D01*
X138906726Y-110810919D01*
X138934321Y-110807257D01*
X138965491Y-110813020D01*
X138990350Y-110829923D01*
X139010846Y-110859711D01*
X139039248Y-110924787D01*
X139065479Y-110994201D01*
X139093877Y-111057181D01*
X139125857Y-111104503D01*
X139161125Y-111138988D01*
X139203029Y-111164235D01*
X139252490Y-111179911D01*
X139311383Y-111185443D01*
X139372693Y-111180276D01*
X139422467Y-111165901D01*
X139462971Y-111143304D01*
X139495835Y-111112463D01*
X139520657Y-111074922D01*
X139539690Y-111027248D01*
X139552183Y-110967173D01*
X139556749Y-110891961D01*
X139553151Y-110831496D01*
X139542241Y-110770377D01*
X139524340Y-110710581D01*
X139499401Y-110652603D01*
X139332730Y-110652603D01*
X139373640Y-110717715D01*
X139401020Y-110777460D01*
X139417956Y-110838175D01*
X139423442Y-110896895D01*
X139420041Y-110935776D01*
X139410753Y-110965934D01*
X139396380Y-110989267D01*
X139376312Y-111007238D01*
X139351558Y-111018173D01*
X139320664Y-111022045D01*
X139286170Y-111016521D01*
X139256477Y-111000160D01*
X139232457Y-110974341D01*
X139213002Y-110936804D01*
X139182960Y-110857571D01*
G37*
G36*
X139540923Y-111500126D02*
G01*
X139536232Y-111583128D01*
X139523263Y-111651177D01*
X139503317Y-111706718D01*
X139477174Y-111751829D01*
X139445033Y-111788137D01*
X139406420Y-111817053D01*
X139357942Y-111841010D01*
X139297676Y-111859540D01*
X139223298Y-111871696D01*
X139132158Y-111876113D01*
X139041214Y-111871693D01*
X138967053Y-111859533D01*
X138907010Y-111841002D01*
X138858754Y-111817048D01*
X138820357Y-111788137D01*
X138788419Y-111751861D01*
X138762424Y-111706771D01*
X138742581Y-111651233D01*
X138729674Y-111583166D01*
X138726818Y-111532366D01*
X138870378Y-111532366D01*
X138874658Y-111579409D01*
X138886429Y-111616347D01*
X138904816Y-111645348D01*
X138929973Y-111667872D01*
X138959774Y-111683539D01*
X139001203Y-111696268D01*
X139057439Y-111705017D01*
X139132158Y-111708318D01*
X139207472Y-111705012D01*
X139264106Y-111696256D01*
X139305779Y-111683525D01*
X139335710Y-111667872D01*
X139360984Y-111645331D01*
X139379444Y-111616323D01*
X139391256Y-111579389D01*
X139395549Y-111532366D01*
X139395549Y-111488646D01*
X138870378Y-111488646D01*
X138870378Y-111532366D01*
X138726818Y-111532366D01*
X138725005Y-111500126D01*
X138725005Y-111327446D01*
X139540923Y-111327446D01*
X139540923Y-111500126D01*
G37*
G36*
X139221364Y-111980105D02*
G01*
X139294941Y-111990010D01*
X139356407Y-112005254D01*
X139407483Y-112025066D01*
X139449673Y-112048939D01*
X139488234Y-112080694D01*
X139517701Y-112117175D01*
X139538937Y-112158967D01*
X139552126Y-112207096D01*
X139556749Y-112262945D01*
X139552119Y-112319014D01*
X139538916Y-112367286D01*
X139517670Y-112409156D01*
X139488207Y-112445660D01*
X139449673Y-112477390D01*
X139407480Y-112501280D01*
X139356403Y-112521106D01*
X139294936Y-112536360D01*
X139221361Y-112546271D01*
X139133770Y-112549832D01*
X139045921Y-112546266D01*
X138972185Y-112536348D01*
X138910636Y-112521088D01*
X138859540Y-112501265D01*
X138817377Y-112477390D01*
X138778823Y-112445657D01*
X138749347Y-112409152D01*
X138728092Y-112367282D01*
X138714885Y-112319011D01*
X138710253Y-112262945D01*
X138855089Y-112262945D01*
X138859148Y-112291782D01*
X138870896Y-112315838D01*
X138890846Y-112336327D01*
X138920936Y-112353608D01*
X138966298Y-112367784D01*
X139034762Y-112378023D01*
X139133770Y-112382038D01*
X139232437Y-112378027D01*
X139300762Y-112367791D01*
X139346114Y-112353608D01*
X139376205Y-112336327D01*
X139396155Y-112315838D01*
X139407903Y-112291782D01*
X139411962Y-112262945D01*
X139407917Y-112234364D01*
X139396192Y-112210454D01*
X139376246Y-112190022D01*
X139346114Y-112172721D01*
X139300764Y-112158563D01*
X139232439Y-112148344D01*
X139133770Y-112144340D01*
X139034760Y-112148348D01*
X138966296Y-112158570D01*
X138920936Y-112172721D01*
X138890805Y-112190022D01*
X138870859Y-112210454D01*
X138859133Y-112234364D01*
X138855089Y-112262945D01*
X138710253Y-112262945D01*
X138714878Y-112207099D01*
X138728071Y-112158971D01*
X138749317Y-112117179D01*
X138778797Y-112080696D01*
X138817377Y-112048939D01*
X138859538Y-112025081D01*
X138910632Y-112005272D01*
X138972180Y-111990022D01*
X139045918Y-111980109D01*
X139133770Y-111976546D01*
X139221364Y-111980105D01*
G37*
G36*
X142102461Y-109648911D02*
G01*
X142102461Y-109487711D01*
X141427520Y-109487711D01*
X141427520Y-109280593D01*
X141286543Y-109280593D01*
X141286543Y-109856029D01*
X141427520Y-109856029D01*
X141427520Y-109648911D01*
X142102461Y-109648911D01*
G37*
G36*
X142206313Y-110578939D02*
G01*
X142315587Y-110578939D01*
X142315587Y-109905122D01*
X142206313Y-109905122D01*
X142206313Y-110578939D01*
G37*
G36*
X142078964Y-111169616D02*
G01*
X142096174Y-111130427D01*
X142108469Y-111089260D01*
X142115789Y-111046495D01*
X142118287Y-111000747D01*
X142113471Y-110934732D01*
X142099783Y-110877865D01*
X142077932Y-110828644D01*
X142048023Y-110785883D01*
X142009551Y-110748786D01*
X141965845Y-110719533D01*
X141913997Y-110695713D01*
X141852698Y-110677663D01*
X141780390Y-110666069D01*
X141695308Y-110661933D01*
X141609996Y-110666073D01*
X141537538Y-110677675D01*
X141476153Y-110695730D01*
X141424273Y-110719547D01*
X141380576Y-110748786D01*
X141342084Y-110785886D01*
X141312161Y-110828648D01*
X141290302Y-110877869D01*
X141276609Y-110934735D01*
X141271791Y-111000747D01*
X141274294Y-111046564D01*
X141281658Y-111089797D01*
X141294002Y-111131267D01*
X141311114Y-111169616D01*
X141490388Y-111169616D01*
X141456272Y-111127225D01*
X141434407Y-111088967D01*
X141421038Y-111049149D01*
X141416627Y-111008367D01*
X141421267Y-110965736D01*
X141434469Y-110930178D01*
X141456022Y-110900148D01*
X141486871Y-110874766D01*
X141522129Y-110856668D01*
X141567156Y-110842515D01*
X141624072Y-110833125D01*
X141695308Y-110829679D01*
X141766264Y-110833120D01*
X141823034Y-110842502D01*
X141868017Y-110856653D01*
X141903305Y-110874766D01*
X141934129Y-110900145D01*
X141955668Y-110930174D01*
X141968863Y-110965733D01*
X141973500Y-111008367D01*
X141969100Y-111049151D01*
X141955768Y-111088967D01*
X141933857Y-111127224D01*
X141899690Y-111169616D01*
X142078964Y-111169616D01*
G37*
G36*
X142102461Y-111375513D02*
G01*
X141286543Y-111375513D01*
X141286543Y-111536762D01*
X141960360Y-111536762D01*
X141960360Y-111881584D01*
X142102461Y-111881584D01*
X142102461Y-111375513D01*
G37*
G36*
X141286543Y-111990223D02*
G01*
X141286543Y-112151423D01*
X141608992Y-112151423D01*
X141286543Y-112403922D01*
X141286543Y-112586469D01*
X141607869Y-112329037D01*
X142102461Y-112595750D01*
X142102461Y-112416476D01*
X141735217Y-112223035D01*
X141825929Y-112151423D01*
X142102461Y-112151423D01*
X142102461Y-111990223D01*
X141286543Y-111990223D01*
G37*
G36*
X144664000Y-110322631D02*
G01*
X144664000Y-110161431D01*
X143989059Y-110161431D01*
X143989059Y-109954313D01*
X143848082Y-109954313D01*
X143848082Y-110529749D01*
X143989059Y-110529749D01*
X143989059Y-110322631D01*
X144664000Y-110322631D01*
G37*
G36*
X144767852Y-111252659D02*
G01*
X144877126Y-111252659D01*
X144877126Y-110578842D01*
X144767852Y-110578842D01*
X144767852Y-111252659D01*
G37*
G36*
X144640503Y-111843336D02*
G01*
X144657713Y-111804147D01*
X144670008Y-111762980D01*
X144677328Y-111720215D01*
X144679826Y-111674467D01*
X144675010Y-111608452D01*
X144661322Y-111551585D01*
X144639471Y-111502364D01*
X144609562Y-111459603D01*
X144571090Y-111422506D01*
X144527384Y-111393253D01*
X144475536Y-111369433D01*
X144414237Y-111351383D01*
X144341929Y-111339789D01*
X144256847Y-111335653D01*
X144171535Y-111339793D01*
X144099077Y-111351395D01*
X144037692Y-111369450D01*
X143985812Y-111393267D01*
X143942115Y-111422506D01*
X143903623Y-111459606D01*
X143873700Y-111502368D01*
X143851841Y-111551589D01*
X143838148Y-111608455D01*
X143833330Y-111674467D01*
X143835833Y-111720284D01*
X143843197Y-111763517D01*
X143855541Y-111804987D01*
X143872653Y-111843336D01*
X144051927Y-111843336D01*
X144017811Y-111800945D01*
X143995946Y-111762687D01*
X143982577Y-111722869D01*
X143978166Y-111682087D01*
X143982806Y-111639456D01*
X143996008Y-111603898D01*
X144017561Y-111573868D01*
X144048410Y-111548486D01*
X144083668Y-111530388D01*
X144128695Y-111516235D01*
X144185611Y-111506845D01*
X144256847Y-111503399D01*
X144327803Y-111506840D01*
X144384573Y-111516222D01*
X144429556Y-111530373D01*
X144464844Y-111548486D01*
X144495668Y-111573865D01*
X144517207Y-111603894D01*
X144530402Y-111639453D01*
X144535039Y-111682087D01*
X144530639Y-111722871D01*
X144517307Y-111762687D01*
X144495396Y-111800944D01*
X144461229Y-111843336D01*
X144640503Y-111843336D01*
G37*
G36*
X144306037Y-112205011D02*
G01*
X144270673Y-112124918D01*
X144238198Y-112072235D01*
X144208487Y-112039952D01*
X144172145Y-112016721D01*
X144127112Y-112002045D01*
X144071076Y-111996769D01*
X144016518Y-112001583D01*
X143970245Y-112015250D01*
X143930687Y-112037221D01*
X143896735Y-112067795D01*
X143870019Y-112104849D01*
X143850291Y-112148778D01*
X143837781Y-112200916D01*
X143833330Y-112262945D01*
X143836522Y-112319048D01*
X143846177Y-112375492D01*
X143861976Y-112431165D01*
X143884132Y-112486965D01*
X144041522Y-112486965D01*
X144008931Y-112433946D01*
X143985835Y-112381501D01*
X143971380Y-112327712D01*
X143966686Y-112275499D01*
X143969703Y-112237103D01*
X143977837Y-112207896D01*
X143990182Y-112185862D01*
X144007853Y-112168714D01*
X144029803Y-112158358D01*
X144057398Y-112154697D01*
X144088568Y-112160460D01*
X144113427Y-112177363D01*
X144133923Y-112207151D01*
X144162325Y-112272226D01*
X144188556Y-112341640D01*
X144216954Y-112404620D01*
X144248934Y-112451942D01*
X144284202Y-112486427D01*
X144326106Y-112511675D01*
X144375567Y-112527351D01*
X144434460Y-112532882D01*
X144495770Y-112527715D01*
X144545544Y-112513341D01*
X144586048Y-112490743D01*
X144618912Y-112459903D01*
X144643734Y-112422361D01*
X144662767Y-112374688D01*
X144675260Y-112314613D01*
X144679826Y-112239400D01*
X144676228Y-112178936D01*
X144665318Y-112117816D01*
X144647417Y-112058021D01*
X144622478Y-112000042D01*
X144455807Y-112000042D01*
X144496717Y-112065155D01*
X144524097Y-112124899D01*
X144541033Y-112185614D01*
X144546519Y-112244334D01*
X144543118Y-112283215D01*
X144533830Y-112313374D01*
X144519457Y-112336707D01*
X144499389Y-112354677D01*
X144474635Y-112365612D01*
X144443741Y-112369484D01*
X144409247Y-112363960D01*
X144379554Y-112347600D01*
X144355534Y-112321780D01*
X144336079Y-112284243D01*
X144306037Y-112205011D01*
G37*
G36*
X147225538Y-109648911D02*
G01*
X147225538Y-109487711D01*
X146550597Y-109487711D01*
X146550597Y-109280593D01*
X146409620Y-109280593D01*
X146409620Y-109856029D01*
X146550597Y-109856029D01*
X146550597Y-109648911D01*
X147225538Y-109648911D01*
G37*
G36*
X147329390Y-110578939D02*
G01*
X147438664Y-110578939D01*
X147438664Y-109905122D01*
X147329390Y-109905122D01*
X147329390Y-110578939D01*
G37*
G36*
X147202041Y-111169616D02*
G01*
X147219251Y-111130427D01*
X147231546Y-111089260D01*
X147238866Y-111046495D01*
X147241364Y-111000747D01*
X147236548Y-110934732D01*
X147222860Y-110877865D01*
X147201009Y-110828644D01*
X147171100Y-110785883D01*
X147132628Y-110748786D01*
X147088922Y-110719533D01*
X147037074Y-110695713D01*
X146975775Y-110677663D01*
X146903467Y-110666069D01*
X146818385Y-110661933D01*
X146733073Y-110666073D01*
X146660615Y-110677675D01*
X146599230Y-110695730D01*
X146547350Y-110719547D01*
X146503653Y-110748786D01*
X146465161Y-110785886D01*
X146435238Y-110828648D01*
X146413379Y-110877869D01*
X146399686Y-110934735D01*
X146394868Y-111000747D01*
X146397371Y-111046564D01*
X146404735Y-111089797D01*
X146417079Y-111131267D01*
X146434191Y-111169616D01*
X146613465Y-111169616D01*
X146579349Y-111127225D01*
X146557484Y-111088967D01*
X146544115Y-111049149D01*
X146539704Y-111008367D01*
X146544344Y-110965736D01*
X146557546Y-110930178D01*
X146579099Y-110900148D01*
X146609948Y-110874766D01*
X146645206Y-110856668D01*
X146690233Y-110842515D01*
X146747149Y-110833125D01*
X146818385Y-110829679D01*
X146889341Y-110833120D01*
X146946111Y-110842502D01*
X146991094Y-110856653D01*
X147026382Y-110874766D01*
X147057206Y-110900145D01*
X147078745Y-110930174D01*
X147091940Y-110965733D01*
X147096577Y-111008367D01*
X147092177Y-111049151D01*
X147078845Y-111088967D01*
X147056934Y-111127224D01*
X147022767Y-111169616D01*
X147202041Y-111169616D01*
G37*
G36*
X147225538Y-111375513D02*
G01*
X146409620Y-111375513D01*
X146409620Y-111536762D01*
X147083437Y-111536762D01*
X147083437Y-111881584D01*
X147225538Y-111881584D01*
X147225538Y-111375513D01*
G37*
G36*
X146409620Y-111990223D02*
G01*
X146409620Y-112151423D01*
X146732069Y-112151423D01*
X146409620Y-112403922D01*
X146409620Y-112586469D01*
X146730946Y-112329037D01*
X147225538Y-112595750D01*
X147225538Y-112416476D01*
X146858294Y-112223035D01*
X146949006Y-112151423D01*
X147225538Y-112151423D01*
X147225538Y-111990223D01*
X146409620Y-111990223D01*
G37*
G36*
X149787077Y-110322631D02*
G01*
X149787077Y-110161431D01*
X149112136Y-110161431D01*
X149112136Y-109954313D01*
X148971159Y-109954313D01*
X148971159Y-110529749D01*
X149112136Y-110529749D01*
X149112136Y-110322631D01*
X149787077Y-110322631D01*
G37*
G36*
X149890929Y-111252659D02*
G01*
X150000203Y-111252659D01*
X150000203Y-110578842D01*
X149890929Y-110578842D01*
X149890929Y-111252659D01*
G37*
G36*
X149787077Y-111500126D02*
G01*
X149782386Y-111583128D01*
X149769417Y-111651178D01*
X149749471Y-111706719D01*
X149723328Y-111751829D01*
X149691187Y-111788137D01*
X149652574Y-111817053D01*
X149604096Y-111841011D01*
X149543830Y-111859541D01*
X149469452Y-111871697D01*
X149378312Y-111876113D01*
X149287368Y-111871694D01*
X149213207Y-111859534D01*
X149153164Y-111841003D01*
X149104908Y-111817048D01*
X149066511Y-111788137D01*
X149034573Y-111751861D01*
X149008578Y-111706771D01*
X148988735Y-111651234D01*
X148975828Y-111583167D01*
X148972972Y-111532366D01*
X149116532Y-111532366D01*
X149120812Y-111579410D01*
X149132583Y-111616348D01*
X149150970Y-111645348D01*
X149176127Y-111667872D01*
X149205928Y-111683539D01*
X149247357Y-111696269D01*
X149303593Y-111705017D01*
X149378312Y-111708319D01*
X149453626Y-111705013D01*
X149510260Y-111696257D01*
X149551933Y-111683526D01*
X149581864Y-111667872D01*
X149607138Y-111645332D01*
X149625598Y-111616323D01*
X149637410Y-111579390D01*
X149641703Y-111532366D01*
X149641703Y-111488647D01*
X149116532Y-111488647D01*
X149116532Y-111532366D01*
X148972972Y-111532366D01*
X148971159Y-111500126D01*
X148971159Y-111327446D01*
X149787077Y-111327446D01*
X149787077Y-111500126D01*
G37*
G36*
X149467518Y-111980106D02*
G01*
X149541095Y-111990010D01*
X149602561Y-112005255D01*
X149653637Y-112025067D01*
X149695827Y-112048940D01*
X149734388Y-112080694D01*
X149763855Y-112117175D01*
X149785091Y-112158967D01*
X149798280Y-112207096D01*
X149802903Y-112262945D01*
X149798273Y-112319015D01*
X149785070Y-112367287D01*
X149763824Y-112409157D01*
X149734361Y-112445660D01*
X149695827Y-112477390D01*
X149653634Y-112501281D01*
X149602557Y-112521106D01*
X149541090Y-112536360D01*
X149467515Y-112546271D01*
X149379924Y-112549833D01*
X149292075Y-112546267D01*
X149218339Y-112536348D01*
X149156790Y-112521089D01*
X149105694Y-112501266D01*
X149063531Y-112477390D01*
X149024977Y-112445658D01*
X148995501Y-112409152D01*
X148974246Y-112367282D01*
X148961039Y-112319012D01*
X148956407Y-112262945D01*
X149101243Y-112262945D01*
X149105302Y-112291782D01*
X149117050Y-112315838D01*
X149137000Y-112336328D01*
X149167090Y-112353608D01*
X149212452Y-112367785D01*
X149280916Y-112378024D01*
X149379924Y-112382038D01*
X149478591Y-112378028D01*
X149546916Y-112367792D01*
X149592268Y-112353608D01*
X149622359Y-112336328D01*
X149642309Y-112315838D01*
X149654057Y-112291782D01*
X149658116Y-112262945D01*
X149654071Y-112234364D01*
X149642346Y-112210455D01*
X149622400Y-112190022D01*
X149592268Y-112172722D01*
X149546918Y-112158563D01*
X149478593Y-112148345D01*
X149379924Y-112144341D01*
X149280914Y-112148349D01*
X149212450Y-112158570D01*
X149167090Y-112172722D01*
X149136959Y-112190022D01*
X149117013Y-112210455D01*
X149105287Y-112234364D01*
X149101243Y-112262945D01*
X148956407Y-112262945D01*
X148961032Y-112207099D01*
X148974225Y-112158972D01*
X148995471Y-112117179D01*
X149024951Y-112080697D01*
X149063531Y-112048940D01*
X149105692Y-112025082D01*
X149156786Y-112005272D01*
X149218334Y-111990023D01*
X149292072Y-111980110D01*
X149379924Y-111976546D01*
X149467518Y-111980106D01*
G37*
G36*
X152348615Y-109648911D02*
G01*
X152348615Y-109487711D01*
X151673674Y-109487711D01*
X151673674Y-109280593D01*
X151532697Y-109280593D01*
X151532697Y-109856029D01*
X151673674Y-109856029D01*
X151673674Y-109648911D01*
X152348615Y-109648911D01*
G37*
G36*
X152452467Y-110578939D02*
G01*
X152561741Y-110578939D01*
X152561741Y-109905122D01*
X152452467Y-109905122D01*
X152452467Y-110578939D01*
G37*
G36*
X151674797Y-110672826D02*
G01*
X151532697Y-110672826D01*
X151532697Y-111158674D01*
X151674797Y-111158674D01*
X151674797Y-110996350D01*
X152206514Y-110996350D01*
X152206514Y-111158674D01*
X152348615Y-111158674D01*
X152348615Y-110672826D01*
X152206514Y-110672826D01*
X152206514Y-110835150D01*
X151674797Y-110835150D01*
X151674797Y-110672826D01*
G37*
G36*
X152348615Y-111486448D02*
G01*
X152026165Y-111486448D01*
X152026165Y-111537837D01*
X152030884Y-111563486D01*
X152045727Y-111588414D01*
X152073416Y-111613655D01*
X152118538Y-111639490D01*
X152142571Y-111650970D01*
X152348615Y-111749302D01*
X152348615Y-111926378D01*
X152055132Y-111778855D01*
X152008630Y-111752868D01*
X151986012Y-111735380D01*
X151971424Y-111716004D01*
X151963346Y-111693566D01*
X151951752Y-111742568D01*
X151931818Y-111781246D01*
X151903751Y-111811633D01*
X151868458Y-111833639D01*
X151824581Y-111847591D01*
X151769857Y-111852617D01*
X151706901Y-111847585D01*
X151657393Y-111833806D01*
X151618581Y-111812545D01*
X151588433Y-111784033D01*
X151566339Y-111749013D01*
X151548873Y-111701868D01*
X151537093Y-111639457D01*
X151532932Y-111562407D01*
X151668252Y-111562407D01*
X151671734Y-111606317D01*
X151680766Y-111636846D01*
X151693946Y-111657516D01*
X151713054Y-111672380D01*
X151740488Y-111682220D01*
X151779187Y-111685945D01*
X151817827Y-111682198D01*
X151845383Y-111672271D01*
X151864721Y-111657222D01*
X151878064Y-111636393D01*
X151887164Y-111605916D01*
X151890659Y-111562407D01*
X151890659Y-111486448D01*
X151668252Y-111486448D01*
X151668252Y-111562407D01*
X151532932Y-111562407D01*
X151532697Y-111558060D01*
X151532697Y-111325248D01*
X152348615Y-111325248D01*
X152348615Y-111486448D01*
G37*
G36*
X152029056Y-111980105D02*
G01*
X152102633Y-111990010D01*
X152164099Y-112005254D01*
X152215175Y-112025066D01*
X152257365Y-112048939D01*
X152295984Y-112080707D01*
X152325459Y-112117101D01*
X152346674Y-112158690D01*
X152359833Y-112206477D01*
X152364441Y-112261821D01*
X152363611Y-112271933D01*
X152361169Y-112284780D01*
X152502194Y-112406657D01*
X152420227Y-112517055D01*
X152320722Y-112415401D01*
X152297800Y-112444861D01*
X152267852Y-112471339D01*
X152229803Y-112494921D01*
X152182236Y-112515394D01*
X152116652Y-112533637D01*
X152037193Y-112545535D01*
X151941462Y-112549832D01*
X151853613Y-112546266D01*
X151779877Y-112536348D01*
X151718328Y-112521088D01*
X151667232Y-112501265D01*
X151625069Y-112477390D01*
X151586515Y-112445657D01*
X151557039Y-112409152D01*
X151535784Y-112367282D01*
X151522577Y-112319011D01*
X151517945Y-112262945D01*
X151662781Y-112262945D01*
X151666840Y-112291782D01*
X151678588Y-112315838D01*
X151698538Y-112336327D01*
X151728628Y-112353608D01*
X151773990Y-112367784D01*
X151842454Y-112378023D01*
X151941462Y-112382038D01*
X152040129Y-112378027D01*
X152108454Y-112367791D01*
X152153806Y-112353608D01*
X152183897Y-112336327D01*
X152203847Y-112315838D01*
X152215595Y-112291782D01*
X152219654Y-112262945D01*
X152215609Y-112234364D01*
X152203884Y-112210454D01*
X152183938Y-112190022D01*
X152153806Y-112172721D01*
X152108456Y-112158563D01*
X152040131Y-112148344D01*
X151941462Y-112144340D01*
X151842452Y-112148348D01*
X151773988Y-112158570D01*
X151728628Y-112172721D01*
X151698497Y-112190022D01*
X151678551Y-112210454D01*
X151666825Y-112234364D01*
X151662781Y-112262945D01*
X151517945Y-112262945D01*
X151522570Y-112207099D01*
X151535763Y-112158971D01*
X151557009Y-112117179D01*
X151586489Y-112080696D01*
X151625069Y-112048939D01*
X151667230Y-112025081D01*
X151718324Y-112005272D01*
X151779872Y-111990022D01*
X151853610Y-111980109D01*
X151941462Y-111976546D01*
X152029056Y-111980105D01*
G37*
G36*
X162129482Y-86394863D02*
G01*
X162175984Y-86420850D01*
X162198602Y-86438338D01*
X162213190Y-86457714D01*
X162221268Y-86480153D01*
X162232862Y-86431150D01*
X162252796Y-86392472D01*
X162280863Y-86362086D01*
X162316156Y-86340080D01*
X162360033Y-86326128D01*
X162414757Y-86321102D01*
X162477713Y-86326133D01*
X162527221Y-86339913D01*
X162566033Y-86361174D01*
X162596181Y-86389685D01*
X162618275Y-86424705D01*
X162635741Y-86471851D01*
X162647521Y-86534261D01*
X162651917Y-86615659D01*
X162651917Y-86848471D01*
X161836000Y-86848471D01*
X161836000Y-86687271D01*
X162158449Y-86687271D01*
X162158449Y-86635882D01*
X162153929Y-86611311D01*
X162293955Y-86611311D01*
X162293955Y-86687271D01*
X162516362Y-86687271D01*
X162516362Y-86611311D01*
X162512880Y-86567402D01*
X162503848Y-86536872D01*
X162490668Y-86516203D01*
X162471560Y-86501338D01*
X162444126Y-86491499D01*
X162405427Y-86487773D01*
X162366787Y-86491521D01*
X162339231Y-86501448D01*
X162319893Y-86516496D01*
X162306550Y-86537326D01*
X162297450Y-86567802D01*
X162293955Y-86611311D01*
X162153929Y-86611311D01*
X162153730Y-86610232D01*
X162138887Y-86585304D01*
X162111198Y-86560063D01*
X162066076Y-86534228D01*
X162042043Y-86522749D01*
X161836000Y-86424416D01*
X161836000Y-86247340D01*
X162129482Y-86394863D01*
G37*
G36*
X162193962Y-85968708D02*
G01*
X162229326Y-86048801D01*
X162261801Y-86101484D01*
X162291512Y-86133767D01*
X162327854Y-86156998D01*
X162372887Y-86171674D01*
X162428923Y-86176950D01*
X162483481Y-86172136D01*
X162529754Y-86158469D01*
X162569312Y-86136498D01*
X162603264Y-86105924D01*
X162629980Y-86068870D01*
X162649708Y-86024940D01*
X162662218Y-85972803D01*
X162666669Y-85910774D01*
X162663477Y-85854671D01*
X162653822Y-85798227D01*
X162638023Y-85742554D01*
X162615867Y-85686754D01*
X162458477Y-85686754D01*
X162491068Y-85739772D01*
X162514164Y-85792218D01*
X162528619Y-85846007D01*
X162533313Y-85898220D01*
X162530296Y-85936616D01*
X162522162Y-85965823D01*
X162509817Y-85987857D01*
X162492146Y-86005005D01*
X162470196Y-86015361D01*
X162442601Y-86019022D01*
X162411431Y-86013259D01*
X162386572Y-85996356D01*
X162366076Y-85966568D01*
X162337674Y-85901492D01*
X162311443Y-85832079D01*
X162283045Y-85769099D01*
X162251065Y-85721776D01*
X162215797Y-85687291D01*
X162173893Y-85662044D01*
X162124432Y-85646368D01*
X162065539Y-85640836D01*
X162004229Y-85646004D01*
X161954455Y-85660378D01*
X161913951Y-85682976D01*
X161881087Y-85713816D01*
X161856265Y-85751358D01*
X161837232Y-85799031D01*
X161824739Y-85859106D01*
X161820173Y-85934319D01*
X161823771Y-85994783D01*
X161834681Y-86055903D01*
X161852582Y-86115698D01*
X161877521Y-86173677D01*
X162044192Y-86173677D01*
X162003282Y-86108564D01*
X161975902Y-86048820D01*
X161958966Y-85988105D01*
X161953480Y-85929385D01*
X161956881Y-85890504D01*
X161966169Y-85860345D01*
X161980542Y-85837012D01*
X162000610Y-85819042D01*
X162025364Y-85808107D01*
X162056258Y-85804235D01*
X162090752Y-85809759D01*
X162120445Y-85826119D01*
X162144465Y-85851939D01*
X162163920Y-85889476D01*
X162193962Y-85968708D01*
G37*
G36*
X161836000Y-85156210D02*
G01*
X161836000Y-85317410D01*
X162510940Y-85317410D01*
X162510940Y-85524528D01*
X162651917Y-85524528D01*
X162651917Y-84949092D01*
X162510940Y-84949092D01*
X162510940Y-85156210D01*
X161836000Y-85156210D01*
G37*
G36*
X165029817Y-86827173D02*
G01*
X165171917Y-86827173D01*
X165171917Y-86341325D01*
X165029817Y-86341325D01*
X165029817Y-86503649D01*
X164498100Y-86503649D01*
X164498100Y-86341325D01*
X164356000Y-86341325D01*
X164356000Y-86827173D01*
X164498100Y-86827173D01*
X164498100Y-86664849D01*
X165029817Y-86664849D01*
X165029817Y-86827173D01*
G37*
G36*
X165171917Y-86182421D02*
G01*
X165171917Y-86009155D01*
X164578993Y-85781813D01*
X165171917Y-85781813D01*
X165171917Y-85639713D01*
X164356000Y-85639713D01*
X164356000Y-85811904D01*
X164948923Y-86040320D01*
X164356000Y-86040320D01*
X164356000Y-86182421D01*
X165171917Y-86182421D01*
G37*
G36*
X164356000Y-85156210D02*
G01*
X164356000Y-85317410D01*
X165030940Y-85317410D01*
X165030940Y-85524528D01*
X165171917Y-85524528D01*
X165171917Y-84949092D01*
X165030940Y-84949092D01*
X165030940Y-85156210D01*
X164356000Y-85156210D01*
G37*
G36*
X167233962Y-86642428D02*
G01*
X167269326Y-86722521D01*
X167301801Y-86775203D01*
X167331512Y-86807487D01*
X167367854Y-86830717D01*
X167412887Y-86845393D01*
X167468923Y-86850669D01*
X167523481Y-86845855D01*
X167569754Y-86832189D01*
X167609312Y-86810217D01*
X167643264Y-86779643D01*
X167669980Y-86742590D01*
X167689708Y-86698660D01*
X167702218Y-86646522D01*
X167706669Y-86584493D01*
X167703477Y-86528391D01*
X167693822Y-86471946D01*
X167678023Y-86416273D01*
X167655867Y-86360474D01*
X167498477Y-86360474D01*
X167531068Y-86413492D01*
X167554164Y-86465938D01*
X167568619Y-86519727D01*
X167573313Y-86571939D01*
X167570296Y-86610336D01*
X167562162Y-86639542D01*
X167549817Y-86661576D01*
X167532146Y-86678725D01*
X167510196Y-86689080D01*
X167482601Y-86692742D01*
X167451431Y-86686979D01*
X167426572Y-86670076D01*
X167406076Y-86640288D01*
X167377674Y-86575212D01*
X167351443Y-86505798D01*
X167323045Y-86442818D01*
X167291065Y-86395496D01*
X167255797Y-86361011D01*
X167213893Y-86335764D01*
X167164432Y-86320088D01*
X167105539Y-86314556D01*
X167044229Y-86319723D01*
X166994455Y-86334098D01*
X166953951Y-86356695D01*
X166921087Y-86387536D01*
X166896265Y-86425077D01*
X166877232Y-86472751D01*
X166864739Y-86532826D01*
X166860173Y-86608038D01*
X166863771Y-86668503D01*
X166874681Y-86729622D01*
X166892582Y-86789418D01*
X166917521Y-86847396D01*
X167084192Y-86847396D01*
X167043282Y-86782284D01*
X167015902Y-86722539D01*
X166998966Y-86661824D01*
X166993480Y-86603104D01*
X166996881Y-86564223D01*
X167006169Y-86534065D01*
X167020542Y-86510732D01*
X167040610Y-86492761D01*
X167065364Y-86481826D01*
X167096258Y-86477954D01*
X167130752Y-86483478D01*
X167160445Y-86499839D01*
X167184465Y-86525658D01*
X167203920Y-86563195D01*
X167233962Y-86642428D01*
G37*
G36*
X166899496Y-85656663D02*
G01*
X166882286Y-85695852D01*
X166869991Y-85737019D01*
X166862671Y-85779784D01*
X166860173Y-85825533D01*
X166864989Y-85891548D01*
X166878677Y-85948414D01*
X166900528Y-85997635D01*
X166930437Y-86040396D01*
X166968909Y-86077494D01*
X167012615Y-86106747D01*
X167064463Y-86130566D01*
X167125762Y-86148616D01*
X167198070Y-86160211D01*
X167283152Y-86164347D01*
X167368464Y-86160207D01*
X167440922Y-86148605D01*
X167502307Y-86130549D01*
X167554187Y-86106732D01*
X167597884Y-86077494D01*
X167636376Y-86040394D01*
X167666299Y-85997631D01*
X167688158Y-85948410D01*
X167701851Y-85891545D01*
X167706669Y-85825533D01*
X167704166Y-85779716D01*
X167696802Y-85736482D01*
X167684458Y-85695013D01*
X167667346Y-85656663D01*
X167488072Y-85656663D01*
X167522188Y-85699055D01*
X167544053Y-85737312D01*
X167557422Y-85777131D01*
X167561833Y-85817913D01*
X167557193Y-85860543D01*
X167543991Y-85896101D01*
X167522438Y-85926132D01*
X167491589Y-85951513D01*
X167456331Y-85969612D01*
X167411304Y-85983764D01*
X167354388Y-85993155D01*
X167283152Y-85996601D01*
X167212196Y-85993160D01*
X167155426Y-85983778D01*
X167110443Y-85969626D01*
X167075155Y-85951513D01*
X167044331Y-85926135D01*
X167022792Y-85896106D01*
X167009597Y-85860546D01*
X167004960Y-85817913D01*
X167009360Y-85777128D01*
X167022692Y-85737312D01*
X167044603Y-85699056D01*
X167078770Y-85656663D01*
X166899496Y-85656663D01*
G37*
G36*
X166876000Y-85450767D02*
G01*
X167691917Y-85450767D01*
X167691917Y-85289518D01*
X167018100Y-85289518D01*
X167018100Y-84944696D01*
X166876000Y-84944696D01*
X166876000Y-85450767D01*
G37*
G36*
X169753962Y-86642428D02*
G01*
X169789326Y-86722521D01*
X169821801Y-86775203D01*
X169851512Y-86807487D01*
X169887854Y-86830717D01*
X169932887Y-86845393D01*
X169988923Y-86850669D01*
X170043481Y-86845855D01*
X170089754Y-86832189D01*
X170129312Y-86810217D01*
X170163264Y-86779643D01*
X170189980Y-86742590D01*
X170209708Y-86698660D01*
X170222218Y-86646522D01*
X170226669Y-86584493D01*
X170223477Y-86528391D01*
X170213822Y-86471946D01*
X170198023Y-86416273D01*
X170175867Y-86360474D01*
X170018477Y-86360474D01*
X170051068Y-86413492D01*
X170074164Y-86465938D01*
X170088619Y-86519727D01*
X170093313Y-86571939D01*
X170090296Y-86610336D01*
X170082162Y-86639542D01*
X170069817Y-86661576D01*
X170052146Y-86678725D01*
X170030196Y-86689080D01*
X170002601Y-86692742D01*
X169971431Y-86686979D01*
X169946572Y-86670076D01*
X169926076Y-86640288D01*
X169897674Y-86575212D01*
X169871443Y-86505798D01*
X169843045Y-86442818D01*
X169811065Y-86395496D01*
X169775797Y-86361011D01*
X169733893Y-86335764D01*
X169684432Y-86320088D01*
X169625539Y-86314556D01*
X169564229Y-86319723D01*
X169514455Y-86334098D01*
X169473951Y-86356695D01*
X169441087Y-86387536D01*
X169416265Y-86425077D01*
X169397232Y-86472751D01*
X169384739Y-86532826D01*
X169380173Y-86608038D01*
X169383771Y-86668503D01*
X169394681Y-86729622D01*
X169412582Y-86789418D01*
X169437521Y-86847396D01*
X169604192Y-86847396D01*
X169563282Y-86782284D01*
X169535902Y-86722539D01*
X169518966Y-86661824D01*
X169513480Y-86603104D01*
X169516881Y-86564223D01*
X169526169Y-86534065D01*
X169540542Y-86510732D01*
X169560610Y-86492761D01*
X169585364Y-86481826D01*
X169616258Y-86477954D01*
X169650752Y-86483478D01*
X169680445Y-86499839D01*
X169704465Y-86525658D01*
X169723920Y-86563195D01*
X169753962Y-86642428D01*
G37*
G36*
X169895708Y-85628306D02*
G01*
X169969869Y-85640466D01*
X170029912Y-85658997D01*
X170078168Y-85682951D01*
X170116565Y-85711862D01*
X170148503Y-85748138D01*
X170174498Y-85793228D01*
X170194341Y-85848766D01*
X170207248Y-85916833D01*
X170211917Y-85999873D01*
X170211917Y-86172553D01*
X169396000Y-86172553D01*
X169396000Y-85999873D01*
X169397822Y-85967633D01*
X169541373Y-85967633D01*
X169541373Y-86011353D01*
X170066544Y-86011353D01*
X170066544Y-85967633D01*
X170062264Y-85920590D01*
X170050493Y-85883652D01*
X170032106Y-85854651D01*
X170006949Y-85832127D01*
X169977148Y-85816460D01*
X169935719Y-85803731D01*
X169879483Y-85794982D01*
X169804764Y-85791681D01*
X169729450Y-85794987D01*
X169672816Y-85803743D01*
X169631143Y-85816474D01*
X169601212Y-85832127D01*
X169575938Y-85854668D01*
X169557478Y-85883676D01*
X169545666Y-85920610D01*
X169541373Y-85967633D01*
X169397822Y-85967633D01*
X169400690Y-85916871D01*
X169413659Y-85848822D01*
X169433605Y-85793281D01*
X169459748Y-85748170D01*
X169491889Y-85711862D01*
X169530502Y-85682946D01*
X169578980Y-85658989D01*
X169639246Y-85640459D01*
X169713624Y-85628303D01*
X169804764Y-85623886D01*
X169895708Y-85628306D01*
G37*
G36*
X170211917Y-85138185D02*
G01*
X170211917Y-85335435D01*
X169396000Y-85555693D01*
X169396000Y-85394444D01*
X169597646Y-85345303D01*
X169597646Y-85313063D01*
X169730466Y-85313063D01*
X170064346Y-85237054D01*
X169730466Y-85160557D01*
X169730466Y-85313063D01*
X169597646Y-85313063D01*
X169597646Y-85129441D01*
X169396000Y-85079127D01*
X169396000Y-84917927D01*
X170211917Y-85138185D01*
G37*
G36*
X172063571Y-86444591D02*
G01*
X172219300Y-86444591D01*
X172219300Y-86554989D01*
X172354855Y-86554989D01*
X172354855Y-86303614D01*
X171981017Y-86303614D01*
X171945899Y-86352621D01*
X171920640Y-86406098D01*
X171905377Y-86463557D01*
X171900173Y-86526021D01*
X171904963Y-86589012D01*
X171918648Y-86643780D01*
X171940641Y-86691702D01*
X171970970Y-86733845D01*
X172010277Y-86770899D01*
X172054545Y-86800080D01*
X172106635Y-86823775D01*
X172167766Y-86841676D01*
X172239391Y-86853138D01*
X172323152Y-86857215D01*
X172408446Y-86853063D01*
X172480896Y-86841425D01*
X172542281Y-86823313D01*
X172594171Y-86799415D01*
X172637884Y-86770069D01*
X172676410Y-86732848D01*
X172706340Y-86690038D01*
X172728187Y-86640858D01*
X172741862Y-86584139D01*
X172746669Y-86518401D01*
X172743183Y-86469667D01*
X172732699Y-86421681D01*
X172715677Y-86375567D01*
X172692545Y-86332581D01*
X172513857Y-86332581D01*
X172552649Y-86369569D01*
X172579705Y-86410495D01*
X172596214Y-86456206D01*
X172601833Y-86506922D01*
X172597189Y-86551391D01*
X172584060Y-86588075D01*
X172562821Y-86618643D01*
X172532713Y-86644088D01*
X172497987Y-86662197D01*
X172453074Y-86676430D01*
X172395677Y-86685921D01*
X172323152Y-86689420D01*
X172253088Y-86686100D01*
X172196657Y-86677024D01*
X172151611Y-86663299D01*
X172115986Y-86645700D01*
X172084474Y-86620906D01*
X172062726Y-86592034D01*
X172049554Y-86558337D01*
X172044960Y-86518401D01*
X172049600Y-86474682D01*
X172055647Y-86457354D01*
X172063571Y-86444591D01*
G37*
G36*
X172731917Y-86182421D02*
G01*
X172731917Y-86009155D01*
X172138993Y-85781813D01*
X172731917Y-85781813D01*
X172731917Y-85639713D01*
X171916000Y-85639713D01*
X171916000Y-85811904D01*
X172508923Y-86040320D01*
X171916000Y-86040320D01*
X171916000Y-86182421D01*
X172731917Y-86182421D01*
G37*
G36*
X172415708Y-84954586D02*
G01*
X172489869Y-84966746D01*
X172549912Y-84985277D01*
X172598168Y-85009232D01*
X172636565Y-85038143D01*
X172668503Y-85074419D01*
X172694498Y-85119509D01*
X172714341Y-85175046D01*
X172727248Y-85243113D01*
X172731917Y-85326154D01*
X172731917Y-85498834D01*
X171916000Y-85498834D01*
X171916000Y-85326154D01*
X171917822Y-85293914D01*
X172061373Y-85293914D01*
X172061373Y-85337633D01*
X172586544Y-85337633D01*
X172586544Y-85293914D01*
X172582264Y-85246870D01*
X172570493Y-85209932D01*
X172552106Y-85180932D01*
X172526949Y-85158408D01*
X172497148Y-85142741D01*
X172455719Y-85130011D01*
X172399483Y-85121263D01*
X172324764Y-85117961D01*
X172249450Y-85121267D01*
X172192816Y-85130023D01*
X172151143Y-85142754D01*
X172121212Y-85158408D01*
X172095938Y-85180948D01*
X172077478Y-85209957D01*
X172065666Y-85246890D01*
X172061373Y-85293914D01*
X171917822Y-85293914D01*
X171920690Y-85243152D01*
X171933659Y-85175102D01*
X171953605Y-85119561D01*
X171979748Y-85074451D01*
X172011889Y-85038143D01*
X172050502Y-85009227D01*
X172098980Y-84985269D01*
X172159246Y-84966739D01*
X172233624Y-84954583D01*
X172324764Y-84950167D01*
X172415708Y-84954586D01*
G37*
G36*
X174801045Y-85947410D02*
G01*
X174801045Y-86033774D01*
X174943145Y-86033774D01*
X174943145Y-85947410D01*
X174946178Y-85907891D01*
X174954388Y-85877486D01*
X174966886Y-85854255D01*
X174984864Y-85835909D01*
X175006761Y-85825000D01*
X175033857Y-85821185D01*
X175062482Y-85825030D01*
X175085633Y-85835985D01*
X175104639Y-85854255D01*
X175118066Y-85877617D01*
X175126820Y-85908024D01*
X175130040Y-85947410D01*
X175127284Y-85993978D01*
X175118561Y-86045791D01*
X175104741Y-86098393D01*
X175085246Y-86154528D01*
X175231694Y-86154528D01*
X175246748Y-86098252D01*
X175257632Y-86043592D01*
X175264465Y-85989388D01*
X175266669Y-85938666D01*
X175262609Y-85873506D01*
X175251299Y-85819432D01*
X175233716Y-85774620D01*
X175210347Y-85737556D01*
X175179618Y-85706050D01*
X175144214Y-85683820D01*
X175103208Y-85670178D01*
X175055155Y-85665407D01*
X175008322Y-85670323D01*
X174969258Y-85684284D01*
X174936307Y-85706977D01*
X174909929Y-85737341D01*
X174889689Y-85776227D01*
X174875930Y-85825532D01*
X174860579Y-85769784D01*
X174837231Y-85726104D01*
X174806223Y-85692225D01*
X174767614Y-85667388D01*
X174720711Y-85651847D01*
X174663341Y-85646307D01*
X174604966Y-85651539D01*
X174556562Y-85666259D01*
X174516177Y-85689739D01*
X174482454Y-85722267D01*
X174456824Y-85761380D01*
X174437377Y-85809842D01*
X174424748Y-85869613D01*
X174420173Y-85943062D01*
X174422784Y-86004450D01*
X174430577Y-86064646D01*
X174443334Y-86123499D01*
X174460570Y-86179147D01*
X174610340Y-86179147D01*
X174587866Y-86126125D01*
X174571261Y-86068212D01*
X174561281Y-86007666D01*
X174557877Y-85943062D01*
X174561631Y-85900290D01*
X174571996Y-85866280D01*
X174588212Y-85839210D01*
X174610740Y-85817981D01*
X174637505Y-85805353D01*
X174669886Y-85800962D01*
X174710110Y-85805580D01*
X174741786Y-85818456D01*
X174766900Y-85839210D01*
X174785117Y-85866647D01*
X174796788Y-85901967D01*
X174801045Y-85947410D01*
G37*
G36*
X174570431Y-85237054D02*
G01*
X175251917Y-85093341D01*
X175251917Y-84931017D01*
X174436000Y-85125044D01*
X174436000Y-85348575D01*
X175251917Y-85542553D01*
X175251917Y-85380278D01*
X174570431Y-85237054D01*
G37*
G36*
X129072962Y-148096000D02*
G01*
X128831088Y-148096000D01*
X128757376Y-147793529D01*
X128433583Y-147793529D01*
X128358112Y-148096000D01*
X128116311Y-148096000D01*
X128251746Y-147594300D01*
X128480258Y-147594300D01*
X128709016Y-147594300D01*
X128595003Y-147093480D01*
X128480258Y-147594300D01*
X128251746Y-147594300D01*
X128446699Y-146872123D01*
X128742575Y-146872123D01*
X129072962Y-148096000D01*
G37*
G36*
X127203258Y-148060755D02*
G01*
X127262041Y-148086570D01*
X127323792Y-148105012D01*
X127387939Y-148115992D01*
X127456563Y-148119740D01*
X127555585Y-148112515D01*
X127640885Y-148091983D01*
X127714716Y-148059207D01*
X127778858Y-148014344D01*
X127834504Y-147956635D01*
X127878384Y-147891076D01*
X127914113Y-147813305D01*
X127941188Y-147721356D01*
X127958579Y-147612894D01*
X127964783Y-147485270D01*
X127958573Y-147357303D01*
X127941170Y-147248615D01*
X127914087Y-147156538D01*
X127878362Y-147078718D01*
X127834504Y-147013173D01*
X127778854Y-146955435D01*
X127714710Y-146910551D01*
X127640878Y-146877762D01*
X127555581Y-146857222D01*
X127456563Y-146849995D01*
X127387837Y-146853749D01*
X127322986Y-146864796D01*
X127260782Y-146883312D01*
X127203258Y-146908979D01*
X127203258Y-147177891D01*
X127266846Y-147126717D01*
X127324232Y-147093920D01*
X127383959Y-147073866D01*
X127445132Y-147067249D01*
X127509078Y-147074209D01*
X127562415Y-147094012D01*
X127607461Y-147126342D01*
X127645533Y-147172615D01*
X127672681Y-147225502D01*
X127693910Y-147293043D01*
X127707995Y-147378416D01*
X127713164Y-147485270D01*
X127708003Y-147591705D01*
X127693930Y-147676860D01*
X127672703Y-147744334D01*
X127645533Y-147797266D01*
X127607465Y-147843502D01*
X127562422Y-147875811D01*
X127509083Y-147895603D01*
X127445132Y-147902559D01*
X127383956Y-147895959D01*
X127324232Y-147875961D01*
X127266847Y-147843094D01*
X127203258Y-147791844D01*
X127203258Y-148060755D01*
G37*
G36*
X146172962Y-148096000D02*
G01*
X145931088Y-148096000D01*
X145857376Y-147793529D01*
X145533583Y-147793529D01*
X145458112Y-148096000D01*
X145216311Y-148096000D01*
X145351746Y-147594300D01*
X145580258Y-147594300D01*
X145809016Y-147594300D01*
X145695003Y-147093480D01*
X145580258Y-147594300D01*
X145351746Y-147594300D01*
X145546699Y-146872123D01*
X145842575Y-146872123D01*
X146172962Y-148096000D01*
G37*
G36*
X144303258Y-148060755D02*
G01*
X144362041Y-148086570D01*
X144423792Y-148105012D01*
X144487939Y-148115992D01*
X144556563Y-148119740D01*
X144655585Y-148112515D01*
X144740885Y-148091983D01*
X144814716Y-148059207D01*
X144878858Y-148014344D01*
X144934504Y-147956635D01*
X144978384Y-147891076D01*
X145014113Y-147813305D01*
X145041188Y-147721356D01*
X145058579Y-147612894D01*
X145064783Y-147485270D01*
X145058573Y-147357303D01*
X145041170Y-147248615D01*
X145014087Y-147156538D01*
X144978362Y-147078718D01*
X144934504Y-147013173D01*
X144878854Y-146955435D01*
X144814710Y-146910551D01*
X144740878Y-146877762D01*
X144655581Y-146857222D01*
X144556563Y-146849995D01*
X144487837Y-146853749D01*
X144422986Y-146864796D01*
X144360782Y-146883312D01*
X144303258Y-146908979D01*
X144303258Y-147177891D01*
X144366846Y-147126717D01*
X144424232Y-147093920D01*
X144483959Y-147073866D01*
X144545132Y-147067249D01*
X144609078Y-147074209D01*
X144662415Y-147094012D01*
X144707461Y-147126342D01*
X144745533Y-147172615D01*
X144772681Y-147225502D01*
X144793910Y-147293043D01*
X144807995Y-147378416D01*
X144813164Y-147485270D01*
X144808003Y-147591705D01*
X144793930Y-147676860D01*
X144772703Y-147744334D01*
X144745533Y-147797266D01*
X144707465Y-147843502D01*
X144662422Y-147875811D01*
X144609083Y-147895603D01*
X144545132Y-147902559D01*
X144483956Y-147895959D01*
X144424232Y-147875961D01*
X144366847Y-147843094D01*
X144303258Y-147791844D01*
X144303258Y-148060755D01*
G37*
G36*
X157459023Y-122285274D02*
G01*
X157459023Y-122072123D01*
X156730251Y-122072123D01*
X156730251Y-122285274D01*
X156973736Y-122285274D01*
X156973736Y-123082849D01*
X156730251Y-123082849D01*
X156730251Y-123296000D01*
X157459023Y-123296000D01*
X157459023Y-123082849D01*
X157215537Y-123082849D01*
X157215537Y-122285274D01*
X157459023Y-122285274D01*
G37*
G36*
X156168193Y-122056933D02*
G01*
X156240384Y-122076723D01*
X156303073Y-122108591D01*
X156357796Y-122152811D01*
X156405432Y-122210682D01*
X156441219Y-122273922D01*
X156470933Y-122350564D01*
X156493808Y-122442886D01*
X156508677Y-122553493D01*
X156514023Y-122685270D01*
X156508683Y-122816661D01*
X156493826Y-122927027D01*
X156470960Y-123019227D01*
X156441242Y-123095841D01*
X156405432Y-123159126D01*
X156357800Y-123216966D01*
X156303079Y-123261167D01*
X156240391Y-123293022D01*
X156168197Y-123312804D01*
X156084424Y-123319740D01*
X156000319Y-123312794D01*
X155927912Y-123292990D01*
X155865107Y-123261121D01*
X155810351Y-123216927D01*
X155762756Y-123159126D01*
X155726921Y-123095836D01*
X155697182Y-123019220D01*
X155674301Y-122927020D01*
X155659435Y-122816657D01*
X155654092Y-122685270D01*
X155905785Y-122685270D01*
X155911800Y-122833271D01*
X155927154Y-122935758D01*
X155948429Y-123003787D01*
X155974350Y-123048923D01*
X156005084Y-123078848D01*
X156041168Y-123096471D01*
X156084424Y-123102559D01*
X156127296Y-123096492D01*
X156163160Y-123078904D01*
X156193808Y-123048985D01*
X156219759Y-123003787D01*
X156240997Y-122935762D01*
X156256325Y-122833275D01*
X156262330Y-122685270D01*
X156256319Y-122536756D01*
X156240986Y-122434059D01*
X156219759Y-122366020D01*
X156193808Y-122320823D01*
X156163160Y-122290904D01*
X156127296Y-122273316D01*
X156084424Y-122267249D01*
X156041168Y-122273337D01*
X156005084Y-122290960D01*
X155974350Y-122320884D01*
X155948429Y-122366020D01*
X155927165Y-122434063D01*
X155911806Y-122536759D01*
X155905785Y-122685270D01*
X155654092Y-122685270D01*
X155659441Y-122553497D01*
X155674319Y-122442893D01*
X155697209Y-122350570D01*
X155726943Y-122273926D01*
X155762756Y-122210682D01*
X155810355Y-122152851D01*
X155865113Y-122108636D01*
X155927918Y-122076754D01*
X156000324Y-122056943D01*
X156084424Y-122049995D01*
X156168193Y-122056933D01*
G37*
G36*
X155468199Y-122072123D02*
G01*
X154694364Y-122072123D01*
X154694364Y-122243435D01*
X155109162Y-123296000D01*
X155355872Y-123296000D01*
X154957487Y-122285274D01*
X155468199Y-122285274D01*
X155468199Y-122072123D01*
G37*
G36*
X157285150Y-129474642D02*
G01*
X157285150Y-129241048D01*
X157450746Y-129241048D01*
X157450746Y-129037716D01*
X157073684Y-129037716D01*
X157073684Y-129598473D01*
X157147194Y-129651150D01*
X157227411Y-129689039D01*
X157313599Y-129711933D01*
X157407295Y-129719740D01*
X157501781Y-129712554D01*
X157583933Y-129692026D01*
X157655816Y-129659038D01*
X157719030Y-129613544D01*
X157774612Y-129554583D01*
X157818383Y-129488181D01*
X157853926Y-129410047D01*
X157880777Y-129318349D01*
X157897970Y-129210912D01*
X157904085Y-129085270D01*
X157897857Y-128957330D01*
X157880401Y-128848655D01*
X157853233Y-128756577D01*
X157817386Y-128678743D01*
X157773367Y-128613173D01*
X157717535Y-128555384D01*
X157653321Y-128510489D01*
X157579550Y-128477718D01*
X157494472Y-128457206D01*
X157395865Y-128449995D01*
X157322764Y-128455225D01*
X157250785Y-128470951D01*
X157181614Y-128496483D01*
X157117135Y-128531181D01*
X157117135Y-128799213D01*
X157172616Y-128741025D01*
X157234005Y-128700441D01*
X157302572Y-128675677D01*
X157378646Y-128667249D01*
X157445349Y-128674216D01*
X157500376Y-128693908D01*
X157546227Y-128725767D01*
X157584396Y-128770930D01*
X157611559Y-128823019D01*
X157632908Y-128890388D01*
X157647145Y-128976483D01*
X157652393Y-129085270D01*
X157647414Y-129190366D01*
X157633800Y-129275014D01*
X157613212Y-129342582D01*
X157586814Y-129396020D01*
X157549622Y-129443288D01*
X157506315Y-129475909D01*
X157455769Y-129495667D01*
X157395865Y-129502559D01*
X157330286Y-129495598D01*
X157304295Y-129486528D01*
X157285150Y-129474642D01*
G37*
G36*
X156891894Y-128472123D02*
G01*
X156631995Y-128472123D01*
X156290983Y-129361509D01*
X156290983Y-128472123D01*
X156077833Y-128472123D01*
X156077833Y-129696000D01*
X156336120Y-129696000D01*
X156678743Y-128806614D01*
X156678743Y-129696000D01*
X156891894Y-129696000D01*
X156891894Y-128472123D01*
G37*
G36*
X155866514Y-129696000D02*
G01*
X155607494Y-129696000D01*
X155482991Y-129688964D01*
X155380917Y-129669510D01*
X155297605Y-129639591D01*
X155229939Y-129600376D01*
X155175478Y-129552165D01*
X155132104Y-129494245D01*
X155096167Y-129421529D01*
X155068372Y-129331130D01*
X155050138Y-129219563D01*
X155043513Y-129082852D01*
X155295205Y-129082852D01*
X155300164Y-129195824D01*
X155313298Y-129280775D01*
X155332395Y-129343284D01*
X155355875Y-129388180D01*
X155389686Y-129426092D01*
X155433199Y-129453782D01*
X155488599Y-129471500D01*
X155559134Y-129477939D01*
X155624713Y-129477939D01*
X155624713Y-128690183D01*
X155559134Y-128690183D01*
X155488569Y-128696602D01*
X155433161Y-128714259D01*
X155389661Y-128741840D01*
X155355875Y-128779576D01*
X155332374Y-128824276D01*
X155313280Y-128886420D01*
X155300157Y-128970774D01*
X155295205Y-129082852D01*
X155043513Y-129082852D01*
X155050142Y-128946437D01*
X155068382Y-128835195D01*
X155096179Y-128745130D01*
X155132111Y-128672747D01*
X155175478Y-128615152D01*
X155229891Y-128567245D01*
X155297526Y-128528252D01*
X155380833Y-128498487D01*
X155482933Y-128479126D01*
X155607494Y-128472123D01*
X155866514Y-128472123D01*
X155866514Y-129696000D01*
G37*
G36*
X188596000Y-143468911D02*
G01*
X188293529Y-143542623D01*
X188293529Y-143866416D01*
X188596000Y-143941887D01*
X188596000Y-144183688D01*
X187372123Y-143853300D01*
X187372123Y-143704996D01*
X187593480Y-143704996D01*
X188094300Y-143819741D01*
X188094300Y-143590983D01*
X187593480Y-143704996D01*
X187372123Y-143704996D01*
X187372123Y-143557424D01*
X188596000Y-143227037D01*
X188596000Y-143468911D01*
G37*
G36*
X188560755Y-145096741D02*
G01*
X188586570Y-145037958D01*
X188605012Y-144976207D01*
X188615992Y-144912060D01*
X188619740Y-144843436D01*
X188612515Y-144744414D01*
X188591983Y-144659114D01*
X188559207Y-144585283D01*
X188514344Y-144521141D01*
X188456635Y-144465495D01*
X188391076Y-144421615D01*
X188313305Y-144385886D01*
X188221356Y-144358811D01*
X188112894Y-144341420D01*
X187985270Y-144335216D01*
X187857303Y-144341426D01*
X187748615Y-144358829D01*
X187656538Y-144385912D01*
X187578718Y-144421637D01*
X187513173Y-144465495D01*
X187455435Y-144521145D01*
X187410551Y-144585289D01*
X187377762Y-144659121D01*
X187357222Y-144744418D01*
X187349995Y-144843436D01*
X187353749Y-144912162D01*
X187364796Y-144977013D01*
X187383312Y-145039217D01*
X187408979Y-145096741D01*
X187677891Y-145096741D01*
X187626717Y-145033153D01*
X187593920Y-144975767D01*
X187573866Y-144916040D01*
X187567249Y-144854867D01*
X187574209Y-144790921D01*
X187594012Y-144737584D01*
X187626342Y-144692538D01*
X187672615Y-144654466D01*
X187725502Y-144627318D01*
X187793043Y-144606089D01*
X187878416Y-144592004D01*
X187985270Y-144586835D01*
X188091705Y-144591996D01*
X188176860Y-144606069D01*
X188244334Y-144627296D01*
X188297266Y-144654466D01*
X188343502Y-144692534D01*
X188375811Y-144737577D01*
X188395603Y-144790916D01*
X188402559Y-144854867D01*
X188395959Y-144916043D01*
X188375961Y-144975767D01*
X188343094Y-145033152D01*
X188291844Y-145096741D01*
X188560755Y-145096741D01*
G37*
G36*
X104714849Y-127025357D02*
G01*
X104714849Y-127258951D01*
X104549253Y-127258951D01*
X104549253Y-127462283D01*
X104926315Y-127462283D01*
X104926315Y-126901526D01*
X104852805Y-126848849D01*
X104772588Y-126810960D01*
X104686400Y-126788066D01*
X104592704Y-126780259D01*
X104498218Y-126787445D01*
X104416066Y-126807973D01*
X104344183Y-126840961D01*
X104280969Y-126886455D01*
X104225387Y-126945416D01*
X104181616Y-127011818D01*
X104146073Y-127089952D01*
X104119222Y-127181650D01*
X104102029Y-127289087D01*
X104095914Y-127414729D01*
X104102142Y-127542669D01*
X104119598Y-127651344D01*
X104146766Y-127743422D01*
X104182613Y-127821256D01*
X104226632Y-127886826D01*
X104282464Y-127944615D01*
X104346678Y-127989510D01*
X104420449Y-128022281D01*
X104505527Y-128042793D01*
X104604134Y-128050004D01*
X104677235Y-128044774D01*
X104749214Y-128029048D01*
X104818385Y-128003516D01*
X104882864Y-127968818D01*
X104882864Y-127700786D01*
X104827383Y-127758974D01*
X104765994Y-127799558D01*
X104697427Y-127824322D01*
X104621353Y-127832750D01*
X104554650Y-127825783D01*
X104499623Y-127806091D01*
X104453772Y-127774232D01*
X104415603Y-127729069D01*
X104388440Y-127676980D01*
X104367091Y-127609611D01*
X104352854Y-127523516D01*
X104347606Y-127414729D01*
X104352585Y-127309633D01*
X104366199Y-127224985D01*
X104386787Y-127157417D01*
X104413185Y-127103979D01*
X104450377Y-127056711D01*
X104493684Y-127024090D01*
X104544230Y-127004332D01*
X104604134Y-126997440D01*
X104669713Y-127004401D01*
X104695704Y-127013471D01*
X104714849Y-127025357D01*
G37*
G36*
X105108105Y-128027876D02*
G01*
X105368004Y-128027876D01*
X105709016Y-127138490D01*
X105709016Y-128027876D01*
X105922166Y-128027876D01*
X105922166Y-126804000D01*
X105663879Y-126804000D01*
X105321256Y-127693385D01*
X105321256Y-126804000D01*
X105108105Y-126804000D01*
X105108105Y-128027876D01*
G37*
G36*
X106517008Y-126811035D02*
G01*
X106619082Y-126830489D01*
X106702394Y-126860408D01*
X106770060Y-126899623D01*
X106824521Y-126947834D01*
X106867895Y-127005754D01*
X106903832Y-127078470D01*
X106931627Y-127168869D01*
X106949861Y-127280436D01*
X106956486Y-127417147D01*
X106949857Y-127553562D01*
X106931617Y-127664804D01*
X106903820Y-127754869D01*
X106867888Y-127827252D01*
X106824521Y-127884847D01*
X106770108Y-127932754D01*
X106702473Y-127971747D01*
X106619166Y-128001512D01*
X106517066Y-128020873D01*
X106392505Y-128027876D01*
X106133485Y-128027876D01*
X106133485Y-127809816D01*
X106375286Y-127809816D01*
X106440865Y-127809816D01*
X106511430Y-127803397D01*
X106566838Y-127785740D01*
X106610338Y-127758159D01*
X106644124Y-127720423D01*
X106667625Y-127675723D01*
X106686719Y-127613579D01*
X106699842Y-127529225D01*
X106704794Y-127417147D01*
X106699835Y-127304175D01*
X106686701Y-127219224D01*
X106667604Y-127156715D01*
X106644124Y-127111819D01*
X106610313Y-127073907D01*
X106566800Y-127046217D01*
X106511400Y-127028499D01*
X106440865Y-127022060D01*
X106375286Y-127022060D01*
X106375286Y-127809816D01*
X106133485Y-127809816D01*
X106133485Y-126804000D01*
X106392505Y-126804000D01*
X106517008Y-126811035D01*
G37*
G36*
X104518094Y-122540943D02*
G01*
X104397955Y-122593990D01*
X104318931Y-122642702D01*
X104270505Y-122687269D01*
X104235660Y-122741781D01*
X104213646Y-122809331D01*
X104205732Y-122893385D01*
X104212953Y-122975222D01*
X104233452Y-123044632D01*
X104266410Y-123103968D01*
X104312271Y-123154896D01*
X104367851Y-123194971D01*
X104433746Y-123224563D01*
X104511952Y-123243327D01*
X104604996Y-123250004D01*
X104689150Y-123245216D01*
X104773817Y-123230734D01*
X104857326Y-123207034D01*
X104941025Y-123173801D01*
X104941025Y-122937715D01*
X104861498Y-122986603D01*
X104782829Y-123021247D01*
X104702146Y-123042929D01*
X104623827Y-123049969D01*
X104566232Y-123045445D01*
X104522423Y-123033243D01*
X104489371Y-123014725D01*
X104463649Y-122988219D01*
X104448116Y-122955294D01*
X104442623Y-122913902D01*
X104451267Y-122867147D01*
X104476622Y-122829858D01*
X104521304Y-122799114D01*
X104618918Y-122756512D01*
X104723039Y-122717164D01*
X104817509Y-122674568D01*
X104888492Y-122626597D01*
X104940219Y-122573696D01*
X104978090Y-122510839D01*
X105001604Y-122436649D01*
X105009902Y-122348309D01*
X105002151Y-122256344D01*
X104980589Y-122181682D01*
X104946693Y-122120927D01*
X104900432Y-122071630D01*
X104844120Y-122034398D01*
X104772610Y-122005848D01*
X104682497Y-121987108D01*
X104569678Y-121980259D01*
X104478982Y-121985656D01*
X104387302Y-122002021D01*
X104297609Y-122028873D01*
X104210642Y-122066281D01*
X104210642Y-122316288D01*
X104308310Y-122254923D01*
X104397927Y-122213853D01*
X104488999Y-122188449D01*
X104577079Y-122180221D01*
X104635401Y-122185322D01*
X104680639Y-122199253D01*
X104715638Y-122220814D01*
X104742594Y-122250915D01*
X104758996Y-122288046D01*
X104764804Y-122334387D01*
X104756519Y-122386128D01*
X104731978Y-122430667D01*
X104693248Y-122466697D01*
X104636943Y-122495880D01*
X104518094Y-122540943D01*
G37*
G36*
X105291709Y-122922108D02*
G01*
X105767177Y-122922108D01*
X105767177Y-122188427D01*
X106065544Y-122188427D01*
X106065544Y-122004000D01*
X105227815Y-122004000D01*
X105227815Y-122188427D01*
X105526988Y-122188427D01*
X105526988Y-122737681D01*
X105291709Y-122737681D01*
X105291709Y-122922108D01*
G37*
G36*
X105526988Y-123368853D02*
G01*
X105767177Y-123368853D01*
X105767177Y-123088511D01*
X105526988Y-123088511D01*
X105526988Y-123368853D01*
G37*
G36*
X106710700Y-121663857D02*
G01*
X106799443Y-121684077D01*
X106867859Y-121714628D01*
X106919979Y-121754359D01*
X106960522Y-121805868D01*
X106991574Y-121873337D01*
X107012072Y-121960696D01*
X107019630Y-122072876D01*
X107019630Y-122922108D01*
X106779441Y-122922108D01*
X106779441Y-122804872D01*
X106752667Y-122846797D01*
X106720524Y-122881251D01*
X106682648Y-122908993D01*
X106640323Y-122929258D01*
X106593907Y-122941604D01*
X106542477Y-122945849D01*
X106467759Y-122937673D01*
X106402761Y-122914004D01*
X106345295Y-122874745D01*
X106294082Y-122817988D01*
X106255532Y-122752629D01*
X106226603Y-122674796D01*
X106208081Y-122582187D01*
X106201808Y-122477782D01*
X106441653Y-122477782D01*
X106447481Y-122559332D01*
X106463446Y-122624093D01*
X106487962Y-122675325D01*
X106523461Y-122717492D01*
X106563417Y-122741178D01*
X106609741Y-122749111D01*
X106656585Y-122741125D01*
X106696923Y-122717305D01*
X106732693Y-122674959D01*
X106757494Y-122623426D01*
X106773586Y-122558743D01*
X106779441Y-122477782D01*
X106773575Y-122396317D01*
X106757474Y-122331386D01*
X106732693Y-122279799D01*
X106696923Y-122237453D01*
X106656585Y-122213633D01*
X106609741Y-122205646D01*
X106563417Y-122213579D01*
X106523461Y-122237266D01*
X106487962Y-122279432D01*
X106463467Y-122330718D01*
X106447491Y-122395727D01*
X106441653Y-122477782D01*
X106201808Y-122477782D01*
X106201465Y-122472066D01*
X106208063Y-122365860D01*
X106226545Y-122276571D01*
X106255455Y-122201515D01*
X106294082Y-122138455D01*
X106344981Y-122084233D01*
X106402582Y-122046421D01*
X106468238Y-122023468D01*
X106544162Y-122015503D01*
X106599145Y-122019353D01*
X106645958Y-122030227D01*
X106685945Y-122047450D01*
X106721686Y-122072029D01*
X106752758Y-122104198D01*
X106779441Y-122144976D01*
X106779441Y-122045838D01*
X106773198Y-121979742D01*
X106756497Y-121931316D01*
X106731008Y-121896215D01*
X106695680Y-121870956D01*
X106647109Y-121854404D01*
X106581018Y-121848221D01*
X106507238Y-121852773D01*
X106435938Y-121866320D01*
X106366617Y-121889028D01*
X106297379Y-121922007D01*
X106297379Y-121701529D01*
X106373639Y-121681425D01*
X106447442Y-121667531D01*
X106521539Y-121659184D01*
X106596625Y-121656393D01*
X106710700Y-121663857D01*
G37*
G36*
X108879295Y-123227876D02*
G01*
X109060425Y-123227876D01*
X108416137Y-121848221D01*
X108234933Y-121848221D01*
X108879295Y-123227876D01*
G37*
G36*
X110304452Y-123014725D02*
G01*
X110304452Y-123227876D01*
X111033224Y-123227876D01*
X111033224Y-123014725D01*
X110789738Y-123014725D01*
X110789738Y-122217150D01*
X111033224Y-122217150D01*
X111033224Y-122004000D01*
X110304452Y-122004000D01*
X110304452Y-122217150D01*
X110547937Y-122217150D01*
X110547937Y-123014725D01*
X110304452Y-123014725D01*
G37*
G36*
X111763155Y-121987205D02*
G01*
X111835562Y-122007009D01*
X111898367Y-122038878D01*
X111953123Y-122083072D01*
X112000718Y-122140873D01*
X112036554Y-122204163D01*
X112066292Y-122280779D01*
X112089173Y-122372979D01*
X112104039Y-122483342D01*
X112109382Y-122614729D01*
X112104033Y-122746502D01*
X112089155Y-122857106D01*
X112066266Y-122949429D01*
X112036531Y-123026073D01*
X112000718Y-123089317D01*
X111953119Y-123147148D01*
X111898361Y-123191363D01*
X111835556Y-123223245D01*
X111763151Y-123243056D01*
X111679050Y-123250004D01*
X111595281Y-123243066D01*
X111523090Y-123223276D01*
X111460402Y-123191408D01*
X111405678Y-123147188D01*
X111358042Y-123089317D01*
X111322255Y-123026077D01*
X111292541Y-122949435D01*
X111269666Y-122857113D01*
X111254798Y-122746506D01*
X111249452Y-122614729D01*
X111501144Y-122614729D01*
X111507155Y-122763243D01*
X111522488Y-122865940D01*
X111543715Y-122933979D01*
X111569666Y-122979176D01*
X111600314Y-123009095D01*
X111636179Y-123026683D01*
X111679050Y-123032750D01*
X111722306Y-123026662D01*
X111758390Y-123009039D01*
X111789124Y-122979115D01*
X111815045Y-122933979D01*
X111836309Y-122865936D01*
X111851668Y-122763240D01*
X111857690Y-122614729D01*
X111851674Y-122466728D01*
X111836320Y-122364241D01*
X111815045Y-122296212D01*
X111789124Y-122251076D01*
X111758390Y-122221151D01*
X111722306Y-122203528D01*
X111679050Y-122197440D01*
X111636179Y-122203507D01*
X111600314Y-122221095D01*
X111569666Y-122251014D01*
X111543715Y-122296212D01*
X111522477Y-122364237D01*
X111507150Y-122466724D01*
X111501144Y-122614729D01*
X111249452Y-122614729D01*
X111254791Y-122483338D01*
X111269648Y-122372972D01*
X111292515Y-122280772D01*
X111322233Y-122204158D01*
X111358042Y-122140873D01*
X111405674Y-122083033D01*
X111460395Y-122038832D01*
X111523084Y-122006977D01*
X111595277Y-121987195D01*
X111679050Y-121980259D01*
X111763155Y-121987205D01*
G37*
G36*
X112338726Y-122217150D02*
G01*
X112609249Y-122217150D01*
X112609249Y-123011428D01*
X112357630Y-122949146D01*
X112357630Y-123167206D01*
X112610935Y-123227876D01*
X112844528Y-123227876D01*
X112844528Y-122217150D01*
X113115052Y-122217150D01*
X113115052Y-122004000D01*
X112338726Y-122004000D01*
X112338726Y-122217150D01*
G37*
G36*
X104658196Y-118027876D02*
G01*
X105323000Y-118027876D01*
X105323000Y-117814725D01*
X104854127Y-117814725D01*
X104854127Y-117587653D01*
X104917215Y-117604432D01*
X104988583Y-117609781D01*
X105077995Y-117602123D01*
X105155637Y-117580184D01*
X105223667Y-117544653D01*
X105283653Y-117495036D01*
X105332484Y-117434388D01*
X105367538Y-117365588D01*
X105389215Y-117287061D01*
X105396786Y-117196669D01*
X105388499Y-117101955D01*
X105364932Y-117021258D01*
X105327000Y-116951947D01*
X105274200Y-116892147D01*
X105210142Y-116844809D01*
X105134693Y-116810023D01*
X105045657Y-116788054D01*
X104940223Y-116780259D01*
X104861434Y-116783511D01*
X104781147Y-116793375D01*
X104700771Y-116809589D01*
X104617236Y-116832722D01*
X104617236Y-117050709D01*
X104686407Y-117021240D01*
X104756967Y-117000297D01*
X104828988Y-116987692D01*
X104900875Y-116983518D01*
X104984575Y-116990510D01*
X105047778Y-117009351D01*
X105095122Y-117038033D01*
X105131216Y-117078638D01*
X105153508Y-117130360D01*
X105161507Y-117196669D01*
X105153839Y-117257612D01*
X105131908Y-117307997D01*
X105095488Y-117350322D01*
X105048457Y-117381564D01*
X104990813Y-117401138D01*
X104919706Y-117408134D01*
X104855103Y-117404175D01*
X104789720Y-117392161D01*
X104725033Y-117372472D01*
X104658196Y-117344240D01*
X104658196Y-118027876D01*
G37*
G36*
X106015575Y-117005646D02*
G01*
X106231144Y-118027876D01*
X106474630Y-118027876D01*
X106183590Y-116804000D01*
X105848293Y-116804000D01*
X105557327Y-118027876D01*
X105800739Y-118027876D01*
X106015575Y-117005646D01*
G37*
G36*
X106127876Y-138341803D02*
G01*
X106127876Y-137676999D01*
X105914725Y-137676999D01*
X105914725Y-138145872D01*
X105687653Y-138145872D01*
X105704432Y-138082784D01*
X105709781Y-138011416D01*
X105702123Y-137922004D01*
X105680184Y-137844362D01*
X105644653Y-137776332D01*
X105595036Y-137716346D01*
X105534388Y-137667515D01*
X105465588Y-137632461D01*
X105387061Y-137610784D01*
X105296669Y-137603213D01*
X105201955Y-137611500D01*
X105121258Y-137635067D01*
X105051947Y-137672999D01*
X104992147Y-137725799D01*
X104944809Y-137789857D01*
X104910023Y-137865306D01*
X104888054Y-137954342D01*
X104880259Y-138059776D01*
X104883511Y-138138565D01*
X104893375Y-138218852D01*
X104909589Y-138299228D01*
X104932722Y-138382763D01*
X105150709Y-138382763D01*
X105121240Y-138313592D01*
X105100297Y-138243032D01*
X105087692Y-138171011D01*
X105083518Y-138099124D01*
X105090510Y-138015424D01*
X105109351Y-137952221D01*
X105138033Y-137904877D01*
X105178638Y-137868783D01*
X105230360Y-137846491D01*
X105296669Y-137838492D01*
X105357612Y-137846160D01*
X105407997Y-137868091D01*
X105450322Y-137904511D01*
X105481564Y-137951542D01*
X105501138Y-138009186D01*
X105508134Y-138080293D01*
X105504175Y-138144896D01*
X105492161Y-138210279D01*
X105472472Y-138274966D01*
X105444240Y-138341803D01*
X106127876Y-138341803D01*
G37*
G36*
X105105646Y-136984424D02*
G01*
X106127876Y-136768855D01*
X106127876Y-136525369D01*
X104904000Y-136816409D01*
X104904000Y-137151706D01*
X106127876Y-137442672D01*
X106127876Y-137199260D01*
X105105646Y-136984424D01*
G37*
G36*
X163114725Y-133759023D02*
G01*
X163327876Y-133759023D01*
X163327876Y-133030251D01*
X163114725Y-133030251D01*
X163114725Y-133273736D01*
X162317150Y-133273736D01*
X162317150Y-133030251D01*
X162104000Y-133030251D01*
X162104000Y-133759023D01*
X162317150Y-133759023D01*
X162317150Y-133515537D01*
X163114725Y-133515537D01*
X163114725Y-133759023D01*
G37*
G36*
X162846502Y-131959441D02*
G01*
X162957106Y-131974319D01*
X163049429Y-131997209D01*
X163126073Y-132026943D01*
X163189317Y-132062756D01*
X163247148Y-132110355D01*
X163291363Y-132165113D01*
X163323245Y-132227918D01*
X163343056Y-132300324D01*
X163350004Y-132384424D01*
X163343066Y-132468193D01*
X163323276Y-132540384D01*
X163291408Y-132603073D01*
X163247188Y-132657796D01*
X163189317Y-132705432D01*
X163126077Y-132741219D01*
X163049435Y-132770933D01*
X162957113Y-132793808D01*
X162846506Y-132808677D01*
X162714729Y-132814023D01*
X162583338Y-132808683D01*
X162472972Y-132793826D01*
X162380772Y-132770960D01*
X162304158Y-132741242D01*
X162240873Y-132705432D01*
X162183033Y-132657800D01*
X162138832Y-132603079D01*
X162106977Y-132540391D01*
X162087195Y-132468197D01*
X162080259Y-132384424D01*
X162297440Y-132384424D01*
X162303507Y-132427296D01*
X162321095Y-132463160D01*
X162351014Y-132493808D01*
X162396212Y-132519759D01*
X162464237Y-132540997D01*
X162566724Y-132556325D01*
X162714729Y-132562330D01*
X162863243Y-132556319D01*
X162965940Y-132540986D01*
X163033979Y-132519759D01*
X163079176Y-132493808D01*
X163109095Y-132463160D01*
X163126683Y-132427296D01*
X163132750Y-132384424D01*
X163126662Y-132341168D01*
X163109039Y-132305084D01*
X163079115Y-132274350D01*
X163033979Y-132248429D01*
X162965936Y-132227165D01*
X162863240Y-132211806D01*
X162714729Y-132205785D01*
X162566728Y-132211800D01*
X162464241Y-132227154D01*
X162396212Y-132248429D01*
X162351076Y-132274350D01*
X162321151Y-132305084D01*
X162303528Y-132341168D01*
X162297440Y-132384424D01*
X162080259Y-132384424D01*
X162087205Y-132300319D01*
X162107009Y-132227912D01*
X162138878Y-132165107D01*
X162183072Y-132110351D01*
X162240873Y-132062756D01*
X162304163Y-132026921D01*
X162380779Y-131997182D01*
X162472979Y-131974301D01*
X162583342Y-131959435D01*
X162714729Y-131954092D01*
X162846502Y-131959441D01*
G37*
G36*
X162317150Y-131724748D02*
G01*
X162317150Y-131454225D01*
X163111428Y-131454225D01*
X163049146Y-131705844D01*
X163267206Y-131705844D01*
X163327876Y-131452540D01*
X163327876Y-131218946D01*
X162317150Y-131218946D01*
X162317150Y-130948422D01*
X162104000Y-130948422D01*
X162104000Y-131724748D01*
X162317150Y-131724748D01*
G37*
G36*
X163327876Y-130757620D02*
G01*
X163327876Y-129983785D01*
X163156564Y-129983785D01*
X162104000Y-130398583D01*
X162104000Y-130645293D01*
X163114725Y-130246908D01*
X163114725Y-130757620D01*
X163327876Y-130757620D01*
G37*
G36*
X169125357Y-133485150D02*
G01*
X169358951Y-133485150D01*
X169358951Y-133650746D01*
X169562283Y-133650746D01*
X169562283Y-133273684D01*
X169001526Y-133273684D01*
X168948849Y-133347194D01*
X168910960Y-133427411D01*
X168888066Y-133513599D01*
X168880259Y-133607295D01*
X168887445Y-133701781D01*
X168907973Y-133783933D01*
X168940961Y-133855816D01*
X168986455Y-133919030D01*
X169045416Y-133974612D01*
X169111818Y-134018383D01*
X169189952Y-134053926D01*
X169281650Y-134080777D01*
X169389087Y-134097970D01*
X169514729Y-134104085D01*
X169642669Y-134097857D01*
X169751344Y-134080401D01*
X169843422Y-134053233D01*
X169921256Y-134017386D01*
X169986826Y-133973367D01*
X170044615Y-133917535D01*
X170089510Y-133853321D01*
X170122281Y-133779550D01*
X170142793Y-133694472D01*
X170150004Y-133595865D01*
X170144774Y-133522764D01*
X170129048Y-133450785D01*
X170103516Y-133381614D01*
X170068818Y-133317135D01*
X169800786Y-133317135D01*
X169858974Y-133372616D01*
X169899558Y-133434005D01*
X169924322Y-133502572D01*
X169932750Y-133578646D01*
X169925783Y-133645349D01*
X169906091Y-133700376D01*
X169874232Y-133746227D01*
X169829069Y-133784396D01*
X169776980Y-133811559D01*
X169709611Y-133832908D01*
X169623516Y-133847145D01*
X169514729Y-133852393D01*
X169409633Y-133847414D01*
X169324985Y-133833800D01*
X169257417Y-133813212D01*
X169203979Y-133786814D01*
X169156711Y-133749622D01*
X169124090Y-133706315D01*
X169104332Y-133655769D01*
X169097440Y-133595865D01*
X169104401Y-133530286D01*
X169113471Y-133504295D01*
X169125357Y-133485150D01*
G37*
G36*
X170127876Y-133091894D02*
G01*
X170127876Y-132831995D01*
X169238490Y-132490983D01*
X170127876Y-132490983D01*
X170127876Y-132277833D01*
X168904000Y-132277833D01*
X168904000Y-132536120D01*
X169793385Y-132878743D01*
X168904000Y-132878743D01*
X168904000Y-133091894D01*
X170127876Y-133091894D01*
G37*
G36*
X169653562Y-131250142D02*
G01*
X169764804Y-131268382D01*
X169854869Y-131296179D01*
X169927252Y-131332111D01*
X169984847Y-131375478D01*
X170032754Y-131429891D01*
X170071747Y-131497526D01*
X170101512Y-131580833D01*
X170120873Y-131682933D01*
X170127876Y-131807494D01*
X170127876Y-132066514D01*
X168904000Y-132066514D01*
X168904000Y-131807494D01*
X168906733Y-131759134D01*
X169122060Y-131759134D01*
X169122060Y-131824713D01*
X169909816Y-131824713D01*
X169909816Y-131759134D01*
X169903397Y-131688569D01*
X169885740Y-131633161D01*
X169858159Y-131589661D01*
X169820423Y-131555875D01*
X169775723Y-131532374D01*
X169713579Y-131513280D01*
X169629225Y-131500157D01*
X169517147Y-131495205D01*
X169404175Y-131500164D01*
X169319224Y-131513298D01*
X169256715Y-131532395D01*
X169211819Y-131555875D01*
X169173907Y-131589686D01*
X169146217Y-131633199D01*
X169128499Y-131688599D01*
X169122060Y-131759134D01*
X168906733Y-131759134D01*
X168911035Y-131682991D01*
X168930489Y-131580917D01*
X168960408Y-131497605D01*
X168999623Y-131429939D01*
X169047834Y-131375478D01*
X169105754Y-131332104D01*
X169178470Y-131296167D01*
X169268869Y-131268372D01*
X169380436Y-131250138D01*
X169517147Y-131243513D01*
X169653562Y-131250142D01*
G37*
G36*
X187773678Y-98997459D02*
G01*
X187757650Y-98956484D01*
X187731787Y-98915549D01*
X187694544Y-98874141D01*
X187650718Y-98842070D01*
X187598640Y-98822431D01*
X187535981Y-98815523D01*
X187477609Y-98823501D01*
X187428134Y-98846680D01*
X187385280Y-98886016D01*
X187348256Y-98945069D01*
X187314721Y-99033493D01*
X187293489Y-99136449D01*
X187285974Y-99256552D01*
X187288451Y-99347027D01*
X187294987Y-99414748D01*
X187309425Y-99481857D01*
X187340050Y-99574556D01*
X187533563Y-99574556D01*
X187499246Y-99494433D01*
X187481027Y-99428304D01*
X187472191Y-99358674D01*
X187468790Y-99262267D01*
X187473391Y-99173463D01*
X187485130Y-99112278D01*
X187501596Y-99081194D01*
X187528709Y-99062611D01*
X187570420Y-99055711D01*
X187611639Y-99063224D01*
X187640869Y-99084378D01*
X187660985Y-99121290D01*
X187677560Y-99186264D01*
X187682747Y-99244242D01*
X187682747Y-99377819D01*
X187862265Y-99377819D01*
X187862265Y-99265565D01*
X187867910Y-99198405D01*
X187884394Y-99137264D01*
X187903802Y-99103288D01*
X187929413Y-99084351D01*
X187963089Y-99077840D01*
X187995557Y-99084296D01*
X188021688Y-99103543D01*
X188043043Y-99138855D01*
X188058515Y-99197266D01*
X188064718Y-99288499D01*
X188060015Y-99374141D01*
X188045870Y-99459224D01*
X188022073Y-99544221D01*
X188204889Y-99544221D01*
X188233979Y-99406542D01*
X188241228Y-99330019D01*
X188244237Y-99203210D01*
X188237076Y-99119636D01*
X188215659Y-99039138D01*
X188179464Y-98960603D01*
X188142148Y-98909182D01*
X188098888Y-98874152D01*
X188048668Y-98853147D01*
X187989321Y-98845858D01*
X187922558Y-98852013D01*
X187874531Y-98868332D01*
X187840503Y-98892972D01*
X187800313Y-98943169D01*
X187773678Y-98997459D01*
G37*
G36*
X187948969Y-97788383D02*
G01*
X188039399Y-97807633D01*
X188105698Y-97835957D01*
X188153232Y-97871769D01*
X188189529Y-97919184D01*
X188217941Y-97984023D01*
X188237075Y-98071041D01*
X188244237Y-98186109D01*
X188240242Y-98276496D01*
X188228630Y-98359912D01*
X188208865Y-98440937D01*
X188180270Y-98521406D01*
X187975399Y-98521406D01*
X188017219Y-98433476D01*
X188044568Y-98352951D01*
X188060852Y-98271159D01*
X188066330Y-98186109D01*
X188062420Y-98132005D01*
X188051995Y-98091633D01*
X188036435Y-98061912D01*
X188013681Y-98038699D01*
X187984944Y-98024681D01*
X187948288Y-98019706D01*
X187908134Y-98019706D01*
X187908134Y-98186109D01*
X187902223Y-98298438D01*
X187886208Y-98386778D01*
X187862182Y-98455487D01*
X187831491Y-98508290D01*
X187789343Y-98552661D01*
X187737298Y-98584778D01*
X187673267Y-98605061D01*
X187594160Y-98612337D01*
X187520683Y-98606307D01*
X187459011Y-98589304D01*
X187406978Y-98562249D01*
X187362984Y-98525069D01*
X187328103Y-98479263D01*
X187302387Y-98424607D01*
X187286074Y-98359344D01*
X187280259Y-98281217D01*
X187286741Y-98219741D01*
X187446662Y-98219741D01*
X187451080Y-98260291D01*
X187463488Y-98293054D01*
X187483518Y-98319759D01*
X187510206Y-98339826D01*
X187542722Y-98352216D01*
X187582729Y-98356615D01*
X187635666Y-98349966D01*
X187673712Y-98331972D01*
X187700772Y-98303346D01*
X187717848Y-98265598D01*
X187730268Y-98205806D01*
X187735210Y-98115621D01*
X187735210Y-98019706D01*
X187718797Y-98019706D01*
X187634323Y-98026362D01*
X187568834Y-98044459D01*
X187518323Y-98072170D01*
X187478630Y-98111718D01*
X187454955Y-98159966D01*
X187446662Y-98219741D01*
X187286741Y-98219741D01*
X187288615Y-98201962D01*
X187313012Y-98131228D01*
X187352858Y-98069220D01*
X187406435Y-98019706D01*
X187304000Y-98019706D01*
X187304000Y-97781130D01*
X187827827Y-97781130D01*
X187948969Y-97788383D01*
G37*
G36*
X188222108Y-96784473D02*
G01*
X187304000Y-96784473D01*
X187304000Y-97023049D01*
X187890109Y-97023049D01*
X187304000Y-97315701D01*
X187304000Y-97554204D01*
X188222108Y-97554204D01*
X188222108Y-97315701D01*
X187635999Y-97315701D01*
X188222108Y-97023049D01*
X188222108Y-96784473D01*
G37*
G36*
X188620493Y-97448471D02*
G01*
X188620493Y-97332920D01*
X188584861Y-97323037D01*
X188556177Y-97306429D01*
X188533152Y-97282948D01*
X188516714Y-97254079D01*
X188506231Y-97218291D01*
X188502450Y-97173845D01*
X188506199Y-97129424D01*
X188516569Y-97093820D01*
X188532785Y-97065254D01*
X188555546Y-97042060D01*
X188584315Y-97025547D01*
X188620493Y-97015648D01*
X188620493Y-96898412D01*
X188544987Y-96909880D01*
X188485943Y-96935429D01*
X188439729Y-96974323D01*
X188406248Y-97025091D01*
X188384815Y-97090246D01*
X188377007Y-97173845D01*
X188384798Y-97256944D01*
X188406216Y-97321906D01*
X188439729Y-97372707D01*
X188485938Y-97411550D01*
X188544980Y-97437053D01*
X188620493Y-97448471D01*
G37*
G36*
X188222108Y-96525600D02*
G01*
X188222108Y-96285411D01*
X187909819Y-96285411D01*
X188222108Y-95996863D01*
X188222108Y-95705896D01*
X187879484Y-96053429D01*
X187304000Y-95686186D01*
X187304000Y-95951800D01*
X187733525Y-96203492D01*
X187654830Y-96285411D01*
X187304000Y-96285411D01*
X187304000Y-96525600D01*
X188222108Y-96525600D01*
G37*
G36*
X187948969Y-94756646D02*
G01*
X188039399Y-94775896D01*
X188105698Y-94804220D01*
X188153232Y-94840031D01*
X188189529Y-94887447D01*
X188217941Y-94952285D01*
X188237075Y-95039303D01*
X188244237Y-95154371D01*
X188240242Y-95244758D01*
X188228630Y-95328175D01*
X188208865Y-95409199D01*
X188180270Y-95489668D01*
X187975399Y-95489668D01*
X188017219Y-95401738D01*
X188044568Y-95321214D01*
X188060852Y-95239421D01*
X188066330Y-95154371D01*
X188062420Y-95100267D01*
X188051995Y-95059895D01*
X188036435Y-95030174D01*
X188013681Y-95006961D01*
X187984944Y-94992944D01*
X187948288Y-94987969D01*
X187908134Y-94987969D01*
X187908134Y-95154371D01*
X187902223Y-95266700D01*
X187886208Y-95355040D01*
X187862182Y-95423750D01*
X187831491Y-95476552D01*
X187789343Y-95520924D01*
X187737298Y-95553040D01*
X187673267Y-95573324D01*
X187594160Y-95580600D01*
X187520683Y-95574569D01*
X187459011Y-95557566D01*
X187406978Y-95530512D01*
X187362984Y-95493332D01*
X187328103Y-95447526D01*
X187302387Y-95392869D01*
X187286074Y-95327607D01*
X187280259Y-95249480D01*
X187286740Y-95188004D01*
X187446662Y-95188004D01*
X187451080Y-95228554D01*
X187463488Y-95261316D01*
X187483518Y-95288021D01*
X187510206Y-95308088D01*
X187542722Y-95320479D01*
X187582729Y-95324877D01*
X187635666Y-95318229D01*
X187673712Y-95300235D01*
X187700772Y-95271608D01*
X187717848Y-95233860D01*
X187730268Y-95174069D01*
X187735210Y-95083883D01*
X187735210Y-94987969D01*
X187718797Y-94987969D01*
X187634323Y-94994624D01*
X187568834Y-95012722D01*
X187518323Y-95040432D01*
X187478630Y-95079980D01*
X187454955Y-95128228D01*
X187446662Y-95188004D01*
X187286740Y-95188004D01*
X187288615Y-95170224D01*
X187313012Y-95099490D01*
X187352858Y-95037483D01*
X187406435Y-94987969D01*
X187304000Y-94987969D01*
X187304000Y-94749392D01*
X187827827Y-94749392D01*
X187948969Y-94756646D01*
G37*
%LPC*%
G36*
X158018894Y-145555086D02*
G01*
X158029458Y-145555086D01*
X158081477Y-145563325D01*
X158221877Y-145581809D01*
X158256138Y-145590989D01*
X158285185Y-145595590D01*
X158341045Y-145613740D01*
X158430338Y-145637666D01*
X158487309Y-145661264D01*
X158531428Y-145675599D01*
X158572755Y-145696656D01*
X158629733Y-145720257D01*
X158709803Y-145766485D01*
X158762123Y-145793144D01*
X158785909Y-145810425D01*
X158816624Y-145828159D01*
X158928975Y-145914369D01*
X158971589Y-145945330D01*
X158979058Y-145952799D01*
X158987848Y-145959544D01*
X159140455Y-146112151D01*
X159147199Y-146120940D01*
X159154670Y-146128411D01*
X159185634Y-146171030D01*
X159271840Y-146283375D01*
X159289572Y-146314087D01*
X159306856Y-146337877D01*
X159333517Y-146390203D01*
X159379742Y-146470266D01*
X159403340Y-146527237D01*
X159424401Y-146568572D01*
X159438738Y-146612696D01*
X159462333Y-146669661D01*
X159486255Y-146758941D01*
X159504410Y-146814815D01*
X159509011Y-146843867D01*
X159518190Y-146878122D01*
X159536673Y-147018514D01*
X159544914Y-147070542D01*
X159544914Y-147081105D01*
X159546360Y-147092089D01*
X159546360Y-147307910D01*
X159544914Y-147318893D01*
X159544914Y-147329458D01*
X159536672Y-147381490D01*
X159518190Y-147521877D01*
X159509011Y-147556129D01*
X159504410Y-147585185D01*
X159486254Y-147641063D01*
X159462333Y-147730338D01*
X159438739Y-147787298D01*
X159424401Y-147831428D01*
X159403337Y-147872766D01*
X159379742Y-147929733D01*
X159333521Y-148009788D01*
X159306856Y-148062123D01*
X159289569Y-148085916D01*
X159271840Y-148116624D01*
X159185648Y-148228950D01*
X159154670Y-148271589D01*
X159147195Y-148279063D01*
X159140455Y-148287848D01*
X158987848Y-148440455D01*
X158979063Y-148447195D01*
X158971589Y-148454670D01*
X158928950Y-148485648D01*
X158816624Y-148571840D01*
X158785916Y-148589569D01*
X158762123Y-148606856D01*
X158709788Y-148633521D01*
X158629733Y-148679742D01*
X158572766Y-148703337D01*
X158531428Y-148724401D01*
X158487298Y-148738739D01*
X158430338Y-148762333D01*
X158341063Y-148786254D01*
X158285185Y-148804410D01*
X158256129Y-148809011D01*
X158221877Y-148818190D01*
X158081490Y-148836672D01*
X158029458Y-148844914D01*
X158018893Y-148844914D01*
X158007910Y-148846360D01*
X157792090Y-148846360D01*
X157781107Y-148844914D01*
X157770542Y-148844914D01*
X157718511Y-148836672D01*
X157578122Y-148818190D01*
X157543867Y-148809011D01*
X157514815Y-148804410D01*
X157458941Y-148786255D01*
X157369661Y-148762333D01*
X157312696Y-148738738D01*
X157268572Y-148724401D01*
X157227237Y-148703340D01*
X157170266Y-148679742D01*
X157090203Y-148633517D01*
X157037877Y-148606856D01*
X157014087Y-148589572D01*
X156983375Y-148571840D01*
X156871030Y-148485634D01*
X156828411Y-148454670D01*
X156820940Y-148447199D01*
X156812151Y-148440455D01*
X156659544Y-148287848D01*
X156652799Y-148279058D01*
X156645330Y-148271589D01*
X156614369Y-148228975D01*
X156528159Y-148116624D01*
X156510425Y-148085909D01*
X156493144Y-148062123D01*
X156466485Y-148009803D01*
X156420257Y-147929733D01*
X156396656Y-147872755D01*
X156375599Y-147831428D01*
X156361264Y-147787309D01*
X156337666Y-147730338D01*
X156313740Y-147641045D01*
X156295590Y-147585185D01*
X156290989Y-147556138D01*
X156281809Y-147521877D01*
X156263325Y-147381477D01*
X156255086Y-147329458D01*
X156255086Y-147318893D01*
X156253640Y-147307910D01*
X156253640Y-147092089D01*
X156255086Y-147081105D01*
X156255086Y-147070542D01*
X156263324Y-147018527D01*
X156281809Y-146878122D01*
X156290989Y-146843858D01*
X156295590Y-146814815D01*
X156313738Y-146758959D01*
X156337666Y-146669661D01*
X156361265Y-146612685D01*
X156375599Y-146568572D01*
X156396654Y-146527248D01*
X156420257Y-146470266D01*
X156466489Y-146390188D01*
X156493144Y-146337877D01*
X156510423Y-146314094D01*
X156528159Y-146283375D01*
X156614383Y-146171005D01*
X156645330Y-146128411D01*
X156652796Y-146120944D01*
X156659544Y-146112151D01*
X156812151Y-145959544D01*
X156820944Y-145952796D01*
X156828411Y-145945330D01*
X156871005Y-145914383D01*
X156983375Y-145828159D01*
X157014094Y-145810423D01*
X157037877Y-145793144D01*
X157090188Y-145766489D01*
X157170266Y-145720257D01*
X157227248Y-145696654D01*
X157268572Y-145675599D01*
X157312685Y-145661265D01*
X157369661Y-145637666D01*
X157458959Y-145613738D01*
X157514815Y-145595590D01*
X157543858Y-145590989D01*
X157578122Y-145581809D01*
X157718524Y-145563324D01*
X157770542Y-145555086D01*
X157781106Y-145555086D01*
X157792090Y-145553640D01*
X158007910Y-145553640D01*
X158018894Y-145555086D01*
G37*
G36*
X104118894Y-145455086D02*
G01*
X104129458Y-145455086D01*
X104181477Y-145463325D01*
X104321877Y-145481809D01*
X104356138Y-145490989D01*
X104385185Y-145495590D01*
X104441045Y-145513740D01*
X104530338Y-145537666D01*
X104587309Y-145561264D01*
X104631428Y-145575599D01*
X104672755Y-145596656D01*
X104729733Y-145620257D01*
X104809803Y-145666485D01*
X104862123Y-145693144D01*
X104885909Y-145710425D01*
X104916624Y-145728159D01*
X105028975Y-145814369D01*
X105071589Y-145845330D01*
X105079058Y-145852799D01*
X105087848Y-145859544D01*
X105240455Y-146012151D01*
X105247199Y-146020940D01*
X105254670Y-146028411D01*
X105285634Y-146071030D01*
X105371840Y-146183375D01*
X105389572Y-146214087D01*
X105406856Y-146237877D01*
X105433517Y-146290203D01*
X105479742Y-146370266D01*
X105503340Y-146427237D01*
X105524401Y-146468572D01*
X105538738Y-146512696D01*
X105562333Y-146569661D01*
X105586255Y-146658941D01*
X105604410Y-146714815D01*
X105609011Y-146743867D01*
X105618190Y-146778122D01*
X105636673Y-146918514D01*
X105644914Y-146970542D01*
X105644914Y-146981105D01*
X105646360Y-146992089D01*
X105646360Y-147207910D01*
X105644914Y-147218893D01*
X105644914Y-147229458D01*
X105636672Y-147281490D01*
X105618190Y-147421877D01*
X105609011Y-147456129D01*
X105604410Y-147485185D01*
X105586254Y-147541063D01*
X105562333Y-147630338D01*
X105538739Y-147687298D01*
X105524401Y-147731428D01*
X105503337Y-147772766D01*
X105479742Y-147829733D01*
X105433521Y-147909788D01*
X105406856Y-147962123D01*
X105389569Y-147985916D01*
X105371840Y-148016624D01*
X105285648Y-148128950D01*
X105254670Y-148171589D01*
X105247195Y-148179063D01*
X105240455Y-148187848D01*
X105087848Y-148340455D01*
X105079063Y-148347195D01*
X105071589Y-148354670D01*
X105028950Y-148385648D01*
X104916624Y-148471840D01*
X104885916Y-148489569D01*
X104862123Y-148506856D01*
X104809788Y-148533521D01*
X104729733Y-148579742D01*
X104672766Y-148603337D01*
X104631428Y-148624401D01*
X104587298Y-148638739D01*
X104530338Y-148662333D01*
X104441063Y-148686254D01*
X104385185Y-148704410D01*
X104356129Y-148709011D01*
X104321877Y-148718190D01*
X104181490Y-148736672D01*
X104129458Y-148744914D01*
X104118893Y-148744914D01*
X104107910Y-148746360D01*
X103892090Y-148746360D01*
X103881107Y-148744914D01*
X103870542Y-148744914D01*
X103818511Y-148736672D01*
X103678122Y-148718190D01*
X103643867Y-148709011D01*
X103614815Y-148704410D01*
X103558941Y-148686255D01*
X103469661Y-148662333D01*
X103412696Y-148638738D01*
X103368572Y-148624401D01*
X103327237Y-148603340D01*
X103270266Y-148579742D01*
X103190203Y-148533517D01*
X103137877Y-148506856D01*
X103114087Y-148489572D01*
X103083375Y-148471840D01*
X102971030Y-148385634D01*
X102928411Y-148354670D01*
X102920940Y-148347199D01*
X102912151Y-148340455D01*
X102759544Y-148187848D01*
X102752799Y-148179058D01*
X102745330Y-148171589D01*
X102714369Y-148128975D01*
X102628159Y-148016624D01*
X102610425Y-147985909D01*
X102593144Y-147962123D01*
X102566485Y-147909803D01*
X102520257Y-147829733D01*
X102496656Y-147772755D01*
X102475599Y-147731428D01*
X102461264Y-147687309D01*
X102437666Y-147630338D01*
X102413740Y-147541045D01*
X102395590Y-147485185D01*
X102390989Y-147456138D01*
X102381809Y-147421877D01*
X102363325Y-147281477D01*
X102355086Y-147229458D01*
X102355086Y-147218893D01*
X102353640Y-147207910D01*
X102353640Y-146992089D01*
X102355086Y-146981105D01*
X102355086Y-146970542D01*
X102363324Y-146918527D01*
X102381809Y-146778122D01*
X102390989Y-146743858D01*
X102395590Y-146714815D01*
X102413738Y-146658959D01*
X102437666Y-146569661D01*
X102461265Y-146512685D01*
X102475599Y-146468572D01*
X102496654Y-146427248D01*
X102520257Y-146370266D01*
X102566489Y-146290188D01*
X102593144Y-146237877D01*
X102610423Y-146214094D01*
X102628159Y-146183375D01*
X102714383Y-146071005D01*
X102745330Y-146028411D01*
X102752796Y-146020944D01*
X102759544Y-146012151D01*
X102912151Y-145859544D01*
X102920944Y-145852796D01*
X102928411Y-145845330D01*
X102971005Y-145814383D01*
X103083375Y-145728159D01*
X103114094Y-145710423D01*
X103137877Y-145693144D01*
X103190188Y-145666489D01*
X103270266Y-145620257D01*
X103327248Y-145596654D01*
X103368572Y-145575599D01*
X103412685Y-145561265D01*
X103469661Y-145537666D01*
X103558959Y-145513738D01*
X103614815Y-145495590D01*
X103643858Y-145490989D01*
X103678122Y-145481809D01*
X103818524Y-145463324D01*
X103870542Y-145455086D01*
X103881106Y-145455086D01*
X103892090Y-145453640D01*
X104107910Y-145453640D01*
X104118894Y-145455086D01*
G37*
G36*
X126419134Y-146653806D02*
G01*
X126435355Y-146664645D01*
X126446194Y-146680866D01*
X126450000Y-146700000D01*
X126450000Y-148500000D01*
X126446194Y-148519134D01*
X126435355Y-148535355D01*
X126419134Y-148546194D01*
X126400000Y-148550000D01*
X124600000Y-148550000D01*
X124580866Y-148546194D01*
X124564645Y-148535355D01*
X124553806Y-148519134D01*
X124550000Y-148500000D01*
X124550000Y-146700000D01*
X124553806Y-146680866D01*
X124564645Y-146664645D01*
X124580866Y-146653806D01*
X124600000Y-146650000D01*
X126400000Y-146650000D01*
X126419134Y-146653806D01*
G37*
G36*
X143374412Y-146653806D02*
G01*
X143390633Y-146664645D01*
X143401472Y-146680866D01*
X143405278Y-146700000D01*
X143405278Y-148500000D01*
X143401472Y-148519134D01*
X143390633Y-148535355D01*
X143374412Y-148546194D01*
X143355278Y-148550000D01*
X141555278Y-148550000D01*
X141536144Y-148546194D01*
X141519923Y-148535355D01*
X141509084Y-148519134D01*
X141505278Y-148500000D01*
X141505278Y-146700000D01*
X141509084Y-146680866D01*
X141519923Y-146664645D01*
X141536144Y-146653806D01*
X141555278Y-146650000D01*
X143355278Y-146650000D01*
X143374412Y-146653806D01*
G37*
G36*
X130775770Y-146690907D02*
G01*
X130947827Y-146762175D01*
X131102674Y-146865640D01*
X131234360Y-146997326D01*
X131337825Y-147152173D01*
X131409093Y-147324230D01*
X131445425Y-147506884D01*
X131445425Y-147693116D01*
X131409093Y-147875770D01*
X131337825Y-148047827D01*
X131234360Y-148202674D01*
X131102674Y-148334360D01*
X130947827Y-148437825D01*
X130775770Y-148509093D01*
X130593116Y-148545425D01*
X130406884Y-148545425D01*
X130224230Y-148509093D01*
X130052173Y-148437825D01*
X129897326Y-148334360D01*
X129765640Y-148202674D01*
X129662175Y-148047827D01*
X129590907Y-147875770D01*
X129554575Y-147693116D01*
X129554575Y-147506884D01*
X129590907Y-147324230D01*
X129662175Y-147152173D01*
X129765640Y-146997326D01*
X129897326Y-146865640D01*
X130052173Y-146762175D01*
X130224230Y-146690907D01*
X130406884Y-146654575D01*
X130593116Y-146654575D01*
X130775770Y-146690907D01*
G37*
G36*
X147731048Y-146690907D02*
G01*
X147903105Y-146762175D01*
X148057952Y-146865640D01*
X148189638Y-146997326D01*
X148293103Y-147152173D01*
X148364371Y-147324230D01*
X148400703Y-147506884D01*
X148400703Y-147693116D01*
X148364371Y-147875770D01*
X148293103Y-148047827D01*
X148189638Y-148202674D01*
X148057952Y-148334360D01*
X147903105Y-148437825D01*
X147731048Y-148509093D01*
X147548394Y-148545425D01*
X147362162Y-148545425D01*
X147179508Y-148509093D01*
X147007451Y-148437825D01*
X146852604Y-148334360D01*
X146720918Y-148202674D01*
X146617453Y-148047827D01*
X146546185Y-147875770D01*
X146509853Y-147693116D01*
X146509853Y-147506884D01*
X146546185Y-147324230D01*
X146617453Y-147152173D01*
X146720918Y-146997326D01*
X146852604Y-146865640D01*
X147007451Y-146762175D01*
X147179508Y-146690907D01*
X147362162Y-146654575D01*
X147548394Y-146654575D01*
X147731048Y-146690907D01*
G37*
G36*
X165301807Y-145434538D02*
G01*
X165488354Y-145495151D01*
X165663123Y-145584200D01*
X165821810Y-145699493D01*
X165960507Y-145838190D01*
X166075800Y-145996877D01*
X166164849Y-146171646D01*
X166225462Y-146358193D01*
X166256147Y-146551926D01*
X166256147Y-146748074D01*
X166225462Y-146941807D01*
X166164849Y-147128354D01*
X166075800Y-147303123D01*
X165960507Y-147461810D01*
X165821810Y-147600507D01*
X165663123Y-147715800D01*
X165488354Y-147804849D01*
X165301807Y-147865462D01*
X165108074Y-147896147D01*
X164911926Y-147896147D01*
X164718193Y-147865462D01*
X164531646Y-147804849D01*
X164356877Y-147715800D01*
X164198190Y-147600507D01*
X164059493Y-147461810D01*
X163944200Y-147303123D01*
X163855151Y-147128354D01*
X163794538Y-146941807D01*
X163763853Y-146748074D01*
X163763853Y-146551926D01*
X163794538Y-146358193D01*
X163855151Y-146171646D01*
X163944200Y-145996877D01*
X164059493Y-145838190D01*
X164198190Y-145699493D01*
X164356877Y-145584200D01*
X164531646Y-145495151D01*
X164718193Y-145434538D01*
X164911926Y-145403853D01*
X165108074Y-145403853D01*
X165301807Y-145434538D01*
G37*
G36*
X180541807Y-145434538D02*
G01*
X180728354Y-145495151D01*
X180903123Y-145584200D01*
X181061810Y-145699493D01*
X181200507Y-145838190D01*
X181315800Y-145996877D01*
X181404849Y-146171646D01*
X181465462Y-146358193D01*
X181496147Y-146551926D01*
X181496147Y-146748074D01*
X181465462Y-146941807D01*
X181404849Y-147128354D01*
X181315800Y-147303123D01*
X181200507Y-147461810D01*
X181061810Y-147600507D01*
X180903123Y-147715800D01*
X180728354Y-147804849D01*
X180541807Y-147865462D01*
X180348074Y-147896147D01*
X180151926Y-147896147D01*
X179958193Y-147865462D01*
X179771646Y-147804849D01*
X179596877Y-147715800D01*
X179438190Y-147600507D01*
X179299493Y-147461810D01*
X179184200Y-147303123D01*
X179095151Y-147128354D01*
X179034538Y-146941807D01*
X179003853Y-146748074D01*
X179003853Y-146551926D01*
X179034538Y-146358193D01*
X179095151Y-146171646D01*
X179184200Y-145996877D01*
X179299493Y-145838190D01*
X179438190Y-145699493D01*
X179596877Y-145584200D01*
X179771646Y-145495151D01*
X179958193Y-145434538D01*
X180151926Y-145403853D01*
X180348074Y-145403853D01*
X180541807Y-145434538D01*
G37*
G36*
X188919134Y-145753806D02*
G01*
X188935355Y-145764645D01*
X188946194Y-145780866D01*
X188950000Y-145800000D01*
X188950000Y-147600000D01*
X188946194Y-147619134D01*
X188935355Y-147635355D01*
X188919134Y-147646194D01*
X188900000Y-147650000D01*
X187100000Y-147650000D01*
X187080866Y-147646194D01*
X187064645Y-147635355D01*
X187053806Y-147619134D01*
X187050000Y-147600000D01*
X187050000Y-145800000D01*
X187053806Y-145780866D01*
X187064645Y-145764645D01*
X187080866Y-145753806D01*
X187100000Y-145750000D01*
X188900000Y-145750000D01*
X188919134Y-145753806D01*
G37*
G36*
X188275770Y-140790907D02*
G01*
X188447827Y-140862175D01*
X188602674Y-140965640D01*
X188734360Y-141097326D01*
X188837825Y-141252173D01*
X188909093Y-141424230D01*
X188945425Y-141606884D01*
X188945425Y-141793116D01*
X188909093Y-141975770D01*
X188837825Y-142147827D01*
X188734360Y-142302674D01*
X188602674Y-142434360D01*
X188447827Y-142537825D01*
X188275770Y-142609093D01*
X188093116Y-142645425D01*
X187906884Y-142645425D01*
X187724230Y-142609093D01*
X187552173Y-142537825D01*
X187397326Y-142434360D01*
X187265640Y-142302674D01*
X187162175Y-142147827D01*
X187090907Y-141975770D01*
X187054575Y-141793116D01*
X187054575Y-141606884D01*
X187090907Y-141424230D01*
X187162175Y-141252173D01*
X187265640Y-141097326D01*
X187397326Y-140965640D01*
X187552173Y-140862175D01*
X187724230Y-140790907D01*
X187906884Y-140754575D01*
X188093116Y-140754575D01*
X188275770Y-140790907D01*
G37*
G36*
X165618685Y-140012969D02*
G01*
X165627358Y-140016798D01*
X165634925Y-140017901D01*
X165682223Y-140041023D01*
X165719541Y-140057501D01*
X165722996Y-140060956D01*
X165723920Y-140061408D01*
X165793591Y-140131079D01*
X165794042Y-140132002D01*
X165797499Y-140135459D01*
X165813978Y-140172782D01*
X165837098Y-140220073D01*
X165838200Y-140227639D01*
X165842031Y-140236315D01*
X165850000Y-140305000D01*
X165850000Y-141405000D01*
X165842031Y-141473685D01*
X165838199Y-141482361D01*
X165837098Y-141489925D01*
X165813985Y-141537202D01*
X165797499Y-141574541D01*
X165794041Y-141577998D01*
X165793591Y-141578920D01*
X165723920Y-141648591D01*
X165722998Y-141649041D01*
X165719541Y-141652499D01*
X165682207Y-141668983D01*
X165634926Y-141692098D01*
X165627361Y-141693200D01*
X165618685Y-141697031D01*
X165550000Y-141705000D01*
X164450000Y-141705000D01*
X164381315Y-141697031D01*
X164372638Y-141693200D01*
X164365074Y-141692098D01*
X164317787Y-141668981D01*
X164280459Y-141652499D01*
X164277002Y-141649042D01*
X164276079Y-141648591D01*
X164206408Y-141578920D01*
X164205956Y-141577996D01*
X164202501Y-141574541D01*
X164186025Y-141537228D01*
X164162901Y-141489926D01*
X164161798Y-141482357D01*
X164157969Y-141473685D01*
X164150000Y-141405000D01*
X164150000Y-140305000D01*
X164157969Y-140236315D01*
X164161798Y-140227642D01*
X164162901Y-140220074D01*
X164186028Y-140172766D01*
X164202501Y-140135459D01*
X164205955Y-140132004D01*
X164206408Y-140131079D01*
X164276079Y-140061408D01*
X164277004Y-140060955D01*
X164280459Y-140057501D01*
X164317761Y-140041030D01*
X164365073Y-140017901D01*
X164372642Y-140016798D01*
X164381315Y-140012969D01*
X164450000Y-140005000D01*
X165550000Y-140005000D01*
X165618685Y-140012969D01*
G37*
G36*
X167786742Y-140041601D02*
G01*
X167940687Y-140105367D01*
X168079234Y-140197941D01*
X168197059Y-140315766D01*
X168289633Y-140454313D01*
X168353399Y-140608258D01*
X168385907Y-140771685D01*
X168385907Y-140938315D01*
X168353399Y-141101742D01*
X168289633Y-141255687D01*
X168197059Y-141394234D01*
X168079234Y-141512059D01*
X167940687Y-141604633D01*
X167786742Y-141668399D01*
X167623315Y-141700907D01*
X167456685Y-141700907D01*
X167293258Y-141668399D01*
X167139313Y-141604633D01*
X167000766Y-141512059D01*
X166882941Y-141394234D01*
X166790367Y-141255687D01*
X166726601Y-141101742D01*
X166694093Y-140938315D01*
X166694093Y-140771685D01*
X166726601Y-140608258D01*
X166790367Y-140454313D01*
X166882941Y-140315766D01*
X167000766Y-140197941D01*
X167139313Y-140105367D01*
X167293258Y-140041601D01*
X167456685Y-140009093D01*
X167623315Y-140009093D01*
X167786742Y-140041601D01*
G37*
G36*
X142797085Y-138884538D02*
G01*
X142983632Y-138945151D01*
X143158401Y-139034200D01*
X143317088Y-139149493D01*
X143455785Y-139288190D01*
X143571078Y-139446877D01*
X143660127Y-139621646D01*
X143720740Y-139808193D01*
X143751425Y-140001926D01*
X143751425Y-140198074D01*
X143720740Y-140391807D01*
X143660127Y-140578354D01*
X143571078Y-140753123D01*
X143455785Y-140911810D01*
X143317088Y-141050507D01*
X143158401Y-141165800D01*
X142983632Y-141254849D01*
X142797085Y-141315462D01*
X142603352Y-141346147D01*
X142407204Y-141346147D01*
X142213471Y-141315462D01*
X142026924Y-141254849D01*
X141852155Y-141165800D01*
X141693468Y-141050507D01*
X141554771Y-140911810D01*
X141439478Y-140753123D01*
X141350429Y-140578354D01*
X141289816Y-140391807D01*
X141259131Y-140198074D01*
X141259131Y-140001926D01*
X141289816Y-139808193D01*
X141350429Y-139621646D01*
X141439478Y-139446877D01*
X141554771Y-139288190D01*
X141693468Y-139149493D01*
X141852155Y-139034200D01*
X142026924Y-138945151D01*
X142213471Y-138884538D01*
X142407204Y-138853853D01*
X142603352Y-138853853D01*
X142797085Y-138884538D01*
G37*
G36*
X126575156Y-133540706D02*
G01*
X126591377Y-133551545D01*
X126602216Y-133567766D01*
X126606022Y-133586900D01*
X126606022Y-135386900D01*
X126602216Y-135406034D01*
X126591377Y-135422255D01*
X126575156Y-135433094D01*
X126556022Y-135436900D01*
X124356022Y-135436900D01*
X124336888Y-135433094D01*
X124320667Y-135422255D01*
X124309828Y-135406034D01*
X124306022Y-135386900D01*
X124306022Y-133586900D01*
X124309828Y-133567766D01*
X124320667Y-133551545D01*
X124336888Y-133540706D01*
X124356022Y-133536900D01*
X126556022Y-133536900D01*
X126575156Y-133540706D01*
G37*
G36*
X131615156Y-133540706D02*
G01*
X131631377Y-133551545D01*
X131642216Y-133567766D01*
X131646022Y-133586900D01*
X131646022Y-135386900D01*
X131642216Y-135406034D01*
X131631377Y-135422255D01*
X131615156Y-135433094D01*
X131596022Y-135436900D01*
X129396022Y-135436900D01*
X129376888Y-135433094D01*
X129360667Y-135422255D01*
X129349828Y-135406034D01*
X129346022Y-135386900D01*
X129346022Y-133586900D01*
X129349828Y-133567766D01*
X129360667Y-133551545D01*
X129376888Y-133540706D01*
X129396022Y-133536900D01*
X131596022Y-133536900D01*
X131615156Y-133540706D01*
G37*
G36*
X106065156Y-133690706D02*
G01*
X106081377Y-133701545D01*
X106092216Y-133717766D01*
X106096022Y-133736900D01*
X106096022Y-135236900D01*
X106092216Y-135256034D01*
X106081377Y-135272255D01*
X106065156Y-135283094D01*
X106046022Y-135286900D01*
X104546022Y-135286900D01*
X104526888Y-135283094D01*
X104510667Y-135272255D01*
X104499828Y-135256034D01*
X104496022Y-135236900D01*
X104496022Y-133736900D01*
X104499828Y-133717766D01*
X104510667Y-133701545D01*
X104526888Y-133690706D01*
X104546022Y-133686900D01*
X106046022Y-133686900D01*
X106065156Y-133690706D01*
G37*
G36*
X109308250Y-133721348D02*
G01*
X109453139Y-133781363D01*
X109583537Y-133868492D01*
X109694430Y-133979385D01*
X109781559Y-134109783D01*
X109841574Y-134254672D01*
X109872170Y-134408486D01*
X109872170Y-134565314D01*
X109841574Y-134719128D01*
X109781559Y-134864017D01*
X109694430Y-134994415D01*
X109583537Y-135105308D01*
X109453139Y-135192437D01*
X109308250Y-135252452D01*
X109154436Y-135283048D01*
X108997608Y-135283048D01*
X108843794Y-135252452D01*
X108698905Y-135192437D01*
X108568507Y-135105308D01*
X108457614Y-134994415D01*
X108370485Y-134864017D01*
X108310470Y-134719128D01*
X108279874Y-134565314D01*
X108279874Y-134408486D01*
X108310470Y-134254672D01*
X108370485Y-134109783D01*
X108457614Y-133979385D01*
X108568507Y-133868492D01*
X108698905Y-133781363D01*
X108843794Y-133721348D01*
X108997608Y-133690752D01*
X109154436Y-133690752D01*
X109308250Y-133721348D01*
G37*
G36*
X165246742Y-132421601D02*
G01*
X165400687Y-132485367D01*
X165539234Y-132577941D01*
X165657059Y-132695766D01*
X165749633Y-132834313D01*
X165813399Y-132988258D01*
X165845907Y-133151685D01*
X165845907Y-133318315D01*
X165813399Y-133481742D01*
X165749633Y-133635687D01*
X165657059Y-133774234D01*
X165539234Y-133892059D01*
X165400687Y-133984633D01*
X165246742Y-134048399D01*
X165083315Y-134080907D01*
X164916685Y-134080907D01*
X164753258Y-134048399D01*
X164599313Y-133984633D01*
X164460766Y-133892059D01*
X164342941Y-133774234D01*
X164250367Y-133635687D01*
X164186601Y-133481742D01*
X164154093Y-133318315D01*
X164154093Y-133151685D01*
X164186601Y-132988258D01*
X164250367Y-132834313D01*
X164342941Y-132695766D01*
X164460766Y-132577941D01*
X164599313Y-132485367D01*
X164753258Y-132421601D01*
X164916685Y-132389093D01*
X165083315Y-132389093D01*
X165246742Y-132421601D01*
G37*
G36*
X167786742Y-132421601D02*
G01*
X167940687Y-132485367D01*
X168079234Y-132577941D01*
X168197059Y-132695766D01*
X168289633Y-132834313D01*
X168353399Y-132988258D01*
X168385907Y-133151685D01*
X168385907Y-133318315D01*
X168353399Y-133481742D01*
X168289633Y-133635687D01*
X168197059Y-133774234D01*
X168079234Y-133892059D01*
X167940687Y-133984633D01*
X167786742Y-134048399D01*
X167623315Y-134080907D01*
X167456685Y-134080907D01*
X167293258Y-134048399D01*
X167139313Y-133984633D01*
X167000766Y-133892059D01*
X166882941Y-133774234D01*
X166790367Y-133635687D01*
X166726601Y-133481742D01*
X166694093Y-133318315D01*
X166694093Y-133151685D01*
X166726601Y-132988258D01*
X166790367Y-132834313D01*
X166882941Y-132695766D01*
X167000766Y-132577941D01*
X167139313Y-132485367D01*
X167293258Y-132421601D01*
X167456685Y-132389093D01*
X167623315Y-132389093D01*
X167786742Y-132421601D01*
G37*
G36*
X103419134Y-126453806D02*
G01*
X103435355Y-126464645D01*
X103446194Y-126480866D01*
X103450000Y-126500000D01*
X103450000Y-128300000D01*
X103446194Y-128319134D01*
X103435355Y-128335355D01*
X103419134Y-128346194D01*
X103400000Y-128350000D01*
X101600000Y-128350000D01*
X101580866Y-128346194D01*
X101564645Y-128335355D01*
X101553806Y-128319134D01*
X101550000Y-128300000D01*
X101550000Y-126500000D01*
X101553806Y-126480866D01*
X101564645Y-126464645D01*
X101580866Y-126453806D01*
X101600000Y-126450000D01*
X103400000Y-126450000D01*
X103419134Y-126453806D01*
G37*
G36*
X148547020Y-126326601D02*
G01*
X148700965Y-126390367D01*
X148839512Y-126482941D01*
X148957337Y-126600766D01*
X149049911Y-126739313D01*
X149113677Y-126893258D01*
X149146185Y-127056685D01*
X149146185Y-127223315D01*
X149113677Y-127386742D01*
X149049911Y-127540687D01*
X148957337Y-127679234D01*
X148839512Y-127797059D01*
X148700965Y-127889633D01*
X148547020Y-127953399D01*
X148383593Y-127985907D01*
X148216963Y-127985907D01*
X148053536Y-127953399D01*
X147899591Y-127889633D01*
X147761044Y-127797059D01*
X147643219Y-127679234D01*
X147550645Y-127540687D01*
X147486879Y-127386742D01*
X147454371Y-127223315D01*
X147454371Y-127056685D01*
X147486879Y-126893258D01*
X147550645Y-126739313D01*
X147643219Y-126600766D01*
X147761044Y-126482941D01*
X147899591Y-126390367D01*
X148053536Y-126326601D01*
X148216963Y-126294093D01*
X148383593Y-126294093D01*
X148547020Y-126326601D01*
G37*
G36*
X156167020Y-126326601D02*
G01*
X156320965Y-126390367D01*
X156459512Y-126482941D01*
X156577337Y-126600766D01*
X156669911Y-126739313D01*
X156733677Y-126893258D01*
X156766185Y-127056685D01*
X156766185Y-127223315D01*
X156733677Y-127386742D01*
X156669911Y-127540687D01*
X156577337Y-127679234D01*
X156459512Y-127797059D01*
X156320965Y-127889633D01*
X156167020Y-127953399D01*
X156003593Y-127985907D01*
X155836963Y-127985907D01*
X155673536Y-127953399D01*
X155519591Y-127889633D01*
X155381044Y-127797059D01*
X155263219Y-127679234D01*
X155170645Y-127540687D01*
X155106879Y-127386742D01*
X155074371Y-127223315D01*
X155074371Y-127056685D01*
X155106879Y-126893258D01*
X155170645Y-126739313D01*
X155263219Y-126600766D01*
X155381044Y-126482941D01*
X155519591Y-126390367D01*
X155673536Y-126326601D01*
X155836963Y-126294093D01*
X156003593Y-126294093D01*
X156167020Y-126326601D01*
G37*
G36*
X169918877Y-124371741D02*
G01*
X170103552Y-124431745D01*
X170276566Y-124519900D01*
X170433659Y-124634036D01*
X170570964Y-124771341D01*
X170685100Y-124928434D01*
X170773255Y-125101448D01*
X170833259Y-125286123D01*
X170863635Y-125477911D01*
X170863635Y-125672089D01*
X170833259Y-125863877D01*
X170773255Y-126048552D01*
X170685100Y-126221566D01*
X170570964Y-126378659D01*
X170433659Y-126515964D01*
X170276566Y-126630100D01*
X170103552Y-126718255D01*
X169918877Y-126778259D01*
X169727089Y-126808635D01*
X169532911Y-126808635D01*
X169341123Y-126778259D01*
X169156448Y-126718255D01*
X168983434Y-126630100D01*
X168826341Y-126515964D01*
X168689036Y-126378659D01*
X168574900Y-126221566D01*
X168486745Y-126048552D01*
X168426741Y-125863877D01*
X168396365Y-125672089D01*
X168396365Y-125477911D01*
X168426741Y-125286123D01*
X168486745Y-125101448D01*
X168574900Y-124928434D01*
X168689036Y-124771341D01*
X168826341Y-124634036D01*
X168983434Y-124519900D01*
X169156448Y-124431745D01*
X169341123Y-124371741D01*
X169532911Y-124341365D01*
X169727089Y-124341365D01*
X169918877Y-124371741D01*
G37*
G36*
X173093877Y-124371741D02*
G01*
X173278552Y-124431745D01*
X173451566Y-124519900D01*
X173608659Y-124634036D01*
X173745964Y-124771341D01*
X173860100Y-124928434D01*
X173948255Y-125101448D01*
X174008259Y-125286123D01*
X174038635Y-125477911D01*
X174038635Y-125672089D01*
X174008259Y-125863877D01*
X173948255Y-126048552D01*
X173860100Y-126221566D01*
X173745964Y-126378659D01*
X173608659Y-126515964D01*
X173451566Y-126630100D01*
X173278552Y-126718255D01*
X173093877Y-126778259D01*
X172902089Y-126808635D01*
X172707911Y-126808635D01*
X172516123Y-126778259D01*
X172331448Y-126718255D01*
X172158434Y-126630100D01*
X172001341Y-126515964D01*
X171864036Y-126378659D01*
X171749900Y-126221566D01*
X171661745Y-126048552D01*
X171601741Y-125863877D01*
X171571365Y-125672089D01*
X171571365Y-125477911D01*
X171601741Y-125286123D01*
X171661745Y-125101448D01*
X171749900Y-124928434D01*
X171864036Y-124771341D01*
X172001341Y-124634036D01*
X172158434Y-124519900D01*
X172331448Y-124431745D01*
X172516123Y-124371741D01*
X172707911Y-124341365D01*
X172902089Y-124341365D01*
X173093877Y-124371741D01*
G37*
G36*
X142797085Y-123644538D02*
G01*
X142983632Y-123705151D01*
X143158401Y-123794200D01*
X143317088Y-123909493D01*
X143455785Y-124048190D01*
X143571078Y-124206877D01*
X143660127Y-124381646D01*
X143720740Y-124568193D01*
X143751425Y-124761926D01*
X143751425Y-124958074D01*
X143720740Y-125151807D01*
X143660127Y-125338354D01*
X143571078Y-125513123D01*
X143455785Y-125671810D01*
X143317088Y-125810507D01*
X143158401Y-125925800D01*
X142983632Y-126014849D01*
X142797085Y-126075462D01*
X142603352Y-126106147D01*
X142407204Y-126106147D01*
X142213471Y-126075462D01*
X142026924Y-126014849D01*
X141852155Y-125925800D01*
X141693468Y-125810507D01*
X141554771Y-125671810D01*
X141439478Y-125513123D01*
X141350429Y-125338354D01*
X141289816Y-125151807D01*
X141259131Y-124958074D01*
X141259131Y-124761926D01*
X141289816Y-124568193D01*
X141350429Y-124381646D01*
X141439478Y-124206877D01*
X141554771Y-124048190D01*
X141693468Y-123909493D01*
X141852155Y-123794200D01*
X142026924Y-123705151D01*
X142213471Y-123644538D01*
X142407204Y-123613853D01*
X142603352Y-123613853D01*
X142797085Y-123644538D01*
G37*
G36*
X148918963Y-123757969D02*
G01*
X148927636Y-123761798D01*
X148935203Y-123762901D01*
X148982501Y-123786023D01*
X149019819Y-123802501D01*
X149023274Y-123805956D01*
X149024198Y-123806408D01*
X149093869Y-123876079D01*
X149094320Y-123877002D01*
X149097777Y-123880459D01*
X149114256Y-123917782D01*
X149137376Y-123965073D01*
X149138478Y-123972639D01*
X149142309Y-123981315D01*
X149150278Y-124050000D01*
X149150278Y-125150000D01*
X149142309Y-125218685D01*
X149138477Y-125227361D01*
X149137376Y-125234925D01*
X149114263Y-125282202D01*
X149097777Y-125319541D01*
X149094319Y-125322998D01*
X149093869Y-125323920D01*
X149024198Y-125393591D01*
X149023276Y-125394041D01*
X149019819Y-125397499D01*
X148982485Y-125413983D01*
X148935204Y-125437098D01*
X148927639Y-125438200D01*
X148918963Y-125442031D01*
X148850278Y-125450000D01*
X147750278Y-125450000D01*
X147681593Y-125442031D01*
X147672916Y-125438200D01*
X147665352Y-125437098D01*
X147618065Y-125413981D01*
X147580737Y-125397499D01*
X147577280Y-125394042D01*
X147576357Y-125393591D01*
X147506686Y-125323920D01*
X147506234Y-125322996D01*
X147502779Y-125319541D01*
X147486303Y-125282228D01*
X147463179Y-125234926D01*
X147462076Y-125227357D01*
X147458247Y-125218685D01*
X147450278Y-125150000D01*
X147450278Y-124050000D01*
X147458247Y-123981315D01*
X147462076Y-123972642D01*
X147463179Y-123965074D01*
X147486306Y-123917766D01*
X147502779Y-123880459D01*
X147506233Y-123877004D01*
X147506686Y-123876079D01*
X147576357Y-123806408D01*
X147577282Y-123805955D01*
X147580737Y-123802501D01*
X147618039Y-123786030D01*
X147665351Y-123762901D01*
X147672920Y-123761798D01*
X147681593Y-123757969D01*
X147750278Y-123750000D01*
X148850278Y-123750000D01*
X148918963Y-123757969D01*
G37*
G36*
X156167020Y-123786601D02*
G01*
X156320965Y-123850367D01*
X156459512Y-123942941D01*
X156577337Y-124060766D01*
X156669911Y-124199313D01*
X156733677Y-124353258D01*
X156766185Y-124516685D01*
X156766185Y-124683315D01*
X156733677Y-124846742D01*
X156669911Y-125000687D01*
X156577337Y-125139234D01*
X156459512Y-125257059D01*
X156320965Y-125349633D01*
X156167020Y-125413399D01*
X156003593Y-125445907D01*
X155836963Y-125445907D01*
X155673536Y-125413399D01*
X155519591Y-125349633D01*
X155381044Y-125257059D01*
X155263219Y-125139234D01*
X155170645Y-125000687D01*
X155106879Y-124846742D01*
X155074371Y-124683315D01*
X155074371Y-124516685D01*
X155106879Y-124353258D01*
X155170645Y-124199313D01*
X155263219Y-124060766D01*
X155381044Y-123942941D01*
X155519591Y-123850367D01*
X155673536Y-123786601D01*
X155836963Y-123754093D01*
X156003593Y-123754093D01*
X156167020Y-123786601D01*
G37*
G36*
X174918677Y-123547208D02*
G01*
X175041958Y-123618384D01*
X175142616Y-123719042D01*
X175213792Y-123842323D01*
X175250635Y-123979824D01*
X175250635Y-124122176D01*
X175213792Y-124259677D01*
X175142616Y-124382958D01*
X175041958Y-124483616D01*
X174918677Y-124554792D01*
X174781176Y-124591635D01*
X174638824Y-124591635D01*
X174501323Y-124554792D01*
X174378042Y-124483616D01*
X174277384Y-124382958D01*
X174206208Y-124259677D01*
X174169365Y-124122176D01*
X174169365Y-123979824D01*
X174206208Y-123842323D01*
X174277384Y-123719042D01*
X174378042Y-123618384D01*
X174501323Y-123547208D01*
X174638824Y-123510365D01*
X174781176Y-123510365D01*
X174918677Y-123547208D01*
G37*
G36*
X169838677Y-122531208D02*
G01*
X169961958Y-122602384D01*
X170062616Y-122703042D01*
X170133792Y-122826323D01*
X170170635Y-122963824D01*
X170170635Y-123106176D01*
X170133792Y-123243677D01*
X170062616Y-123366958D01*
X169961958Y-123467616D01*
X169838677Y-123538792D01*
X169701176Y-123575635D01*
X169558824Y-123575635D01*
X169421323Y-123538792D01*
X169298042Y-123467616D01*
X169197384Y-123366958D01*
X169126208Y-123243677D01*
X169089365Y-123106176D01*
X169089365Y-122963824D01*
X169126208Y-122826323D01*
X169197384Y-122703042D01*
X169298042Y-122602384D01*
X169421323Y-122531208D01*
X169558824Y-122494365D01*
X169701176Y-122494365D01*
X169838677Y-122531208D01*
G37*
G36*
X102775770Y-121490907D02*
G01*
X102947827Y-121562175D01*
X103102674Y-121665640D01*
X103234360Y-121797326D01*
X103337825Y-121952173D01*
X103409093Y-122124230D01*
X103445425Y-122306884D01*
X103445425Y-122493116D01*
X103409093Y-122675770D01*
X103337825Y-122847827D01*
X103234360Y-123002674D01*
X103102674Y-123134360D01*
X102947827Y-123237825D01*
X102775770Y-123309093D01*
X102593116Y-123345425D01*
X102406884Y-123345425D01*
X102224230Y-123309093D01*
X102052173Y-123237825D01*
X101897326Y-123134360D01*
X101765640Y-123002674D01*
X101662175Y-122847827D01*
X101590907Y-122675770D01*
X101554575Y-122493116D01*
X101554575Y-122306884D01*
X101590907Y-122124230D01*
X101662175Y-121952173D01*
X101765640Y-121797326D01*
X101897326Y-121665640D01*
X102052173Y-121562175D01*
X102224230Y-121490907D01*
X102406884Y-121454575D01*
X102593116Y-121454575D01*
X102775770Y-121490907D01*
G37*
G36*
X174918677Y-121515208D02*
G01*
X175041958Y-121586384D01*
X175142616Y-121687042D01*
X175213792Y-121810323D01*
X175250635Y-121947824D01*
X175250635Y-122090176D01*
X175213792Y-122227677D01*
X175142616Y-122350958D01*
X175041958Y-122451616D01*
X174918677Y-122522792D01*
X174781176Y-122559635D01*
X174638824Y-122559635D01*
X174501323Y-122522792D01*
X174378042Y-122451616D01*
X174277384Y-122350958D01*
X174206208Y-122227677D01*
X174169365Y-122090176D01*
X174169365Y-121947824D01*
X174206208Y-121810323D01*
X174277384Y-121687042D01*
X174378042Y-121586384D01*
X174501323Y-121515208D01*
X174638824Y-121478365D01*
X174781176Y-121478365D01*
X174918677Y-121515208D01*
G37*
G36*
X169918877Y-119291741D02*
G01*
X170103552Y-119351745D01*
X170276566Y-119439900D01*
X170433659Y-119554036D01*
X170570964Y-119691341D01*
X170685100Y-119848434D01*
X170773255Y-120021448D01*
X170833259Y-120206123D01*
X170863635Y-120397911D01*
X170863635Y-120592089D01*
X170833259Y-120783877D01*
X170773255Y-120968552D01*
X170685100Y-121141566D01*
X170570964Y-121298659D01*
X170433659Y-121435964D01*
X170276566Y-121550100D01*
X170103552Y-121638255D01*
X169918877Y-121698259D01*
X169727089Y-121728635D01*
X169532911Y-121728635D01*
X169341123Y-121698259D01*
X169156448Y-121638255D01*
X168983434Y-121550100D01*
X168826341Y-121435964D01*
X168689036Y-121298659D01*
X168574900Y-121141566D01*
X168486745Y-120968552D01*
X168426741Y-120783877D01*
X168396365Y-120592089D01*
X168396365Y-120397911D01*
X168426741Y-120206123D01*
X168486745Y-120021448D01*
X168574900Y-119848434D01*
X168689036Y-119691341D01*
X168826341Y-119554036D01*
X168983434Y-119439900D01*
X169156448Y-119351745D01*
X169341123Y-119291741D01*
X169532911Y-119261365D01*
X169727089Y-119261365D01*
X169918877Y-119291741D01*
G37*
G36*
X173093877Y-119291741D02*
G01*
X173278552Y-119351745D01*
X173451566Y-119439900D01*
X173608659Y-119554036D01*
X173745964Y-119691341D01*
X173860100Y-119848434D01*
X173948255Y-120021448D01*
X174008259Y-120206123D01*
X174038635Y-120397911D01*
X174038635Y-120592089D01*
X174008259Y-120783877D01*
X173948255Y-120968552D01*
X173860100Y-121141566D01*
X173745964Y-121298659D01*
X173608659Y-121435964D01*
X173451566Y-121550100D01*
X173278552Y-121638255D01*
X173093877Y-121698259D01*
X172902089Y-121728635D01*
X172707911Y-121728635D01*
X172516123Y-121698259D01*
X172331448Y-121638255D01*
X172158434Y-121550100D01*
X172001341Y-121435964D01*
X171864036Y-121298659D01*
X171749900Y-121141566D01*
X171661745Y-120968552D01*
X171601741Y-120783877D01*
X171571365Y-120592089D01*
X171571365Y-120397911D01*
X171601741Y-120206123D01*
X171661745Y-120021448D01*
X171749900Y-119848434D01*
X171864036Y-119691341D01*
X172001341Y-119554036D01*
X172158434Y-119439900D01*
X172331448Y-119351745D01*
X172516123Y-119291741D01*
X172707911Y-119261365D01*
X172902089Y-119261365D01*
X173093877Y-119291741D01*
G37*
G36*
X102775770Y-116490907D02*
G01*
X102947827Y-116562175D01*
X103102674Y-116665640D01*
X103234360Y-116797326D01*
X103337825Y-116952173D01*
X103409093Y-117124230D01*
X103445425Y-117306884D01*
X103445425Y-117493116D01*
X103409093Y-117675770D01*
X103337825Y-117847827D01*
X103234360Y-118002674D01*
X103102674Y-118134360D01*
X102947827Y-118237825D01*
X102775770Y-118309093D01*
X102593116Y-118345425D01*
X102406884Y-118345425D01*
X102224230Y-118309093D01*
X102052173Y-118237825D01*
X101897326Y-118134360D01*
X101765640Y-118002674D01*
X101662175Y-117847827D01*
X101590907Y-117675770D01*
X101554575Y-117493116D01*
X101554575Y-117306884D01*
X101590907Y-117124230D01*
X101662175Y-116952173D01*
X101765640Y-116797326D01*
X101897326Y-116665640D01*
X102052173Y-116562175D01*
X102224230Y-116490907D01*
X102406884Y-116454575D01*
X102593116Y-116454575D01*
X102775770Y-116490907D01*
G37*
G36*
X186893894Y-112755086D02*
G01*
X186904458Y-112755086D01*
X186956477Y-112763325D01*
X187096877Y-112781809D01*
X187131138Y-112790989D01*
X187160185Y-112795590D01*
X187216045Y-112813740D01*
X187305338Y-112837666D01*
X187362309Y-112861264D01*
X187406428Y-112875599D01*
X187447755Y-112896656D01*
X187504733Y-112920257D01*
X187584803Y-112966485D01*
X187637123Y-112993144D01*
X187660909Y-113010425D01*
X187691624Y-113028159D01*
X187803975Y-113114369D01*
X187846589Y-113145330D01*
X187854058Y-113152799D01*
X187862848Y-113159544D01*
X188015455Y-113312151D01*
X188022199Y-113320940D01*
X188029670Y-113328411D01*
X188060634Y-113371030D01*
X188146840Y-113483375D01*
X188164572Y-113514087D01*
X188181856Y-113537877D01*
X188208517Y-113590203D01*
X188254742Y-113670266D01*
X188278340Y-113727237D01*
X188299401Y-113768572D01*
X188313738Y-113812696D01*
X188337333Y-113869661D01*
X188361255Y-113958941D01*
X188379410Y-114014815D01*
X188384011Y-114043867D01*
X188393190Y-114078122D01*
X188411673Y-114218514D01*
X188419914Y-114270542D01*
X188419914Y-114281105D01*
X188421360Y-114292089D01*
X188421360Y-114507910D01*
X188419914Y-114518893D01*
X188419914Y-114529458D01*
X188411672Y-114581490D01*
X188393190Y-114721877D01*
X188384011Y-114756129D01*
X188379410Y-114785185D01*
X188361254Y-114841063D01*
X188337333Y-114930338D01*
X188313739Y-114987298D01*
X188299401Y-115031428D01*
X188278337Y-115072766D01*
X188254742Y-115129733D01*
X188208521Y-115209788D01*
X188181856Y-115262123D01*
X188164569Y-115285916D01*
X188146840Y-115316624D01*
X188060648Y-115428950D01*
X188029670Y-115471589D01*
X188022195Y-115479063D01*
X188015455Y-115487848D01*
X187862848Y-115640455D01*
X187854063Y-115647195D01*
X187846589Y-115654670D01*
X187803950Y-115685648D01*
X187691624Y-115771840D01*
X187660916Y-115789569D01*
X187637123Y-115806856D01*
X187584788Y-115833521D01*
X187504733Y-115879742D01*
X187447766Y-115903337D01*
X187406428Y-115924401D01*
X187362298Y-115938739D01*
X187305338Y-115962333D01*
X187216063Y-115986254D01*
X187160185Y-116004410D01*
X187131129Y-116009011D01*
X187096877Y-116018190D01*
X186956490Y-116036672D01*
X186904458Y-116044914D01*
X186893893Y-116044914D01*
X186882910Y-116046360D01*
X186667090Y-116046360D01*
X186656107Y-116044914D01*
X186645542Y-116044914D01*
X186593511Y-116036672D01*
X186453122Y-116018190D01*
X186418867Y-116009011D01*
X186389815Y-116004410D01*
X186333941Y-115986255D01*
X186244661Y-115962333D01*
X186187696Y-115938738D01*
X186143572Y-115924401D01*
X186102237Y-115903340D01*
X186045266Y-115879742D01*
X185965203Y-115833517D01*
X185912877Y-115806856D01*
X185889087Y-115789572D01*
X185858375Y-115771840D01*
X185746030Y-115685634D01*
X185703411Y-115654670D01*
X185695940Y-115647199D01*
X185687151Y-115640455D01*
X185534544Y-115487848D01*
X185527799Y-115479058D01*
X185520330Y-115471589D01*
X185489369Y-115428975D01*
X185403159Y-115316624D01*
X185385425Y-115285909D01*
X185368144Y-115262123D01*
X185341485Y-115209803D01*
X185295257Y-115129733D01*
X185271656Y-115072755D01*
X185250599Y-115031428D01*
X185236264Y-114987309D01*
X185212666Y-114930338D01*
X185188740Y-114841045D01*
X185170590Y-114785185D01*
X185165989Y-114756138D01*
X185156809Y-114721877D01*
X185138325Y-114581477D01*
X185130086Y-114529458D01*
X185130086Y-114518893D01*
X185128640Y-114507910D01*
X185128640Y-114292089D01*
X185130086Y-114281105D01*
X185130086Y-114270542D01*
X185138324Y-114218527D01*
X185156809Y-114078122D01*
X185165989Y-114043858D01*
X185170590Y-114014815D01*
X185188738Y-113958959D01*
X185212666Y-113869661D01*
X185236265Y-113812685D01*
X185250599Y-113768572D01*
X185271654Y-113727248D01*
X185295257Y-113670266D01*
X185341489Y-113590188D01*
X185368144Y-113537877D01*
X185385423Y-113514094D01*
X185403159Y-113483375D01*
X185489383Y-113371005D01*
X185520330Y-113328411D01*
X185527796Y-113320944D01*
X185534544Y-113312151D01*
X185687151Y-113159544D01*
X185695944Y-113152796D01*
X185703411Y-113145330D01*
X185746005Y-113114383D01*
X185858375Y-113028159D01*
X185889094Y-113010423D01*
X185912877Y-112993144D01*
X185965188Y-112966489D01*
X186045266Y-112920257D01*
X186102248Y-112896654D01*
X186143572Y-112875599D01*
X186187685Y-112861265D01*
X186244661Y-112837666D01*
X186333959Y-112813738D01*
X186389815Y-112795590D01*
X186418858Y-112790989D01*
X186453122Y-112781809D01*
X186593524Y-112763324D01*
X186645542Y-112755086D01*
X186656106Y-112755086D01*
X186667090Y-112753640D01*
X186882910Y-112753640D01*
X186893894Y-112755086D01*
G37*
G36*
X152669134Y-113903806D02*
G01*
X152685355Y-113914645D01*
X152696194Y-113930866D01*
X152700000Y-113950000D01*
X152700000Y-115650000D01*
X152696194Y-115669134D01*
X152685355Y-115685355D01*
X152669134Y-115696194D01*
X152650000Y-115700000D01*
X150950000Y-115700000D01*
X150930866Y-115696194D01*
X150914645Y-115685355D01*
X150903806Y-115669134D01*
X150900000Y-115650000D01*
X150900000Y-113950000D01*
X150903806Y-113930866D01*
X150914645Y-113914645D01*
X150930866Y-113903806D01*
X150950000Y-113900000D01*
X152650000Y-113900000D01*
X152669134Y-113903806D01*
G37*
G36*
X157569134Y-113903806D02*
G01*
X157585355Y-113914645D01*
X157596194Y-113930866D01*
X157600000Y-113950000D01*
X157600000Y-115650000D01*
X157596194Y-115669134D01*
X157585355Y-115685355D01*
X157569134Y-115696194D01*
X157550000Y-115700000D01*
X155850000Y-115700000D01*
X155830866Y-115696194D01*
X155814645Y-115685355D01*
X155803806Y-115669134D01*
X155800000Y-115650000D01*
X155800000Y-113950000D01*
X155803806Y-113930866D01*
X155814645Y-113914645D01*
X155830866Y-113903806D01*
X155850000Y-113900000D01*
X157550000Y-113900000D01*
X157569134Y-113903806D01*
G37*
G36*
X119041256Y-113938754D02*
G01*
X119204257Y-114006271D01*
X119350954Y-114104291D01*
X119475709Y-114229046D01*
X119573729Y-114375743D01*
X119641246Y-114538744D01*
X119675666Y-114711785D01*
X119675666Y-114888215D01*
X119641246Y-115061256D01*
X119573729Y-115224257D01*
X119475709Y-115370954D01*
X119350954Y-115495709D01*
X119204257Y-115593729D01*
X119041256Y-115661246D01*
X118868215Y-115695666D01*
X118691785Y-115695666D01*
X118518744Y-115661246D01*
X118355743Y-115593729D01*
X118209046Y-115495709D01*
X118084291Y-115370954D01*
X117986271Y-115224257D01*
X117918754Y-115061256D01*
X117884334Y-114888215D01*
X117884334Y-114711785D01*
X117918754Y-114538744D01*
X117986271Y-114375743D01*
X118084291Y-114229046D01*
X118209046Y-114104291D01*
X118355743Y-114006271D01*
X118518744Y-113938754D01*
X118691785Y-113904334D01*
X118868215Y-113904334D01*
X119041256Y-113938754D01*
G37*
G36*
X121581256Y-113938754D02*
G01*
X121744257Y-114006271D01*
X121890954Y-114104291D01*
X122015709Y-114229046D01*
X122113729Y-114375743D01*
X122181246Y-114538744D01*
X122215666Y-114711785D01*
X122215666Y-114888215D01*
X122181246Y-115061256D01*
X122113729Y-115224257D01*
X122015709Y-115370954D01*
X121890954Y-115495709D01*
X121744257Y-115593729D01*
X121581256Y-115661246D01*
X121408215Y-115695666D01*
X121231785Y-115695666D01*
X121058744Y-115661246D01*
X120895743Y-115593729D01*
X120749046Y-115495709D01*
X120624291Y-115370954D01*
X120526271Y-115224257D01*
X120458754Y-115061256D01*
X120424334Y-114888215D01*
X120424334Y-114711785D01*
X120458754Y-114538744D01*
X120526271Y-114375743D01*
X120624291Y-114229046D01*
X120749046Y-114104291D01*
X120895743Y-114006271D01*
X121058744Y-113938754D01*
X121231785Y-113904334D01*
X121408215Y-113904334D01*
X121581256Y-113938754D01*
G37*
G36*
X124121256Y-113938754D02*
G01*
X124284257Y-114006271D01*
X124430954Y-114104291D01*
X124555709Y-114229046D01*
X124653729Y-114375743D01*
X124721246Y-114538744D01*
X124755666Y-114711785D01*
X124755666Y-114888215D01*
X124721246Y-115061256D01*
X124653729Y-115224257D01*
X124555709Y-115370954D01*
X124430954Y-115495709D01*
X124284257Y-115593729D01*
X124121256Y-115661246D01*
X123948215Y-115695666D01*
X123771785Y-115695666D01*
X123598744Y-115661246D01*
X123435743Y-115593729D01*
X123289046Y-115495709D01*
X123164291Y-115370954D01*
X123066271Y-115224257D01*
X122998754Y-115061256D01*
X122964334Y-114888215D01*
X122964334Y-114711785D01*
X122998754Y-114538744D01*
X123066271Y-114375743D01*
X123164291Y-114229046D01*
X123289046Y-114104291D01*
X123435743Y-114006271D01*
X123598744Y-113938754D01*
X123771785Y-113904334D01*
X123948215Y-113904334D01*
X124121256Y-113938754D01*
G37*
G36*
X126661256Y-113938754D02*
G01*
X126824257Y-114006271D01*
X126970954Y-114104291D01*
X127095709Y-114229046D01*
X127193729Y-114375743D01*
X127261246Y-114538744D01*
X127295666Y-114711785D01*
X127295666Y-114888215D01*
X127261246Y-115061256D01*
X127193729Y-115224257D01*
X127095709Y-115370954D01*
X126970954Y-115495709D01*
X126824257Y-115593729D01*
X126661256Y-115661246D01*
X126488215Y-115695666D01*
X126311785Y-115695666D01*
X126138744Y-115661246D01*
X125975743Y-115593729D01*
X125829046Y-115495709D01*
X125704291Y-115370954D01*
X125606271Y-115224257D01*
X125538754Y-115061256D01*
X125504334Y-114888215D01*
X125504334Y-114711785D01*
X125538754Y-114538744D01*
X125606271Y-114375743D01*
X125704291Y-114229046D01*
X125829046Y-114104291D01*
X125975743Y-114006271D01*
X126138744Y-113938754D01*
X126311785Y-113904334D01*
X126488215Y-113904334D01*
X126661256Y-113938754D01*
G37*
G36*
X129201256Y-113938754D02*
G01*
X129364257Y-114006271D01*
X129510954Y-114104291D01*
X129635709Y-114229046D01*
X129733729Y-114375743D01*
X129801246Y-114538744D01*
X129835666Y-114711785D01*
X129835666Y-114888215D01*
X129801246Y-115061256D01*
X129733729Y-115224257D01*
X129635709Y-115370954D01*
X129510954Y-115495709D01*
X129364257Y-115593729D01*
X129201256Y-115661246D01*
X129028215Y-115695666D01*
X128851785Y-115695666D01*
X128678744Y-115661246D01*
X128515743Y-115593729D01*
X128369046Y-115495709D01*
X128244291Y-115370954D01*
X128146271Y-115224257D01*
X128078754Y-115061256D01*
X128044334Y-114888215D01*
X128044334Y-114711785D01*
X128078754Y-114538744D01*
X128146271Y-114375743D01*
X128244291Y-114229046D01*
X128369046Y-114104291D01*
X128515743Y-114006271D01*
X128678744Y-113938754D01*
X128851785Y-113904334D01*
X129028215Y-113904334D01*
X129201256Y-113938754D01*
G37*
G36*
X131741256Y-113938754D02*
G01*
X131904257Y-114006271D01*
X132050954Y-114104291D01*
X132175709Y-114229046D01*
X132273729Y-114375743D01*
X132341246Y-114538744D01*
X132375666Y-114711785D01*
X132375666Y-114888215D01*
X132341246Y-115061256D01*
X132273729Y-115224257D01*
X132175709Y-115370954D01*
X132050954Y-115495709D01*
X131904257Y-115593729D01*
X131741256Y-115661246D01*
X131568215Y-115695666D01*
X131391785Y-115695666D01*
X131218744Y-115661246D01*
X131055743Y-115593729D01*
X130909046Y-115495709D01*
X130784291Y-115370954D01*
X130686271Y-115224257D01*
X130618754Y-115061256D01*
X130584334Y-114888215D01*
X130584334Y-114711785D01*
X130618754Y-114538744D01*
X130686271Y-114375743D01*
X130784291Y-114229046D01*
X130909046Y-114104291D01*
X131055743Y-114006271D01*
X131218744Y-113938754D01*
X131391785Y-113904334D01*
X131568215Y-113904334D01*
X131741256Y-113938754D01*
G37*
G36*
X134281256Y-113938754D02*
G01*
X134444257Y-114006271D01*
X134590954Y-114104291D01*
X134715709Y-114229046D01*
X134813729Y-114375743D01*
X134881246Y-114538744D01*
X134915666Y-114711785D01*
X134915666Y-114888215D01*
X134881246Y-115061256D01*
X134813729Y-115224257D01*
X134715709Y-115370954D01*
X134590954Y-115495709D01*
X134444257Y-115593729D01*
X134281256Y-115661246D01*
X134108215Y-115695666D01*
X133931785Y-115695666D01*
X133758744Y-115661246D01*
X133595743Y-115593729D01*
X133449046Y-115495709D01*
X133324291Y-115370954D01*
X133226271Y-115224257D01*
X133158754Y-115061256D01*
X133124334Y-114888215D01*
X133124334Y-114711785D01*
X133158754Y-114538744D01*
X133226271Y-114375743D01*
X133324291Y-114229046D01*
X133449046Y-114104291D01*
X133595743Y-114006271D01*
X133758744Y-113938754D01*
X133931785Y-113904334D01*
X134108215Y-113904334D01*
X134281256Y-113938754D01*
G37*
G36*
X136821256Y-113938754D02*
G01*
X136984257Y-114006271D01*
X137130954Y-114104291D01*
X137255709Y-114229046D01*
X137353729Y-114375743D01*
X137421246Y-114538744D01*
X137455666Y-114711785D01*
X137455666Y-114888215D01*
X137421246Y-115061256D01*
X137353729Y-115224257D01*
X137255709Y-115370954D01*
X137130954Y-115495709D01*
X136984257Y-115593729D01*
X136821256Y-115661246D01*
X136648215Y-115695666D01*
X136471785Y-115695666D01*
X136298744Y-115661246D01*
X136135743Y-115593729D01*
X135989046Y-115495709D01*
X135864291Y-115370954D01*
X135766271Y-115224257D01*
X135698754Y-115061256D01*
X135664334Y-114888215D01*
X135664334Y-114711785D01*
X135698754Y-114538744D01*
X135766271Y-114375743D01*
X135864291Y-114229046D01*
X135989046Y-114104291D01*
X136135743Y-114006271D01*
X136298744Y-113938754D01*
X136471785Y-113904334D01*
X136648215Y-113904334D01*
X136821256Y-113938754D01*
G37*
G36*
X139361256Y-113938754D02*
G01*
X139524257Y-114006271D01*
X139670954Y-114104291D01*
X139795709Y-114229046D01*
X139893729Y-114375743D01*
X139961246Y-114538744D01*
X139995666Y-114711785D01*
X139995666Y-114888215D01*
X139961246Y-115061256D01*
X139893729Y-115224257D01*
X139795709Y-115370954D01*
X139670954Y-115495709D01*
X139524257Y-115593729D01*
X139361256Y-115661246D01*
X139188215Y-115695666D01*
X139011785Y-115695666D01*
X138838744Y-115661246D01*
X138675743Y-115593729D01*
X138529046Y-115495709D01*
X138404291Y-115370954D01*
X138306271Y-115224257D01*
X138238754Y-115061256D01*
X138204334Y-114888215D01*
X138204334Y-114711785D01*
X138238754Y-114538744D01*
X138306271Y-114375743D01*
X138404291Y-114229046D01*
X138529046Y-114104291D01*
X138675743Y-114006271D01*
X138838744Y-113938754D01*
X139011785Y-113904334D01*
X139188215Y-113904334D01*
X139361256Y-113938754D01*
G37*
G36*
X141901256Y-113938754D02*
G01*
X142064257Y-114006271D01*
X142210954Y-114104291D01*
X142335709Y-114229046D01*
X142433729Y-114375743D01*
X142501246Y-114538744D01*
X142535666Y-114711785D01*
X142535666Y-114888215D01*
X142501246Y-115061256D01*
X142433729Y-115224257D01*
X142335709Y-115370954D01*
X142210954Y-115495709D01*
X142064257Y-115593729D01*
X141901256Y-115661246D01*
X141728215Y-115695666D01*
X141551785Y-115695666D01*
X141378744Y-115661246D01*
X141215743Y-115593729D01*
X141069046Y-115495709D01*
X140944291Y-115370954D01*
X140846271Y-115224257D01*
X140778754Y-115061256D01*
X140744334Y-114888215D01*
X140744334Y-114711785D01*
X140778754Y-114538744D01*
X140846271Y-114375743D01*
X140944291Y-114229046D01*
X141069046Y-114104291D01*
X141215743Y-114006271D01*
X141378744Y-113938754D01*
X141551785Y-113904334D01*
X141728215Y-113904334D01*
X141901256Y-113938754D01*
G37*
G36*
X144441256Y-113938754D02*
G01*
X144604257Y-114006271D01*
X144750954Y-114104291D01*
X144875709Y-114229046D01*
X144973729Y-114375743D01*
X145041246Y-114538744D01*
X145075666Y-114711785D01*
X145075666Y-114888215D01*
X145041246Y-115061256D01*
X144973729Y-115224257D01*
X144875709Y-115370954D01*
X144750954Y-115495709D01*
X144604257Y-115593729D01*
X144441256Y-115661246D01*
X144268215Y-115695666D01*
X144091785Y-115695666D01*
X143918744Y-115661246D01*
X143755743Y-115593729D01*
X143609046Y-115495709D01*
X143484291Y-115370954D01*
X143386271Y-115224257D01*
X143318754Y-115061256D01*
X143284334Y-114888215D01*
X143284334Y-114711785D01*
X143318754Y-114538744D01*
X143386271Y-114375743D01*
X143484291Y-114229046D01*
X143609046Y-114104291D01*
X143755743Y-114006271D01*
X143918744Y-113938754D01*
X144091785Y-113904334D01*
X144268215Y-113904334D01*
X144441256Y-113938754D01*
G37*
G36*
X146981256Y-113938754D02*
G01*
X147144257Y-114006271D01*
X147290954Y-114104291D01*
X147415709Y-114229046D01*
X147513729Y-114375743D01*
X147581246Y-114538744D01*
X147615666Y-114711785D01*
X147615666Y-114888215D01*
X147581246Y-115061256D01*
X147513729Y-115224257D01*
X147415709Y-115370954D01*
X147290954Y-115495709D01*
X147144257Y-115593729D01*
X146981256Y-115661246D01*
X146808215Y-115695666D01*
X146631785Y-115695666D01*
X146458744Y-115661246D01*
X146295743Y-115593729D01*
X146149046Y-115495709D01*
X146024291Y-115370954D01*
X145926271Y-115224257D01*
X145858754Y-115061256D01*
X145824334Y-114888215D01*
X145824334Y-114711785D01*
X145858754Y-114538744D01*
X145926271Y-114375743D01*
X146024291Y-114229046D01*
X146149046Y-114104291D01*
X146295743Y-114006271D01*
X146458744Y-113938754D01*
X146631785Y-113904334D01*
X146808215Y-113904334D01*
X146981256Y-113938754D01*
G37*
G36*
X149521256Y-113938754D02*
G01*
X149684257Y-114006271D01*
X149830954Y-114104291D01*
X149955709Y-114229046D01*
X150053729Y-114375743D01*
X150121246Y-114538744D01*
X150155666Y-114711785D01*
X150155666Y-114888215D01*
X150121246Y-115061256D01*
X150053729Y-115224257D01*
X149955709Y-115370954D01*
X149830954Y-115495709D01*
X149684257Y-115593729D01*
X149521256Y-115661246D01*
X149348215Y-115695666D01*
X149171785Y-115695666D01*
X148998744Y-115661246D01*
X148835743Y-115593729D01*
X148689046Y-115495709D01*
X148564291Y-115370954D01*
X148466271Y-115224257D01*
X148398754Y-115061256D01*
X148364334Y-114888215D01*
X148364334Y-114711785D01*
X148398754Y-114538744D01*
X148466271Y-114375743D01*
X148564291Y-114229046D01*
X148689046Y-114104291D01*
X148835743Y-114006271D01*
X148998744Y-113938754D01*
X149171785Y-113904334D01*
X149348215Y-113904334D01*
X149521256Y-113938754D01*
G37*
G36*
X159501256Y-113938754D02*
G01*
X159664257Y-114006271D01*
X159810954Y-114104291D01*
X159935709Y-114229046D01*
X160033729Y-114375743D01*
X160101246Y-114538744D01*
X160135666Y-114711785D01*
X160135666Y-114888215D01*
X160101246Y-115061256D01*
X160033729Y-115224257D01*
X159935709Y-115370954D01*
X159810954Y-115495709D01*
X159664257Y-115593729D01*
X159501256Y-115661246D01*
X159328215Y-115695666D01*
X159151785Y-115695666D01*
X158978744Y-115661246D01*
X158815743Y-115593729D01*
X158669046Y-115495709D01*
X158544291Y-115370954D01*
X158446271Y-115224257D01*
X158378754Y-115061256D01*
X158344334Y-114888215D01*
X158344334Y-114711785D01*
X158378754Y-114538744D01*
X158446271Y-114375743D01*
X158544291Y-114229046D01*
X158669046Y-114104291D01*
X158815743Y-114006271D01*
X158978744Y-113938754D01*
X159151785Y-113904334D01*
X159328215Y-113904334D01*
X159501256Y-113938754D01*
G37*
G36*
X162041256Y-113938754D02*
G01*
X162204257Y-114006271D01*
X162350954Y-114104291D01*
X162475709Y-114229046D01*
X162573729Y-114375743D01*
X162641246Y-114538744D01*
X162675666Y-114711785D01*
X162675666Y-114888215D01*
X162641246Y-115061256D01*
X162573729Y-115224257D01*
X162475709Y-115370954D01*
X162350954Y-115495709D01*
X162204257Y-115593729D01*
X162041256Y-115661246D01*
X161868215Y-115695666D01*
X161691785Y-115695666D01*
X161518744Y-115661246D01*
X161355743Y-115593729D01*
X161209046Y-115495709D01*
X161084291Y-115370954D01*
X160986271Y-115224257D01*
X160918754Y-115061256D01*
X160884334Y-114888215D01*
X160884334Y-114711785D01*
X160918754Y-114538744D01*
X160986271Y-114375743D01*
X161084291Y-114229046D01*
X161209046Y-114104291D01*
X161355743Y-114006271D01*
X161518744Y-113938754D01*
X161691785Y-113904334D01*
X161868215Y-113904334D01*
X162041256Y-113938754D01*
G37*
G36*
X164581256Y-113938754D02*
G01*
X164744257Y-114006271D01*
X164890954Y-114104291D01*
X165015709Y-114229046D01*
X165113729Y-114375743D01*
X165181246Y-114538744D01*
X165215666Y-114711785D01*
X165215666Y-114888215D01*
X165181246Y-115061256D01*
X165113729Y-115224257D01*
X165015709Y-115370954D01*
X164890954Y-115495709D01*
X164744257Y-115593729D01*
X164581256Y-115661246D01*
X164408215Y-115695666D01*
X164231785Y-115695666D01*
X164058744Y-115661246D01*
X163895743Y-115593729D01*
X163749046Y-115495709D01*
X163624291Y-115370954D01*
X163526271Y-115224257D01*
X163458754Y-115061256D01*
X163424334Y-114888215D01*
X163424334Y-114711785D01*
X163458754Y-114538744D01*
X163526271Y-114375743D01*
X163624291Y-114229046D01*
X163749046Y-114104291D01*
X163895743Y-114006271D01*
X164058744Y-113938754D01*
X164231785Y-113904334D01*
X164408215Y-113904334D01*
X164581256Y-113938754D01*
G37*
G36*
X167121256Y-113938754D02*
G01*
X167284257Y-114006271D01*
X167430954Y-114104291D01*
X167555709Y-114229046D01*
X167653729Y-114375743D01*
X167721246Y-114538744D01*
X167755666Y-114711785D01*
X167755666Y-114888215D01*
X167721246Y-115061256D01*
X167653729Y-115224257D01*
X167555709Y-115370954D01*
X167430954Y-115495709D01*
X167284257Y-115593729D01*
X167121256Y-115661246D01*
X166948215Y-115695666D01*
X166771785Y-115695666D01*
X166598744Y-115661246D01*
X166435743Y-115593729D01*
X166289046Y-115495709D01*
X166164291Y-115370954D01*
X166066271Y-115224257D01*
X165998754Y-115061256D01*
X165964334Y-114888215D01*
X165964334Y-114711785D01*
X165998754Y-114538744D01*
X166066271Y-114375743D01*
X166164291Y-114229046D01*
X166289046Y-114104291D01*
X166435743Y-114006271D01*
X166598744Y-113938754D01*
X166771785Y-113904334D01*
X166948215Y-113904334D01*
X167121256Y-113938754D01*
G37*
G36*
X169661256Y-113938754D02*
G01*
X169824257Y-114006271D01*
X169970954Y-114104291D01*
X170095709Y-114229046D01*
X170193729Y-114375743D01*
X170261246Y-114538744D01*
X170295666Y-114711785D01*
X170295666Y-114888215D01*
X170261246Y-115061256D01*
X170193729Y-115224257D01*
X170095709Y-115370954D01*
X169970954Y-115495709D01*
X169824257Y-115593729D01*
X169661256Y-115661246D01*
X169488215Y-115695666D01*
X169311785Y-115695666D01*
X169138744Y-115661246D01*
X168975743Y-115593729D01*
X168829046Y-115495709D01*
X168704291Y-115370954D01*
X168606271Y-115224257D01*
X168538754Y-115061256D01*
X168504334Y-114888215D01*
X168504334Y-114711785D01*
X168538754Y-114538744D01*
X168606271Y-114375743D01*
X168704291Y-114229046D01*
X168829046Y-114104291D01*
X168975743Y-114006271D01*
X169138744Y-113938754D01*
X169311785Y-113904334D01*
X169488215Y-113904334D01*
X169661256Y-113938754D01*
G37*
G36*
X102088612Y-108683371D02*
G01*
X102223199Y-108710142D01*
X102349978Y-108762655D01*
X102464075Y-108838893D01*
X102561107Y-108935925D01*
X102637345Y-109050022D01*
X102689858Y-109176801D01*
X102716629Y-109311388D01*
X102716629Y-109448612D01*
X102689858Y-109583199D01*
X102637345Y-109709978D01*
X102561107Y-109824075D01*
X102464075Y-109921107D01*
X102349978Y-109997345D01*
X102223199Y-110049858D01*
X102088612Y-110076629D01*
X102020000Y-110080000D01*
X102018768Y-110080000D01*
X101221232Y-110080000D01*
X101220000Y-110080000D01*
X101151388Y-110076629D01*
X101016801Y-110049858D01*
X100890022Y-109997345D01*
X100775925Y-109921107D01*
X100678893Y-109824075D01*
X100602655Y-109709978D01*
X100550142Y-109583199D01*
X100523371Y-109448612D01*
X100523371Y-109311388D01*
X100550142Y-109176801D01*
X100602655Y-109050022D01*
X100678893Y-108935925D01*
X100775925Y-108838893D01*
X100890022Y-108762655D01*
X101016801Y-108710142D01*
X101151388Y-108683371D01*
X101220000Y-108680000D01*
X102020000Y-108680000D01*
X102088612Y-108683371D01*
G37*
G36*
X106388612Y-108683371D02*
G01*
X106523199Y-108710142D01*
X106649978Y-108762655D01*
X106764075Y-108838893D01*
X106861107Y-108935925D01*
X106937345Y-109050022D01*
X106989858Y-109176801D01*
X107016629Y-109311388D01*
X107016629Y-109448612D01*
X106989858Y-109583199D01*
X106937345Y-109709978D01*
X106861107Y-109824075D01*
X106764075Y-109921107D01*
X106649978Y-109997345D01*
X106523199Y-110049858D01*
X106388612Y-110076629D01*
X106320000Y-110080000D01*
X106318768Y-110080000D01*
X105321232Y-110080000D01*
X105320000Y-110080000D01*
X105251388Y-110076629D01*
X105116801Y-110049858D01*
X104990022Y-109997345D01*
X104875925Y-109921107D01*
X104778893Y-109824075D01*
X104702655Y-109709978D01*
X104650142Y-109583199D01*
X104623371Y-109448612D01*
X104623371Y-109311388D01*
X104650142Y-109176801D01*
X104702655Y-109050022D01*
X104778893Y-108935925D01*
X104875925Y-108838893D01*
X104990022Y-108762655D01*
X105116801Y-108710142D01*
X105251388Y-108683371D01*
X105320000Y-108680000D01*
X106320000Y-108680000D01*
X106388612Y-108683371D01*
G37*
G36*
X105433939Y-107616642D02*
G01*
X105513067Y-107662326D01*
X105577674Y-107726933D01*
X105623358Y-107806061D01*
X105647006Y-107894316D01*
X105647006Y-107985684D01*
X105623358Y-108073939D01*
X105577674Y-108153067D01*
X105513067Y-108217674D01*
X105433939Y-108263358D01*
X105345684Y-108287006D01*
X105254316Y-108287006D01*
X105166061Y-108263358D01*
X105086933Y-108217674D01*
X105022326Y-108153067D01*
X104976642Y-108073939D01*
X104952994Y-107985684D01*
X104952994Y-107894316D01*
X104976642Y-107806061D01*
X105022326Y-107726933D01*
X105086933Y-107662326D01*
X105166061Y-107616642D01*
X105254316Y-107592994D01*
X105345684Y-107592994D01*
X105433939Y-107616642D01*
G37*
G36*
X101114805Y-106772836D02*
G01*
X101182628Y-106811994D01*
X101238006Y-106867372D01*
X101277164Y-106935195D01*
X101297433Y-107010842D01*
X101297433Y-107089158D01*
X101277164Y-107164805D01*
X101238006Y-107232628D01*
X101182628Y-107288006D01*
X101114805Y-107327164D01*
X101039158Y-107347433D01*
X100960842Y-107347433D01*
X100885195Y-107327164D01*
X100817372Y-107288006D01*
X100761994Y-107232628D01*
X100722836Y-107164805D01*
X100702567Y-107089158D01*
X100702567Y-107010842D01*
X100722836Y-106935195D01*
X100761994Y-106867372D01*
X100817372Y-106811994D01*
X100885195Y-106772836D01*
X100960842Y-106752567D01*
X101039158Y-106752567D01*
X101114805Y-106772836D01*
G37*
G36*
X103114805Y-106772836D02*
G01*
X103182628Y-106811994D01*
X103238006Y-106867372D01*
X103277164Y-106935195D01*
X103297433Y-107010842D01*
X103297433Y-107089158D01*
X103277164Y-107164805D01*
X103238006Y-107232628D01*
X103182628Y-107288006D01*
X103114805Y-107327164D01*
X103039158Y-107347433D01*
X102960842Y-107347433D01*
X102885195Y-107327164D01*
X102817372Y-107288006D01*
X102761994Y-107232628D01*
X102722836Y-107164805D01*
X102702567Y-107089158D01*
X102702567Y-107010842D01*
X102722836Y-106935195D01*
X102761994Y-106867372D01*
X102817372Y-106811994D01*
X102885195Y-106772836D01*
X102960842Y-106752567D01*
X103039158Y-106752567D01*
X103114805Y-106772836D01*
G37*
G36*
X101114805Y-102772836D02*
G01*
X101182628Y-102811994D01*
X101238006Y-102867372D01*
X101277164Y-102935195D01*
X101297433Y-103010842D01*
X101297433Y-103089158D01*
X101277164Y-103164805D01*
X101238006Y-103232628D01*
X101182628Y-103288006D01*
X101114805Y-103327164D01*
X101039158Y-103347433D01*
X100960842Y-103347433D01*
X100885195Y-103327164D01*
X100817372Y-103288006D01*
X100761994Y-103232628D01*
X100722836Y-103164805D01*
X100702567Y-103089158D01*
X100702567Y-103010842D01*
X100722836Y-102935195D01*
X100761994Y-102867372D01*
X100817372Y-102811994D01*
X100885195Y-102772836D01*
X100960842Y-102752567D01*
X101039158Y-102752567D01*
X101114805Y-102772836D01*
G37*
G36*
X103114805Y-102772836D02*
G01*
X103182628Y-102811994D01*
X103238006Y-102867372D01*
X103277164Y-102935195D01*
X103297433Y-103010842D01*
X103297433Y-103089158D01*
X103277164Y-103164805D01*
X103238006Y-103232628D01*
X103182628Y-103288006D01*
X103114805Y-103327164D01*
X103039158Y-103347433D01*
X102960842Y-103347433D01*
X102885195Y-103327164D01*
X102817372Y-103288006D01*
X102761994Y-103232628D01*
X102722836Y-103164805D01*
X102702567Y-103089158D01*
X102702567Y-103010842D01*
X102722836Y-102935195D01*
X102761994Y-102867372D01*
X102817372Y-102811994D01*
X102885195Y-102772836D01*
X102960842Y-102752567D01*
X103039158Y-102752567D01*
X103114805Y-102772836D01*
G37*
G36*
X105433939Y-101836642D02*
G01*
X105513067Y-101882326D01*
X105577674Y-101946933D01*
X105623358Y-102026061D01*
X105647006Y-102114316D01*
X105647006Y-102205684D01*
X105623358Y-102293939D01*
X105577674Y-102373067D01*
X105513067Y-102437674D01*
X105433939Y-102483358D01*
X105345684Y-102507006D01*
X105254316Y-102507006D01*
X105166061Y-102483358D01*
X105086933Y-102437674D01*
X105022326Y-102373067D01*
X104976642Y-102293939D01*
X104952994Y-102205684D01*
X104952994Y-102114316D01*
X104976642Y-102026061D01*
X105022326Y-101946933D01*
X105086933Y-101882326D01*
X105166061Y-101836642D01*
X105254316Y-101812994D01*
X105345684Y-101812994D01*
X105433939Y-101836642D01*
G37*
G36*
X102088612Y-100023371D02*
G01*
X102223199Y-100050142D01*
X102349978Y-100102655D01*
X102464075Y-100178893D01*
X102561107Y-100275925D01*
X102637345Y-100390022D01*
X102689858Y-100516801D01*
X102716629Y-100651388D01*
X102716629Y-100788612D01*
X102689858Y-100923199D01*
X102637345Y-101049978D01*
X102561107Y-101164075D01*
X102464075Y-101261107D01*
X102349978Y-101337345D01*
X102223199Y-101389858D01*
X102088612Y-101416629D01*
X102020000Y-101420000D01*
X102018768Y-101420000D01*
X101221232Y-101420000D01*
X101220000Y-101420000D01*
X101151388Y-101416629D01*
X101016801Y-101389858D01*
X100890022Y-101337345D01*
X100775925Y-101261107D01*
X100678893Y-101164075D01*
X100602655Y-101049978D01*
X100550142Y-100923199D01*
X100523371Y-100788612D01*
X100523371Y-100651388D01*
X100550142Y-100516801D01*
X100602655Y-100390022D01*
X100678893Y-100275925D01*
X100775925Y-100178893D01*
X100890022Y-100102655D01*
X101016801Y-100050142D01*
X101151388Y-100023371D01*
X101220000Y-100020000D01*
X102020000Y-100020000D01*
X102088612Y-100023371D01*
G37*
G36*
X106388612Y-100023371D02*
G01*
X106523199Y-100050142D01*
X106649978Y-100102655D01*
X106764075Y-100178893D01*
X106861107Y-100275925D01*
X106937345Y-100390022D01*
X106989858Y-100516801D01*
X107016629Y-100651388D01*
X107016629Y-100788612D01*
X106989858Y-100923199D01*
X106937345Y-101049978D01*
X106861107Y-101164075D01*
X106764075Y-101261107D01*
X106649978Y-101337345D01*
X106523199Y-101389858D01*
X106388612Y-101416629D01*
X106320000Y-101420000D01*
X106318768Y-101420000D01*
X105321232Y-101420000D01*
X105320000Y-101420000D01*
X105251388Y-101416629D01*
X105116801Y-101389858D01*
X104990022Y-101337345D01*
X104875925Y-101261107D01*
X104778893Y-101164075D01*
X104702655Y-101049978D01*
X104650142Y-100923199D01*
X104623371Y-100788612D01*
X104623371Y-100651388D01*
X104650142Y-100516801D01*
X104702655Y-100390022D01*
X104778893Y-100275925D01*
X104875925Y-100178893D01*
X104990022Y-100102655D01*
X105116801Y-100050142D01*
X105251388Y-100023371D01*
X105320000Y-100020000D01*
X106320000Y-100020000D01*
X106388612Y-100023371D01*
G37*
G36*
X103218894Y-91455086D02*
G01*
X103229458Y-91455086D01*
X103281477Y-91463325D01*
X103421877Y-91481809D01*
X103456138Y-91490989D01*
X103485185Y-91495590D01*
X103541045Y-91513740D01*
X103630338Y-91537666D01*
X103687309Y-91561264D01*
X103731428Y-91575599D01*
X103772755Y-91596656D01*
X103829733Y-91620257D01*
X103909803Y-91666485D01*
X103962123Y-91693144D01*
X103985909Y-91710425D01*
X104016624Y-91728159D01*
X104128975Y-91814369D01*
X104171589Y-91845330D01*
X104179058Y-91852799D01*
X104187848Y-91859544D01*
X104340455Y-92012151D01*
X104347199Y-92020940D01*
X104354670Y-92028411D01*
X104385634Y-92071030D01*
X104471840Y-92183375D01*
X104489572Y-92214087D01*
X104506856Y-92237877D01*
X104533517Y-92290203D01*
X104579742Y-92370266D01*
X104603340Y-92427237D01*
X104624401Y-92468572D01*
X104638738Y-92512696D01*
X104662333Y-92569661D01*
X104686255Y-92658941D01*
X104704410Y-92714815D01*
X104709011Y-92743867D01*
X104718190Y-92778122D01*
X104736673Y-92918514D01*
X104744914Y-92970542D01*
X104744914Y-92981105D01*
X104746360Y-92992089D01*
X104746360Y-93207910D01*
X104744914Y-93218893D01*
X104744914Y-93229458D01*
X104736672Y-93281490D01*
X104718190Y-93421877D01*
X104709011Y-93456129D01*
X104704410Y-93485185D01*
X104686254Y-93541063D01*
X104662333Y-93630338D01*
X104638739Y-93687298D01*
X104624401Y-93731428D01*
X104603337Y-93772766D01*
X104579742Y-93829733D01*
X104533521Y-93909788D01*
X104506856Y-93962123D01*
X104489569Y-93985916D01*
X104471840Y-94016624D01*
X104385648Y-94128950D01*
X104354670Y-94171589D01*
X104347195Y-94179063D01*
X104340455Y-94187848D01*
X104187848Y-94340455D01*
X104179063Y-94347195D01*
X104171589Y-94354670D01*
X104128950Y-94385648D01*
X104016624Y-94471840D01*
X103985916Y-94489569D01*
X103962123Y-94506856D01*
X103909788Y-94533521D01*
X103829733Y-94579742D01*
X103772766Y-94603337D01*
X103731428Y-94624401D01*
X103687298Y-94638739D01*
X103630338Y-94662333D01*
X103541063Y-94686254D01*
X103485185Y-94704410D01*
X103456129Y-94709011D01*
X103421877Y-94718190D01*
X103281490Y-94736672D01*
X103229458Y-94744914D01*
X103218893Y-94744914D01*
X103207910Y-94746360D01*
X102992090Y-94746360D01*
X102981107Y-94744914D01*
X102970542Y-94744914D01*
X102918511Y-94736672D01*
X102778122Y-94718190D01*
X102743867Y-94709011D01*
X102714815Y-94704410D01*
X102658941Y-94686255D01*
X102569661Y-94662333D01*
X102512696Y-94638738D01*
X102468572Y-94624401D01*
X102427237Y-94603340D01*
X102370266Y-94579742D01*
X102290203Y-94533517D01*
X102237877Y-94506856D01*
X102214087Y-94489572D01*
X102183375Y-94471840D01*
X102071030Y-94385634D01*
X102028411Y-94354670D01*
X102020940Y-94347199D01*
X102012151Y-94340455D01*
X101859544Y-94187848D01*
X101852799Y-94179058D01*
X101845330Y-94171589D01*
X101814369Y-94128975D01*
X101728159Y-94016624D01*
X101710425Y-93985909D01*
X101693144Y-93962123D01*
X101666485Y-93909803D01*
X101620257Y-93829733D01*
X101596656Y-93772755D01*
X101575599Y-93731428D01*
X101561264Y-93687309D01*
X101537666Y-93630338D01*
X101513740Y-93541045D01*
X101495590Y-93485185D01*
X101490989Y-93456138D01*
X101481809Y-93421877D01*
X101463325Y-93281477D01*
X101455086Y-93229458D01*
X101455086Y-93218893D01*
X101453640Y-93207910D01*
X101453640Y-92992089D01*
X101455086Y-92981105D01*
X101455086Y-92970542D01*
X101463324Y-92918527D01*
X101481809Y-92778122D01*
X101490989Y-92743858D01*
X101495590Y-92714815D01*
X101513738Y-92658959D01*
X101537666Y-92569661D01*
X101561265Y-92512685D01*
X101575599Y-92468572D01*
X101596654Y-92427248D01*
X101620257Y-92370266D01*
X101666489Y-92290188D01*
X101693144Y-92237877D01*
X101710423Y-92214094D01*
X101728159Y-92183375D01*
X101814383Y-92071005D01*
X101845330Y-92028411D01*
X101852796Y-92020944D01*
X101859544Y-92012151D01*
X102012151Y-91859544D01*
X102020944Y-91852796D01*
X102028411Y-91845330D01*
X102071005Y-91814383D01*
X102183375Y-91728159D01*
X102214094Y-91710423D01*
X102237877Y-91693144D01*
X102290188Y-91666489D01*
X102370266Y-91620257D01*
X102427248Y-91596654D01*
X102468572Y-91575599D01*
X102512685Y-91561265D01*
X102569661Y-91537666D01*
X102658959Y-91513738D01*
X102714815Y-91495590D01*
X102743858Y-91490989D01*
X102778122Y-91481809D01*
X102918524Y-91463324D01*
X102970542Y-91455086D01*
X102981106Y-91455086D01*
X102992090Y-91453640D01*
X103207910Y-91453640D01*
X103218894Y-91455086D01*
G37*
G36*
X180498199Y-85650142D02*
G01*
X180624978Y-85702655D01*
X180739075Y-85778893D01*
X180836107Y-85875925D01*
X180912345Y-85990022D01*
X180964858Y-86116801D01*
X180991629Y-86251388D01*
X180995000Y-86320000D01*
X180995000Y-87320000D01*
X180991629Y-87388612D01*
X180964858Y-87523199D01*
X180912345Y-87649978D01*
X180836107Y-87764075D01*
X180739075Y-87861107D01*
X180624978Y-87937345D01*
X180498199Y-87989858D01*
X180363612Y-88016629D01*
X180226388Y-88016629D01*
X180091801Y-87989858D01*
X179965022Y-87937345D01*
X179850925Y-87861107D01*
X179753893Y-87764075D01*
X179677655Y-87649978D01*
X179625142Y-87523199D01*
X179598371Y-87388612D01*
X179595000Y-87320000D01*
X179595000Y-86320000D01*
X179598371Y-86251388D01*
X179625142Y-86116801D01*
X179677655Y-85990022D01*
X179753893Y-85875925D01*
X179850925Y-85778893D01*
X179965022Y-85702655D01*
X180091801Y-85650142D01*
X180226388Y-85623371D01*
X180363612Y-85623371D01*
X180498199Y-85650142D01*
G37*
G36*
X189158199Y-85650142D02*
G01*
X189284978Y-85702655D01*
X189399075Y-85778893D01*
X189496107Y-85875925D01*
X189572345Y-85990022D01*
X189624858Y-86116801D01*
X189651629Y-86251388D01*
X189655000Y-86320000D01*
X189655000Y-87320000D01*
X189651629Y-87388612D01*
X189624858Y-87523199D01*
X189572345Y-87649978D01*
X189496107Y-87764075D01*
X189399075Y-87861107D01*
X189284978Y-87937345D01*
X189158199Y-87989858D01*
X189023612Y-88016629D01*
X188886388Y-88016629D01*
X188751801Y-87989858D01*
X188625022Y-87937345D01*
X188510925Y-87861107D01*
X188413893Y-87764075D01*
X188337655Y-87649978D01*
X188285142Y-87523199D01*
X188258371Y-87388612D01*
X188255000Y-87320000D01*
X188255000Y-86320000D01*
X188258371Y-86251388D01*
X188285142Y-86116801D01*
X188337655Y-85990022D01*
X188413893Y-85875925D01*
X188510925Y-85778893D01*
X188625022Y-85702655D01*
X188751801Y-85650142D01*
X188886388Y-85623371D01*
X189023612Y-85623371D01*
X189158199Y-85650142D01*
G37*
G36*
X181868939Y-85976642D02*
G01*
X181948067Y-86022326D01*
X182012674Y-86086933D01*
X182058358Y-86166061D01*
X182082006Y-86254316D01*
X182082006Y-86345684D01*
X182058358Y-86433939D01*
X182012674Y-86513067D01*
X181948067Y-86577674D01*
X181868939Y-86623358D01*
X181780684Y-86647006D01*
X181689316Y-86647006D01*
X181601061Y-86623358D01*
X181521933Y-86577674D01*
X181457326Y-86513067D01*
X181411642Y-86433939D01*
X181387994Y-86345684D01*
X181387994Y-86254316D01*
X181411642Y-86166061D01*
X181457326Y-86086933D01*
X181521933Y-86022326D01*
X181601061Y-85976642D01*
X181689316Y-85952994D01*
X181780684Y-85952994D01*
X181868939Y-85976642D01*
G37*
G36*
X187648939Y-85976642D02*
G01*
X187728067Y-86022326D01*
X187792674Y-86086933D01*
X187838358Y-86166061D01*
X187862006Y-86254316D01*
X187862006Y-86345684D01*
X187838358Y-86433939D01*
X187792674Y-86513067D01*
X187728067Y-86577674D01*
X187648939Y-86623358D01*
X187560684Y-86647006D01*
X187469316Y-86647006D01*
X187381061Y-86623358D01*
X187301933Y-86577674D01*
X187237326Y-86513067D01*
X187191642Y-86433939D01*
X187167994Y-86345684D01*
X187167994Y-86254316D01*
X187191642Y-86166061D01*
X187237326Y-86086933D01*
X187301933Y-86022326D01*
X187381061Y-85976642D01*
X187469316Y-85952994D01*
X187560684Y-85952994D01*
X187648939Y-85976642D01*
G37*
G36*
X110119134Y-83553806D02*
G01*
X110135355Y-83564645D01*
X110146194Y-83580866D01*
X110150000Y-83600000D01*
X110150000Y-85400000D01*
X110146194Y-85419134D01*
X110135355Y-85435355D01*
X110119134Y-85446194D01*
X110100000Y-85450000D01*
X108300000Y-85450000D01*
X108280866Y-85446194D01*
X108264645Y-85435355D01*
X108253806Y-85419134D01*
X108250000Y-85400000D01*
X108250000Y-83600000D01*
X108253806Y-83580866D01*
X108264645Y-83564645D01*
X108280866Y-83553806D01*
X108300000Y-83550000D01*
X110100000Y-83550000D01*
X110119134Y-83553806D01*
G37*
G36*
X114475770Y-83590907D02*
G01*
X114647827Y-83662175D01*
X114802674Y-83765640D01*
X114934360Y-83897326D01*
X115037825Y-84052173D01*
X115109093Y-84224230D01*
X115145425Y-84406884D01*
X115145425Y-84593116D01*
X115109093Y-84775770D01*
X115037825Y-84947827D01*
X114934360Y-85102674D01*
X114802674Y-85234360D01*
X114647827Y-85337825D01*
X114475770Y-85409093D01*
X114293116Y-85445425D01*
X114106884Y-85445425D01*
X113924230Y-85409093D01*
X113752173Y-85337825D01*
X113597326Y-85234360D01*
X113465640Y-85102674D01*
X113362175Y-84947827D01*
X113290907Y-84775770D01*
X113254575Y-84593116D01*
X113254575Y-84406884D01*
X113290907Y-84224230D01*
X113362175Y-84052173D01*
X113465640Y-83897326D01*
X113597326Y-83765640D01*
X113752173Y-83662175D01*
X113924230Y-83590907D01*
X114106884Y-83554575D01*
X114293116Y-83554575D01*
X114475770Y-83590907D01*
G37*
G36*
X182739805Y-83722836D02*
G01*
X182807628Y-83761994D01*
X182863006Y-83817372D01*
X182902164Y-83885195D01*
X182922433Y-83960842D01*
X182922433Y-84039158D01*
X182902164Y-84114805D01*
X182863006Y-84182628D01*
X182807628Y-84238006D01*
X182739805Y-84277164D01*
X182664158Y-84297433D01*
X182585842Y-84297433D01*
X182510195Y-84277164D01*
X182442372Y-84238006D01*
X182386994Y-84182628D01*
X182347836Y-84114805D01*
X182327567Y-84039158D01*
X182327567Y-83960842D01*
X182347836Y-83885195D01*
X182386994Y-83817372D01*
X182442372Y-83761994D01*
X182510195Y-83722836D01*
X182585842Y-83702567D01*
X182664158Y-83702567D01*
X182739805Y-83722836D01*
G37*
G36*
X186739805Y-83722836D02*
G01*
X186807628Y-83761994D01*
X186863006Y-83817372D01*
X186902164Y-83885195D01*
X186922433Y-83960842D01*
X186922433Y-84039158D01*
X186902164Y-84114805D01*
X186863006Y-84182628D01*
X186807628Y-84238006D01*
X186739805Y-84277164D01*
X186664158Y-84297433D01*
X186585842Y-84297433D01*
X186510195Y-84277164D01*
X186442372Y-84238006D01*
X186386994Y-84182628D01*
X186347836Y-84114805D01*
X186327567Y-84039158D01*
X186327567Y-83960842D01*
X186347836Y-83885195D01*
X186386994Y-83817372D01*
X186442372Y-83761994D01*
X186510195Y-83722836D01*
X186585842Y-83702567D01*
X186664158Y-83702567D01*
X186739805Y-83722836D01*
G37*
G36*
X175749134Y-82103806D02*
G01*
X175765355Y-82114645D01*
X175776194Y-82130866D01*
X175780000Y-82150000D01*
X175780000Y-83850000D01*
X175776194Y-83869134D01*
X175765355Y-83885355D01*
X175749134Y-83896194D01*
X175730000Y-83900000D01*
X174030000Y-83900000D01*
X174010866Y-83896194D01*
X173994645Y-83885355D01*
X173983806Y-83869134D01*
X173980000Y-83850000D01*
X173980000Y-82150000D01*
X173983806Y-82130866D01*
X173994645Y-82114645D01*
X174010866Y-82103806D01*
X174030000Y-82100000D01*
X175730000Y-82100000D01*
X175749134Y-82103806D01*
G37*
G36*
X162441256Y-82138754D02*
G01*
X162604257Y-82206271D01*
X162750954Y-82304291D01*
X162875709Y-82429046D01*
X162973729Y-82575743D01*
X163041246Y-82738744D01*
X163075666Y-82911785D01*
X163075666Y-83088215D01*
X163041246Y-83261256D01*
X162973729Y-83424257D01*
X162875709Y-83570954D01*
X162750954Y-83695709D01*
X162604257Y-83793729D01*
X162441256Y-83861246D01*
X162268215Y-83895666D01*
X162091785Y-83895666D01*
X161918744Y-83861246D01*
X161755743Y-83793729D01*
X161609046Y-83695709D01*
X161484291Y-83570954D01*
X161386271Y-83424257D01*
X161318754Y-83261256D01*
X161284334Y-83088215D01*
X161284334Y-82911785D01*
X161318754Y-82738744D01*
X161386271Y-82575743D01*
X161484291Y-82429046D01*
X161609046Y-82304291D01*
X161755743Y-82206271D01*
X161918744Y-82138754D01*
X162091785Y-82104334D01*
X162268215Y-82104334D01*
X162441256Y-82138754D01*
G37*
G36*
X164981256Y-82138754D02*
G01*
X165144257Y-82206271D01*
X165290954Y-82304291D01*
X165415709Y-82429046D01*
X165513729Y-82575743D01*
X165581246Y-82738744D01*
X165615666Y-82911785D01*
X165615666Y-83088215D01*
X165581246Y-83261256D01*
X165513729Y-83424257D01*
X165415709Y-83570954D01*
X165290954Y-83695709D01*
X165144257Y-83793729D01*
X164981256Y-83861246D01*
X164808215Y-83895666D01*
X164631785Y-83895666D01*
X164458744Y-83861246D01*
X164295743Y-83793729D01*
X164149046Y-83695709D01*
X164024291Y-83570954D01*
X163926271Y-83424257D01*
X163858754Y-83261256D01*
X163824334Y-83088215D01*
X163824334Y-82911785D01*
X163858754Y-82738744D01*
X163926271Y-82575743D01*
X164024291Y-82429046D01*
X164149046Y-82304291D01*
X164295743Y-82206271D01*
X164458744Y-82138754D01*
X164631785Y-82104334D01*
X164808215Y-82104334D01*
X164981256Y-82138754D01*
G37*
G36*
X167521256Y-82138754D02*
G01*
X167684257Y-82206271D01*
X167830954Y-82304291D01*
X167955709Y-82429046D01*
X168053729Y-82575743D01*
X168121246Y-82738744D01*
X168155666Y-82911785D01*
X168155666Y-83088215D01*
X168121246Y-83261256D01*
X168053729Y-83424257D01*
X167955709Y-83570954D01*
X167830954Y-83695709D01*
X167684257Y-83793729D01*
X167521256Y-83861246D01*
X167348215Y-83895666D01*
X167171785Y-83895666D01*
X166998744Y-83861246D01*
X166835743Y-83793729D01*
X166689046Y-83695709D01*
X166564291Y-83570954D01*
X166466271Y-83424257D01*
X166398754Y-83261256D01*
X166364334Y-83088215D01*
X166364334Y-82911785D01*
X166398754Y-82738744D01*
X166466271Y-82575743D01*
X166564291Y-82429046D01*
X166689046Y-82304291D01*
X166835743Y-82206271D01*
X166998744Y-82138754D01*
X167171785Y-82104334D01*
X167348215Y-82104334D01*
X167521256Y-82138754D01*
G37*
G36*
X170061256Y-82138754D02*
G01*
X170224257Y-82206271D01*
X170370954Y-82304291D01*
X170495709Y-82429046D01*
X170593729Y-82575743D01*
X170661246Y-82738744D01*
X170695666Y-82911785D01*
X170695666Y-83088215D01*
X170661246Y-83261256D01*
X170593729Y-83424257D01*
X170495709Y-83570954D01*
X170370954Y-83695709D01*
X170224257Y-83793729D01*
X170061256Y-83861246D01*
X169888215Y-83895666D01*
X169711785Y-83895666D01*
X169538744Y-83861246D01*
X169375743Y-83793729D01*
X169229046Y-83695709D01*
X169104291Y-83570954D01*
X169006271Y-83424257D01*
X168938754Y-83261256D01*
X168904334Y-83088215D01*
X168904334Y-82911785D01*
X168938754Y-82738744D01*
X169006271Y-82575743D01*
X169104291Y-82429046D01*
X169229046Y-82304291D01*
X169375743Y-82206271D01*
X169538744Y-82138754D01*
X169711785Y-82104334D01*
X169888215Y-82104334D01*
X170061256Y-82138754D01*
G37*
G36*
X172601256Y-82138754D02*
G01*
X172764257Y-82206271D01*
X172910954Y-82304291D01*
X173035709Y-82429046D01*
X173133729Y-82575743D01*
X173201246Y-82738744D01*
X173235666Y-82911785D01*
X173235666Y-83088215D01*
X173201246Y-83261256D01*
X173133729Y-83424257D01*
X173035709Y-83570954D01*
X172910954Y-83695709D01*
X172764257Y-83793729D01*
X172601256Y-83861246D01*
X172428215Y-83895666D01*
X172251785Y-83895666D01*
X172078744Y-83861246D01*
X171915743Y-83793729D01*
X171769046Y-83695709D01*
X171644291Y-83570954D01*
X171546271Y-83424257D01*
X171478754Y-83261256D01*
X171444334Y-83088215D01*
X171444334Y-82911785D01*
X171478754Y-82738744D01*
X171546271Y-82575743D01*
X171644291Y-82429046D01*
X171769046Y-82304291D01*
X171915743Y-82206271D01*
X172078744Y-82138754D01*
X172251785Y-82104334D01*
X172428215Y-82104334D01*
X172601256Y-82138754D01*
G37*
G36*
X180498199Y-81550142D02*
G01*
X180624978Y-81602655D01*
X180739075Y-81678893D01*
X180836107Y-81775925D01*
X180912345Y-81890022D01*
X180964858Y-82016801D01*
X180991629Y-82151388D01*
X180995000Y-82220000D01*
X180995000Y-83020000D01*
X180991629Y-83088612D01*
X180964858Y-83223199D01*
X180912345Y-83349978D01*
X180836107Y-83464075D01*
X180739075Y-83561107D01*
X180624978Y-83637345D01*
X180498199Y-83689858D01*
X180363612Y-83716629D01*
X180226388Y-83716629D01*
X180091801Y-83689858D01*
X179965022Y-83637345D01*
X179850925Y-83561107D01*
X179753893Y-83464075D01*
X179677655Y-83349978D01*
X179625142Y-83223199D01*
X179598371Y-83088612D01*
X179595000Y-83020000D01*
X179595000Y-82220000D01*
X179598371Y-82151388D01*
X179625142Y-82016801D01*
X179677655Y-81890022D01*
X179753893Y-81775925D01*
X179850925Y-81678893D01*
X179965022Y-81602655D01*
X180091801Y-81550142D01*
X180226388Y-81523371D01*
X180363612Y-81523371D01*
X180498199Y-81550142D01*
G37*
G36*
X189158199Y-81550142D02*
G01*
X189284978Y-81602655D01*
X189399075Y-81678893D01*
X189496107Y-81775925D01*
X189572345Y-81890022D01*
X189624858Y-82016801D01*
X189651629Y-82151388D01*
X189655000Y-82220000D01*
X189655000Y-83020000D01*
X189651629Y-83088612D01*
X189624858Y-83223199D01*
X189572345Y-83349978D01*
X189496107Y-83464075D01*
X189399075Y-83561107D01*
X189284978Y-83637345D01*
X189158199Y-83689858D01*
X189023612Y-83716629D01*
X188886388Y-83716629D01*
X188751801Y-83689858D01*
X188625022Y-83637345D01*
X188510925Y-83561107D01*
X188413893Y-83464075D01*
X188337655Y-83349978D01*
X188285142Y-83223199D01*
X188258371Y-83088612D01*
X188255000Y-83020000D01*
X188255000Y-82220000D01*
X188258371Y-82151388D01*
X188285142Y-82016801D01*
X188337655Y-81890022D01*
X188413893Y-81775925D01*
X188510925Y-81678893D01*
X188625022Y-81602655D01*
X188751801Y-81550142D01*
X188886388Y-81523371D01*
X189023612Y-81523371D01*
X189158199Y-81550142D01*
G37*
G36*
X182739805Y-81722836D02*
G01*
X182807628Y-81761994D01*
X182863006Y-81817372D01*
X182902164Y-81885195D01*
X182922433Y-81960842D01*
X182922433Y-82039158D01*
X182902164Y-82114805D01*
X182863006Y-82182628D01*
X182807628Y-82238006D01*
X182739805Y-82277164D01*
X182664158Y-82297433D01*
X182585842Y-82297433D01*
X182510195Y-82277164D01*
X182442372Y-82238006D01*
X182386994Y-82182628D01*
X182347836Y-82114805D01*
X182327567Y-82039158D01*
X182327567Y-81960842D01*
X182347836Y-81885195D01*
X182386994Y-81817372D01*
X182442372Y-81761994D01*
X182510195Y-81722836D01*
X182585842Y-81702567D01*
X182664158Y-81702567D01*
X182739805Y-81722836D01*
G37*
G36*
X186739805Y-81722836D02*
G01*
X186807628Y-81761994D01*
X186863006Y-81817372D01*
X186902164Y-81885195D01*
X186922433Y-81960842D01*
X186922433Y-82039158D01*
X186902164Y-82114805D01*
X186863006Y-82182628D01*
X186807628Y-82238006D01*
X186739805Y-82277164D01*
X186664158Y-82297433D01*
X186585842Y-82297433D01*
X186510195Y-82277164D01*
X186442372Y-82238006D01*
X186386994Y-82182628D01*
X186347836Y-82114805D01*
X186327567Y-82039158D01*
X186327567Y-81960842D01*
X186347836Y-81885195D01*
X186386994Y-81817372D01*
X186442372Y-81761994D01*
X186510195Y-81722836D01*
X186585842Y-81702567D01*
X186664158Y-81702567D01*
X186739805Y-81722836D01*
G37*
%LPD*%
M02*
