%TF.GenerationSoftware,KiCad,Pcbnew,10.0.3*%
%TF.CreationDate,2026-06-22T23:01:38+02:00*%
%TF.ProjectId,presstimer,70726573-7374-4696-9d65-722e6b696361,rev?*%
%TF.SameCoordinates,Original*%
%TF.FileFunction,Profile,NP*%
%FSLAX46Y46*%
G04 Gerber Fmt 4.6, Leading zero omitted, Abs format (unit mm)*
G04 Created by KiCad (PCBNEW 10.0.3) date 2026-06-22 23:01:38*
%MOMM*%
%LPD*%
G01*
G04 APERTURE LIST*
%TA.AperFunction,Profile*%
%ADD10C,0.050000*%
%TD*%
G04 APERTURE END LIST*
D10*
X99000000Y-80000000D02*
X192000000Y-80000000D01*
X192000000Y-152000000D01*
X99000000Y-152000000D01*
X99000000Y-80000000D01*
X118000000Y-131000000D02*
X120000000Y-131000000D01*
X120000000Y-149000000D01*
X118000000Y-149000000D01*
X118000000Y-131000000D01*
X127736068Y-130000000D02*
G75*
G02*
X123263932Y-130000000I-2236068J0D01*
G01*
X123263932Y-130000000D02*
G75*
G02*
X127736068Y-130000000I2236068J0D01*
G01*
X132500000Y-130000000D02*
G75*
G02*
X128027864Y-130000000I-2236068J0D01*
G01*
X128027864Y-130000000D02*
G75*
G02*
X132500000Y-130000000I2236068J0D01*
G01*
X135000000Y-136000000D02*
X137000000Y-136000000D01*
X137000000Y-148000000D01*
X135000000Y-148000000D01*
X135000000Y-136000000D01*
X139236068Y-126736068D02*
G75*
G02*
X134763932Y-126736068I-2236068J0D01*
G01*
X134763932Y-126736068D02*
G75*
G02*
X139236068Y-126736068I2236068J0D01*
G01*
X139000000Y-121500000D02*
X153000000Y-121500000D01*
X139000000Y-122500000D02*
X139000000Y-121500000D01*
X151000000Y-122500000D02*
X139000000Y-122500000D01*
X151000000Y-150000000D02*
X151000000Y-122500000D01*
X153000000Y-121500000D02*
X153000000Y-150000000D01*
X153000000Y-150000000D02*
X151000000Y-150000000D01*
X160500000Y-136000000D02*
X171500000Y-136000000D01*
X171500000Y-137500000D01*
X160500000Y-137500000D01*
X160500000Y-136000000D01*
X188236068Y-135263932D02*
G75*
G02*
X183763932Y-135263932I-2236068J0D01*
G01*
X183763932Y-135263932D02*
G75*
G02*
X188236068Y-135263932I2236068J0D01*
G01*
M02*
