M48
; DRILL file KiCad 10.0.3 date 2026-06-22T23:01:38
; FORMAT={-:-/ absolute / inch / decimal}
; #@! TF.CreationDate,2026-06-22T23:01:38+02:00
; #@! TF.GenerationSoftware,Kicad,Pcbnew,10.0.3
; #@! TF.FileFunction,Plated,1,4,PTH
FMAT,2
INCH
; #@! TA.AperFunction,Plated,PTH,ViaDrill
T1C0.0118
; #@! TA.AperFunction,Plated,PTH,ComponentDrill
T2C0.0118
; #@! TA.AperFunction,Plated,PTH,ViaDrill
T3C0.0157
; #@! TA.AperFunction,Plated,PTH,ViaDrill
T4C0.0197
; #@! TA.AperFunction,Plated,PTH,ComponentDrill
T5C0.0197
; #@! TA.AperFunction,Plated,PTH,ComponentDrill
T6C0.0315
; #@! TA.AperFunction,Plated,PTH,ComponentDrill
T7C0.0394
; #@! TA.AperFunction,Plated,PTH,ComponentDrill
T8C0.0472
; #@! TA.AperFunction,Plated,PTH,ComponentDrill
T9C0.0551
%
G90
G05
T1
X3.9843Y-4.252
X4.0Y-3.9213
X4.0315Y-4.2598
X4.0472Y-5.0709
X4.1654Y-4.3543
X4.1732Y-3.9213
X4.2441Y-4.0079
X4.2441Y-4.2677
X4.248Y-4.0709
X4.2795Y-4.0079
X4.2835Y-3.3858
X4.2835Y-4.2835
X4.315Y-5.0236
X4.3858Y-3.9606
X4.4094Y-3.9764
X4.4252Y-4.7323
X4.4488Y-4.189
X4.4567Y-5.0157
X4.5591Y-3.5906
X4.6142Y-4.0394
X4.6457Y-4.1535
X4.6614Y-4.1969
X4.685Y-3.4409
X4.7953Y-4.4646
X4.8031Y-3.8976
X4.8189Y-3.3228
X5.0827Y-4.1772
X5.0827Y-4.3701
X5.1339Y-4.0276
X5.1339Y-4.1772
X5.1496Y-3.7402
X5.2992Y-3.9685
X5.3051Y-3.4646
X5.3386Y-3.685
X5.3858Y-3.4724
X5.3976Y-3.937
X5.4567Y-3.4882
X5.563Y-4.1614
X5.5906Y-3.7323
X5.6535Y-3.9252
X5.6693Y-3.7795
X5.6693Y-3.8346
X5.6693Y-3.874
X5.6693Y-4.1614
X5.6732Y-3.9843
X5.7165Y-3.7402
X5.7205Y-4.315
X5.7677Y-3.9488
X5.7717Y-3.7402
X5.7835Y-4.311
X5.7953Y-3.9291
X5.8268Y-3.7402
X5.8268Y-3.937
X5.8661Y-3.7874
X5.8661Y-3.8425
X5.8661Y-3.8976
X5.874Y-3.9843
X5.8898Y-4.1299
X5.9528Y-4.126
X5.9961Y-4.0827
X6.0591Y-4.1063
X6.0866Y-3.5866
X6.0945Y-4.7756
X6.1063Y-3.8425
X6.2402Y-3.8701
X6.2441Y-3.6299
X6.2913Y-3.8622
X6.3031Y-3.937
X6.3228Y-4.8937
X6.3622Y-4.1535
X6.378Y-4.7795
X6.4173Y-3.5433
X6.4213Y-3.6732
X6.4213Y-4.1772
X6.5039Y-3.7283
X6.5157Y-4.6496
X6.5945Y-3.8661
X6.6024Y-4.0039
X6.6142Y-5.1654
X6.6299Y-3.6024
X6.6378Y-3.5197
X6.6654Y-4.0945
X6.6772Y-4.2795
X6.685Y-4.0591
X6.7165Y-4.5591
X6.7165Y-4.6732
X6.7874Y-3.3228
X6.7953Y-4.3622
X6.81Y-4.4055
X6.8268Y-3.9764
X6.8268Y-3.5354
X6.8435Y-4.4055
X6.8504Y-4.0
X6.8701Y-4.6063
X6.8847Y-4.9409
X6.9586Y-4.2559
X6.9803Y-4.689
X6.9882Y-4.5551
X7.0236Y-4.3937
X7.0394Y-3.5906
X7.0551Y-4.3071
X7.0787Y-4.1024
X7.0945Y-3.9528
X7.0945Y-4.8976
X7.1102Y-3.3543
X7.1181Y-3.4882
X7.1417Y-3.2362
X7.1417Y-3.5433
X7.1496Y-3.2913
X7.3268Y-3.5669
X7.3307Y-3.6535
X7.3937Y-3.2756
X7.3937Y-3.5984
X7.4173Y-3.4882
X7.4252Y-3.5748
X7.4331Y-3.315
X7.4488Y-3.4803
X7.4803Y-4.0315
X7.5039Y-3.5984
T2
X3.9764Y-4.0571
X3.9764Y-4.2146
X4.0551Y-4.0571
X4.0551Y-4.2146
X7.19Y-3.2283
X7.19Y-3.3071
X7.3474Y-3.2283
X7.3474Y-3.3071
T3
X4.937Y-4.0354
X6.9606Y-4.9409
X6.9843Y-4.311
T4
X4.0906Y-3.8504
X4.2638Y-4.2244
X4.2953Y-4.0709
T6
X4.1455Y-5.2948
X4.2943Y-5.2948
X5.8386Y-4.9055
X5.8386Y-5.0055
X6.1386Y-4.9055
X6.1386Y-5.0055
X6.4961Y-5.2455
X6.4961Y-5.5455
X6.5961Y-5.2455
X6.5961Y-5.5455
T7
X4.6764Y-4.5197
X4.7764Y-4.5197
X4.8764Y-4.5197
X4.9764Y-4.5197
X5.0764Y-4.5197
X5.1764Y-4.5197
X5.2764Y-4.5197
X5.3764Y-4.5197
X5.4764Y-4.5197
X5.5764Y-4.5197
X5.6764Y-4.5197
X5.7764Y-4.5197
X5.8764Y-4.5197
X5.9764Y-4.5197
X6.1693Y-4.5197
X6.2693Y-4.5197
X6.3693Y-4.5197
X6.385Y-3.2677
X6.4693Y-4.5197
X6.485Y-3.2677
X6.5693Y-4.5197
X6.585Y-3.2677
X6.6693Y-4.5197
X6.685Y-3.2677
X6.785Y-3.2677
X6.885Y-3.2677
T8
X5.6104Y-4.9157
X5.6104Y-5.5157
X6.4965Y-5.7736
X7.0965Y-5.7736
T9
X4.0354Y-4.622
X4.0354Y-4.8189
X4.0354Y-5.0157
X4.2992Y-3.3268
X4.4961Y-3.3268
X4.9409Y-5.811
X5.1378Y-5.811
X5.6085Y-5.811
X5.8053Y-5.811
X7.4016Y-5.5787
X7.4016Y-5.7756
T5
G00X4.0165Y-3.9654
M15
G01X3.985Y-3.9654
M16
G05
G00X4.0165Y-4.3063
M15
G01X3.985Y-4.3063
M16
G05
G00X4.1878Y-3.9654
M15
G01X4.1445Y-3.9654
M16
G05
G00X4.1878Y-4.3063
M15
G01X4.1445Y-4.3063
M16
G05
G00X7.0982Y-3.2685
M15
G01X7.0982Y-3.237
M16
G05
G00X7.0982Y-3.4398
M15
G01X7.0982Y-3.3965
M16
G05
G00X7.4392Y-3.2685
M15
G01X7.4392Y-3.237
M16
G05
G00X7.4392Y-3.4398
M15
G01X7.4392Y-3.3965
M16
G05
T8
G00X4.9333Y-5.2948
M15
G01X4.9451Y-5.2948
M16
G05
G00X5.1317Y-5.2948
M15
G01X5.1435Y-5.2948
M16
G05
M30
