%TF.GenerationSoftware,KiCad,Pcbnew,10.0.3*%
%TF.CreationDate,2026-06-22T11:34:40+02:00*%
%TF.ProjectId,presstimer,70726573-7374-4696-9d65-722e6b696361,rev?*%
%TF.SameCoordinates,Original*%
%TF.FileFunction,Profile,NP*%
%FSLAX46Y46*%
G04 Gerber Fmt 4.6, Leading zero omitted, Abs format (unit mm)*
G04 Created by KiCad (PCBNEW 10.0.3) date 2026-06-22 11:34:40*
%MOMM*%
%LPD*%
G01*
G04 APERTURE LIST*
%TA.AperFunction,Profile*%
%ADD10C,0.050000*%
%TD*%
G04 APERTURE END LIST*
D10*
X133600000Y-119800000D02*
X136200000Y-119800000D01*
X136200000Y-131200000D01*
X133600000Y-131200000D01*
X133600000Y-119800000D01*
X151000000Y-119800000D02*
X153600000Y-119800000D01*
X153600000Y-142600000D01*
X151000000Y-142600000D01*
X151000000Y-119800000D01*
X136200000Y-119800000D02*
X153600000Y-119800000D01*
X153600000Y-122600000D01*
X136200000Y-122600000D01*
X136200000Y-119800000D01*
X158800000Y-135400000D02*
X161600000Y-135400000D01*
X161600000Y-142300000D01*
X158800000Y-142300000D01*
X158800000Y-135400000D01*
X158800000Y-135400000D02*
X183000000Y-135400000D01*
X183000000Y-138000000D01*
X158800000Y-138000000D01*
X158800000Y-135400000D01*
X99000000Y-80000000D02*
X192000000Y-80000000D01*
X192000000Y-152000000D01*
X99000000Y-152000000D01*
X99000000Y-80000000D01*
X120100000Y-129200000D02*
X133600000Y-129200000D01*
X133600000Y-131200000D01*
X120100000Y-131200000D01*
X120100000Y-129200000D01*
X118600000Y-129200000D02*
X121600000Y-129200000D01*
X121600000Y-142600000D01*
X118600000Y-142600000D01*
X118600000Y-129200000D01*
M02*
